<?xml version="1.0" encoding="iso-8859-1"?>
<!-- Generator: Adobe Illustrator 19.0.0, SVG Export Plug-In . SVG Version: 6.00 Build 0)  -->
<svg version="1.1" id="Capa_1" xmlns="http://www.w3.org/2000/svg" xmlns:xlink="http://www.w3.org/1999/xlink" x="0px" y="0px"
	 viewBox="0 0 512.002 512.002" style="enable-background:new 0 0 512.002 512.002;" xml:space="preserve">
<path style="fill:#B9E8EF;" d="M390.436,148.999h-69.138c-58.395,0-105.733,47.338-105.733,105.732V277.1
	c0,25.275-20.489,45.763-45.763,45.763l0,0c-14.44,0-26.146-11.706-26.146-26.146v-34.504c0-6.261,3.782-11.837,9.518-14.348
	c34.004-14.884,57.764-48.826,57.764-88.321l0,0c0-5.78-4.686-10.466-10.466-10.466l0,0c-31.668,0-59.767,15.275-77.334,38.859
	c-6.908,9.274-20.931,9.274-27.839,0c-17.566-23.584-45.666-38.859-77.334-38.859l0,0c-5.78,0-10.466,4.686-10.466,10.466l0,0
	c0,39.495,23.76,73.437,57.764,88.321c5.736,2.51,9.518,8.087,9.518,14.348v43.395c0,51.742,41.945,93.688,93.688,93.688h199.797
	c75.24,0,136.233-60.994,136.233-136.234l0,0C504.5,200.067,453.432,148.999,390.436,148.999z"/>
<path style="fill:#ABDFEB;" d="M282.695,357.557h-12.607c-23.052,0-41.74,18.688-41.74,41.74l0,0h139.918
	c75.24,0,136.233-60.994,136.233-136.233l0,0h-85.618c-49.385,0-93.579,30.664-110.867,76.925l0,0
	C304.067,350.553,293.974,357.557,282.695,357.557z"/>
<g>
	<path style="fill:#8BCDD8;" d="M455.702,263.063c-0.177,15.075-1.702,37.033-9.587,59.977
		c-11.991,34.893-34.932,60.404-68.21,75.913c14.57-1.019,28.507-4.329,41.456-9.572c18.395-16.116,31.968-36.709,40.525-61.609
		c8.527-24.811,10.169-48.89,10.369-64.71h-14.553V263.063z"/>
	<path style="fill:#8BCDD8;" d="M409.865,263.408c-5.001,0.38-9.928,1.087-14.768,2.079c-3.813,70.972-35.02,116.976-90.955,133.809
		h36.394c25.857-15.322,44.815-38.549,56.561-69.432C406.721,304.563,409.23,279.823,409.865,263.408z"/>
</g>
<path style="fill:#ABDFEB;" d="M107.69,306.041c-1.095-24.681,6.272-47.875-19.116-69.34c-22.107-18.691-48.605-52.356-53.65-86.129
	c-5.506-0.978-11.171-1.493-16.958-1.493l0,0c-5.78,0-10.466,4.686-10.466,10.466l0,0c0,39.495,23.76,73.437,57.764,88.321
	c5.736,2.51,9.518,8.087,9.518,14.347v43.395c0,51.742,41.945,93.688,93.688,93.688h130.715
	C162.867,391.02,109.947,356.889,107.69,306.041z"/>
<g>
	<ellipse style="fill:#E4A2B7;" cx="336.4" cy="236.7" rx="23.09" ry="18.392"/>
	<ellipse style="fill:#E4A2B7;" cx="461.58" cy="236.7" rx="23.09" ry="18.392"/>
</g>
<path style="fill:#8BCDD8;" d="M225.748,423.335L225.748,423.335c-5.78,0-10.466-4.686-10.466-10.466l0,0
	c0-53.224,43.146-96.37,96.37-96.37l0,0c5.78,0,10.466,4.686,10.466,10.466l0,0C322.118,380.188,278.972,423.335,225.748,423.335z"
	/>
<path style="opacity:0.04;enable-background:new    ;" d="M298.906,389.691c-49.528,22.157-60.187-21.992-52.322-47.905
	c-19.237,17.619-31.301,42.94-31.301,71.082l0,0c0,5.78,4.686,10.466,10.466,10.466l0,0
	C255.015,423.335,281.232,410.285,298.906,389.691z"/>
<path d="M314.03,103.952c3.432,2.317,8.095,1.417,10.413-2.017c2.44-3.612,6.495-5.77,10.847-5.77
	c7.21,0,13.076,5.866,13.076,13.076v14.938c0,4.143,3.357,7.5,7.5,7.5s7.5-3.357,7.5-7.5v-14.938c0-7.21,5.866-13.076,13.076-13.076
	c4.352,0,8.406,2.157,10.849,5.771c2.318,3.432,6.982,4.334,10.413,2.015c3.432-2.319,4.334-6.981,2.015-10.413
	c-5.234-7.747-13.937-12.372-23.276-12.372c-8.122,0-15.445,3.47-20.576,9.001c-5.131-5.531-12.454-9.001-20.576-9.001
	c-9.341,0-18.042,4.625-23.276,12.373C309.695,96.971,310.598,101.633,314.03,103.952z M390.435,141.498h-69.138
	c-62.437,0-113.233,50.796-113.233,113.232v22.37c0,21.099-17.165,38.264-38.264,38.264c-10.281,0-18.646-8.364-18.646-18.646
	v-34.504c0-3.206,1.973-6.141,5.025-7.477c37.818-16.555,62.256-53.919,62.256-95.192c0-9.906-8.06-17.966-17.966-17.966
	c-32.657,0-63.815,15.656-83.348,41.879c-1.863,2.501-4.745,3.936-7.905,3.936c-3.16,0-6.041-1.435-7.904-3.936
	c-19.532-26.223-50.69-41.879-83.349-41.879C8.06,141.579,0,149.639,0,159.545c0,41.273,24.438,78.639,62.257,95.191
	c3.053,1.337,5.025,4.272,5.025,7.478v43.396c0,45.277,30.432,85.367,74.005,97.492c3.994,1.11,8.127-1.226,9.236-5.215
	c1.11-3.991-1.225-8.126-5.215-9.236c-37.109-10.326-63.026-44.474-63.026-83.041v-43.396c0-9.164-5.499-17.492-14.011-21.219
	C35.91,226.831,15,194.859,15,159.545c0-1.636,1.33-2.966,2.966-2.966c28.359,0,54.354,13.063,71.319,35.84
	c4.722,6.339,11.986,9.975,19.933,9.975c0.001,0,0.001,0,0.001,0c7.946,0,15.212-3.636,19.935-9.975
	c16.965-22.776,42.96-35.84,71.318-35.84c1.636,0,2.966,1.33,2.966,2.966c0,35.314-20.91,67.286-53.271,81.451
	c-8.511,3.726-14.01,12.054-14.01,21.218v34.504c0,18.552,15.094,33.646,33.646,33.646c29.37,0,53.264-23.894,53.264-53.264v-22.37
	c0-54.165,44.067-98.232,98.233-98.232h69.138c56.238,0,102.435,43.791,106.297,99.064h-77.85c-17.589,0-34.653,3.591-50.721,10.672
	c-3.79,1.671-5.508,6.098-3.838,9.889c1.237,2.807,3.985,4.477,6.867,4.477c1.01,0,2.037-0.205,3.021-0.639
	c14.148-6.236,29.178-9.398,44.67-9.398h77.893c-3.898,67.507-60.044,121.234-128.509,121.234h-61.43
	c14.246-17.782,22.781-40.328,22.781-64.832c0-3.012-0.754-5.848-2.068-8.343c5.384-7.834,11.741-14.945,18.969-21.172
	c3.138-2.703,3.49-7.439,0.786-10.577c-2.704-3.139-7.441-3.488-10.577-0.786c-8,6.892-15.056,14.745-21.071,23.378
	c-1.29-0.295-2.626-0.466-4.004-0.466c-50.057,0-91.955,35.593-101.72,82.799h-27.618c-4.143,0-7.5,3.357-7.5,7.5s3.357,7.5,7.5,7.5
	h25.65c-0.117,2.01-0.182,4.033-0.182,6.071c0,9.906,8.06,17.966,17.967,17.966c25.218,0,48.362-9.037,66.374-24.037h76.144
	c79.255,0,143.733-64.479,143.733-143.734C512,196.031,457.467,141.498,390.435,141.498z M225.749,415.835L225.749,415.835
	c-1.637,0-2.967-1.33-2.967-2.966c0-49.003,39.867-88.87,88.87-88.87c1.636,0,2.966,1.331,2.966,2.967
	C314.618,375.968,274.752,415.835,225.749,415.835z M357.356,218.355v-8.156c0-4.143-3.357-7.5-7.5-7.5s-7.5,3.357-7.5,7.5v8.156
	c0,4.143,3.357,7.5,7.5,7.5S357.356,222.497,357.356,218.355z M398.988,232.117c7.133,0,13.915-3.089,18.607-8.475
	c2.722-3.122,2.396-7.86-0.728-10.581c-3.123-2.722-7.86-2.397-10.581,0.728c-1.844,2.115-4.504,3.328-7.299,3.328
	s-5.456-1.214-7.301-3.329c-2.721-3.122-7.459-3.448-10.581-0.726c-3.123,2.722-3.447,7.459-0.726,10.581
	C385.074,229.028,391.856,232.117,398.988,232.117z M455.62,218.355v-8.156c0-4.143-3.357-7.5-7.5-7.5s-7.5,3.357-7.5,7.5v8.156
	c0,4.143,3.357,7.5,7.5,7.5S455.62,222.497,455.62,218.355z"/>
<g>
</g>
<g>
</g>
<g>
</g>
<g>
</g>
<g>
</g>
<g>
</g>
<g>
</g>
<g>
</g>
<g>
</g>
<g>
</g>
<g>
</g>
<g>
</g>
<g>
</g>
<g>
</g>
<g>
</g>
</svg>
