<?xml version="1.0" encoding="iso-8859-1"?>
<!-- Generator: Adobe Illustrator 19.0.0, SVG Export Plug-In . SVG Version: 6.00 Build 0)  -->
<svg version="1.1" id="Capa_1" xmlns="http://www.w3.org/2000/svg" xmlns:xlink="http://www.w3.org/1999/xlink" x="0px" y="0px"
	 viewBox="0 0 512 512" style="enable-background:new 0 0 512 512;" xml:space="preserve">
<path style="fill:#67C787;" d="M12.721,380.826c-4.737,1.201-6.769,6.784-3.912,10.749c11.448,15.891,40.651,51.09,84.334,66.989
	c27.971,10.181,58.596,1.921,75.475-4.484c7.391-2.805,10.56-11.513,6.702-18.412c-8.813-15.756-26.963-41.769-54.935-51.95
	C76.701,367.818,31.705,376.012,12.721,380.826z"/>
<path style="opacity:0.1;enable-background:new    ;" d="M12.721,380.826c-4.737,1.201-6.769,6.784-3.912,10.749
	c11.448,15.891,40.651,51.09,84.334,66.989c27.971,10.181,58.596,1.921,75.475-4.484c7.391-2.805,10.56-11.513,6.702-18.412
	c-8.813-15.756-26.963-41.769-54.935-51.95C76.701,367.818,31.705,376.012,12.721,380.826z"/>
<path style="opacity:0.1;enable-background:new    ;" d="M132.194,437.899c-0.852,0-1.718-0.146-2.564-0.454l-73.672-26.814
	c-3.892-1.417-5.899-5.721-4.483-9.613c1.417-3.892,5.723-5.895,9.613-4.482l73.672,26.815c3.893,1.417,5.899,5.721,4.483,9.613
	C138.134,436.007,135.257,437.899,132.194,437.899z"/>
<path style="fill:#67C787;" d="M52.749,314.452c-4.801-0.913-9.002,3.288-8.088,8.088c3.66,19.24,15.25,63.483,48.122,96.354
	c21.048,21.048,52.294,26.505,70.299,27.833c7.883,0.582,14.437-5.972,13.855-13.855c-1.328-18.004-6.785-49.251-27.833-70.299
	C116.231,329.702,71.99,318.112,52.749,314.452z"/>
<path style="opacity:0.1;enable-background:new    ;" d="M140.08,417.371c-1.92,0-3.839-0.732-5.303-2.196l-55.438-55.439
	c-2.929-2.93-2.929-7.678,0-10.607c2.929-2.928,7.678-2.928,10.606,0l55.438,55.439c2.929,2.93,2.929,7.678,0,10.607
	C143.918,416.638,141.999,417.371,140.08,417.371z"/>
<path style="fill:#8ADBA1;" d="M499.278,374.139c4.737,1.201,6.769,6.784,3.912,10.749c-11.448,15.891-40.651,51.09-84.334,66.989
	c-27.971,10.181-58.597,1.921-75.475-4.484c-7.391-2.804-10.56-11.513-6.702-18.412c8.813-15.756,26.963-41.769,54.936-51.95
	C435.299,361.131,480.294,369.324,499.278,374.139z"/>
<path style="opacity:0.1;enable-background:new    ;" d="M499.278,374.139c4.737,1.201,6.769,6.784,3.912,10.749
	c-11.448,15.891-40.651,51.09-84.334,66.989c-27.971,10.181-58.597,1.921-75.475-4.484c-7.391-2.804-10.56-11.513-6.702-18.412
	c8.813-15.756,26.963-41.769,54.936-51.95C435.299,361.131,480.294,369.324,499.278,374.139z"/>
<path style="opacity:0.1;enable-background:new    ;" d="M379.805,431.212c-3.064,0-5.94-1.891-7.049-4.936
	c-1.417-3.893,0.591-8.196,4.482-9.613l73.673-26.814c3.895-1.415,8.197,0.591,9.613,4.482c1.417,3.893-0.591,8.196-4.482,9.613
	l-73.673,26.813C381.523,431.065,380.656,431.212,379.805,431.212z"/>
<path style="fill:#A8EFBB;" d="M459.251,307.766c4.801-0.913,9.001,3.287,8.088,8.088c-3.66,19.24-15.25,63.483-48.122,96.354
	c-21.048,21.048-52.295,26.505-70.299,27.833c-7.883,0.582-14.437-5.972-13.855-13.855c1.328-18.004,6.785-49.251,27.833-70.299
	C395.768,323.016,440.011,311.425,459.251,307.766z"/>
<path style="opacity:0.1;enable-background:new    ;" d="M371.921,410.684c-1.919,0-3.839-0.732-5.304-2.196
	c-2.929-2.93-2.929-7.678,0-10.607l55.438-55.439c2.93-2.928,7.678-2.928,10.607,0c2.929,2.93,2.929,7.678,0,10.607l-55.438,55.439
	C375.759,409.952,373.84,410.684,371.921,410.684z"/>
<path style="fill:#67C787;" d="M12.721,95.846c-4.737,1.201-6.769,6.784-3.912,10.749c11.448,15.891,40.651,51.09,84.334,66.989
	c27.971,10.181,58.596,1.921,75.475-4.484c7.391-2.805,10.56-11.513,6.702-18.412c-8.813-15.756-26.963-41.769-54.935-51.95
	C76.701,82.837,31.705,91.031,12.721,95.846z"/>
<path style="opacity:0.1;enable-background:new    ;" d="M12.721,95.846c-4.737,1.201-6.769,6.784-3.912,10.749
	c11.448,15.891,40.651,51.09,84.334,66.989c27.971,10.181,58.596,1.921,75.475-4.484c7.391-2.805,10.56-11.513,6.702-18.412
	c-8.813-15.756-26.963-41.769-54.935-51.95C76.701,82.837,31.705,91.031,12.721,95.846z"/>
<path style="opacity:0.1;enable-background:new    ;" d="M132.194,152.919c-0.852,0-1.718-0.146-2.564-0.454l-73.672-26.814
	c-3.892-1.417-5.899-5.721-4.483-9.613c1.417-3.892,5.723-5.896,9.613-4.482l73.672,26.814c3.893,1.417,5.899,5.721,4.483,9.613
	C138.134,151.027,135.257,152.919,132.194,152.919z"/>
<path style="fill:#67C787;" d="M52.749,29.472c-4.801-0.913-9.002,3.287-8.088,8.088c3.66,19.24,15.25,63.483,48.122,96.354
	c21.048,21.048,52.294,26.505,70.299,27.833c7.883,0.582,14.437-5.972,13.855-13.855c-1.328-18.004-6.785-49.251-27.833-70.299
	C116.231,44.722,71.99,33.131,52.749,29.472z"/>
<path style="opacity:0.1;enable-background:new    ;" d="M140.08,132.39c-1.92,0-3.839-0.732-5.303-2.196L79.338,74.756
	c-2.929-2.93-2.929-7.678,0-10.607c2.929-2.928,7.678-2.928,10.606,0l55.438,55.438c2.929,2.93,2.929,7.678,0,10.607
	C143.918,131.658,141.999,132.39,140.08,132.39z"/>
<path style="fill:#8ADBA1;" d="M233.056,493.561h-75.562c-3.584,0-6.414-3.042-6.156-6.616l2.767-38.364
	c1.643-22.775,1.643-45.64,0-68.415l-2.767-38.364c-0.258-3.575,2.573-6.616,6.156-6.616h75.562c3.584,0,6.414,3.042,6.156,6.616
	l-2.767,38.364c-1.643,22.775-1.643,45.64,0,68.415l2.767,38.364C239.471,490.52,236.64,493.561,233.056,493.561z"/>
<g>
	<path style="fill:#67C787;" d="M233.056,335.187h-75.562c-3.584,0-6.414-3.042-6.156-6.616l2.767-38.364
		c1.643-22.775,1.643-45.64,0-68.415l-2.767-38.364c-0.258-3.574,2.573-6.616,6.156-6.616h75.562c3.584,0,6.414,3.042,6.156,6.616
		l-2.767,38.364c-1.643,22.775-1.643,45.64,0,68.415l2.767,38.364C239.471,332.146,236.64,335.187,233.056,335.187z"/>
	<path style="fill:#67C787;" d="M365.893,493.561h-75.562c-3.584,0-6.414-3.042-6.156-6.616l2.767-38.364
		c1.643-22.775,1.643-45.64,0-68.415l-2.767-38.364c-0.258-3.575,2.573-6.616,6.156-6.616h75.562c3.584,0,6.414,3.042,6.156,6.616
		l-2.767,38.364c-1.643,22.775-1.643,45.64,0,68.415l2.767,38.364C372.308,490.52,369.477,493.561,365.893,493.561z"/>
</g>
<g>
	<path style="fill:#8ADBA1;" d="M365.893,335.187h-75.562c-3.584,0-6.414-3.042-6.156-6.616l2.767-38.364
		c1.643-22.775,1.643-45.64,0-68.415l-2.767-38.364c-0.258-3.574,2.573-6.616,6.156-6.616h75.562c3.584,0,6.414,3.042,6.156,6.616
		l-2.767,38.364c-1.643,22.775-1.643,45.64,0,68.415l2.767,38.364C372.308,332.146,369.477,335.187,365.893,335.187z"/>
	<path style="fill:#8ADBA1;" d="M233.056,176.814h-75.562c-3.584,0-6.414-3.042-6.156-6.616l2.767-38.364
		c1.643-22.775,1.643-45.64,0-68.415l-2.767-38.364c-0.258-3.574,2.573-6.616,6.156-6.616h75.562c3.584,0,6.414,3.042,6.156,6.616
		l-2.767,38.364c-1.643,22.775-1.643,45.64,0,68.415l2.767,38.364C239.471,173.772,236.64,176.814,233.056,176.814z"/>
</g>
<path style="opacity:0.1;enable-background:new    ;" d="M157.494,18.44c-3.584,0-6.414,3.042-6.156,6.616l2.767,38.364
	c1.643,22.775,1.643,45.64,0,68.415l-2.767,38.364c-0.258,3.574,2.573,6.616,6.156,6.616h17.622
	c-2.946-38.263-2.946-120.111,0-158.374L157.494,18.44L157.494,18.44z"/>
<path style="opacity:0.1;enable-background:new    ;" d="M157.494,176.814c-3.584,0-6.414,3.042-6.156,6.617l2.767,38.364
	c1.643,22.775,1.643,45.64,0,68.415l-2.767,38.363c-0.258,3.574,2.573,6.617,6.156,6.617h17.622
	c-2.946-38.263-2.946-120.112,0-158.374h-17.622V176.814z"/>
<path style="opacity:0.1;enable-background:new    ;" d="M157.494,335.188c-3.584,0-6.414,3.042-6.156,6.616l2.767,38.364
	c1.643,22.775,1.643,45.64,0,68.415l-2.767,38.364c-0.258,3.574,2.573,6.616,6.156,6.616h17.622
	c-2.946-38.263-2.946-120.111,0-158.374L157.494,335.188L157.494,335.188z"/>
<path style="opacity:0.1;enable-background:new    ;" d="M290.331,176.814c-3.584,0-6.414,3.042-6.156,6.617l2.767,38.364
	c1.643,22.775,1.643,45.64,0,68.415l-2.767,38.363c-0.258,3.574,2.573,6.617,6.156,6.617h17.622
	c-2.946-38.263-2.946-120.112,0-158.374h-17.622V176.814z"/>
<path style="opacity:0.1;enable-background:new    ;" d="M290.331,335.188c-3.584,0-6.414,3.042-6.156,6.616l2.767,38.364
	c1.643,22.775,1.643,45.64,0,68.415l-2.767,38.364c-0.258,3.574,2.573,6.616,6.156,6.616h17.622
	c-2.946-38.263-2.946-120.111,0-158.374L290.331,335.188L290.331,335.188z"/>
<path d="M246.693,169.657l-2.767-38.362c-1.491-20.674-1.603-41.649-0.333-62.341c0.254-4.134-2.892-7.691-7.026-7.945
	c-4.14-0.242-7.691,2.893-7.945,7.027c-1.311,21.354-1.195,43.001,0.344,64.338l2.665,36.94h-72.709l2.664-36.942
	c1.663-23.056,1.663-46.437,0-69.493l-2.664-36.94h72.709l-0.403,5.592c-0.298,4.131,2.809,7.722,6.941,8.019
	c4.135,0.299,7.722-2.811,8.02-6.941l0.506-7.014c0.273-3.774-1.05-7.527-3.627-10.298c-2.577-2.769-6.226-4.358-10.009-4.358
	h-75.563c-3.784,0-7.432,1.589-10.009,4.358c-2.578,2.771-3.9,6.523-3.627,10.297l2.767,38.363c0.028,0.39,0.047,0.781,0.074,1.172
	C113.073,35.933,71.4,25.384,54.155,22.105c-4.693-0.897-9.515,0.587-12.892,3.964s-4.86,8.196-3.967,12.893
	c1.746,9.178,5.554,25.282,13.13,43.406c-16.419,1.073-30.22,3.843-39.547,6.208c-4.637,1.176-8.378,4.556-10.01,9.044
	c-1.633,4.487-0.939,9.48,1.854,13.358c11.062,15.354,41.767,52.879,87.855,69.653c9.529,3.468,20.104,5.204,31.387,5.204
	c7.046,0,14.373-0.694,21.888-2.05c0.004,0.061-0.001,0.122,0.004,0.184l2.767,38.363c1.611,22.341,1.611,44.996,0,67.337
	l-2.767,38.362c-0.18,2.489,0.347,4.962,1.456,7.156c-1.11,2.195-1.636,4.668-1.456,7.156l0.41,5.684
	c-33.178-27.626-73.285-37.742-90.115-40.942c-4.694-0.898-9.515,0.588-12.892,3.964c-3.377,3.377-4.86,8.196-3.967,12.893
	c1.746,9.178,5.554,25.282,13.13,43.406c-16.419,1.073-30.22,3.844-39.545,6.208c-4.633,1.175-8.374,4.555-10.008,9.042
	c-1.633,4.488-0.94,9.482,1.854,13.36c11.062,15.354,41.767,52.879,87.854,69.653c9.535,3.471,20.108,5.207,31.388,5.207
	c7.449,0,15.211-0.774,23.18-2.29l-1.289,17.876c-0.273,3.774,1.05,7.527,3.627,10.298c2.577,2.77,6.226,4.358,10.009,4.358h75.563
	c3.784,0,7.432-1.589,10.009-4.358c2.578-2.77,3.9-6.523,3.627-10.298l-2.767-38.362c-1.611-22.341-1.611-44.996,0-67.336
	l2.767-38.364c0.18-2.489-0.347-4.962-1.456-7.156c1.11-2.194,1.636-4.667,1.456-7.156l-2.767-38.362
	c-1.611-22.341-1.611-44.996,0-67.336l2.767-38.363c0.18-2.489-0.347-4.962-1.456-7.156
	C246.347,174.62,246.873,172.146,246.693,169.657z M143.94,168.507c-13.788,2.803-31.646,4.065-48.232-1.972
	c-41.498-15.104-69.655-48.996-80.31-63.63c9.778-2.431,24.478-5.238,41.836-5.864c7.377,14.355,17.205,29.135,30.245,42.176
	c16.617,16.617,38.843,24.164,56.585,27.573L143.94,168.507z M146.624,131.295l-1.473,20.422
	c-15.211-3.124-33.583-9.625-47.066-23.106C66.858,97.382,55.662,54.768,52.191,37.003c17.765,3.471,60.379,14.665,91.608,45.896
	c1.325,1.325,2.631,2.76,3.903,4.276C148.029,101.898,147.679,116.663,146.624,131.295z M146.267,452.995
	c-14.204,3.161-33.089,4.881-50.559-1.479c-41.498-15.103-69.655-48.995-80.31-63.63c9.778-2.431,24.478-5.238,41.836-5.864
	c7.377,14.355,17.205,29.135,30.245,42.176c17.198,17.197,40.369,24.729,58.846,27.99L146.267,452.995z M147.266,437.114
	c-15.902-3-35.165-9.508-49.181-23.523c-31.228-31.228-42.423-73.842-45.895-91.608c17.765,3.471,60.379,14.665,91.608,45.896
	c0.684,0.684,1.371,1.413,2.055,2.164l0.769,10.664C147.973,399.413,148.176,418.336,147.266,437.114z M161.585,221.254
	l-2.664-36.939h72.708l-2.664,36.939c-1.663,23.056-1.663,46.438,0,69.494l2.664,36.939h-72.708l2.664-36.94
	C163.248,267.691,163.248,244.31,161.585,221.254z M228.965,449.122l2.665,36.939h-72.709l2.664-36.94
	c1.663-23.056,1.663-46.438,0-69.493l-2.664-36.941h72.709l-2.665,36.941C227.302,402.684,227.302,426.065,228.965,449.122z
	 M511.13,375.91c-1.633-4.486-5.374-7.866-10.007-9.041c-9.326-2.365-23.128-5.137-39.545-6.209
	c7.575-18.123,11.383-34.227,13.128-43.404c0.895-4.695-0.588-9.515-3.964-12.892c-3.378-3.379-8.202-4.861-12.895-3.967
	c-2.974,0.566-6.036,1.222-9.101,1.948c-4.031,0.955-6.523,4.997-5.568,9.027c0.955,4.03,4.999,6.522,9.027,5.568
	c2.56-0.606,5.113-1.159,7.603-1.646c-3.471,17.765-14.665,60.379-45.896,91.608c-9.504,9.504-22.317,16.523-38.148,20.945
	c-0.45-15.725-0.13-31.51,0.997-47.144l2.098-29.096c12.271-9.954,26.745-18.357,43.073-24.999c3.837-1.561,5.682-5.937,4.121-9.773
	s-5.934-5.682-9.773-4.121c-13.636,5.547-26.108,12.262-37.258,20.028c0.432-1.52,0.62-3.112,0.504-4.713l-2.767-38.363
	c-1.611-22.341-1.611-44.996,0-67.337l2.767-38.362c0.273-3.774-1.05-7.527-3.627-10.298c-2.578-2.77-6.226-4.358-10.01-4.358
	h-75.563c-3.784,0-7.432,1.589-10.01,4.358c-2.577,2.77-3.899,6.523-3.627,10.297l2.767,38.363c1.611,22.341,1.611,44.996,0,67.337
	l-2.767,38.362c-0.18,2.489,0.347,4.962,1.456,7.156c-1.11,2.195-1.636,4.668-1.456,7.156l2.767,38.363
	c1.611,22.341,1.611,44.996,0,67.337l-2.767,38.362c-0.273,3.774,1.05,7.527,3.627,10.298c2.578,2.77,6.226,4.358,10.01,4.358
	h75.563c3.784,0,7.432-1.589,10.01-4.358c2.577-2.77,3.899-6.523,3.627-10.297l-1.652-22.905c4.171,0.442,8.255,0.67,12.242,0.67
	c11.225,0,21.698-1.751,31.302-5.246c46.088-16.774,76.792-54.299,87.855-69.653C512.071,385.392,512.763,380.398,511.13,375.91z
	 M361.802,449.121l2.664,36.94h-72.709l2.664-36.94c1.663-23.056,1.663-46.438,0-69.493l-2.664-36.941h72.709l-0.33,4.578
	c0,0.001,0,0.002,0,0.004l-2.334,32.359C360.139,402.684,360.139,426.065,361.802,449.121z M291.757,327.687l2.664-36.94
	c1.663-23.056,1.663-46.437,0-69.493l-2.664-36.939h72.709l-2.664,36.939c-1.663,23.056-1.663,46.438,0,69.493l2.664,36.94H291.757z
	 M416.291,444.829c-11.551,4.205-24.822,5.353-39.512,3.439l-0.016-0.226c-0.117-1.617-0.206-3.239-0.306-4.859
	c19.871-5.025,36.027-13.637,48.064-25.672c13.04-13.041,22.868-27.82,30.245-42.176c17.354,0.625,32.055,3.432,41.836,5.864
	C485.947,395.834,457.79,429.724,416.291,444.829z"/>
<g>
</g>
<g>
</g>
<g>
</g>
<g>
</g>
<g>
</g>
<g>
</g>
<g>
</g>
<g>
</g>
<g>
</g>
<g>
</g>
<g>
</g>
<g>
</g>
<g>
</g>
<g>
</g>
<g>
</g>
</svg>
