<?xml version="1.0" encoding="iso-8859-1"?>
<!-- Generator: Adobe Illustrator 19.0.0, SVG Export Plug-In . SVG Version: 6.00 Build 0)  -->
<svg version="1.1" id="Capa_1" xmlns="http://www.w3.org/2000/svg" xmlns:xlink="http://www.w3.org/1999/xlink" x="0px" y="0px"
	 viewBox="0 0 512.001 512.001" style="enable-background:new 0 0 512.001 512.001;" xml:space="preserve">
<g>
	<path style="fill:#B38A82;" d="M201.829,348.923h-47.531c-23.854,0-45.317-15.077-53.407-37.519l-8.751-24.276
		c-3.039-8.43,1.332-17.725,9.76-20.764c8.433-3.04,17.726,1.334,20.764,9.76l8.751,24.276c3.467,9.615,12.662,16.076,22.883,16.076
		h47.531c8.96,0,16.223,7.263,16.223,16.223C218.052,341.66,210.788,348.923,201.829,348.923z"/>
	<path style="fill:#B38A82;" d="M328.064,398.637h-54.202V366.19h54.202c8.91,0,16.159-7.249,16.159-16.159v-45.49h32.447v45.49
		C376.669,376.833,354.865,398.637,328.064,398.637z"/>
</g>
<rect x="344.22" y="304.54" style="opacity:0.1;enable-background:new    ;" width="32.447" height="35.556"/>
<path style="fill:#B38A82;" d="M286.34,160.315H185.675L168.81,486.319c-0.511,9.886,7.366,18.181,17.265,18.181h99.865
	c9.899,0,17.777-8.296,17.265-18.181L286.34,160.315z"/>
<g style="opacity:0.1;">
	<polygon points="286.34,160.315 185.675,160.315 182.446,222.729 289.569,222.729 	"/>
</g>
<g style="opacity:0.1;">
	<path d="M215.058,361.304c-0.068,0-0.136-0.001-0.204-0.003c-4.141-0.11-7.407-3.557-7.297-7.697l2.998-112.417
		c0.11-4.141,3.59-7.421,7.697-7.297c4.141,0.11,7.407,3.557,7.297,7.697l-2.998,112.417
		C222.443,358.076,219.107,361.304,215.058,361.304z"/>
	<path d="M263.266,445.893c-3.947,0-7.254-3.084-7.482-7.074l-3.444-60.617c-0.234-4.136,2.928-7.679,7.063-7.914
		c4.124-0.208,7.679,2.928,7.914,7.063l3.444,60.617c0.234,4.136-2.928,7.679-7.063,7.914
		C263.554,445.889,263.41,445.893,263.266,445.893z"/>
	<path d="M222.537,469.548c-0.11,0-0.22-0.002-0.331-0.007c-4.138-0.18-7.348-3.68-7.168-7.818l1.941-44.76
		c0.18-4.139,3.671-7.35,7.818-7.168c4.138,0.18,7.348,3.68,7.168,7.818l-1.941,44.76C229.85,466.4,226.53,469.548,222.537,469.548z
		"/>
	<path d="M252.673,252.135c-4.04,0-7.373-3.214-7.493-7.279l-0.994-33.816c-0.121-4.141,3.137-7.596,7.276-7.718
		c4.191-0.13,7.596,3.136,7.718,7.276l0.994,33.816c0.121,4.141-3.137,7.596-7.276,7.718
		C252.823,252.134,252.747,252.135,252.673,252.135z"/>
</g>
<g>
	<path style="fill:#8ADBA1;" d="M423.568,151.279c-6.973-16.295-17.558-30.297-30.58-41.245c-4.393-3.693-7.445-8.792-8.353-14.46
		c-4.977-31.076-31.893-54.823-64.372-54.823c-4.17,0-8.248,0.392-12.2,1.14c-4.248,0.804-8.631-0.8-11.251-4.239
		C282.856,19.331,260.817,7.5,236.007,7.5s-46.848,11.831-60.804,30.154c-2.62,3.439-7.003,5.044-11.251,4.239
		c-3.952-0.748-8.03-1.14-12.2-1.14c-32.479,0-59.395,23.746-64.372,54.823c-0.908,5.667-3.96,10.766-8.353,14.46
		c-13.022,10.947-23.607,24.949-30.58,41.245c-8.056,18.827,5.998,39.741,26.476,39.741h322.168
		C417.57,191.02,431.624,170.106,423.568,151.279z"/>
	<path style="fill:#8ADBA1;" d="M464.526,299.807L464.526,299.807c-3.751-8.693-9.357-16.204-16.235-22.156
		c-2.815-2.436-4.774-5.707-5.441-9.369c-3.078-16.879-17.848-29.677-35.616-29.677c-1.755,0-3.48,0.125-5.168,0.366
		c-3.325,0.475-6.694-0.719-8.826-3.315c-7.78-9.473-19.579-15.517-32.794-15.517s-25.014,6.045-32.795,15.517
		c-2.132,2.596-5.501,3.79-8.826,3.315c-1.688-0.241-3.413-0.366-5.168-0.366c-17.768,0-32.538,12.798-35.616,29.677
		c-0.668,3.662-2.626,6.933-5.441,9.369c-6.878,5.952-12.483,13.463-16.235,22.156l0,0c-4.539,10.517,3.173,22.244,14.627,22.244
		h178.905C461.353,322.051,469.064,310.324,464.526,299.807z"/>
</g>
<path style="opacity:0.1;enable-background:new    ;" d="M195.789,106.786c-14.313-18.548-19.461-54.729-10.936-79.612
	c-3.53,3.186-6.766,6.692-9.651,10.481c-2.627,3.45-6.989,5.045-11.249,4.238c-3.952-0.749-8.03-1.141-12.2-1.141
	c-32.479,0-59.395,23.746-64.372,54.822c-0.908,5.667-3.96,10.766-8.353,14.46c-12.942,10.88-23.477,24.777-30.451,40.944
	c-8.167,18.932,5.729,40.041,26.347,40.041h176.759c-39.215-16.902-47.411-45.775-48.264-64.092
	C203.077,119.574,200.286,112.614,195.789,106.786z"/>
<path style="opacity:0.1;enable-background:new    ;" d="M349.175,274.478c-10.307-9.679-17.126-35.211-12-47.371
	c-3.588,2.361-6.805,5.24-9.523,8.549c-2.102,2.559-5.372,3.825-8.649,3.34c-1.744-0.258-3.529-0.392-5.345-0.392
	c-17.708,0-32.439,12.712-35.585,29.507c-0.71,3.79-2.782,7.189-5.686,9.725c-6.78,5.922-12.309,13.367-16.021,21.97l0,0
	c-4.539,10.517,3.173,22.244,14.627,22.244h99.992c-14.933-9.898-20.179-26.947-18.563-38.967
	C352.856,279.862,351.544,276.703,349.175,274.478z"/>
<path d="M471.412,296.835C471.411,296.835,471.411,296.835,471.412,296.835c-4.099-9.496-10.397-18.091-18.214-24.855
	c-1.57-1.359-2.625-3.149-2.971-5.044c-3.786-20.762-21.868-35.831-42.994-35.831c-2.082,0-4.178,0.148-6.229,0.441
	c-0.796,0.114-1.546-0.136-1.969-0.65c-9.53-11.602-23.596-18.256-38.59-18.256s-29.06,6.654-38.591,18.257
	c-0.422,0.514-1.171,0.768-1.969,0.649c-2.051-0.293-4.147-0.441-6.228-0.441c-5.617,0-11.014,1.074-15.988,3.028l-1.843-35.613
	h101.265c12.225,0,23.55-6.102,30.293-16.321c6.674-10.115,7.825-22.776,3.079-33.869c-7.253-16.949-18.542-32.177-32.649-44.036
	c-3.12-2.623-5.171-6.14-5.773-9.905c-0.474-2.954-1.136-5.903-1.969-8.769c-1.156-3.978-5.316-6.262-9.296-5.108
	c-3.977,1.156-6.265,5.318-5.108,9.296c0.661,2.272,1.187,4.612,1.563,6.954c1.172,7.32,5.054,14.073,10.932,19.015
	c12.318,10.355,22.178,23.652,28.511,38.454c2.799,6.541,2.14,13.725-1.809,19.708c-3.959,6-10.603,9.582-17.772,9.582H74.923
	c-7.17,0-13.814-3.582-17.773-9.582c-3.948-5.983-4.606-13.167-1.808-19.708c6.333-14.802,16.192-28.099,28.512-38.455
	c5.876-4.94,9.758-11.692,10.931-19.014c4.502-28.107,28.46-48.509,56.967-48.509c3.63,0,7.266,0.34,10.804,1.01
	c7.138,1.351,14.266-1.355,18.614-7.063C194.335,24.913,214.323,15,236.007,15c21.685,0,41.673,9.913,54.838,27.197
	c4.347,5.709,11.479,8.419,18.612,7.064c3.54-0.67,7.176-1.01,10.805-1.01c15.454,0,29.971,6.031,40.876,16.982
	c2.923,2.935,7.672,2.944,10.607,0.022c2.936-2.923,2.945-7.672,0.022-10.606c-13.741-13.799-32.032-21.398-51.505-21.398
	c-4.563,0-9.137,0.428-13.595,1.271c-1.495,0.284-3.02-0.271-3.889-1.415C286.751,12.067,262.414,0,236.007,0
	c-26.406,0-50.743,12.067-66.77,33.108c-0.87,1.143-2.394,1.698-3.891,1.415c-4.457-0.844-9.031-1.271-13.595-1.271
	c-17.395,0-34.225,6.241-47.392,17.573c-13.02,11.208-21.68,26.679-24.384,43.564c-0.604,3.764-2.654,7.281-5.773,9.904
	c-14.107,11.859-25.396,27.087-32.649,44.036c-4.746,11.092-3.596,23.753,3.078,33.869c6.743,10.22,18.067,16.321,30.293,16.321
	h101.265l-5.714,110.457h-16.176c-7.068,0-13.43-4.469-15.827-11.118l-8.751-24.276c-2.148-5.96-6.489-10.728-12.223-13.424
	c-5.735-2.696-12.179-2.999-18.14-0.849c-5.962,2.148-10.729,6.49-13.425,12.225c-2.696,5.735-2.998,12.177-0.849,18.138
	l8.751,24.276c9.16,25.406,33.458,42.476,60.463,42.476h13.721l-2.089,40.377c-0.214,4.137,2.966,7.664,7.102,7.878
	c0.132,0.007,0.264,0.01,0.394,0.01c3.965,0,7.277-3.108,7.484-7.112l10.297-199.057h89.597l2.328,44.998
	c-6.309,6.148-10.794,14.223-12.472,23.42c-0.345,1.893-1.399,3.683-2.97,5.042c-7.816,6.765-14.115,15.359-18.214,24.855
	c-3.134,7.265-2.41,15.548,1.938,22.159c4.347,6.61,11.665,10.557,19.577,10.557h16.592l8.13,157.154
	c0.14,2.708-0.811,5.281-2.678,7.247c-1.866,1.966-4.387,3.048-7.098,3.048h-99.865c-2.71,0-5.232-1.083-7.098-3.048
	c-1.866-1.966-2.817-4.539-2.677-7.246l2.736-52.896c0.214-4.137-2.966-7.664-7.103-7.878c-4.135-0.227-7.665,2.966-7.878,7.103
	l-2.736,52.896c-0.354,6.855,2.053,13.372,6.78,18.35s11.11,7.72,17.975,7.72h99.865c6.864,0,13.248-2.741,17.975-7.719
	c4.727-4.978,7.135-11.494,6.781-18.351l-4.128-79.794h21.496c30.936,0,56.105-25.169,56.105-56.105v-20.48h65.728
	c7.912,0,15.23-3.946,19.577-10.557C473.823,312.383,474.546,304.1,471.412,296.835z M168.796,341.424h-14.497
	c-20.702,0-39.33-13.086-46.352-32.563l-8.751-24.276c-0.79-2.191-0.68-4.561,0.312-6.669c0.991-2.108,2.745-3.705,4.938-4.495
	c2.191-0.792,4.561-0.681,6.67,0.311c2.108,0.991,3.704,2.744,4.494,4.936l8.751,24.277c4.536,12.579,16.567,21.031,29.938,21.031
	h15.4L168.796,341.424z M302.606,329.551h34.116v20.48c0,4.774-3.884,8.659-8.658,8.659h-23.951L302.606,329.551z M369.169,350.031
	c0,22.666-18.44,41.105-41.105,41.105h-22.272l-0.902-17.446h23.175c13.045,0,23.658-10.613,23.658-23.659v-20.48h17.447
	L369.169,350.031L369.169,350.031z M456.943,310.752c-1.588,2.414-4.155,3.799-7.045,3.799H270.993c-2.89,0-5.457-1.385-7.045-3.799
	s-1.842-5.32-0.697-7.974c3.254-7.539,8.051-14.086,14.258-19.457c4.147-3.588,6.956-8.452,7.91-13.694
	c1.238-6.79,4.808-12.65,9.792-16.824c0.207-0.15,0.406-0.31,0.596-0.48c4.933-3.912,11.156-6.219,17.85-6.219
	c1.375,0,2.757,0.098,4.106,0.291c5.95,0.851,11.955-1.44,15.683-5.978c6.67-8.12,16.511-12.777,26.999-12.777
	s20.329,4.657,26.999,12.776c3.728,4.539,9.744,6.827,15.682,5.979c1.351-0.193,2.732-0.291,4.107-0.291
	c13.877,0,25.752,9.893,28.237,23.52c0.955,5.244,3.765,10.108,7.911,13.696c6.207,5.371,11.004,11.918,14.258,19.457
	C458.785,305.432,458.531,308.338,456.943,310.752z"/>
<g>
</g>
<g>
</g>
<g>
</g>
<g>
</g>
<g>
</g>
<g>
</g>
<g>
</g>
<g>
</g>
<g>
</g>
<g>
</g>
<g>
</g>
<g>
</g>
<g>
</g>
<g>
</g>
<g>
</g>
</svg>
