<?xml version="1.0" encoding="iso-8859-1"?>
<!-- Generator: Adobe Illustrator 19.0.0, SVG Export Plug-In . SVG Version: 6.00 Build 0)  -->
<svg version="1.1" id="Capa_1" xmlns="http://www.w3.org/2000/svg" xmlns:xlink="http://www.w3.org/1999/xlink" x="0px" y="0px"
	 viewBox="0 0 512 512" style="enable-background:new 0 0 512 512;" xml:space="preserve">
<path style="fill:#B38A82;" d="M258.786,318.974c-9.229,0-18.052-5.281-22.133-14.225c-12.171-26.676-17.993-56.976-17.305-90.061
	c0.601-28.87,6.102-59.146,16.352-89.986c4.235-12.743,17.999-19.64,30.738-15.402c12.742,4.234,19.638,17.997,15.402,30.737
	c-18.18,54.701-18.519,106.029-0.953,144.528c5.574,12.215,0.189,26.636-12.025,32.209
	C265.591,318.267,262.16,318.974,258.786,318.974z"/>
<path style="opacity:0.1;enable-background:new    ;" d="M266.439,109.299c-12.739-4.237-26.503,2.659-30.738,15.402
	c-9.118,27.434-14.469,54.42-15.964,80.369c10.64-4.638,18.628-10.243,23.887-14.616c4.38-3.643,10.756-3.643,15.136,0
	c2.721,2.263,6.171,4.856,10.34,7.474c1.889-18.549,6.129-37.995,12.742-57.892C286.076,127.296,279.18,113.534,266.439,109.299z"/>
<path style="opacity:0.1;enable-background:new    ;" d="M268.318,207.674H219.6c-0.112,2.346-0.204,4.686-0.252,7.014
	c-0.053,2.534-0.054,5.046-0.03,7.547h48.66C267.917,217.46,268.033,212.602,268.318,207.674z M269.118,240.702h-48.904
	c0.437,4.928,1.028,9.783,1.78,14.561h49.457C270.471,250.525,269.685,245.673,269.118,240.702z"/>
<path style="fill:#8ADBA1;" d="M394.595,159.505c-10.477-8.995-33.49-24.36-68.44-24.36c-0.285,0-0.558,0.014-0.842,0.016
	c0.201-0.198,0.403-0.391,0.603-0.592c24.716-24.716,30.122-51.857,31.169-65.624c0.389-5.12-3.865-9.371-8.985-8.981
	c-13.769,1.048-40.906,6.455-65.62,31.169c-0.201,0.201-0.393,0.402-0.592,0.603c0.002-0.283,0.016-0.557,0.016-0.842
	c0-34.946-15.361-57.956-24.357-68.436c-3.354-3.907-9.361-3.907-12.715,0c-8.995,10.479-24.357,33.49-24.357,68.436
	c0,0.285,0.014,0.558,0.016,0.842c-0.198-0.201-0.391-0.403-0.592-0.603c-24.71-24.71-51.844-30.119-65.614-31.168
	c-5.134-0.391-9.382,3.856-8.991,8.99c1.049,13.771,6.458,40.904,31.168,65.614c0.201,0.201,0.402,0.394,0.603,0.592
	c-0.283-0.002-0.557-0.016-0.842-0.016c-34.947,0-57.959,15.363-68.437,24.358c-3.906,3.353-3.906,9.359,0,12.712
	c10.478,8.995,33.49,24.358,68.437,24.358c33.833,0,56.479-14.399,67.397-23.479c4.38-3.643,10.756-3.643,15.136,0
	c10.918,9.08,33.564,23.479,67.397,23.479c34.947,0,57.958-15.362,68.436-24.358C398.498,168.863,398.501,162.858,394.595,159.505z"
	/>
<path style="opacity:0.1;enable-background:new    ;" d="M167.99,62.051c-5.327-1.202-10.001-1.805-13.703-2.087
	c-5.134-0.391-9.382,3.856-8.991,8.991c1.049,13.77,6.458,40.904,31.168,65.614c0.201,0.201,0.402,0.394,0.603,0.592
	c-0.283-0.002-0.557-0.016-0.842-0.016c-34.947,0-57.959,15.363-68.437,24.358c-3.906,3.353-3.906,9.359,0,12.712
	c10.478,8.995,33.49,24.358,68.437,24.358c33.833,0,56.479-14.399,67.397-23.479c0.404-0.336,0.829-0.63,1.264-0.904
	C184.788,140.346,169.85,90.305,167.99,62.051z"/>
<path style="opacity:0.1;enable-background:new    ;" d="M358.728,173.358h-65.144c-4.143,0-7.5-3.357-7.5-7.5s3.357-7.5,7.5-7.5
	h65.144c4.143,0,7.5,3.357,7.5,7.5C366.228,170.001,362.871,173.358,358.728,173.358z"/>
<path style="opacity:0.1;enable-background:new    ;" d="M281.167,143.383c-1.919,0-3.839-0.732-5.304-2.196
	c-2.929-2.93-2.929-7.678,0-10.607l46.064-46.064c2.93-2.928,7.678-2.928,10.607,0c2.929,2.93,2.929,7.678,0,10.607l-46.065,46.064
	C285.006,142.65,283.086,143.383,281.167,143.383z"/>
<path style="opacity:0.1;enable-background:new    ;" d="M251.191,130.967c-4.142,0-7.5-3.357-7.5-7.5V58.322
	c0-4.143,3.358-7.5,7.5-7.5s7.5,3.357,7.5,7.5v65.145C258.691,127.609,255.333,130.967,251.191,130.967z"/>
<path style="opacity:0.1;enable-background:new    ;" d="M221.215,143.383c-1.919,0-3.839-0.732-5.303-2.196l-46.064-46.064
	c-2.929-2.93-2.929-7.678,0-10.607c2.929-2.928,7.678-2.928,10.606,0l46.064,46.064c2.929,2.93,2.929,7.678,0,10.607
	C225.054,142.65,223.134,143.383,221.215,143.383z"/>
<path style="opacity:0.1;enable-background:new    ;" d="M208.799,173.358h-65.145c-4.142,0-7.5-3.357-7.5-7.5s3.358-7.5,7.5-7.5
	h65.145c4.142,0,7.5,3.357,7.5,7.5C216.299,170.001,212.941,173.358,208.799,173.358z"/>
<path style="fill:#F5D7B7;" d="M81.078,371.942h354.618c-39.635-55.068-104.28-90.931-177.309-90.931
	S120.713,316.874,81.078,371.942z"/>
<path style="fill:#B9E8EF;" d="M439.097,492.472H72.903c-36.121,0-65.403-29.282-65.403-65.403v-33.104
	c0-12.163,9.86-22.023,22.023-22.023h452.953c12.163,0,22.023,9.86,22.023,22.023v33.104
	C504.5,463.19,475.218,492.472,439.097,492.472z"/>
<path style="fill:#ABDFEB;" d="M225.336,371.942H29.523c-12.163,0-22.023,9.86-22.023,22.024v33.103
	c0,36.121,29.282,65.403,65.403,65.403h231.296C226.906,476.43,197.515,421.375,225.336,371.942z"/>
<path style="fill:#F2CAA7;" d="M185.793,293.386c-42.453,14.968-78.894,42.681-104.715,78.556h144.258
	C186.534,357.218,173.674,317.125,185.793,293.386z"/>
<g>
	<circle style="fill:#DBB695;" cx="296.99" cy="308.61" r="7.208"/>
	<circle style="fill:#DBB695;" cx="258.39" cy="345.46" r="7.207"/>
	<circle style="fill:#DBB695;" cx="353.08" cy="346.6" r="7.208"/>
	<circle style="fill:#DBB695;" cx="157.86" cy="339.391" r="7.207"/>
	<circle style="fill:#DBB695;" cx="205.8" cy="319.16" r="7.207"/>
</g>
<g>
	<path style="fill:#8BCDD8;" d="M119.198,432.261H73.971c-4.142,0-7.5-3.357-7.5-7.5s3.358-7.5,7.5-7.5h45.227
		c4.142,0,7.5,3.357,7.5,7.5C126.698,428.904,123.34,432.261,119.198,432.261z"/>
	<path style="fill:#8BCDD8;" d="M300.743,463.88h-81.45c-4.142,0-7.5-3.357-7.5-7.5s3.358-7.5,7.5-7.5h81.45
		c4.143,0,7.5,3.357,7.5,7.5C308.243,460.522,304.886,463.88,300.743,463.88z"/>
	<path style="fill:#8BCDD8;" d="M424.935,422.706H370.11c-4.143,0-7.5-3.357-7.5-7.5s3.357-7.5,7.5-7.5h54.825
		c4.143,0,7.5,3.357,7.5,7.5S429.078,422.706,424.935,422.706z"/>
</g>
<path d="M482.477,364.441h-43.009c-20.218-27.084-46.556-49.607-76.423-65.259c-24.191-12.678-50.744-20.836-77.973-24.078
	c-9.017-23.212-11.703-51.175-7.891-81.652c12.586,5.854,28.966,10.621,48.975,10.621c37.273,0,61.936-16.395,73.321-26.167
	c3.523-3.025,5.545-7.417,5.546-12.048c0-4.63-2.02-9.02-5.544-12.046c-1.559-1.337-3.196-2.653-4.867-3.913
	c-3.31-2.494-8.01-1.832-10.504,1.475c-2.493,3.308-1.833,8.011,1.475,10.504c1.421,1.07,2.81,2.188,4.127,3.317
	c0.208,0.178,0.313,0.401,0.313,0.662c0,0.263-0.107,0.487-0.316,0.668c-9.81,8.421-31.11,22.548-63.551,22.548
	c-31.719,0-52.837-13.624-62.602-21.746c-7.162-5.958-17.563-5.958-24.727,0c-9.765,8.122-30.882,21.746-62.601,21.746
	c-32.441,0-53.742-14.128-63.552-22.549c-0.209-0.18-0.315-0.403-0.315-0.666c0-0.262,0.106-0.485,0.315-0.665
	c9.809-8.421,31.108-22.549,63.551-22.549l0.24,0.006c0.183,0.005,0.365,0.009,0.55,0.011h0.052c3.032,0,5.768-1.827,6.929-4.632
	c1.168-2.82,0.509-6.067-1.666-8.21l-0.564-0.553c-22.939-22.94-28.011-47.99-28.993-60.881c-0.021-0.275,0.063-0.51,0.248-0.695
	c0.187-0.186,0.42-0.268,0.694-0.248c12.891,0.981,37.941,6.054,60.887,29L215.151,97c2.144,2.175,5.391,2.832,8.211,1.665
	c2.821-1.168,4.652-3.929,4.631-6.981c-0.001-0.183-0.006-0.362-0.011-0.542l-0.005-0.247c0-32.44,14.127-53.741,22.547-63.551
	c0.359-0.418,0.975-0.417,1.334-0.001c8.42,9.811,22.547,31.112,22.547,63.552L274.4,91.15c-0.005,0.177-0.01,0.354-0.011,0.534
	c-0.021,3.057,1.814,5.819,4.64,6.985c2.828,1.167,6.076,0.499,8.216-1.683l0.538-0.55c22.943-22.942,47.996-28.014,60.888-28.994
	c0.272-0.02,0.501,0.063,0.688,0.251c0.186,0.187,0.271,0.416,0.25,0.682c-0.981,12.894-6.053,37.949-28.995,60.891l-0.564,0.554
	c-2.174,2.143-2.833,5.39-1.665,8.21c1.161,2.806,3.897,4.632,6.93,4.632h0.052c0.186-0.002,0.367-0.006,0.55-0.011l0.24-0.006
	c12.099,0,23.742,1.98,34.607,5.886c3.896,1.403,8.194-0.622,9.595-4.521c1.401-3.898-0.623-8.194-4.521-9.595
	c-7.895-2.838-16.132-4.792-24.614-5.847c17.916-22.991,22.364-46.21,23.342-59.057c0.351-4.622-1.326-9.151-4.602-12.426
	c-3.275-3.276-7.798-4.942-12.432-4.6c-12.843,0.977-36.056,5.423-59.048,23.339c-3.589-28.919-16.857-48.479-25.245-58.252
	c-3.025-3.523-7.417-5.544-12.049-5.544c-4.631,0-9.022,2.021-12.047,5.545c-8.388,9.771-21.656,29.332-25.246,58.25
	c-22.988-17.914-46.199-22.359-59.041-23.338c-4.628-0.347-9.165,1.324-12.44,4.6c-3.275,3.274-4.951,7.809-4.598,12.439
	c0.978,12.841,5.423,36.049,23.338,59.04c-28.924,3.589-48.48,16.858-58.252,25.247c-3.523,3.024-5.544,7.415-5.545,12.046
	c0,4.632,2.021,9.022,5.544,12.048c11.385,9.773,36.048,26.168,73.322,26.168c13.933,0,26.105-2.314,36.466-5.693
	c-0.438,5.442-0.732,10.846-0.843,16.151c-0.457,21.989,1.908,42.963,7.035,62.479c-22.722,4.03-44.778,11.494-65.156,22.173
	c-29.866,15.651-56.204,38.175-76.423,65.259H29.523C13.244,364.441,0,377.685,0,393.965v33.104
	c0,40.198,32.704,72.902,72.903,72.902h36.381c4.142,0,7.5-3.357,7.5-7.5s-3.358-7.5-7.5-7.5H72.903
	C40.975,484.972,15,458.997,15,427.069v-33.104c0-8.008,6.515-14.523,14.523-14.523h51.535c0.004,0,0.009,0.001,0.013,0.001
	c0.006,0,0.011-0.001,0.017-0.001h401.389c8.008,0,14.523,6.516,14.523,14.523v33.104c0,31.928-25.976,57.902-57.903,57.902H144.491
	c-4.142,0-7.5,3.357-7.5,7.5s3.358,7.5,7.5,7.5h294.606c40.199,0,72.903-32.704,72.903-72.902v-33.104
	C512,377.685,498.756,364.441,482.477,364.441z M226.847,214.844c0.156-7.489,0.682-15.183,1.526-22.922
	c8.769-4.421,15.477-9.26,20.047-13.061c1.607-1.336,3.938-1.336,5.544,0c2.439,2.029,5.491,4.354,9.137,6.754
	c-4.843,32.352-2.936,62.489,5.541,88.157c-3.415-0.156-6.833-0.26-10.255-0.26c-8.206,0-16.397,0.475-24.534,1.365
	C228.767,256.235,226.405,236.077,226.847,214.844z M96.411,364.441c17.787-21.305,39.759-39.123,64.28-51.973
	c29.909-15.674,63.692-23.958,97.696-23.958s67.787,8.284,97.696,23.958c24.521,12.85,46.493,30.667,64.28,51.973H96.411z"/>
<g>
</g>
<g>
</g>
<g>
</g>
<g>
</g>
<g>
</g>
<g>
</g>
<g>
</g>
<g>
</g>
<g>
</g>
<g>
</g>
<g>
</g>
<g>
</g>
<g>
</g>
<g>
</g>
<g>
</g>
</svg>
