<?xml version="1.0" encoding="iso-8859-1"?>
<!-- Generator: Adobe Illustrator 19.0.0, SVG Export Plug-In . SVG Version: 6.00 Build 0)  -->
<svg version="1.1" id="Capa_1" xmlns="http://www.w3.org/2000/svg" xmlns:xlink="http://www.w3.org/1999/xlink" x="0px" y="0px"
	 viewBox="0 0 512 512" style="enable-background:new 0 0 512 512;" xml:space="preserve">
<path style="fill:#8ADBA1;" d="M480.191,55.809c7.285-0.555,13.339,5.499,12.784,12.784c-1.492,19.578-9.182,58.15-44.31,93.277
	s-73.7,42.818-93.277,44.31c-7.285,0.555-13.339-5.499-12.784-12.784c1.492-19.578,9.182-58.15,44.31-93.277
	S460.613,57.301,480.191,55.809z"/>
<path style="opacity:0.1;enable-background:new    ;" d="M342.603,193.397c-0.555,7.285,5.499,13.339,12.784,12.784
	c11.427-0.871,29.329-3.865,49.236-13.183c9.873-17.696,18.945-42.654,18.945-74.672c0-15.879-2.237-30.015-5.69-42.4
	c-10.245,6.097-20.749,13.979-30.964,24.193C351.786,135.247,344.095,173.819,342.603,193.397z"/>
<path style="opacity:0.1;enable-background:new    ;" d="M381.446,174.838c-1.919,0-3.839-0.732-5.303-2.196
	c-2.929-2.93-2.929-7.678,0-10.607l72.686-72.686c2.929-2.928,7.678-2.928,10.606,0c2.929,2.93,2.929,7.678,0,10.607l-72.686,72.687
	C385.284,174.105,383.365,174.838,381.446,174.838z"/>
<path style="fill:#8ADBA1;" d="M351.718,11.658c4.759-5.544,13.32-5.544,18.079,0c12.789,14.898,34.625,47.611,34.625,97.289
	s-21.837,82.39-34.625,97.289c-4.759,5.544-13.32,5.544-18.079,0c-12.789-14.898-34.625-47.611-34.625-97.289
	S338.93,26.556,351.718,11.658z"/>
<path style="opacity:0.1;enable-background:new    ;" d="M360.758,167.844c-4.142,0-7.5-3.357-7.5-7.5V57.55
	c0-4.143,3.358-7.5,7.5-7.5s7.5,3.357,7.5,7.5v102.794C368.258,164.486,364.9,167.844,360.758,167.844z"/>
<path style="fill:#67C787;" d="M312.479,286.761L176.853,422.387c-34.497,34.497-83.811,50.462-134.114,43.418l0,0
	c-10.782-1.51-18.855-11.424-18.019-22.128l0,0C27.737,405.07,43.915,369.5,70.585,342.83l162.336-162.336
	c26.67-26.67,62.241-42.848,100.848-45.866l0,0c10.703-0.837,20.618,7.237,22.128,18.019l0,0
	C362.941,202.95,346.976,252.264,312.479,286.761z"/>
<path style="opacity:0.1;enable-background:new    ;" d="M312.479,286.761L176.853,422.387
	c-34.497,34.497-83.811,50.462-134.114,43.418l0,0c-10.782-1.51-18.855-11.424-18.019-22.128l0,0
	C27.737,405.07,43.915,369.5,70.585,342.83l162.336-162.336c26.67-26.67,62.241-42.848,100.848-45.866l0,0
	c10.703-0.837,20.618,7.237,22.128,18.019l0,0C362.941,202.95,346.976,252.264,312.479,286.761z"/>
<path style="opacity:0.05;enable-background:new    ;" d="M70.585,342.83c-26.67,26.67-42.848,62.24-45.866,100.847l0,0
	c-0.837,10.703,7.237,20.618,18.019,22.128l0,0c50.303,7.044,99.618-8.921,134.114-43.418l109.9-109.9
	c-94.291,56.605-150.653,8.692-161.007-24.818L70.585,342.83z"/>
<circle style="fill:#8ADBA1;" cx="167.229" cy="277.14" r="53.765"/>
<path style="opacity:0.05;enable-background:new    ;" d="M217.128,297.155c-68.209,27.377-87.738-45.428-63.717-71.981
	c-22.996,6.1-39.947,27.049-39.947,51.964c0,29.694,24.071,53.765,53.765,53.765C189.845,330.902,209.186,316.931,217.128,297.155z"
	/>
<circle style="fill:#8ADBA1;" cx="72.749" cy="380.25" r="53.765"/>
<path style="opacity:0.05;enable-background:new    ;" d="M122.652,400.268c-68.209,27.377-87.738-45.428-63.717-71.981
	c-22.996,6.1-39.947,27.049-39.947,51.964c0,29.694,24.071,53.765,53.765,53.765C95.369,434.016,114.71,420.044,122.652,400.268z"/>
<circle style="fill:#8ADBA1;" cx="270.339" cy="182.66" r="53.765"/>
<path style="opacity:0.05;enable-background:new    ;" d="M320.241,202.678c-68.209,27.377-87.738-45.428-63.717-71.981
	c-22.996,6.1-39.947,27.049-39.947,51.964c0,29.694,24.071,53.765,53.765,53.765C292.958,236.426,312.299,222.455,320.241,202.678z"
	/>
<path style="fill:#67C787;" d="M344.231,309.43L199.522,454.14c-36.807,36.807-88.308,54.958-140.059,49.363l0,0
	c-11.092-1.199-19.104-11.176-17.881-22.265l0,0c4.412-40.001,22.322-77.304,50.779-105.76L265.569,202.27
	c28.456-28.456,65.76-46.367,105.76-50.779l0,0c11.09-1.223,21.066,6.789,22.265,17.881l0,0
	C399.189,221.123,381.038,272.623,344.231,309.43z"/>
<path style="opacity:0.05;enable-background:new    ;" d="M146.622,321.215L92.36,375.477
	c-28.456,28.456-46.367,65.76-50.779,105.76l0,0c-1.223,11.09,6.789,21.066,17.881,22.265l0,0
	c51.752,5.595,103.252-12.556,140.059-49.363l114.776-114.776C213.38,408.4,154.25,354.668,146.622,321.215z"/>
<path d="M494.826,53.957c-4.007-4.006-9.545-6.059-15.203-5.626c-3.505,0.267-7.112,0.687-10.722,1.248
	c-4.093,0.638-6.894,4.473-6.257,8.565c0.637,4.093,4.469,6.886,8.564,6.257c3.223-0.502,6.436-0.877,9.553-1.113
	c1.765-0.142,2.924,0.742,3.459,1.276c0.534,0.534,1.411,1.694,1.276,3.459c-1.429,18.762-8.804,55.213-42.135,88.543
	c-12.364,12.364-26.214,22.2-41.285,29.342c-0.07-5.759-0.399-11.544-1.026-17.343c-0.013-0.122-0.034-0.241-0.048-0.363
	c7.24-18.554,10.92-38.475,10.92-59.255c0-6.771-0.395-13.235-1.099-19.406c8.664-6.268,17.918-11.531,27.567-15.665
	c3.808-1.631,5.572-6.039,3.941-9.847c-1.632-3.808-6.042-5.574-9.847-3.94c-8.436,3.614-16.587,8.019-24.36,13.117
	c-7.066-32.285-22.439-54.554-32.636-66.433C371.793,2.469,366.424,0,360.758,0s-11.036,2.469-14.73,6.773
	c-13.607,15.852-36.434,50.204-36.434,102.174c0,7.193,0.454,14.367,1.348,21.413c-2.158,0.455-4.307,0.943-6.441,1.479
	c-9.887-6.646-21.708-10.444-34.157-10.444c-33.782,0-61.265,27.483-61.265,61.265c0,3.455,0.296,6.867,0.859,10.211l-25.46,25.46
	c-5.511-1.607-11.305-2.458-17.247-2.458c-33.782,0-61.265,27.482-61.265,61.264c0,5.943,0.852,11.737,2.459,17.249l-25.459,25.459
	c-3.343-0.563-6.756-0.86-10.211-0.86c-33.782,0-61.265,27.483-61.265,61.265c0,12.449,3.798,24.271,10.444,34.158
	c-2.354,9.374-3.933,19.005-4.69,28.686c-0.966,12.363,6.788,23.967,18.093,28.451c-0.472,2.944-0.88,5.9-1.208,8.871
	c-0.812,7.358,1.294,14.589,5.929,20.36c4.635,5.772,11.241,9.389,18.601,10.185C65.086,511.655,71.521,512,77.946,512
	c26.137,0,52.045-5.713,75.875-16.83c3.754-1.751,5.377-6.214,3.626-9.968c-1.751-3.754-6.214-5.376-9.968-3.626
	c-27.207,12.694-57.363,17.701-87.208,14.471c-3.37-0.364-6.395-2.02-8.518-4.663c-2.122-2.643-3.087-5.954-2.715-9.323
	c4.209-38.163,21.479-74.132,48.627-101.279l25.12-25.12c0.01-0.01,0.02-0.02,0.03-0.03l97.539-97.539
	c0.013-0.013,0.026-0.026,0.039-0.039l50.481-50.481c27.148-27.148,63.117-44.418,101.28-48.627
	c3.369-0.376,6.679,0.593,9.322,2.714c2.303,1.85,3.856,4.385,4.458,7.238c0.004,0.017,0.008,0.033,0.011,0.05
	c0.084,0.404,0.149,0.815,0.194,1.231c0.949,8.775,1.18,17.52,0.747,26.169c-0.056,0.411-0.071,0.829-0.057,1.249
	c-2.301,39.921-19.061,77.692-47.9,106.531l-144.71,144.71c-5.095,5.095-10.576,9.898-16.291,14.275
	c-3.289,2.519-3.913,7.226-1.394,10.515c2.518,3.288,7.226,3.912,10.514,1.393c6.237-4.776,12.218-10.018,17.778-15.577
	l144.709-144.709c30.487-30.487,48.594-70.122,51.979-112.174c19.353-8.031,36.982-19.915,52.454-35.387
	c36.749-36.749,44.898-77.181,46.485-98.011C500.884,63.506,498.833,57.964,494.826,53.957z M38.438,456.332
	c-4.003-2.62-6.616-7.279-6.242-12.069c0.428-5.47,1.151-10.921,2.142-16.31c3.318,2.678,6.934,5.026,10.811,6.984
	C42.483,441.917,40.244,449.063,38.438,456.332z M87.057,370.173c-14.86,14.86-26.997,32.149-35.979,50.947
	c-14.939-7.932-24.59-23.606-24.59-40.87c0-25.511,20.754-46.265,46.265-46.265c13.421,0,26.019,5.795,34.751,15.74L87.057,370.173z
	 M118.131,339.099c-5.408-5.967-11.886-10.758-19.042-14.165l15.832-15.832c4.083,6.677,9.46,12.563,15.902,17.305L118.131,339.099z
	 M141.605,315.625c-8.127-5.398-14.225-13.102-17.609-22.009c-0.011-0.029-0.023-0.058-0.035-0.086
	c-1.942-5.143-2.998-10.674-2.998-16.392c0-25.51,20.754-46.264,46.265-46.264c5.726,0,11.264,1.059,16.413,3.006
	c0.012,0.005,0.023,0.009,0.035,0.014c8.919,3.382,16.635,9.485,22.039,17.621L141.605,315.625z M216.498,240.731
	c-4.743-6.442-10.629-11.819-17.306-15.902l15.832-15.832c3.408,7.156,8.198,13.634,14.166,19.042L216.498,240.731z
	 M260.265,196.965l-20.448,20.448c-9.945-8.732-15.74-21.33-15.74-34.752c0-25.511,20.754-46.265,46.265-46.265
	c17.263,0,32.936,9.651,40.869,24.591C292.413,169.968,275.125,182.106,260.265,196.965z M325.029,155.057
	c-1.958-3.876-4.306-7.493-6.984-10.811c5.39-0.99,10.84-1.714,16.309-2.141c4.791-0.383,9.451,2.235,12.072,6.241
	C339.156,150.152,332.009,152.392,325.029,155.057z M391.238,150.277c-0.125-0.104-0.245-0.212-0.371-0.313
	c-5.771-4.635-13.001-6.737-20.36-5.929c-2.97,0.328-5.927,0.736-8.87,1.208c-4.486-11.304-16.095-19.056-28.451-18.093
	c-2.481,0.194-4.959,0.449-7.431,0.75c-0.767-6.237-1.161-12.584-1.161-18.953c0-47.136,20.56-78.126,32.816-92.404
	c1.152-1.342,2.593-1.543,3.349-1.543s2.196,0.201,3.349,1.543c10.267,11.961,26.353,35.656,31.307,70.737
	c0.004,0.027,0.008,0.054,0.012,0.08c0.953,6.774,1.497,13.966,1.497,21.587C396.922,123.259,395.009,137.101,391.238,150.277z"/>
<g>
</g>
<g>
</g>
<g>
</g>
<g>
</g>
<g>
</g>
<g>
</g>
<g>
</g>
<g>
</g>
<g>
</g>
<g>
</g>
<g>
</g>
<g>
</g>
<g>
</g>
<g>
</g>
<g>
</g>
</svg>
