<?xml version="1.0" encoding="iso-8859-1"?>
<!-- Generator: Adobe Illustrator 19.0.0, SVG Export Plug-In . SVG Version: 6.00 Build 0)  -->
<svg version="1.1" id="Capa_1" xmlns="http://www.w3.org/2000/svg" xmlns:xlink="http://www.w3.org/1999/xlink" x="0px" y="0px"
	 viewBox="0 0 512.001 512.001" style="enable-background:new 0 0 512.001 512.001;" xml:space="preserve">
<g>
	<path style="fill:#F7D88B;" d="M316.975,377.221h-37.517c-2.932,0-5.091-2.744-4.401-5.594l16.669-68.869h-80.192l-32.4,94.017
		c-2.004,5.816,2.316,11.875,8.468,11.875h29.804c2.932,0,5.091,2.744,4.402,5.594l-17.149,70.851
		c-1.019,4.208,4.002,7.212,7.229,4.326l110.266-98.642C327.47,386.025,324.106,377.221,316.975,377.221z"/>
	<path style="fill:#F7D88B;" d="M449.813,349.636h-23.618c-1.846,0-3.205-1.728-2.771-3.522l10.494-43.356h-50.485l-20.397,59.188
		c-1.262,3.662,1.458,7.476,5.331,7.476h18.763c1.846,0,3.205,1.727,2.771,3.522l-10.796,44.604
		c-0.641,2.649,2.52,4.541,4.551,2.723l69.417-62.1C456.42,355.178,454.303,349.636,449.813,349.636z"/>
	<path style="fill:#F7D88B;" d="M145.607,349.636h-23.618c-1.846,0-3.205-1.728-2.771-3.522l10.494-43.356H79.227L58.83,361.946
		c-1.262,3.662,1.458,7.476,5.331,7.476h18.763c1.846,0,3.205,1.727,2.771,3.522l-10.796,44.604
		c-0.641,2.649,2.52,4.541,4.551,2.723l69.417-62.1C152.214,355.178,150.096,349.636,145.607,349.636z"/>
</g>
<g>
	<polygon style="fill:#EAC268;" points="79.227,302.758 69.963,329.641 123.205,329.641 129.711,302.758 	"/>
	<polygon style="fill:#EAC268;" points="211.534,302.758 202.27,329.641 285.219,329.641 291.726,302.758 	"/>
	<polygon style="fill:#EAC268;" points="383.433,302.758 374.169,329.641 427.411,329.641 433.918,302.758 	"/>
</g>
<path style="fill:#8BCDD8;" d="M327.896,105.531c-2.599-2.434-4.396-5.589-5.11-9.077c-8.301-40.551-44.176-71.057-87.182-71.057
	c-12.542,0-24.476,2.597-35.298,7.279c-3.426,1.482-7.357,1.238-10.498-0.779c-10.292-6.61-22.53-10.452-35.671-10.452
	c-33.131,0-60.565,24.358-65.389,56.142c-0.608,4.004-3.781,7.104-7.803,7.576c-38.493,4.517-68.363,37.227-68.363,76.933l0,0
	c0,9.058,7.343,16.401,16.401,16.401H336.04c9.058,0,16.401-7.343,16.401-16.401l0,0
	C352.441,139.777,342.998,119.67,327.896,105.531z"/>
<path style="fill:#B9E8EF;" d="M468.606,196.054c-3.801-3.559-6.428-8.173-7.472-13.274
	c-12.139-59.301-64.602-103.911-127.492-103.911c-18.341,0-35.793,3.798-51.619,10.645c-5.01,2.167-10.759,1.811-15.352-1.139
	c-15.051-9.667-32.948-15.285-52.165-15.285c-48.45,0-88.568,35.621-95.622,82.101c-0.889,5.855-5.53,10.388-11.411,11.079
	C51.181,172.874,7.5,220.707,7.5,278.773l0,0c0,13.246,10.738,23.985,23.985,23.985h449.03c13.246,0,23.985-10.738,23.985-23.985
	l0,0C504.5,246.134,490.691,216.73,468.606,196.054z"/>
<path style="fill:#ABDFEB;" d="M209.192,73.247c-46.042,2.495-83.514,37.174-90.309,81.943c-0.888,5.855-5.53,10.388-11.411,11.079
	C51.181,172.874,7.5,220.707,7.5,278.773l0,0c0,13.246,10.738,23.985,23.985,23.985h229.026
	C156.424,265.026,164.69,112.666,209.192,73.247z"/>
<g>
	<path style="fill:#8BCDD8;" d="M151.677,246.025c-4.036,0-7.368-3.209-7.492-7.271c-0.577-18.873,10.964-35.895,28.717-42.356
		c14.363-5.229,30.658-2.476,42.524,7.184c3.213,2.614,3.697,7.339,1.083,10.551c-2.615,3.213-7.339,3.697-10.551,1.082
		c-7.914-6.44-18.354-8.208-27.925-4.722c-11.656,4.242-19.233,15.415-18.854,27.802c0.126,4.141-3.127,7.6-7.268,7.726
		C151.833,246.024,151.755,246.025,151.677,246.025z"/>
	<path style="fill:#8BCDD8;" d="M403.396,231.885c-0.804,0-1.622-0.13-2.426-0.405c-3.919-1.339-6.011-5.603-4.672-9.521
		c4.387-12.838,1.157-26.769-8.429-36.355c-10.258-10.257-25.499-13.189-38.833-7.475c-3.807,1.636-8.216-0.13-9.849-3.937
		c-1.632-3.807,0.13-8.216,3.937-9.849c19.004-8.149,40.729-3.968,55.351,10.653c13.664,13.664,18.268,33.518,12.017,51.811
		C409.427,229.924,406.515,231.885,403.396,231.885z"/>
	<path style="fill:#8BCDD8;" d="M211.537,143.415c-0.735,0-1.481-0.108-2.22-0.337c-3.957-1.225-6.171-5.426-4.947-9.383
		c3.441-11.119,13.579-18.59,25.227-18.59c10.635,0,20.184,6.329,24.326,16.124c1.613,3.815-0.171,8.216-3.986,9.829
		c-3.815,1.612-8.215-0.17-9.829-3.985c-1.79-4.233-5.915-6.968-10.511-6.968c-5.032,0-9.412,3.225-10.898,8.025
		C217.703,141.348,214.738,143.415,211.537,143.415z"/>
</g>
<path d="M473.733,190.58c-2.709-2.536-4.525-5.754-5.252-9.304c-2.142-10.466-5.519-20.685-10.036-30.373
	c-1.751-3.754-6.214-5.381-9.967-3.627c-3.754,1.75-5.378,6.212-3.628,9.967c4.022,8.625,7.028,17.723,8.936,27.041
	c1.353,6.61,4.706,12.574,9.694,17.245c21.615,20.237,33.52,47.67,33.52,77.244c0,9.09-7.395,16.485-16.485,16.485H31.485
	c-9.09,0-16.485-7.396-16.485-16.485c0-40.102,22.426-75.461,55.978-93.369c0.342-0.145,0.667-0.322,0.981-0.514
	c11.077-5.764,23.338-9.641,36.388-11.172c9.178-1.078,16.56-8.233,17.952-17.402c3.168-20.872,13.746-40.028,29.787-53.939
	c16.2-14.05,36.947-21.787,58.421-21.787c17.116,0,33.752,4.874,48.111,14.096c6.638,4.265,15.005,4.902,22.383,1.713
	c10.645-4.606,21.763-7.638,33.202-9.07c0.146-0.011,0.291-0.03,0.437-0.05c4.946-0.601,9.949-0.909,15.002-0.909
	c35.022,0,68.457,15.032,91.729,41.241c2.751,3.098,7.491,3.378,10.588,0.629c3.097-2.751,3.378-7.491,0.628-10.588
	c-26.118-29.413-63.64-46.282-102.946-46.282c-3.843,0-7.66,0.164-11.45,0.474c-16.176-32.944-49.566-53.945-86.587-53.945
	c-13.287,0-26.165,2.656-38.277,7.896c-1.177,0.508-2.473,0.432-3.466-0.206c-11.859-7.616-25.596-11.643-39.725-11.643
	c-17.724,0-34.85,6.388-48.223,17.986C92.679,43.409,83.95,59.223,81.334,76.462c-0.102,0.672-0.61,1.176-1.262,1.252
	c-42.75,5.017-74.989,41.293-74.989,84.382c0,13.18,10.722,23.901,23.901,23.901H43.41C16.746,208.271,0,241.751,0,278.773
	c0,17.361,14.124,31.485,31.485,31.485h37.224l-16.97,49.245c-1.381,4.006-0.736,8.458,1.725,11.908
	c2.46,3.451,6.459,5.511,10.697,5.511h12.854l-9.406,38.862c-1.064,4.397,0.83,8.913,4.712,11.236
	c1.647,0.985,3.472,1.469,5.286,1.469c2.462,0,4.902-0.891,6.843-2.628l12.405-11.098c3.087-2.762,3.351-7.503,0.589-10.591
	c-2.763-3.086-7.503-3.35-10.59-0.589l-1.097,0.981l7.226-29.856c0.752-3.104,0.051-6.325-1.924-8.836
	c-1.976-2.511-4.94-3.951-8.135-3.951H66.771l17.804-51.664h35.605l-8.252,34.093c-0.751,3.104-0.049,6.325,1.926,8.835
	c1.975,2.511,4.94,3.95,8.134,3.95h16.788l-26.91,24.073c-3.087,2.762-3.351,7.503-0.589,10.591
	c1.481,1.655,3.533,2.499,5.592,2.499c1.78,0,3.567-0.63,4.998-1.91l32.001-28.628c3.862-3.455,5.163-8.815,3.313-13.656
	c-1.85-4.841-6.393-7.969-11.575-7.969h-17.71l7.716-31.878h65.404l-28.973,84.073c-1.73,5.019-0.922,10.595,2.16,14.917
	s8.091,6.902,13.399,6.902h26.028l-16.26,67.18c-1.234,5.098,0.961,10.331,5.461,13.024c1.909,1.142,4.025,1.702,6.126,1.702
	c2.853,0,5.681-1.033,7.932-3.046l110.266-98.643c4.759-4.257,6.362-10.862,4.083-16.827c-2.279-5.966-7.878-9.82-14.263-9.82
	h-33.74l14.393-59.463h75.288l-16.97,49.245c-1.381,4.006-0.736,8.458,1.725,11.908c2.46,3.451,6.459,5.511,10.697,5.511h12.855
	l-9.406,38.862c-1.064,4.397,0.83,8.913,4.712,11.236c1.648,0.985,3.472,1.47,5.286,1.469c2.461,0,4.902-0.891,6.843-2.628
	l69.418-62.101c3.862-3.455,5.163-8.815,3.313-13.656s-6.393-7.969-11.575-7.969h-17.71l7.716-31.878h40.696
	c17.361,0,31.485-14.124,31.485-31.485C512,245.494,498.052,213.348,473.733,190.58z M28.984,170.998
	c-4.908,0-8.901-3.993-8.901-8.901c0-35.482,26.541-65.353,61.738-69.484c7.334-0.861,13.232-6.577,14.343-13.899
	c2.082-13.716,9.035-26.306,19.578-35.449c10.646-9.233,24.282-14.318,38.396-14.318c11.248,0,22.182,3.203,31.619,9.264
	c5.206,3.343,11.759,3.848,17.527,1.352c10.22-4.421,21.094-6.663,32.321-6.663c29.585,0,56.43,15.88,70.807,41.164
	c-9.365,1.88-18.511,4.737-27.367,8.568c-2.784,1.205-5.894,0.993-8.321-0.566c-16.782-10.777-36.222-16.475-56.217-16.475
	c-25.084,0-49.322,9.04-68.249,25.455c-18.732,16.245-31.087,38.626-34.789,63.021c-0.387,2.548-2.344,4.459-4.87,4.755
	c-14.462,1.698-28.076,5.916-40.429,12.179H28.984V170.998z M316.975,384.721c0.1,0,0.146,0.013,0.15,0.013
	c0.073,0.053,0.152,0.26,0.135,0.339c0,0-0.023,0.042-0.106,0.116l-102.871,92.027l14.814-61.207
	c0.874-3.607,0.058-7.35-2.237-10.268c-2.296-2.918-5.741-4.591-9.454-4.591h-29.804c-0.621,0-0.988-0.332-1.186-0.611
	c-0.199-0.279-0.394-0.734-0.191-1.321l30.657-88.96h65.312l-14.427,59.604c-0.874,3.607-0.058,7.35,2.237,10.268
	c2.296,2.918,5.741,4.591,9.454,4.591H316.975z M442.982,357.136l-53.018,47.43l7.226-29.856c0.753-3.104,0.051-6.325-1.924-8.836
	c-1.976-2.511-4.94-3.951-8.135-3.951h-16.153l17.804-51.664h35.605l-8.252,34.093c-0.751,3.104-0.049,6.325,1.926,8.835
	c1.975,2.511,4.94,3.95,8.134,3.95h16.787V357.136z"/>
<g>
</g>
<g>
</g>
<g>
</g>
<g>
</g>
<g>
</g>
<g>
</g>
<g>
</g>
<g>
</g>
<g>
</g>
<g>
</g>
<g>
</g>
<g>
</g>
<g>
</g>
<g>
</g>
<g>
</g>
</svg>
