<?xml version="1.0" encoding="iso-8859-1"?>
<!-- Generator: Adobe Illustrator 19.0.0, SVG Export Plug-In . SVG Version: 6.00 Build 0)  -->
<svg version="1.1" id="Capa_1" xmlns="http://www.w3.org/2000/svg" xmlns:xlink="http://www.w3.org/1999/xlink" x="0px" y="0px"
	 viewBox="0 0 512 512" style="enable-background:new 0 0 512 512;" xml:space="preserve">
<path style="fill:#8ADBA1;" d="M170.313,138.28c33.617,26.034,48.306,66.93,53.805,87.221c1.736,6.408-3.12,12.679-9.758,12.6
	c-21.021-0.247-64.292-4.237-97.909-30.271s-48.306-66.93-53.804-87.222c-1.736-6.408,3.12-12.679,9.758-12.601
	C93.425,108.256,136.696,112.246,170.313,138.28z"/>
<path style="opacity:0.1;enable-background:new    ;" d="M177.834,207.241c-1.605,0-3.221-0.512-4.587-1.57L104.332,152.3
	c-3.275-2.536-3.874-7.247-1.338-10.521c2.535-3.277,7.246-3.875,10.521-1.338l68.915,53.371c3.275,2.536,3.874,7.247,1.338,10.521
	C182.291,206.242,180.074,207.241,177.834,207.241z"/>
<path style="fill:#67C787;" d="M236.362,97.307c17.19,38.889,10.662,81.85,5.848,102.315c-1.52,6.463-8.774,9.669-14.577,6.443
	c-18.374-10.215-54.541-34.304-71.731-73.193s-10.662-81.85-5.849-102.315c1.52-6.463,8.774-9.669,14.577-6.443
	C183.005,34.329,219.172,58.418,236.362,97.307z"/>
<path style="opacity:0.1;enable-background:new    ;" d="M213.756,162.453c-2.879,0-5.625-1.667-6.863-4.47l-35.24-79.724
	c-1.675-3.788,0.039-8.218,3.827-9.892c3.786-1.678,8.217,0.038,9.892,3.827l35.24,79.724c1.675,3.788-0.039,8.218-3.827,9.892
	C215.799,162.247,214.769,162.453,213.756,162.453z"/>
<path style="fill:#8ADBA1;" d="M341.685,138.28c-33.617,26.034-48.306,66.93-53.804,87.221c-1.737,6.408,3.12,12.679,9.758,12.6
	c21.021-0.247,64.292-4.237,97.909-30.271s48.306-66.93,53.804-87.222c1.737-6.408-3.12-12.679-9.758-12.601
	C418.573,108.256,375.302,112.246,341.685,138.28z"/>
<path style="opacity:0.1;enable-background:new    ;" d="M334.164,207.241c-2.24,0-4.457-0.999-5.935-2.908
	c-2.536-3.274-1.938-7.985,1.338-10.521l68.915-53.371c3.273-2.537,7.985-1.939,10.522,1.338c2.536,3.274,1.938,7.985-1.338,10.521
	l-68.915,53.371C337.385,206.73,335.769,207.241,334.164,207.241z"/>
<path style="fill:#67C787;" d="M275.637,97.307c-17.19,38.889-10.662,81.85-5.849,102.315c1.52,6.463,8.774,9.669,14.577,6.443
	c18.374-10.215,54.541-34.304,71.731-73.193s10.662-81.85,5.848-102.315c-1.52-6.463-8.774-9.669-14.577-6.443
	C328.993,34.329,292.827,58.418,275.637,97.307z"/>
<path style="opacity:0.1;enable-background:new    ;" d="M298.242,162.453c-1.013,0-2.042-0.206-3.028-0.643
	c-3.788-1.674-5.502-6.104-3.827-9.892l35.24-79.724c1.674-3.788,6.102-5.503,9.892-3.827c3.788,1.674,5.502,6.104,3.827,9.892
	l-35.24,79.724C303.867,160.786,301.121,162.453,298.242,162.453z"/>
<path style="fill:#8ADBA1;" d="M299.984,107.417c0,42.519-23.34,79.173-36.016,95.944c-4.003,5.296-11.934,5.296-15.937,0
	c-12.676-16.772-36.016-53.426-36.016-95.944s23.34-79.173,36.016-95.945c4.003-5.296,11.934-5.296,15.937,0
	C276.644,28.244,299.984,64.898,299.984,107.417z"/>
<path style="opacity:0.1;enable-background:new    ;" d="M255.999,158.499c-4.143,0-7.5-3.357-7.5-7.5V63.834
	c0-4.143,3.357-7.5,7.5-7.5c4.143,0,7.5,3.357,7.5,7.5v87.165C263.499,155.142,260.142,158.499,255.999,158.499z"/>
<path style="opacity:0.1;enable-background:new    ;" d="M355.347,190.962c-27.512-24.067-62.795-37.321-99.348-37.321
	s-71.836,13.254-99.348,37.321c-9.275,8.113-17.444,17.269-24.393,27.225c30.391,16.792,64.259,19.705,82.101,19.915
	c6.639,0.078,11.495-6.193,9.758-12.601c-1.927-7.111-4.989-16.757-9.593-27.403c4.896,3.231,9.374,5.891,13.109,7.967
	c5.803,3.226,13.057,0.019,14.577-6.443c0.244-1.038,0.493-2.148,0.742-3.298c1.81,2.626,3.525,4.983,5.078,7.038
	c4.003,5.296,11.934,5.296,15.937,0c1.553-2.055,3.267-4.412,5.078-7.038c0.25,1.15,0.498,2.26,0.742,3.298
	c1.52,6.463,8.774,9.669,14.577,6.443c3.735-2.077,8.213-4.736,13.109-7.967c-4.604,10.646-7.666,20.292-9.593,27.403
	c-1.736,6.408,3.12,12.679,9.758,12.601c17.842-0.21,51.71-3.123,82.101-19.915C372.792,208.231,364.622,199.075,355.347,190.962z"
	/>
<path style="fill:#F7D88B;" d="M255.999,173.055L255.999,173.055c-65.855,0-121.551,48.721-130.311,113.99l0,0
	c-4.608,34.334-4.608,69.13,0,103.464l0,0c8.76,65.27,64.456,113.991,130.311,113.991l0,0c65.855,0,121.551-48.721,130.311-113.99
	l0,0c4.608-34.334,4.608-69.13,0-103.464l0,0C377.55,221.776,321.854,173.055,255.999,173.055z"/>
<path style="fill:#464D59;" d="M255.999,337.387L255.999,337.387c-10.836,0-19.621-8.784-19.621-19.621v-14.265
	c0-2.958,2.398-5.356,5.356-5.356h28.529c2.958,0,5.356,2.398,5.356,5.356v14.265C275.62,328.603,266.835,337.387,255.999,337.387z"
	/>
<path style="fill:#F4CF7A;" d="M125.688,390.51c8.76,65.269,64.456,113.99,130.311,113.99l0,0c15.853,0,31.114-2.831,45.276-8.028
	c-200.693-96.014-116.08-272.479-69.553-321.17c-54.837,10.264-98.375,54.678-106.034,111.744l0,0
	C121.08,321.38,121.08,356.176,125.688,390.51L125.688,390.51z"/>
<g>
	<path style="fill:#EAC268;" d="M268.283,264.206c-1.919,0-3.839-0.732-5.304-2.196l-6.98-6.981l-6.98,6.981
		c-2.93,2.928-7.678,2.928-10.607,0c-2.929-2.93-2.929-7.678,0-10.607l12.284-12.284c2.93-2.928,7.678-2.928,10.607,0l12.284,12.284
		c2.929,2.93,2.929,7.678,0,10.607C272.122,263.474,270.202,264.206,268.283,264.206z"/>
	<path style="fill:#EAC268;" d="M194.888,264.206c-1.919,0-3.839-0.732-5.304-2.196l-6.98-6.981l-6.981,6.981
		c-2.93,2.928-7.678,2.928-10.607,0c-2.929-2.93-2.929-7.678,0-10.607l12.284-12.284c2.93-2.928,7.678-2.928,10.607,0l12.284,12.284
		c2.929,2.93,2.929,7.678,0,10.607C198.726,263.474,196.807,264.206,194.888,264.206z"/>
	<path style="fill:#EAC268;" d="M231.585,229.425c-1.919,0-3.839-0.732-5.304-2.196l-6.98-6.981l-6.98,6.981
		c-2.93,2.928-7.678,2.928-10.607,0c-2.929-2.93-2.929-7.678,0-10.607l12.284-12.284c2.93-2.928,7.678-2.928,10.607,0l12.284,12.284
		c2.929,2.93,2.929,7.678,0,10.607C235.424,228.692,233.504,229.425,231.585,229.425z"/>
	<path style="fill:#EAC268;" d="M341.679,264.206c-1.919,0-3.839-0.732-5.304-2.196l-6.98-6.981l-6.98,6.981
		c-2.93,2.928-7.678,2.928-10.607,0c-2.929-2.93-2.929-7.678,0-10.607l12.284-12.284c2.93-2.928,7.678-2.928,10.607,0l12.284,12.284
		c2.929,2.93,2.929,7.678,0,10.607C345.518,263.474,343.598,264.206,341.679,264.206z"/>
	<path style="fill:#EAC268;" d="M304.981,229.425c-1.919,0-3.839-0.732-5.304-2.196l-6.98-6.981l-6.98,6.981
		c-2.93,2.928-7.678,2.928-10.607,0c-2.929-2.93-2.929-7.678,0-10.607l12.284-12.284c2.93-2.928,7.678-2.928,10.608,0l12.284,12.284
		c2.929,2.93,2.929,7.678,0,10.607C308.82,228.692,306.9,229.425,304.981,229.425z"/>
	<path style="fill:#EAC268;" d="M268.283,411.498c-1.919,0-3.839-0.732-5.304-2.196l-6.98-6.982l-6.98,6.981
		c-2.93,2.928-7.678,2.928-10.607,0c-2.929-2.93-2.929-7.678,0-10.607l12.284-12.284c2.93-2.928,7.678-2.928,10.607,0l12.284,12.284
		c2.929,2.93,2.929,7.678,0,10.607C272.122,410.766,270.202,411.498,268.283,411.498z"/>
	<path style="fill:#EAC268;" d="M268.283,481.06c-1.919,0-3.839-0.733-5.304-2.196l-6.98-6.982l-6.98,6.982
		c-2.93,2.928-7.678,2.928-10.607,0c-2.929-2.93-2.929-7.678,0-10.607l12.284-12.284c2.93-2.928,7.678-2.928,10.607,0l12.284,12.284
		c2.929,2.93,2.929,7.678,0,10.607C272.122,480.327,270.202,481.06,268.283,481.06z"/>
	<path style="fill:#EAC268;" d="M194.888,411.498c-1.919,0-3.839-0.732-5.304-2.196l-6.98-6.981l-6.981,6.981
		c-2.93,2.928-7.678,2.928-10.607,0c-2.929-2.93-2.929-7.678,0-10.607l12.284-12.284c2.93-2.928,7.678-2.928,10.607,0l12.284,12.284
		c2.929,2.93,2.929,7.678,0,10.607C198.726,410.766,196.807,411.498,194.888,411.498z"/>
	<path style="fill:#EAC268;" d="M231.585,376.717c-1.919,0-3.839-0.732-5.304-2.196l-6.98-6.981l-6.98,6.981
		c-2.93,2.928-7.678,2.928-10.607,0c-2.929-2.93-2.929-7.678,0-10.607l12.284-12.284c2.93-2.928,7.678-2.928,10.607,0l12.284,12.284
		c2.929,2.93,2.929,7.678,0,10.607C235.424,375.984,233.504,376.717,231.585,376.717z"/>
	<path style="fill:#EAC268;" d="M341.679,411.498c-1.919,0-3.839-0.732-5.304-2.196l-6.98-6.981l-6.98,6.981
		c-2.93,2.928-7.678,2.928-10.607,0c-2.929-2.93-2.929-7.678,0-10.607l12.284-12.284c2.93-2.928,7.678-2.928,10.607,0l12.284,12.284
		c2.929,2.93,2.929,7.678,0,10.607C345.518,410.766,343.598,411.498,341.679,411.498z"/>
	<path style="fill:#EAC268;" d="M304.981,376.717c-1.919,0-3.839-0.732-5.304-2.196l-6.98-6.981l-6.98,6.981
		c-2.93,2.928-7.678,2.928-10.607,0c-2.929-2.93-2.929-7.678,0-10.607l12.284-12.284c2.93-2.928,7.678-2.928,10.608,0l12.284,12.284
		c2.929,2.93,2.929,7.678,0,10.607C308.82,375.984,306.9,376.717,304.981,376.717z"/>
	<path style="fill:#EAC268;" d="M231.585,446.278c-1.919,0-3.839-0.732-5.304-2.196l-6.98-6.981l-6.98,6.981
		c-2.93,2.928-7.678,2.928-10.607,0c-2.929-2.93-2.929-7.678,0-10.607l12.284-12.284c2.93-2.928,7.678-2.928,10.607,0l12.284,12.284
		c2.929,2.93,2.929,7.678,0,10.607C235.424,445.546,233.504,446.278,231.585,446.278z"/>
	<path style="fill:#EAC268;" d="M304.981,446.278c-1.919,0-3.839-0.732-5.304-2.196l-6.98-6.981l-6.98,6.981
		c-2.93,2.928-7.678,2.928-10.607,0c-2.929-2.93-2.929-7.678,0-10.607l12.284-12.284c2.93-2.928,7.678-2.928,10.608,0l12.284,12.284
		c2.929,2.93,2.929,7.678,0,10.607C308.82,445.546,306.9,446.278,304.981,446.278z"/>
</g>
<path d="M453.544,107.286c-3.342-4.315-8.37-6.778-13.827-6.778c-0.07,0-0.141,0.001-0.211,0.002
	c-3.13,0.037-6.34,0.149-9.541,0.335c-4.135,0.239-7.293,3.785-7.054,7.921c0.239,4.135,3.778,7.293,7.921,7.054
	c2.973-0.172,5.951-0.276,8.85-0.312h0.033c1.065,0,1.691,0.602,1.97,0.962c0.282,0.364,0.713,1.132,0.429,2.178
	c-5.589,20.626-19.668,58.868-51.157,83.254c-7.836,6.068-16.804,11.259-26.702,15.486c-5.037-6.256-10.631-12.105-16.751-17.458
	c-6.501-5.687-13.476-10.713-20.819-15.051c16.27-14.864,28.457-31.296,36.271-48.974c0.45-1.019,0.875-2.042,1.295-3.065
	c10.553-5.447,22.402-9.706,35.298-12.641c4.039-0.92,6.568-4.939,5.648-8.977c-0.918-4.039-4.939-6.57-8.977-5.648
	c-9.05,2.059-17.648,4.733-25.739,7.963c8.083-33.43,3.114-66.2-1.235-84.695c-1.267-5.389-4.894-9.762-9.949-11.997
	c-5.058-2.235-10.732-1.976-15.573,0.716c-10.813,6.012-29.956,18.063-47.2,36.079c-7.998-20.053-18.759-36.35-26.571-46.688
	C266.613,2.533,261.527,0,255.999,0c-5.528,0-10.614,2.533-13.952,6.95c-7.813,10.338-18.573,26.636-26.571,46.688
	c-17.245-18.016-36.388-30.067-47.201-36.08c-4.838-2.689-10.513-2.95-15.572-0.715c-5.056,2.235-8.683,6.608-9.949,11.997
	c-4.349,18.493-9.318,51.258-1.238,84.684c-26.973-10.754-53.93-12.838-69.024-13.015c-5.535-0.084-10.652,2.405-14.036,6.776
	c-3.385,4.371-4.495,9.942-3.048,15.285c6.081,22.438,21.502,64.123,56.452,91.189c8.028,6.217,17.07,11.597,26.949,16.077
	c-10.767,16.891-17.845,36.041-20.552,56.211c-4.696,34.989-4.696,70.471,0,105.459c3.499,26.072,14.248,50.494,31.086,70.626
	c2.657,3.176,7.387,3.598,10.564,0.941c3.178-2.657,3.599-7.388,0.941-10.564c-15.017-17.954-24.604-39.738-27.725-62.998
	c-4.518-33.664-4.518-67.804,0-101.468c3.995-29.767,18.644-57.05,41.249-76.824s51.595-30.664,81.628-30.664
	s59.022,10.89,81.628,30.664c22.605,19.774,37.254,47.058,41.249,76.824c4.518,33.664,4.518,67.804,0,101.468
	c-3.995,29.767-18.644,57.05-41.249,76.824C315.021,486.11,286.032,497,255.999,497c-25.427,0-49.882-7.658-70.722-22.146
	c-3.403-2.365-8.076-1.524-10.439,1.877c-2.364,3.401-1.523,8.075,1.877,10.439c23.366,16.244,50.782,24.83,79.284,24.83
	c33.667,0,66.164-12.208,91.504-34.374s41.762-52.751,46.24-86.118c4.696-34.989,4.696-70.471,0-105.46
	c-2.707-20.17-9.785-39.319-20.552-56.211c9.878-4.48,18.921-9.859,26.949-16.077c34.951-27.065,50.371-68.751,56.452-91.189
	C458.039,117.229,456.929,111.657,453.544,107.286z M164.495,199.93c-6.12,5.354-11.714,11.202-16.751,17.458
	c-9.898-4.228-18.866-9.418-26.702-15.486c-31.489-24.387-45.568-62.629-51.157-83.254c-0.284-1.046,0.148-1.813,0.429-2.178
	c0.279-0.36,0.905-0.962,1.969-0.962h0.033c16.205,0.191,47.169,2.728,75.421,17.304c0.424,1.033,0.852,2.065,1.307,3.093
	c7.814,17.678,20.001,34.11,36.271,48.974C177.971,189.216,170.996,194.243,164.495,199.93z M199.611,177.515
	c-16.849-14.434-29.237-30.454-36.849-47.676c-0.751-1.7-1.44-3.41-2.098-5.124c-0.009-0.023-0.018-0.047-0.027-0.071
	c-13.415-35.009-7.943-72.554-3.282-92.37c0.248-1.056,0.992-1.525,1.413-1.712c0.423-0.185,1.271-0.418,2.219,0.106
	c11.163,6.206,31.896,19.342,48.961,39.187c-3.322,11.717-5.433,24.345-5.433,37.561c0,20.487,5.039,41.647,14.98,63.022
	C212.694,172.29,206.048,174.658,199.611,177.515z M277.419,167.219c-7.047-1.099-14.206-1.663-21.42-1.663
	c-7.214,0-14.373,0.565-21.42,1.663c-9.994-20.45-15.064-40.545-15.064-59.802c0-12.804,2.241-25.056,5.7-36.362
	c0.183-0.438,0.323-0.89,0.421-1.351c7.363-23.253,19.801-42.362,28.378-53.71c0.654-0.865,1.524-0.994,1.985-0.994
	c0.461,0,1.331,0.129,1.985,0.995c8.577,11.348,21.016,30.456,28.378,53.709c0.098,0.461,0.237,0.913,0.421,1.351
	c3.459,11.306,5.7,23.558,5.7,36.362C292.483,126.674,287.413,146.769,277.419,167.219z M312.387,177.515
	c-6.437-2.858-13.083-5.226-19.883-7.077c9.941-21.375,14.979-42.535,14.979-63.022c0-13.216-2.112-25.844-5.433-37.561
	c17.065-19.846,37.799-32.981,48.96-39.186c0.95-0.529,1.799-0.293,2.22-0.107c0.421,0.187,1.165,0.656,1.413,1.712
	c4.661,19.817,10.133,57.362-3.282,92.371c-0.01,0.024-0.018,0.048-0.028,0.073c-0.658,1.713-1.346,3.423-2.097,5.122
	C341.624,147.061,329.236,163.081,312.387,177.515z M332.367,308.872v-11.624c0-4.142-3.357-7.5-7.5-7.5s-7.5,3.358-7.5,7.5v11.624
	c0,4.142,3.357,7.5,7.5,7.5C329.01,316.372,332.367,313.015,332.367,308.872z M187.131,316.372c4.143,0,7.5-3.358,7.5-7.5v-11.624
	c0-4.142-3.357-7.5-7.5-7.5s-7.5,3.358-7.5,7.5v11.624C179.631,313.015,182.988,316.372,187.131,316.372z M283.12,317.767v-14.265
	c0-7.089-5.768-12.857-12.857-12.857h-28.529c-7.089,0-12.856,5.768-12.856,12.857v14.265c0,14.954,12.166,27.12,27.121,27.12
	C270.954,344.887,283.12,332.721,283.12,317.767z M243.878,317.767v-12.121h24.242v12.121c0,6.683-5.438,12.12-12.121,12.12
	C249.316,329.887,243.878,324.449,243.878,317.767z"/>
<g>
</g>
<g>
</g>
<g>
</g>
<g>
</g>
<g>
</g>
<g>
</g>
<g>
</g>
<g>
</g>
<g>
</g>
<g>
</g>
<g>
</g>
<g>
</g>
<g>
</g>
<g>
</g>
<g>
</g>
</svg>
