<?xml version="1.0" encoding="iso-8859-1"?>
<!-- Generator: Adobe Illustrator 19.0.0, SVG Export Plug-In . SVG Version: 6.00 Build 0)  -->
<svg version="1.1" id="Capa_1" xmlns="http://www.w3.org/2000/svg" xmlns:xlink="http://www.w3.org/1999/xlink" x="0px" y="0px"
	 viewBox="0 0 512 512" style="enable-background:new 0 0 512 512;" xml:space="preserve">
<path style="fill:#67C787;" d="M121.102,74.522c29.523,35.185,37.588,80.538,39.752,105.232c0.813,9.279-7.825,16.525-16.82,14.114
	c-23.944-6.419-67.206-22.236-96.73-57.421S9.715,55.909,7.551,31.215c-0.813-9.279,7.825-16.525,16.82-14.114
	C48.314,23.521,91.577,39.337,121.102,74.522z"/>
<path style="opacity:0.1;enable-background:new    ;" d="M160.853,179.754c-2.164-24.694-10.227-70.046-39.751-105.232
	c-2.539-3.026-5.185-5.898-7.906-8.643C82.21,81.192,60.658,112.7,59.607,149.349c28.281,26.276,63.636,38.945,84.427,44.519
	C153.029,196.279,161.666,189.032,160.853,179.754z"/>
<path style="opacity:0.1;enable-background:new    ;" d="M122.487,158.605c-2.141,0-4.266-0.911-5.749-2.679L40.177,64.684
	c-2.663-3.174-2.249-7.904,0.924-10.565c3.174-2.664,7.904-2.248,10.565,0.924l76.56,91.242c2.663,3.174,2.249,7.904-0.924,10.565
	C125.898,158.03,124.187,158.605,122.487,158.605z"/>
<path style="fill:#E9F4A4;" d="M275.912,168.284v-1.273c0-53.037-42.422-96.998-95.457-97.391
	c-53.457-0.396-96.916,42.819-96.916,96.184v2.47c0,29.991-10.013,58.961-27.719,83.168c-19,25.976-30.029,58.147-29.484,92.92
	c1.273,81.079,66.358,147.738,147.388,150.828c87.459,3.335,159.409-66.577,159.409-153.293c0-34.07-11.11-65.543-29.902-90.999
	C285.557,226.957,275.912,198.042,275.912,168.284z"/>
<path style="fill:#A8EFBB;" d="M303.23,250.898c-17.673-23.941-27.319-52.856-27.319-82.613v-1.273
	c0-53.037-42.422-96.998-95.457-97.391c-53.457-0.396-96.916,42.819-96.916,96.184v2.47c0,29.99-10.012,58.961-27.719,83.168
	c-19,25.976-30.029,58.147-29.484,92.92c1.273,81.08,66.358,147.738,147.388,150.828c87.459,3.335,159.409-66.577,159.409-153.293
	C333.133,307.826,322.022,276.355,303.23,250.898z M268.983,431.157c-23.84,23.84-55.539,36.97-89.253,36.97
	c-0.002,0-0.002,0-0.004,0c-1.648,0-3.318-0.032-4.967-0.095c-32.198-1.228-62.457-14.723-85.198-38.002
	c-22.741-23.278-35.544-53.853-36.051-86.095c-0.435-27.733,7.95-54.168,24.246-76.448c21.563-29.48,32.96-63.787,32.96-99.212
	v-2.47c0-38.052,30.956-69.008,69.008-69.008l0.527,0.002c37.761,0.28,68.482,31.777,68.482,70.214v1.272
	c0,35.687,11.283,69.835,32.63,98.755c16.088,21.792,24.591,47.678,24.591,74.858C305.954,375.616,292.825,407.315,268.983,431.157z
	"/>
<path style="opacity:0.1;enable-background:new    ;" d="M166.821,70.483c-47.02,6.306-83.284,46.575-83.284,95.321v2.47
	c0,29.99-10.012,58.961-27.719,83.168c-19,25.976-30.029,58.147-29.484,92.92c1.273,81.08,66.358,147.738,147.388,150.828
	c30.143,1.149,58.444-6.405,82.593-20.347C48.013,382.1,115.354,145.287,166.821,70.483z"/>
<circle style="fill:#B38A82;" cx="179.721" cy="341.902" r="65.007"/>
<path style="opacity:0.1;enable-background:new    ;" d="M227.32,386.152c-69.022,12.224-89.531-78.394-65.096-106.858
	c-27.398,7.644-47.505,32.766-47.505,62.602c0,35.901,29.104,65.005,65.005,65.005C198.525,406.902,215.452,398.911,227.32,386.152z
	"/>
<path style="fill:#464D59;" d="M488.872,199.057l0.329-1.229c13.727-51.229-15.871-104.673-66.999-118.779
	c-51.533-14.218-104.696,16.276-118.508,67.823l-0.639,2.386c-7.763,28.97-24.932,54.36-48.3,73.159
	c-25.075,20.173-44.056,48.394-52.528,82.123c-19.755,78.646,25.859,159.879,103.329,183.836
	c83.616,25.857,171.208-23.051,193.652-106.813c8.819-32.909,6.232-66.185-5.331-95.638
	C483.003,258.227,481.17,227.8,488.872,199.057z"/>
<path style="opacity:0.1;enable-background:new    ;" d="M473.082,434.848c-158.814,73.591-236.398-101.71-153.85-183.376
	c40.814-40.377,13.215-115.633,32.476-164.764c-22.846,12.065-40.799,33.24-48.013,60.164l-0.639,2.386
	c-7.763,28.97-24.932,54.36-48.3,73.159c-25.075,20.173-44.056,48.394-52.528,82.123c-19.755,78.646,25.859,159.879,103.329,183.836
	C369.296,508.086,435.34,484.347,473.082,434.848z"/>
<g style="opacity:0.3;">
	<circle style="fill:#FFFFFF;" cx="252.007" cy="294.805" r="7.282"/>
	<circle style="fill:#FFFFFF;" cx="265.786" cy="392.34" r="7.282"/>
	<circle style="fill:#FFFFFF;" cx="307.034" cy="362.361" r="7.282"/>
	<circle style="fill:#FFFFFF;" cx="295.355" cy="414.179" r="7.282"/>
	<circle style="fill:#FFFFFF;" cx="443.707" cy="152.022" r="7.282"/>
	<circle style="fill:#FFFFFF;" cx="448.077" cy="213.179" r="7.282"/>
	<circle style="fill:#FFFFFF;" cx="409.799" cy="178.231" r="7.282"/>
</g>
<g style="opacity:0.1;">
	<circle cx="273.066" cy="335.673" r="7.282"/>
	<circle cx="319.234" cy="294.805" r="7.282"/>
	<circle cx="455.357" cy="276.896" r="7.282"/>
	<circle cx="390.23" cy="130.103" r="7.282"/>
	<circle cx="450.987" cy="389.86" r="7.282"/>
	<circle cx="465.546" cy="362.361" r="7.282"/>
</g>
<path d="M500.859,283.184c-7.258-18.482-10.304-38.646-8.811-58.312c0.313-4.13-2.78-7.732-6.911-8.046
	c-4.137-0.315-7.733,2.78-8.046,6.911c-1.663,21.904,1.727,44.356,9.806,64.929c11.446,29.156,13.198,60.609,5.068,90.955
	c-10.36,38.665-35.369,70.617-70.42,89.973c-35.032,19.344-75.439,23.47-113.772,11.615c-13.646-4.22-26.428-10.369-38.046-18.187
	c-0.102-0.072-0.204-0.144-0.309-0.211c-7.321-4.953-14.178-10.567-20.488-16.79c-0.195-0.221-0.402-0.428-0.618-0.621
	c-9.436-9.418-17.641-20.187-24.34-32.109c-2.919-5.195-5.502-10.52-7.75-15.949c-0.062-0.173-0.132-0.344-0.207-0.514
	c-11.753-28.684-14.114-60.202-6.513-90.463c7.809-31.088,25.083-58.097,49.954-78.106c0.872-0.702,1.713-1.429,2.567-2.146
	c0.021-0.018,0.043-0.035,0.064-0.053c23.766-19.974,40.42-45.778,48.214-74.865l0.638-2.384
	c6.164-23.002,20.941-42.186,41.609-54.016c20.666-11.829,44.693-14.855,67.661-8.52c21.374,5.898,39.614,19.627,51.36,38.659
	c11.648,18.876,15.955,41.287,12.125,63.105c-0.717,4.08,2.01,7.968,6.09,8.684c4.076,0.722,7.968-2.011,8.684-6.09
	c4.467-25.44-0.554-51.569-14.134-73.575c-13.741-22.266-35.098-38.332-60.135-45.24c-26.847-7.407-54.939-3.87-79.101,9.959
	c-24.164,13.831-41.44,36.259-48.647,63.154l-0.638,2.384c-2.79,10.41-6.861,20.355-12.09,29.697c-0.2-2.915-0.311-5.828-0.311-8.73
	v-1.272c0-57.416-46.161-104.471-102.901-104.891c-0.266-0.002-0.527-0.003-0.792-0.003c-17.413,0-34.167,4.266-49.083,12.305
	c-1.244-1.615-2.509-3.195-3.789-4.722C95.863,32.775,50.559,16.357,26.313,9.857C19.726,8.092,12.68,9.65,7.462,14.029
	c-5.217,4.378-7.978,11.047-7.383,17.84c2.191,25.008,10.494,72.473,41.478,109.397c9.483,11.299,21.048,21.532,34.41,30.463
	c-0.716,26.793-9.724,52.754-26.203,75.284c-20.788,28.421-31.482,62.123-30.928,97.466c0.646,41.145,16.954,80.135,45.919,109.783
	c28.975,29.656,67.571,46.853,108.682,48.421c2.114,0.081,4.222,0.121,6.324,0.121c30.535,0,59.917-8.481,85.626-24.697
	c11.725,7.382,24.458,13.258,37.954,17.432c15.816,4.892,31.952,7.315,47.979,7.315c26.803-0.001,53.299-6.779,77.476-20.13
	c38.652-21.345,66.231-56.582,77.656-99.221C515.421,350.039,513.486,315.348,500.859,283.184z M53.047,131.625
	C24.708,97.852,17.059,53.809,15.022,30.561c-0.171-1.95,0.588-3.788,2.082-5.042c1.494-1.253,3.437-1.68,5.325-1.174
	c22.542,6.043,64.588,21.224,92.927,54.997c0.867,1.033,1.723,2.1,2.574,3.182c-3.939,2.936-7.699,6.167-11.248,9.69
	c-16.906,16.781-27.307,38.337-29.96,61.65C67.724,147.089,59.78,139.649,53.047,131.625z M174.01,487.697
	c-37.257-1.421-72.247-17.017-98.524-43.915c-26.274-26.894-41.065-62.243-41.651-99.538c-0.503-32.051,9.192-62.61,28.038-88.374
	c19.08-26.086,29.166-56.375,29.166-87.596v-2.47c0-23.815,9.309-46.169,26.211-62.946c16.9-16.774,39.316-25.952,63.15-25.739
	c48.531,0.36,88.014,40.686,88.014,89.891v1.272c0,9.112,0.888,18.31,2.634,27.392c-3.131,3.864-6.49,7.58-10.075,11.129
	c-3.143-12.533-4.737-25.444-4.737-38.522v-1.271c0-42.541-34.06-77.404-75.953-77.715l-0.555-0.002
	c-42.186,0-76.508,34.321-76.508,76.509v2.47c0,33.822-10.897,66.6-31.515,94.785c-17.268,23.61-26.152,51.617-25.69,80.993
	c0.47,29.981,10.726,58.209,29.658,81.632c1.482,1.833,3.65,2.785,5.838,2.785c1.655,0,3.322-0.545,4.71-1.667
	c3.222-2.605,3.722-7.326,1.118-10.547c-16.806-20.791-25.91-45.84-26.327-72.437c-0.409-26.086,7.475-50.948,22.8-71.902
	c22.51-30.773,34.407-66.612,34.407-103.641v-2.47c0-33.916,27.593-61.51,61.481-61.51l0.499,0.002
	c33.655,0.25,61.037,28.384,61.037,62.716v1.271c0,16.908,2.436,33.565,7.23,49.596c-18.679,15.417-33.359,34.464-43.366,56.093
	c-8.089-3.04-16.591-4.582-25.373-4.582c-39.978,0-72.504,32.525-72.504,72.504c0,39.98,32.525,72.505,72.504,72.505
	c8.858,0,17.427-1.568,25.577-4.659c1.722,3.684,3.583,7.32,5.594,10.897c5.764,10.256,12.537,19.743,20.179,28.351
	c-15.901,7.627-33.464,11.637-51.348,11.637c-1.543,0-3.119-0.03-4.682-0.089c-24.432-0.933-47.639-9.307-67.114-24.217
	c-3.29-2.52-7.998-1.892-10.514,1.396c-2.518,3.289-1.893,7.997,1.396,10.514c21.951,16.806,48.114,26.244,75.662,27.295
	c1.753,0.067,3.52,0.1,5.256,0.1c21.841,0,43.276-5.316,62.364-15.393c3.188,2.949,6.493,5.763,9.906,8.438
	C228.376,482.191,201.641,488.746,174.01,487.697z M199.576,395.874c-6.332,2.344-12.982,3.529-19.851,3.529
	c-31.708,0-57.505-25.797-57.505-57.506c0-31.708,25.797-57.505,57.505-57.505c6.818,0,13.423,1.167,19.715,3.477
	c-1.715,4.845-3.217,9.795-4.485,14.844C187.149,333.787,188.856,366.053,199.576,395.874z"/>
<g>
</g>
<g>
</g>
<g>
</g>
<g>
</g>
<g>
</g>
<g>
</g>
<g>
</g>
<g>
</g>
<g>
</g>
<g>
</g>
<g>
</g>
<g>
</g>
<g>
</g>
<g>
</g>
<g>
</g>
</svg>
