<?xml version="1.0" encoding="iso-8859-1"?>
<!-- Generator: Adobe Illustrator 19.0.0, SVG Export Plug-In . SVG Version: 6.00 Build 0)  -->
<svg version="1.1" id="Capa_1" xmlns="http://www.w3.org/2000/svg" xmlns:xlink="http://www.w3.org/1999/xlink" x="0px" y="0px"
	 viewBox="0 0 511.998 511.998" style="enable-background:new 0 0 511.998 511.998;" xml:space="preserve">
<path style="fill:#EBECEC;" d="M70.785,110.762c0,153.635,100.081,317.414,255.597,390.333c23.928,11.22,51.383-6.657,50.688-33.076
	c-2.768-105.233,69.579-209.728,69.579-357.257C446.649,110.762,70.785,110.762,70.785,110.762z"/>
<path style="opacity:0.05;enable-background:new    ;" d="M70.784,110.762c0,153.635,100.081,317.414,255.597,390.333
	c13.96,6.546,29.112,3.177,39.182-6.004C182.759,412.999,154.772,224.808,174.36,110.762L70.784,110.762L70.784,110.762z"/>
<path style="fill:#EBECEC;" d="M54.828,74.574c-18.514,72.531,108.049,115.281,199.074,125.042s196.928-4.101,208.934-61.83
	C473.764,85.238,423.088,32.9,289.584,12.54C178.343-4.425,68.179,22.268,54.828,74.574z"/>
<path style="opacity:0.1;enable-background:new    ;" d="M54.828,74.574c-18.514,72.531,108.049,115.281,199.074,125.042
	s196.928-4.101,208.934-61.83C473.764,85.238,423.088,32.9,289.584,12.54C178.343-4.425,68.179,22.268,54.828,74.574z"/>
<path style="opacity:0.1;enable-background:new    ;" d="M198.568,8.16c-74.287,4.358-134.124,28.742-143.74,66.415
	c-13.076,51.231,46.227,87.6,114.261,107.985C104.908,131.442,77.988,46.682,198.568,8.16z"/>
<path style="opacity:0.1;enable-background:new    ;" d="M163.489,86.411c-11.478,25.235,51.066,47.966,97.756,52.311
	c46.691,4.344,96.758-5.794,104.684-24.621c7.928-18.828-19.601-46.148-86.896-52.259C213.227,55.864,172.41,66.797,163.489,86.411z
	"/>
<path style="fill:#EBECEC;" d="M84.791,212.374c55.309,61.553,267.322,76.615,338.225,51.695
	c16.935,3.337,13.24,72.156-24.416,81.114c-29.331,12.658-185.968,15.39-267.574-24.005
	C89.98,303.769,63.353,231.835,84.791,212.374z"/>
<path style="opacity:0.1;enable-background:new    ;" d="M84.791,212.374c55.309,61.553,267.322,76.615,338.225,51.695
	c16.935,3.337,13.24,72.156-24.416,81.114c-29.331,12.658-185.968,15.39-267.574-24.005
	C89.98,303.769,63.353,231.835,84.791,212.374z"/>
<path style="opacity:0.05;enable-background:new    ;" d="M177.382,257.68c-40.519-10.4-74.728-25.428-92.59-45.307
	c-21.438,19.461,5.188,91.396,46.235,108.804c21.326,10.295,47.78,17.709,75.744,22.824
	C192.892,315.882,183.383,286.623,177.382,257.68z"/>
<path style="fill:#EBECEC;" d="M170.936,378.544c23.165,12.624,134.287,40.041,213.252,21.515
	c12.075,15.307,9.555,44.704-7.097,55.737c-25.696,6.197-81.665,4.127-136.818-8.4C200.559,437.094,174.986,411.688,170.936,378.544
	z"/>
<path style="opacity:0.1;enable-background:new    ;" d="M170.936,378.544c23.165,12.624,134.287,40.041,213.252,21.515
	c12.075,15.307,9.555,44.704-7.097,55.737c-25.696,6.197-81.665,4.127-136.818-8.4C200.559,437.094,174.986,411.688,170.936,378.544
	z"/>
<path style="opacity:0.05;enable-background:new    ;" d="M240.626,398.307c-33.2-6.08-59.672-14.303-69.69-19.763
	c4.051,33.144,29.623,58.551,69.337,68.853c20.537,4.664,41.185,7.877,60.343,9.754
	C276.961,439.499,257.125,419.615,240.626,398.307z"/>
<path d="M467.487,192.572c-3.745-1.772-8.217-0.178-9.991,3.565c-2.004,4.228-7.076,8.901-13.555,13.438
	c2.504-12.556,4.498-24.643,6.057-36.556c10.364-9.278,17.425-20.454,20.18-33.705c7.559-36.345-11.626-70.057-54.019-94.927
	c-3.573-2.099-8.17-0.899-10.265,2.674c-2.096,3.572-0.899,8.169,2.674,10.265c36.931,21.666,53.155,48.961,46.923,78.934
	c-6.118,29.415-41.032,43.675-69.244,50.458c-35.734,8.592-83.679,10.575-131.546,5.442c-64.112-6.875-143.991-30.41-177.814-66.688
	c-0.018-0.019-0.035-0.038-0.053-0.057c-2.532-2.72-4.814-5.51-6.802-8.372c-9.006-12.968-11.602-26.253-7.937-40.613
	C74.006,29.772,179.779,3.383,288.453,19.955c33.81,5.157,63.395,12.584,87.933,22.078c3.862,1.491,8.207-0.426,9.702-4.289
	c1.495-3.863-0.425-8.207-4.289-9.702c-25.553-9.886-56.198-17.597-91.084-22.916c-54.622-8.331-111.879-6.44-157.087,5.191
	C85.219,22.769,54.653,44.93,47.559,72.719c-4.738,18.566-1.324,36.358,10.151,52.879c1.895,2.728,4.006,5.394,6.308,7.999
	c0.707,11.383,1.934,22.844,3.683,34.331c-7.972-5.944-11.93-10.699-12.943-13.479c-1.418-3.893-5.723-5.897-9.615-4.48
	c-3.892,1.418-5.899,5.724-4.479,9.615c2.944,8.082,11.948,16.941,26.762,26.333c1.278,0.81,2.589,1.614,3.917,2.405
	c1.51,7.368,3.237,14.73,5.166,22.077c-6.3,8.365-8.32,21.222-5.666,36.876c4.88,28.78,25.694,65.936,54.969,79.767
	c2.509,4.205,5.079,8.384,7.725,12.52c-4.284-1.799-8.131-3.573-11.257-5.251c-3.648-1.958-8.197-0.588-10.156,3.063
	c-1.958,3.649-0.587,8.197,3.063,10.155c8.101,4.346,20.345,9.238,33.041,13.658c5.01,6.959,10.209,13.774,15.573,20.431
	c5.183,34.584,32.274,61.543,73.043,72.611c26.916,21.35,55.958,39.403,86.353,53.654c5.87,2.752,12.115,4.113,18.334,4.113
	c8.225,0,16.399-2.383,23.581-7.082c12.577-8.229,19.851-22.097,19.457-37.098c-0.07-2.671-0.085-5.404-0.049-8.262
	c6.833-5.862,11.693-14.691,13.686-24.947c9.284-2.106,18.797-5.003,27.397-8.931c3.768-1.722,5.428-6.172,3.706-9.94
	c-1.721-3.769-6.173-5.426-9.939-3.706c-6.253,2.856-13.27,5.15-20.397,6.957c-0.717-7.581-3.031-14.694-6.763-20.543
	c2.989-13.633,6.898-28.487,12.432-47.257c26.687-9.428,35.93-43.192,35.511-64.674c-0.236-12.135-3.215-21.115-8.383-25.98
	c2.891-10.579,5.457-20.69,7.73-30.458c14.109-7.968,26.965-17.835,31.554-27.517C472.827,198.819,471.231,194.346,467.487,192.572z
	 M356.899,492.364c-8.228,5.383-18.445,6.109-27.334,1.939c-20.144-9.445-39.676-20.625-58.359-33.377
	c24.062,3.762,47.973,5.743,68.385,5.743c11.217-0.001,21.371-0.603,29.919-1.833c0.012,1.137,0.031,2.264,0.06,3.379
	C369.828,477.977,365.091,487.005,356.899,492.364z M377.881,393.766c-6.248,1.301-12.86,2.363-19.736,3.157
	c-4.115,0.476-7.066,4.196-6.59,8.312c0.475,4.114,4.197,7.07,8.312,6.59c7.239-0.836,14.23-1.95,20.853-3.321
	c2.002,3.894,3.176,8.607,3.432,13.576c-10.733,1.795-20.646,2.559-27.338,2.559c-4.142,0-7.501,3.357-7.501,7.501
	c0,4.143,3.358,7.501,7.501,7.501c5.668,0,14.678-0.539,25.023-2.021c-1.788,4.728-4.5,8.618-7.879,11.201
	c-30.747,6.811-90.519,0.673-131.913-8.714c-31.102-8.095-52.494-25.624-60.586-49.065c28.647,10.051,85.906,22.734,141.949,22.756
	h0.003c4.141,0,7.5-3.356,7.501-7.498c0.001-4.143-3.355-7.502-7.498-7.504c-62.977-0.024-128.966-16.908-147.603-26.174
	c-0.956-1.183-1.902-2.375-2.847-3.569c10.863,3.116,20.015,5.248,24.468,5.565c0.181,0.013,0.36,0.018,0.539,0.018
	c3.9,0,7.194-3.018,7.474-6.97c0.293-4.132-2.818-7.72-6.951-8.014c-5.38-0.382-23.055-5.165-40.872-11.143
	c-2.681-3.806-5.304-7.652-7.867-11.535c49.45,17.433,115.909,24.133,168.989,24.133c28.303,0,52.793-1.903,68.871-5.093
	C383.516,370.37,380.393,382.482,377.881,393.766z M426.418,219.96c-13.187,6.768-26.615,11.76-31.916,12.025
	c-4.137,0.207-7.324,3.728-7.117,7.866c0.201,4.009,3.514,7.126,7.485,7.126c0.126,0,0.253-0.003,0.381-0.01
	c5.511-0.275,15.595-3.351,26.71-8.174c-1.577,6.297-3.277,12.755-5.107,19.403c-50.286,15.545-170.02,13.561-255.492-12.813
	c-3.959-1.223-8.157,0.996-9.379,4.954c-1.221,3.958,0.997,8.158,4.955,9.379c41.331,12.755,93.499,20.875,146.895,22.864
	c49.093,1.83,91.871-1.924,118.325-10.317c1.947,3.013,4.42,12.502,2.075,27.009c-2.608,16.141-11.169,34.761-27.369,38.615
	c-0.029,0.007-0.056,0.021-0.086,0.029c-0.387,0.098-0.767,0.219-1.133,0.376c-0.006,0.003-0.012,0.004-0.018,0.006
	c-26.597,11.477-180.816,14.999-261.34-23.873c-0.005-0.002-0.011-0.005-0.016-0.007c-0.005-0.002-0.01-0.004-0.014-0.007
	c-0.1-0.048-0.201-0.094-0.303-0.137c-24.641-10.451-43.919-43.545-48.322-69.504c-1.396-8.236-1.19-15.403,0.472-20.566
	c9.169,8.124,21.179,15.62,35.835,22.357c3.766,1.733,8.219,0.081,9.948-3.682c1.73-3.764,0.082-8.218-3.682-9.948
	c-16.025-7.367-28.335-15.534-36.646-24.292c-0.999-3.727-1.942-7.46-2.829-11.194c3.706,1.67,7.098,2.999,9.834,3.809
	c0.711,0.21,1.428,0.311,2.134,0.311c3.236,0,6.223-2.11,7.189-5.372c1.177-3.972-1.089-8.147-5.061-9.323
	c-3.896-1.154-10.655-4.114-18.078-8.162c-1.877-10.023-3.349-20.04-4.409-30.013c40.986,31.758,111.781,51.841,172.762,58.381
	c18.055,1.936,36.318,2.956,54.208,2.956c48.939-0.002,95.003-7.644,125.809-25.07C431.326,196.267,429.105,207.854,426.418,219.96z
	 M157.975,104.381c13.642,23.523,68.195,38.609,102.575,41.809c7.377,0.687,14.936,1.029,22.485,1.029
	c40.859,0,81.323-10.061,89.807-30.209c3.221-7.651,2.329-16.306-2.514-24.367c-11.949-19.897-45.825-34.203-90.616-38.273
	c-67.068-6.09-111.916,4.455-123.051,28.935h0.001C153.524,90.202,153.978,97.49,157.975,104.381z M170.317,89.517
	c3.457-7.603,14.564-13.877,31.273-17.672c12.086-2.744,26.836-4.127,43.575-4.127c10.355,0,21.472,0.529,33.19,1.594
	c47.15,4.281,71.782,18.85,79.113,31.055c2.381,3.965,2.902,7.607,1.548,10.823c-2.087,4.956-11.731,11.919-32.537,16.593
	c-18.959,4.26-42.482,5.524-64.539,3.471c-40.002-3.723-82.519-19.797-90.988-34.398C169.391,94.163,169.201,91.969,170.317,89.517z
	 M202.705,309.262c7.853,3.141,42.482,11.392,69.274,11.392c1.564,0,3.106-0.027,4.61-0.087c4.139-0.162,7.364-3.649,7.201-7.789
	c-0.162-4.139-3.663-7.372-7.789-7.201c-24.739,0.97-60.414-7.318-67.725-10.244c-3.847-1.539-8.212,0.332-9.75,4.179
	C196.987,303.358,198.858,307.722,202.705,309.262z"/>
<g>
</g>
<g>
</g>
<g>
</g>
<g>
</g>
<g>
</g>
<g>
</g>
<g>
</g>
<g>
</g>
<g>
</g>
<g>
</g>
<g>
</g>
<g>
</g>
<g>
</g>
<g>
</g>
<g>
</g>
</svg>
