<?xml version="1.0" encoding="iso-8859-1"?>
<!-- Generator: Adobe Illustrator 19.0.0, SVG Export Plug-In . SVG Version: 6.00 Build 0)  -->
<svg version="1.1" id="Capa_1" xmlns="http://www.w3.org/2000/svg" xmlns:xlink="http://www.w3.org/1999/xlink" x="0px" y="0px"
	 viewBox="0 0 512.002 512.002" style="enable-background:new 0 0 512.002 512.002;" xml:space="preserve">
<path style="fill:#F27281;" d="M498.996,214.58c-5.179-3.347-12.324-7.666-21.034-12.182c-2.995-1.553-4.191-5.235-2.681-8.252
	c4.391-8.774,7.635-16.468,9.856-22.22c2.376-6.151-0.613-13.08-6.72-15.566c-23.042-9.379-80.403-27.471-136.96-4.025
	c4.822-61.033-30.111-109.996-46.151-129.012c-4.251-5.041-11.765-5.741-16.881-1.58c-4.784,3.89-11.099,9.352-18.086,16.24
	c-2.403,2.369-6.274,2.369-8.676,0c-6.987-6.888-13.303-12.349-18.086-16.24c-5.116-4.16-12.629-3.459-16.881,1.581
	c-16.04,19.015-50.973,67.979-46.151,129.012c-56.556-23.446-113.918-5.354-136.96,4.025c-6.107,2.486-9.096,9.415-6.72,15.566
	c2.222,5.752,5.465,13.446,9.856,22.22c1.51,3.017,0.314,6.699-2.681,8.252c-8.71,4.517-15.856,8.835-21.034,12.182
	c-5.538,3.579-7.193,10.942-3.713,16.543c13.128,21.13,48.903,69.481,108.439,83.755C77.954,361.423,77.436,421.57,79.235,446.383
	c0.477,6.577,6.144,11.56,12.727,11.201c6.157-0.336,14.477-1.042,24.178-2.508c3.336-0.504,6.468,1.771,7.02,5.1
	c1.604,9.68,3.503,17.81,5.087,23.77c1.693,6.373,8.184,10.222,14.586,8.643c24.154-5.956,81.195-25.04,113.169-77.254
	c31.974,52.214,89.014,71.298,113.169,77.254c6.402,1.578,12.893-2.271,14.586-8.643c1.583-5.96,3.482-14.09,5.087-23.77
	c0.552-3.328,3.682-5.604,7.02-5.1c9.701,1.465,18.021,2.172,24.178,2.508c6.584,0.359,12.25-4.625,12.727-11.201
	c1.799-24.813,1.281-84.961-38.497-131.504c59.537-14.275,95.311-62.625,108.439-83.755
	C506.189,225.522,504.534,218.159,498.996,214.58z"/>
<path style="fill:#EA6376;" d="M216.776,23.237c-0.025,0.03-0.054,0.055-0.079,0.085c-16.04,19.015-50.973,67.979-46.151,129.012
	c-56.556-23.446-113.918-5.354-136.96,4.025c-6.107,2.486-9.096,9.415-6.72,15.566c2.222,5.752,5.465,13.446,9.856,22.22
	c1.51,3.017,0.314,6.699-2.681,8.252c-8.71,4.517-15.856,8.835-21.034,12.182c-5.538,3.579-7.193,10.942-3.713,16.543
	c13.128,21.13,48.903,69.481,108.439,83.756c-39.779,46.543-40.297,106.691-38.497,131.504c0.477,6.577,6.144,11.56,12.727,11.201
	c6.157-0.336,14.477-1.042,24.178-2.508c3.336-0.504,6.468,1.771,7.02,5.1c1.604,9.68,3.503,17.81,5.087,23.77
	c1.693,6.373,8.184,10.222,14.586,8.643c24.154-5.956,81.195-25.04,113.169-77.254c31.974,52.214,89.014,71.298,113.169,77.254
	c6.402,1.578,12.893-2.271,14.586-8.643c1.583-5.96,3.482-14.09,5.087-23.77c0.218-1.313,0.841-2.458,1.715-3.337
	C209.604,399.459,204.831,100.423,216.776,23.237z"/>
<path style="fill:#FFFFFF;" d="M256.002,277.456c-4.142,0-7.501-3.357-7.501-7.501v-70.849c0-4.143,3.358-7.501,7.501-7.501
	c4.142,0,7.501,3.357,7.501,7.501v70.849C263.503,274.099,260.144,277.456,256.002,277.456z"/>
<circle style="fill:#F7D88B;" cx="256.001" cy="199.102" r="19.436"/>
<path style="fill:#FFFFFF;" d="M256.002,277.456c-1.919,0-3.839-0.732-5.304-2.196l-50.098-50.098c-2.929-2.93-2.929-7.679,0-10.608
	c2.929-2.928,7.679-2.928,10.607,0l50.098,50.098c2.929,2.93,2.929,7.679,0,10.608C259.841,276.724,257.921,277.456,256.002,277.456
	z"/>
<circle style="fill:#F7D88B;" cx="205.905" cy="219.855" r="19.436"/>
<path style="fill:#FFFFFF;" d="M256.002,277.456h-70.849c-4.142,0-7.501-3.357-7.501-7.501s3.358-7.501,7.501-7.501h70.849
	c4.142,0,7.501,3.357,7.501,7.501S260.144,277.456,256.002,277.456z"/>
<circle style="fill:#F7D88B;" cx="185.153" cy="269.96" r="19.436"/>
<path style="fill:#FFFFFF;" d="M205.904,327.555c-1.919,0-3.839-0.732-5.304-2.196c-2.929-2.93-2.929-7.679,0-10.608l50.098-50.099
	c2.929-2.928,7.679-2.928,10.607,0c2.929,2.93,2.929,7.679,0,10.608l-50.098,50.099
	C209.744,326.822,207.824,327.555,205.904,327.555z"/>
<circle style="fill:#F7D88B;" cx="205.905" cy="320.056" r="19.436"/>
<path style="fill:#FFFFFF;" d="M256.002,348.306c-4.142,0-7.501-3.358-7.501-7.501v-70.85c0-4.143,3.358-7.501,7.501-7.501
	c4.142,0,7.501,3.357,7.501,7.501v70.85C263.503,344.948,260.144,348.306,256.002,348.306z"/>
<circle style="fill:#F7D88B;" cx="256.001" cy="340.808" r="19.436"/>
<path style="fill:#FFFFFF;" d="M306.1,327.555c-1.919,0-3.839-0.732-5.304-2.196l-50.098-50.099c-2.929-2.93-2.929-7.679,0-10.608
	c2.929-2.928,7.679-2.928,10.607,0l50.098,50.099c2.929,2.93,2.929,7.679,0,10.608C309.939,326.822,308.019,327.555,306.1,327.555z"
	/>
<circle style="fill:#F7D88B;" cx="306.097" cy="320.056" r="19.436"/>
<path style="fill:#FFFFFF;" d="M326.851,277.456h-70.849c-4.142,0-7.501-3.357-7.501-7.501s3.358-7.501,7.501-7.501h70.849
	c4.142,0,7.501,3.357,7.501,7.501S330.993,277.456,326.851,277.456z"/>
<circle style="fill:#F7D88B;" cx="326.849" cy="269.96" r="19.436"/>
<path style="fill:#FFFFFF;" d="M256.002,277.456c-1.919,0-3.839-0.732-5.304-2.196c-2.929-2.93-2.929-7.679,0-10.608l50.098-50.098
	c2.929-2.929,7.679-2.927,10.607,0c2.929,2.93,2.929,7.679,0,10.608l-50.098,50.098
	C259.841,276.724,257.921,277.456,256.002,277.456z"/>
<circle style="fill:#F7D88B;" cx="306.097" cy="219.855" r="19.436"/>
<g style="opacity:0.1;">
	<path d="M256.002,156.168c-4.142,0-7.501-3.357-7.501-7.501V73.911c0-4.143,3.358-7.501,7.501-7.501
		c4.142,0,7.501,3.357,7.501,7.501v74.756C263.503,152.811,260.144,156.168,256.002,156.168z"/>
	<path d="M140.653,239.978c-0.768,0-1.549-0.119-2.319-0.369l-71.098-23.102c-3.94-1.28-6.097-5.512-4.816-9.451
		c1.28-3.941,5.508-6.097,9.452-4.817l71.098,23.102c3.939,1.28,6.096,5.512,4.816,9.451
		C146.755,237.964,143.814,239.978,140.653,239.978z"/>
	<path d="M140.764,436.061c-1.528,0-3.071-0.466-4.402-1.434c-3.351-2.435-4.094-7.126-1.66-10.477l43.941-60.481
		c2.435-3.352,7.125-4.097,10.477-1.659c3.351,2.435,4.094,7.126,1.66,10.477l-43.941,60.481
		C145.37,434.987,143.083,436.061,140.764,436.061z"/>
	<path d="M371.351,239.978c-3.162,0-6.103-2.015-7.132-5.185c-1.28-3.939,0.876-8.171,4.816-9.451l71.098-23.102
		c3.939-1.28,8.172,0.875,9.452,4.817c1.28,3.939-0.876,8.171-4.816,9.451l-71.098,23.102
		C372.901,239.859,372.12,239.978,371.351,239.978z"/>
	<path d="M371.24,436.061c-2.319,0-4.607-1.072-6.075-3.093l-43.941-60.481c-2.434-3.351-1.691-8.042,1.66-10.477
		c3.352-2.438,8.042-1.692,10.477,1.659l43.941,60.481c2.435,3.351,1.691,8.042-1.66,10.477
		C374.311,435.595,372.768,436.061,371.24,436.061z"/>
</g>
<path d="M353.788,269.955c0-14.854-12.083-26.937-26.937-26.937c-14.853,0-26.937,12.083-26.937,26.937
	c0,14.854,12.084,26.938,26.937,26.938C341.705,296.892,353.788,284.808,353.788,269.955z M326.851,281.891
	c-6.581,0-11.935-5.355-11.935-11.936c0-6.581,5.355-11.935,11.935-11.935c6.582,0,11.935,5.354,11.935,11.935
	C338.786,276.537,333.433,281.891,326.851,281.891z M503.068,208.28c-6.475-4.185-13.366-8.198-20.5-11.94
	c3.573-7.224,6.79-14.522,9.567-21.709c3.826-9.904-1.059-21.216-10.888-25.217c-4.088-1.664-8.378-3.251-12.749-4.717
	c-3.93-1.315-8.179,0.802-9.496,4.73c-1.316,3.927,0.801,8.179,4.729,9.495c4.072,1.365,8.063,2.841,11.86,4.387
	c2.304,0.938,3.448,3.592,2.55,5.916c-2.754,7.132-5.974,14.388-9.567,21.565c-3.327,6.648-0.665,14.844,5.936,18.268
	c7.124,3.693,13.993,7.672,20.415,11.822c2.092,1.353,2.727,4.171,1.414,6.285c-12.187,19.618-46.702,66.727-103.817,80.421
	c-2.539,0.608-4.579,2.493-5.385,4.976c-0.807,2.482-0.265,5.207,1.431,7.191c38.156,44.645,38.389,103.049,36.718,126.087
	c-0.18,2.479-2.343,4.387-4.838,4.253c-7.635-0.416-15.53-1.235-23.467-2.435c-7.349-1.109-14.324,3.955-15.54,11.29
	c-1.313,7.924-2.974,15.686-4.936,23.07c-0.64,2.408-3.126,3.888-5.541,3.286c-22.426-5.53-77.897-23.801-108.568-73.888
	c-1.363-2.226-3.786-3.583-6.397-3.583c-2.61,0-5.034,1.357-6.397,3.583c-12.977,21.193-31.71,38.928-55.692,52.723l-0.552,0.316
	c-3.593,2.061-4.836,6.646-2.774,10.238c2.061,3.595,6.645,4.837,10.239,2.774l0.585-0.336c22.49-12.935,40.81-29.141,54.594-48.27
	c34.333,47.571,88.618,65.396,111.371,71.007c1.548,0.381,3.101,0.564,4.636,0.564c8.675,0,16.679-5.846,18.996-14.565
	c1.977-7.444,3.665-15.239,5.022-23.188c7.974,1.166,15.908,1.97,23.605,2.39c10.584,0.541,19.849-7.564,20.616-18.148
	c1.695-23.376,1.525-80.513-33.115-127.867c55.86-17.951,89.581-64.072,101.947-83.978
	C514.682,226.067,511.985,214.045,503.068,208.28z M166.71,477.129c-8.394,3.277-17.272,6.105-25.672,8.177
	c-2.413,0.599-4.902-0.879-5.542-3.286c-1.961-7.385-3.622-15.147-4.936-23.07c-1.216-7.337-8.185-12.401-15.54-11.29
	c-7.935,1.199-15.831,2.018-23.465,2.435c-2.5,0.155-4.659-1.772-4.839-4.254c-1.671-23.038-1.438-81.442,36.718-126.086
	c1.696-1.984,2.238-4.709,1.431-7.191s-2.846-4.367-5.385-4.976c-57.113-13.695-91.628-60.803-103.818-80.421
	c-1.313-2.113-0.678-4.933,1.413-6.285c6.424-4.15,13.293-8.129,20.417-11.823c6.6-3.423,9.262-11.618,5.934-18.268
	c-3.593-7.178-6.812-14.434-9.566-21.565c-0.898-2.323,0.246-4.978,2.55-5.916c21.393-8.708,77.008-26.534,131.259-4.043
	c2.41,0.997,5.169,0.674,7.281-0.861c2.112-1.534,3.274-4.056,3.068-6.659c-4.625-58.542,29.515-105.928,44.407-123.584
	c1.604-1.901,4.482-2.169,6.415-0.599c5.93,4.824,11.836,10.127,17.554,15.764c5.295,5.223,13.912,5.222,19.208,0
	c5.72-5.64,11.625-10.942,17.553-15.763c1.933-1.572,4.811-1.302,6.415,0.598c14.893,17.655,49.033,65.041,44.407,123.584
	c-0.206,2.603,0.957,5.125,3.068,6.659c2.111,1.535,4.871,1.858,7.281,0.861c26.742-11.086,56.788-13.786,89.304-8.029
	c4.082,0.73,7.972-1.998,8.694-6.078c0.722-4.078-1.999-7.972-6.078-8.693c-31.1-5.51-60.256-3.849-86.843,4.921
	c0.185-58.662-33.258-104.985-48.368-122.898c-6.843-8.112-19.111-9.261-27.346-2.563C267.716,20.785,261.77,26.1,256,31.734
	c-5.767-5.633-11.713-10.945-17.692-15.81c-8.236-6.696-20.504-5.547-27.347,2.564c-15.11,17.914-48.557,64.239-48.367,122.906
	c-55.739-18.308-110.131-0.813-131.837,8.022c-9.83,4-14.715,15.313-10.889,25.217c2.777,7.189,5.993,14.486,9.567,21.709
	c-7.135,3.742-14.027,7.757-20.501,11.94c-8.916,5.765-11.613,17.787-6.012,26.801c12.366,19.904,46.087,66.026,101.948,83.978
	C70.23,366.411,70.06,423.55,71.755,446.924c0.768,10.584,10.017,18.707,20.617,18.149c7.697-0.42,15.631-1.224,23.605-2.39
	c1.355,7.948,3.043,15.743,5.022,23.188c2.316,8.72,10.319,14.566,18.996,14.565c1.533,0,3.088-0.183,4.636-0.564
	c9.152-2.258,18.417-5.208,27.536-8.769c3.859-1.507,5.766-5.856,4.259-9.715C174.918,477.529,170.568,475.622,166.71,477.129z
	 M185.153,243.018c-14.854,0-26.937,12.083-26.937,26.937s12.084,26.938,26.937,26.938c14.853,0,26.937-12.084,26.937-26.938
	C212.089,255.102,200.006,243.018,185.153,243.018z M185.153,281.891c-6.582,0-11.935-5.355-11.935-11.936
	c0-6.581,5.355-11.935,11.935-11.935s11.935,5.354,11.935,11.935C197.087,276.537,191.734,281.891,185.153,281.891z
	 M287.052,339.101c5.252,5.251,12.149,7.876,19.047,7.876c6.898,0,13.797-2.625,19.048-7.877c10.502-10.502,10.502-27.592,0-38.095
	c-10.503-10.502-27.592-10.501-38.095,0.001C276.55,311.509,276.55,328.599,287.052,339.101L287.052,339.101z M297.661,311.614
	c4.653-4.655,12.225-4.652,16.879-0.001c4.654,4.654,4.654,12.227,0,16.88c-4.654,4.655-12.225,4.656-16.879,0l0.001,0.001
	C293.007,323.84,293.007,316.267,297.661,311.614z M232.84,219.858c0-7.196-2.802-13.961-7.889-19.047
	c-5.088-5.089-11.852-7.891-19.048-7.891c-7.195,0-13.96,2.802-19.047,7.89c-5.088,5.088-7.89,11.852-7.89,19.048
	c0,7.195,2.802,13.96,7.889,19.046c5.088,5.089,11.852,7.891,19.047,7.891c7.196,0,13.96-2.802,19.047-7.89
	C230.039,233.817,232.84,227.052,232.84,219.858z M214.343,228.298c-2.254,2.254-5.251,3.495-8.439,3.495s-6.185-1.241-8.44-3.496
	c-2.254-2.254-3.495-5.251-3.495-8.439c0-3.188,1.241-6.186,3.495-8.44c2.254-2.254,5.252-3.495,8.44-3.495
	c3.188,0,6.186,1.241,8.439,3.495c0.001,0.001,0.001,0.001,0.001,0.001c2.254,2.254,3.495,5.251,3.495,8.439
	C217.839,223.046,216.598,226.042,214.343,228.298z M256.002,367.741c14.854,0,26.937-12.083,26.937-26.937
	s-12.083-26.937-26.937-26.937c-14.854,0-26.937,12.083-26.937,26.937C229.065,355.658,241.148,367.741,256.002,367.741z
	 M256.002,328.87c6.582,0,11.935,5.354,11.935,11.935c0,6.581-5.354,11.935-11.935,11.935c-6.582,0-11.935-5.355-11.935-11.935
	C244.067,334.225,249.42,328.87,256.002,328.87z M224.951,339.101c10.502-10.502,10.502-27.592-0.001-38.095
	c-10.503-10.502-27.592-10.5-38.094,0c0,0,0,0-0.001,0.001c-10.501,10.502-10.501,27.592,0.001,38.095
	c5.252,5.251,12.149,7.876,19.047,7.876C212.802,346.977,219.7,344.352,224.951,339.101z M197.464,311.613v0.001
	c4.653-4.655,12.226-4.652,16.879-0.001c4.654,4.654,4.654,12.227,0.001,16.88c-4.654,4.654-12.226,4.652-16.88,0.001
	C192.811,323.84,192.811,316.267,197.464,311.613z M306.101,246.795c7.195,0,13.96-2.802,19.047-7.89
	c5.088-5.088,7.89-11.852,7.89-19.047c0-7.196-2.802-13.961-7.889-19.047c-5.088-5.089-11.852-7.891-19.047-7.891
	c-7.196,0-13.96,2.802-19.047,7.89c-5.088,5.088-7.89,11.852-7.89,19.048c0,7.195,2.802,13.96,7.889,19.046
	C292.14,243.992,298.905,246.795,306.101,246.795z M297.661,211.418c2.254-2.254,5.251-3.495,8.44-3.495
	c3.188,0,6.185,1.241,8.439,3.496c2.254,2.254,3.495,5.251,3.495,8.439c0,3.188-1.241,6.185-3.495,8.439c0,0,0,0,0,0.001
	c-2.254,2.254-5.252,3.495-8.439,3.495c-3.188,0-6.186-1.241-8.44-3.496c-2.254-2.254-3.495-5.251-3.495-8.439
	C294.165,216.669,295.406,213.672,297.661,211.418z M256.002,172.168c-14.854,0-26.937,12.084-26.937,26.938
	c0,14.854,12.084,26.937,26.937,26.937c14.854,0,26.937-12.083,26.937-26.937C282.939,184.253,270.856,172.168,256.002,172.168z
	 M256.002,211.042c-6.582,0-11.935-5.355-11.935-11.935c0-6.582,5.355-11.936,11.935-11.936c6.582,0,11.935,5.355,11.935,11.936
	C267.937,205.687,262.584,211.042,256.002,211.042z"/>
<g>
</g>
<g>
</g>
<g>
</g>
<g>
</g>
<g>
</g>
<g>
</g>
<g>
</g>
<g>
</g>
<g>
</g>
<g>
</g>
<g>
</g>
<g>
</g>
<g>
</g>
<g>
</g>
<g>
</g>
</svg>
