<?xml version="1.0" encoding="iso-8859-1"?>
<!-- Generator: Adobe Illustrator 19.0.0, SVG Export Plug-In . SVG Version: 6.00 Build 0)  -->
<svg version="1.1" id="Capa_1" xmlns="http://www.w3.org/2000/svg" xmlns:xlink="http://www.w3.org/1999/xlink" x="0px" y="0px"
	 viewBox="0 0 511.999 511.999" style="enable-background:new 0 0 511.999 511.999;" xml:space="preserve">
<path style="fill:#EA8962;" d="M57.324,224.074l-13.789-21.783c-14.292-22.591-21.317-48.645-20.319-75.35
	c0.997-26.706,9.945-52.162,25.878-73.618c5.251-7.073,12.403-12.404,20.682-15.418c8.279-3.013,17.186-3.526,25.756-1.484
	c25.995,6.195,49.213,19.944,67.142,39.76c17.931,19.817,29.295,44.29,32.867,70.774l3.448,25.554L57.324,224.074z"/>
<path style="fill:#F5D7B7;" d="M150.216,144.544l-73.513,26.757l-1.053-1.665c-17.049-26.948-15.755-61.609,3.257-87.211l0,0
	c2.88-3.878,7.794-5.667,12.492-4.547l0,0c31.019,7.392,54.291,33.112,58.553,64.714L150.216,144.544z"/>
<path style="opacity:0.05;enable-background:new    ;" d="M27.256,164.612c3.395,13.231,8.844,25.926,16.279,37.678l13.789,21.783
	l141.665-51.562l-3.448-25.554c-2.42-17.941-8.426-34.952-17.617-50.225C121.579,104.806,64.148,123.857,27.256,164.612z"/>
<path style="fill:#EA8962;" d="M454.675,224.074l13.789-21.783c14.292-22.591,21.317-48.645,20.319-75.35
	c-0.997-26.706-9.945-52.162-25.878-73.618c-5.251-7.073-12.402-12.404-20.682-15.418s-17.186-3.526-25.756-1.484
	c-25.995,6.195-49.213,19.944-67.142,39.76c-17.931,19.817-29.295,44.29-32.867,70.774l-3.448,25.554L454.675,224.074z"/>
<path style="fill:#F5D7B7;" d="M361.784,144.544l73.513,26.757l1.053-1.665c17.049-26.948,15.755-61.609-3.257-87.211l0,0
	c-2.88-3.878-7.794-5.667-12.492-4.547l0,0c-31.019,7.392-54.291,33.112-58.553,64.714L361.784,144.544z"/>
<path style="opacity:0.05;enable-background:new    ;" d="M468.465,202.29c7.435-11.752,12.883-24.448,16.279-37.678
	c-36.891-40.755-94.322-59.806-150.669-67.879c-9.19,15.273-15.197,32.284-17.617,50.225l-3.448,25.554l141.665,51.562
	L468.465,202.29z"/>
<path style="fill:#F49E73;" d="M256,476.807c135.948,0,229.94-60.081,246.155-172.614C523.853,153.605,391.948,110.919,256,110.919
	S-11.852,153.605,9.846,304.193C26.06,416.726,120.052,476.807,256,476.807z"/>
<path style="fill:#EF9067;" d="M203.831,113.199C88.533,123.753-9.049,173.061,9.846,304.193
	C26.06,416.726,120.052,476.807,256,476.807c30.178,0,58.283-2.968,83.935-8.805C0.279,399.917,107.128,162.843,203.831,113.199z"/>
<g>
	<ellipse style="fill:#F27281;" cx="117.024" cy="291.63" rx="53.322" ry="42.461"/>
	<ellipse style="fill:#F27281;" cx="405.615" cy="291.63" rx="53.322" ry="42.461"/>
</g>
<path style="fill:#464D59;" d="M256,314.188c15.825,0,41.956-13.84,49.037-36.308c6.638-21.064-21.955-27.081-49.037-27.081
	c-27.082,0-55.675,6.017-49.037,27.081C214.044,300.348,240.175,314.188,256,314.188z"/>
<path style="opacity:0.1;enable-background:new    ;" d="M256,110.919c-10.997,0-21.967,0.281-32.832,0.874
	c0.216,39.13,14.829,70.71,32.832,70.71s32.616-31.58,32.832-70.71C277.967,111.2,266.997,110.919,256,110.919z"/>
<path style="opacity:0.1;enable-background:new    ;" d="M129.895,126.679c5.525,22.58,16.434,37.953,28.994,37.953
	c14.686,0,27.117-21.013,31.319-49.994C169.152,117.173,148.84,121.097,129.895,126.679z"/>
<path style="opacity:0.1;enable-background:new    ;" d="M382.106,126.679c-5.525,22.58-16.434,37.953-28.994,37.953
	c-14.686,0-27.117-21.013-31.319-49.994C342.848,117.173,363.159,121.097,382.106,126.679z"/>
<path d="M485.852,184.945c7.671-18.514,11.181-38.097,10.427-58.284c-1.054-28.226-10.512-55.131-27.352-77.81
	c-6.131-8.255-14.479-14.479-24.138-17.994c-9.663-3.517-20.061-4.116-30.06-1.731c-27.476,6.547-52.016,21.079-70.966,42.023
	c-9.686,10.704-17.575,22.722-23.507,35.786c-22.301-2.579-44.213-3.517-64.257-3.517s-41.957,0.938-64.258,3.517
	c-5.931-13.064-13.82-25.081-23.506-35.786c-18.951-20.945-43.491-35.477-70.965-42.023c-10.004-2.384-20.397-1.786-30.061,1.731
	c-9.659,3.516-18.007,9.738-24.139,17.996c-2.34,3.152-4.565,6.427-6.614,9.732c-2.182,3.521-1.097,8.144,2.424,10.326
	c3.521,2.182,8.143,1.097,10.326-2.424c1.829-2.951,3.817-5.877,5.908-8.693c4.375-5.892,10.331-10.332,17.226-12.841
	c6.896-2.511,14.313-2.938,21.452-1.235c24.515,5.842,46.411,18.808,63.319,37.496c7.611,8.411,13.962,17.739,18.988,27.802
	c-9.152,1.382-18.311,3.065-27.378,5.1c-11.239-21.747-31.607-37.82-55.584-43.536c-7.63-1.817-15.579,1.075-20.255,7.371
	c-15.82,21.305-20.662,48.49-13.395,73.763c-8.098,5.888-15.607,12.455-22.376,19.776c-4.812-14.202-6.97-29.042-6.4-44.27
	c0.422-11.31,2.364-22.462,5.772-33.148c1.259-3.946-0.92-8.166-4.866-9.425c-3.946-1.256-8.167,0.922-9.425,4.866
	c-3.821,11.98-5.998,24.479-6.472,37.146c-0.755,20.186,2.755,39.77,10.427,58.284C3.468,216.708-4.516,257.108,2.422,305.263
	c4.132,28.682,13.29,54.692,27.222,77.31c13.615,22.107,31.832,41.054,54.144,56.318c43.434,29.712,102.983,45.417,172.212,45.417
	c76.677,0,140.723-19.054,185.217-55.102c3.218-2.607,3.713-7.33,1.105-10.549c-2.606-3.218-7.328-3.715-10.549-1.105
	c-41.791,33.858-102.573,51.756-175.773,51.756c-136.499,0-223.514-60.571-238.73-166.183
	c-6.579-45.661,1.246-83.425,23.252-112.396c0.136-0.164,0.263-0.333,0.384-0.507c1.44-1.876,2.938-3.715,4.498-5.516
	c16.883-19.489,46.901-41.387,99.999-54.496c0.57-0.068,1.139-0.208,1.699-0.414c12.101-2.918,25.378-5.384,39.959-7.264
	c0.001,0,0.001,0,0.002,0c0.578,0,1.162-0.076,1.741-0.215c19.913-2.486,42.209-3.895,67.195-3.895
	c24.988,0,47.285,1.409,67.198,3.895c0.565,0.136,1.135,0.207,1.7,0.21c14.598,1.88,27.886,4.349,39.999,7.269
	c0.563,0.208,1.135,0.348,1.708,0.416c53.093,13.108,83.109,35.006,99.991,54.494c1.56,1.801,3.058,3.641,4.498,5.516
	c0.121,0.174,0.249,0.343,0.384,0.507c22.006,28.972,29.831,66.735,23.252,112.396c-5.155,35.781-18.543,66.664-39.788,91.792
	c-2.675,3.163-2.279,7.896,0.884,10.57c3.164,2.673,7.895,2.277,10.57-0.885c23.091-27.309,37.618-60.731,43.182-99.34
	C516.516,257.108,508.531,216.708,485.852,184.945z M72.751,142.965c-4.182-19.445,0.12-39.832,12.176-56.069
	c1.093-1.471,2.945-2.15,4.733-1.723c18.556,4.422,34.484,16.385,44.008,32.68C112.004,123.774,91.221,131.916,72.751,142.965z
	 M439.249,142.965c-18.47-11.05-39.253-19.192-60.918-25.112c9.523-16.296,25.452-28.258,44.007-32.68
	c1.785-0.424,3.642,0.251,4.734,1.723C439.129,103.133,443.431,123.522,439.249,142.965z M474.888,171.491
	c-6.769-7.32-14.279-13.887-22.376-19.776c7.266-25.273,2.423-52.458-13.395-73.763c-4.675-6.294-12.624-9.188-20.254-7.371
	c-23.979,5.715-44.346,21.788-55.585,43.536c-9.066-2.035-18.226-3.718-27.378-5.1c5.026-10.063,11.377-19.39,18.989-27.801
	c16.909-18.689,38.805-31.654,63.32-37.496c7.137-1.704,14.556-1.275,21.451,1.235c6.894,2.509,12.85,6.949,17.226,12.841
	c15.025,20.234,23.465,44.241,24.404,69.426C481.858,142.449,479.699,157.289,474.888,171.491z M228.486,348.134
	c-8.375,0-16.343-3.631-21.86-9.962c-2.723-3.122-7.46-3.447-10.582-0.727c-3.122,2.722-3.448,7.459-0.727,10.582
	c8.367,9.601,20.457,15.108,33.169,15.108c10.077,0,19.764-3.46,27.514-9.678c7.75,6.218,17.437,9.678,27.514,9.678
	c12.712,0,24.802-5.506,33.169-15.108c2.722-3.123,2.396-7.86-0.727-10.582c-3.123-2.721-7.859-2.395-10.582,0.727
	c-5.518,6.331-13.484,9.962-21.86,9.962c-7.485,0-14.639-2.907-20.014-8.042v-19.168c17.649-3.329,41.363-17.543,48.691-40.791
	c3.087-9.795,0.169-16.714-2.822-20.793c-9.724-13.259-34.389-16.043-53.368-16.043s-43.645,2.783-53.368,16.043
	c-2.991,4.079-5.909,10.997-2.822,20.793c7.326,23.249,31.042,37.462,48.69,40.791v19.168
	C243.125,345.228,235.972,348.134,228.486,348.134z M214.117,275.626c-1.285-4.079-0.349-6.104,0.611-7.414
	c4.484-6.114,20.299-9.912,41.271-9.912c20.974,0,36.787,3.798,41.272,9.912c0.96,1.31,1.896,3.335,0.611,7.414
	c-5.975,18.962-28.797,31.061-41.883,31.061C242.914,306.688,220.093,294.588,214.117,275.626z M89.295,363.326
	c1.871,0,3.745-0.696,5.2-2.096c15.968-15.368,44.875-25.794,65.177-28.15c4.114-0.478,7.063-4.2,6.585-8.315
	c-0.478-4.114-4.194-7.056-8.315-6.585c-22.097,2.565-54.633,13.748-73.85,32.242c-2.984,2.873-3.075,7.62-0.203,10.605
	C85.362,362.556,87.327,363.326,89.295,363.326z M144.963,249.269V230.44c0-4.143-3.357-7.5-7.5-7.5c-4.143,0-7.5,3.357-7.5,7.5
	v18.829c0,4.143,3.357,7.5,7.5,7.5C141.605,256.769,144.963,253.412,144.963,249.269z M437.556,318.171
	c2.137-3.548,0.993-8.156-2.556-10.294c-22.844-13.759-57.054-17.434-79.169-15.023c-4.118,0.449-7.092,4.15-6.644,8.269
	c0.448,4.117,4.127,7.103,8.269,6.643c20.32-2.218,50.82,1.526,69.805,12.96c1.21,0.729,2.545,1.076,3.862,1.076
	C433.667,321.803,436.147,320.509,437.556,318.171z M382.038,249.269V230.44c0-4.143-3.357-7.5-7.5-7.5s-7.5,3.357-7.5,7.5v18.829
	c0,4.143,3.357,7.5,7.5,7.5S382.038,253.412,382.038,249.269z M74.445,318.171c1.408,2.338,3.889,3.632,6.432,3.632
	c1.317,0,2.652-0.347,3.862-1.076c18.984-11.434,49.482-15.178,69.805-12.96c4.128,0.457,7.819-2.526,8.268-6.643
	c0.448-4.118-2.525-7.819-6.643-8.269c-22.117-2.407-56.324,1.264-79.169,15.023C73.452,310.015,72.308,314.624,74.445,318.171z
	 M345.742,324.764c-0.478,4.115,2.471,7.838,6.585,8.315c20.303,2.356,49.21,12.782,65.177,28.15c1.455,1.399,3.329,2.096,5.2,2.096
	c1.968,0,3.933-0.77,5.405-2.299c2.872-2.985,2.781-7.732-0.203-10.605c-19.217-18.494-51.753-29.677-73.85-32.242
	C349.951,317.709,346.22,320.649,345.742,324.764z"/>
<g>
</g>
<g>
</g>
<g>
</g>
<g>
</g>
<g>
</g>
<g>
</g>
<g>
</g>
<g>
</g>
<g>
</g>
<g>
</g>
<g>
</g>
<g>
</g>
<g>
</g>
<g>
</g>
<g>
</g>
</svg>
