<?xml version="1.0" encoding="iso-8859-1"?>
<!-- Generator: Adobe Illustrator 19.0.0, SVG Export Plug-In . SVG Version: 6.00 Build 0)  -->
<svg version="1.1" id="Capa_1" xmlns="http://www.w3.org/2000/svg" xmlns:xlink="http://www.w3.org/1999/xlink" x="0px" y="0px"
	 viewBox="0 0 511.999 511.999" style="enable-background:new 0 0 511.999 511.999;" xml:space="preserve">
<path style="fill:#C1C4C7;" d="M443.432,267.55c0-115.122-83.926-184.963-187.453-184.963S68.527,152.429,68.527,267.55
	s83.926,161.859,187.453,161.859S443.432,382.673,443.432,267.55z"/>
<path style="opacity:0.1;enable-background:new    ;" d="M305.051,88.129c-17.862,39.109-11.713,110.988,112.878,80.478
	C393.407,127.195,353.051,99.327,305.051,88.129z"/>
<path style="opacity:0.05;enable-background:new    ;" d="M255.98,429.41c43.427,0,83.402-8.229,115.183-26.275
	C27.578,482,130.171,157.8,221.918,85.205C134.654,98.862,68.527,165.365,68.527,267.55
	C68.527,382.672,152.453,429.41,255.98,429.41z"/>
<path style="fill:#FFFFFF;" d="M255.98,400.148c43.284,0,88.556-15.081,78.373-85.008c-12.681-87.09-52.563-114.234-78.373-114.234
	s-65.692,27.144-78.373,114.234C167.424,385.067,212.696,400.148,255.98,400.148z"/>
<path style="fill:#F27281;" d="M255.98,342.088c-9.159,0-17.621-2.949-24.519-7.929v34.402c0,13.541,10.977,24.519,24.519,24.519
	c13.541,0,24.519-10.977,24.519-24.519v-34.402C273.6,339.14,265.139,342.088,255.98,342.088z"/>
<g>
	<path style="fill:#464D59;" d="M255.98,309.746c16.797,0,35.935-19.307,38.104-37.655c2.107-17.821-17.06-23.264-38.104-23.264
		s-40.211,5.442-38.104,23.264C220.044,290.44,239.183,309.746,255.98,309.746z"/>
	<path style="fill:#464D59;" d="M51.193,264.269L51.193,264.269c-21.173-2.58-38.266-18.519-42.32-39.459l0,0
		c-5.073-26.21,3.824-53.174,23.499-71.217l33.53-30.749c15.82-14.508,37.47-20.867,58.624-17.219l0,0
		c19.471,3.358,30.425,24.306,22.075,42.212l-39.94,85.652C96.783,254.674,74.396,267.096,51.193,264.269z"/>
</g>
<path style="opacity:0.1;enable-background:new    ;" d="M36.151,150.128l-3.778,3.465C12.697,171.636,3.8,198.601,8.873,224.81l0,0
	c4.053,20.941,21.147,36.879,42.32,39.459l0,0c23.202,2.827,45.589-9.595,55.468-30.779l3.606-7.734
	C49.293,255.712,27.374,186.412,36.151,150.128z"/>
<path style="fill:#464D59;" d="M460.766,264.269L460.766,264.269c21.173-2.58,38.266-18.519,42.32-39.459l0,0
	c5.073-26.21-3.824-53.174-23.499-71.217l-33.53-30.749c-15.82-14.508-37.47-20.867-58.624-17.219l0,0
	c-19.471,3.358-30.425,24.306-22.075,42.212l39.94,85.652C415.177,254.674,437.564,267.096,460.766,264.269z"/>
<path style="opacity:0.1;enable-background:new    ;" d="M490.903,248.854c-73.448,8.393-106.853-106.075-109.114-141.677
	c-15.844,6.033-23.935,24.571-16.43,40.662l39.94,85.652c9.878,21.184,32.265,33.607,55.468,30.779l0,0
	C472.613,262.825,483.18,257.198,490.903,248.854z"/>
<path d="M498.997,165.245c-2.208-3.505-6.842-4.553-10.344-2.346c-3.505,2.209-4.555,6.84-2.346,10.344
	c9.434,14.965,12.777,32.772,9.415,50.142c-3.447,17.808-17.86,31.246-35.864,33.439c-4.974,0.606-9.897,0.404-14.618-0.521
	c-0.199-0.051-0.4-0.094-0.605-0.128c-14.036-2.945-26.219-12.297-32.54-25.855l-39.94-85.652c-2.983-6.4-2.818-13.658,0.454-19.917
	c3.271-6.257,9.14-10.534,16.098-11.734c18.731-3.228,38.273,2.51,52.28,15.354l26.151,23.982c3.055,2.8,7.799,2.595,10.597-0.458
	c2.8-3.053,2.595-7.797-0.458-10.597l-26.151-23.982c-17.408-15.965-41.692-23.101-64.968-19.082
	c-6.759,1.166-12.893,4.083-17.923,8.37c-31.969-20.636-70.63-31.518-112.256-31.518s-80.288,10.882-112.257,31.518
	c-5.028-4.287-11.162-7.204-17.923-8.37c-23.274-4.017-47.561,3.118-64.968,19.082l-33.53,30.749
	c-21.437,19.66-31.319,49.613-25.792,78.17c4.688,24.219,24.291,42.494,48.777,45.478c2.521,0.307,5.031,0.457,7.521,0.457
	c1.096,0,2.187-0.039,3.273-0.097c0.556,29.208,6.504,55.215,17.724,77.349c11.115,21.929,27.408,40.152,48.425,54.168
	c1.279,0.853,2.725,1.261,4.154,1.261c2.423,0,4.802-1.173,6.247-3.34c2.298-3.446,1.367-8.103-2.079-10.401
	c-39.059-26.045-59.064-66.996-59.505-121.718c16.16-5.029,29.906-16.642,37.41-32.733l39.939-85.652
	c4.868-10.44,4.696-22.247-0.422-32.523c29.323-18.601,64.768-28.398,103.003-28.398s73.679,9.797,103.003,28.398
	c-5.118,10.276-5.29,22.083-0.422,32.523l39.94,85.652c7.504,16.094,21.251,27.706,37.411,32.734
	c-0.412,50.987-17.879,90.117-51.955,116.311c-30.814,23.686-75.067,36.205-127.978,36.205c-35.584,0-67.022-5.553-93.441-16.507
	c-3.827-1.584-8.214,0.231-9.801,4.057c-1.586,3.826,0.23,8.214,4.057,9.801c28.25,11.711,61.62,17.65,99.186,17.65
	c27.175,0,52.395-3.152,74.957-9.371c24.008-6.616,44.922-16.69,62.162-29.941c37.349-28.709,56.772-70.925,57.784-125.522
	c1.085,0.058,2.174,0.096,3.269,0.096c2.488,0,5.001-0.15,7.521-0.457c24.486-2.984,44.087-21.261,48.776-45.48
	C514.54,205.108,510.472,183.448,498.997,165.245z M139.804,144.668l-39.94,85.652c-6.316,13.546-18.477,22.897-32.501,25.849
	c-0.228,0.037-0.452,0.084-0.673,0.142c-4.711,0.919-9.623,1.119-14.588,0.513l-0.908,7.445l0.907-7.445
	c-18.004-2.193-32.416-15.632-35.863-33.439c-4.544-23.478,3.581-48.102,21.205-64.265l33.53-30.749
	c11.436-10.487,26.563-16.239,41.923-16.239c3.453,0,6.919,0.291,10.357,0.884c5.499,0.948,10.311,3.825,13.705,8.076
	c0.034,0.04,0.066,0.083,0.1,0.123c0.86,1.093,1.632,2.272,2.293,3.536C142.622,131.009,142.787,138.268,139.804,144.668z
	 M164.73,215.241c-4.143,0-7.5,3.357-7.5,7.5v14.494c0,4.143,3.357,7.5,7.5,7.5c4.143,0,7.5-3.357,7.5-7.5v-14.494
	C172.23,218.598,168.872,215.241,164.73,215.241z M347.23,244.735c4.142,0,7.5-3.357,7.5-7.5v-14.494c0-4.143-3.358-7.5-7.5-7.5
	c-4.143,0-7.5,3.357-7.5,7.5v14.494C339.729,241.378,343.087,244.735,347.23,244.735z M255.98,193.407
	c-17.259,0-35.434,9.895-49.864,27.146c-17.93,21.435-30.019,52.895-35.932,93.507c-4.285,29.432,0.519,52.421,14.278,68.329
	c14.496,16.762,38.559,25.26,71.517,25.26s57.021-8.498,71.517-25.26c13.76-15.908,18.565-38.897,14.278-68.329
	c-5.913-40.611-18.003-72.071-35.932-93.507C291.413,203.302,273.238,193.407,255.98,193.407z M272.998,368.56
	c0,9.384-7.635,17.019-17.02,17.019c-9.384,0-17.02-7.635-17.02-17.019v-22.014c3.072,1.128,6.258,1.958,9.519,2.459v16.34
	c0,4.142,3.357,7.5,7.5,7.5s7.5-3.358,7.5-7.5v-16.34c3.261-0.501,6.446-1.332,9.519-2.459L272.998,368.56L272.998,368.56z
	 M225.324,271.211c-0.503-4.256,0.889-6.38,1.98-7.607c4.109-4.623,14.561-7.274,28.677-7.274s24.567,2.651,28.677,7.274
	c1.091,1.228,2.482,3.352,1.979,7.607c-1.748,14.792-17.793,31.035-30.656,31.035C243.116,302.246,227.072,286.004,225.324,271.211z
	 M316.152,372.576c-8.129,9.399-20.625,15.512-37.246,18.306c5.621-5.772,9.094-13.646,9.094-22.322V337.8
	c1.874-1.592,3.646-3.323,5.285-5.203c2.721-3.122,2.396-7.86-0.727-10.582c-3.123-2.721-7.86-2.395-10.582,0.727
	c-4.884,5.604-11.384,9.425-18.496,11.014v-17.454c18.053-4.414,35.733-23.71,38.053-43.33c0.885-7.483-1.074-14.169-5.664-19.335
	c-7.26-8.168-20.681-12.31-39.889-12.31s-32.629,4.142-39.889,12.31c-4.59,5.165-6.549,11.851-5.664,19.335
	c2.32,19.62,20,38.916,38.053,43.33v17.454c-7.111-1.589-13.611-5.41-18.496-11.014c-2.723-3.124-7.46-3.447-10.582-0.727
	c-3.123,2.722-3.447,7.46-0.727,10.582c1.639,1.88,3.411,3.611,5.285,5.203v30.76c0,8.674,3.473,16.55,9.094,22.322
	c-16.622-2.793-29.117-8.906-37.246-18.306c-10.782-12.466-14.409-31.427-10.779-56.354c12.392-85.108,50.43-107.815,70.951-107.815
	s58.56,22.708,70.951,107.815C330.561,341.149,326.934,360.11,316.152,372.576z"/>
<g>
</g>
<g>
</g>
<g>
</g>
<g>
</g>
<g>
</g>
<g>
</g>
<g>
</g>
<g>
</g>
<g>
</g>
<g>
</g>
<g>
</g>
<g>
</g>
<g>
</g>
<g>
</g>
<g>
</g>
</svg>
