<?xml version="1.0" encoding="iso-8859-1"?>
<!-- Generator: Adobe Illustrator 19.0.0, SVG Export Plug-In . SVG Version: 6.00 Build 0)  -->
<svg version="1.1" id="Capa_1" xmlns="http://www.w3.org/2000/svg" xmlns:xlink="http://www.w3.org/1999/xlink" x="0px" y="0px"
	 viewBox="0 0 511.998 511.998" style="enable-background:new 0 0 511.998 511.998;" xml:space="preserve">
<ellipse style="fill:#EBECEC;" cx="255.994" cy="298.224" rx="244.795" ry="206.276"/>
<path style="fill:#EA8962;" d="M361.34,348.102c0-38.518-47.163-49.874-105.341-49.874s-105.341,11.356-105.341,49.874
	s47.163,69.743,105.341,69.743S361.34,386.619,361.34,348.102z"/>
<path style="fill:#F49E73;" d="M385.723,324.005L385.723,324.005c-4.006-9.071-12.07-15.71-21.742-17.898l-52.208-11.816
	c-8.685-1.966-16.123-7.534-20.455-15.314l-7.406-13.3c-5.529-9.93-16.004-16.087-27.369-16.087h-1.09
	c-11.366,0-21.84,6.156-27.369,16.087l-7.406,13.3c-4.332,7.78-11.77,13.348-20.455,15.314l-52.208,11.816
	c-9.671,2.189-17.736,8.827-21.742,17.898l0,0c-9.146,20.709,6.018,43.982,28.656,43.982h202.136
	C379.705,367.987,394.869,344.714,385.723,324.005z"/>
<path style="fill:#EBECEC;" d="M349.574,45.751c-3.637-10.167-15.008-15.335-25.254-11.927
	c-26.757,8.902-45.926,23.31-58.961,38.965c-3.148,3.781-9.303,1.669-9.467-3.249c-0.429-12.87,1.256-26.202,4.756-34.952
	c4.049-10.123-0.875-21.612-10.998-25.66c-10.125-4.054-21.613,0.874-25.662,10.998c-9.764,24.412-12.761,75.592,7.366,104.274
	c2.829,4.032,20.957,24.409,30.792,24.409c10.903,0,19.742-8.839,19.742-19.742c0-8.348,9.38-42.607,55.269-57.701
	C347.68,67.705,353.328,56.245,349.574,45.751z"/>
<path style="opacity:0.05;enable-background:new    ;" d="M179.623,102.208C81.83,129.247,11.201,206.781,11.201,298.228
	c0,113.921,109.6,206.272,244.798,206.272c44.277,0,85.807-9.907,121.643-27.231C-5.667,436.383,74.801,181.425,179.623,102.208z"/>
<g>
	<path style="fill:#EA8962;" d="M234.645,302.124c-1.415,0-2.844-0.399-4.114-1.234c-3.461-2.276-4.421-6.927-2.145-10.388
		l6.992-10.632c2.276-3.461,6.927-4.42,10.387-2.146c3.461,2.276,4.421,6.927,2.145,10.388l-6.992,10.632
		C239.477,300.934,237.084,302.124,234.645,302.124z"/>
	<path style="fill:#EA8962;" d="M277.353,302.124c-2.439,0-4.832-1.189-6.273-3.38l-6.992-10.632
		c-2.275-3.461-1.315-8.111,2.146-10.388c3.459-2.276,8.11-1.316,10.388,2.146l6.992,10.632c2.275,3.461,1.315,8.111-2.146,10.388
		C280.198,301.724,278.768,302.124,277.353,302.124z"/>
</g>
<path style="fill:#EF9067;" d="M193.107,295.903l-45.091,10.205c-9.672,2.189-17.736,8.827-21.742,17.898l0,0
	c-9.146,20.709,6.018,43.982,28.656,43.982h66.789C157.571,358.035,166.116,310.997,193.107,295.903z"/>
<path d="M255.999,425.344c47.773,0,89.486-19.979,105.763-50.144c11.33-1.366,21.507-7.63,27.835-17.345
	c7.193-11.04,8.31-24.827,2.986-36.879c-4.941-11.191-15.016-19.484-26.946-22.185l-52.207-11.816
	c-6.598-1.493-12.268-5.738-15.559-11.647l-7.405-13.301c-6.849-12.299-19.847-19.938-33.921-19.938h-1.091
	c-14.076,0-27.073,7.64-33.921,19.938l-7.406,13.301c-3.29,5.908-8.961,10.153-15.558,11.647l-52.207,11.816
	c-11.931,2.7-22.005,10.993-26.946,22.184c-5.323,12.054-4.206,25.84,2.986,36.88c6.329,9.715,16.506,15.979,27.835,17.345
	C166.512,405.366,208.226,425.344,255.999,425.344z M255.999,410.344c-37.445,0-71.366-13.891-87.699-34.857h175.4
	C327.365,396.454,293.444,410.344,255.999,410.344z M134.969,349.668c-4.48-6.876-5.148-15.125-1.833-22.632
	c3.033-6.868,9.215-11.957,16.537-13.613l52.208-11.816c10.749-2.434,19.99-9.352,25.352-18.98l7.406-13.301
	c4.203-7.547,12.179-12.235,20.817-12.235h1.091c8.638,0,16.615,4.688,20.817,12.235l7.405,13.301
	c5.362,9.629,14.603,16.547,25.353,18.98l52.208,11.816c7.322,1.656,13.504,6.745,16.537,13.612v0.001
	c3.315,7.507,2.647,15.756-1.833,22.632c-4.48,6.877-11.757,10.82-19.964,10.82H154.931
	C146.724,360.487,139.449,356.544,134.969,349.668z M117.264,459.479c-29.939-18.113-54.771-42.149-71.81-69.514
	c-17.753-28.509-26.753-59.374-26.753-91.738c0-109.603,106.452-198.772,237.298-198.772c42.74,0,84.641,9.632,121.172,27.852
	c35.329,17.622,64.767,42.749,85.128,72.664c2.33,3.425,6.998,4.311,10.42,1.98c3.425-2.331,4.311-6.996,1.981-10.42
	c-21.804-32.032-53.213-58.882-90.833-77.647c-21.473-10.711-44.686-18.608-68.813-23.511c7.018-4.993,15.194-9.04,24.45-12.085
	c7.038-2.314,12.707-7.257,15.962-13.914c3.254-6.656,3.67-14.168,1.171-21.152c-4.946-13.825-20.503-21.235-34.682-16.515
	c-23.691,7.881-43.381,20.31-58.61,36.984c0.172-10.215,1.722-19.952,4.27-26.319c5.578-13.946-1.23-29.83-15.175-35.408
	c-6.757-2.705-14.163-2.615-20.852,0.252c-6.688,2.867-11.859,8.168-14.561,14.925c-6.255,15.635-10.581,43.554-6.579,70.782
	c-49.834,7.655-95.735,27.835-132.379,58.713C30.112,187.045,3.701,240.882,3.701,298.228c0,34.714,10.035,69.179,29.02,99.667
	c18.281,29.356,44.83,55.091,76.778,74.419c1.214,0.734,2.553,1.084,3.875,1.084c2.538,0,5.015-1.289,6.424-3.619
	C121.942,466.234,120.808,461.623,117.264,459.479z M230.954,22.712c1.215-3.038,3.539-5.42,6.544-6.708
	c3.004-1.289,6.331-1.329,9.369-0.112c6.267,2.507,9.327,9.645,6.82,15.912c-3.788,9.469-5.765,23.67-5.288,37.987
	c0.179,5.379,3.585,9.983,8.676,11.73c5.091,1.747,10.606,0.202,14.05-3.934c13.878-16.669,32.572-28.998,55.565-36.647
	c6.498-2.165,13.602,1.126,15.823,7.336c1.124,3.144,0.939,6.521-0.523,9.512c-1.463,2.992-4.011,5.213-7.174,6.254
	c-15.699,5.164-28.842,12.92-39.149,23.069c-13.067-1.755-26.329-2.655-39.667-2.655c-10.331,0-20.567,0.527-30.667,1.558
	C221.828,62.4,225.257,36.952,230.954,22.712z M332.588,236.615c0,4.142,3.358,7.5,7.5,7.5c4.143,0,7.5-3.358,7.5-7.5
	c0-9.229,7.509-16.737,16.737-16.737c9.229,0,16.737,7.509,16.737,16.737c0,4.142,3.357,7.5,7.5,7.5c4.143,0,7.5-3.358,7.5-7.5
	c0-17.5-14.237-31.736-31.736-31.736C346.824,204.878,332.588,219.115,332.588,236.615z M115.937,236.615c0,4.142,3.358,7.5,7.5,7.5
	c4.142,0,7.5-3.358,7.5-7.5c0-9.229,7.508-16.737,16.737-16.737s16.737,7.509,16.737,16.737c0,4.142,3.358,7.5,7.5,7.5
	s7.5-3.358,7.5-7.5c0-17.5-14.237-31.736-31.736-31.736S115.937,219.115,115.937,236.615z M493.717,226.406
	c-1.607-3.819-6.006-5.608-9.821-4.007c-3.818,1.607-5.612,6.003-4.007,9.821c8.897,21.158,13.409,43.365,13.409,66.008
	c0,109.603-106.451,198.771-237.298,198.771c-35.524,0-69.687-6.419-101.539-19.079c-3.847-1.53-8.209,0.351-9.74,4.199
	c-1.53,3.85,0.351,8.21,4.2,9.74c33.622,13.363,69.649,20.14,107.079,20.14c67.154,0,130.344-22.083,177.932-62.181
	c47.956-40.408,74.367-94.244,74.367-151.591C508.297,273.579,503.391,249.415,493.717,226.406z"/>
<g>
</g>
<g>
</g>
<g>
</g>
<g>
</g>
<g>
</g>
<g>
</g>
<g>
</g>
<g>
</g>
<g>
</g>
<g>
</g>
<g>
</g>
<g>
</g>
<g>
</g>
<g>
</g>
<g>
</g>
</svg>
