<?xml version="1.0" encoding="iso-8859-1"?>
<!-- Generator: Adobe Illustrator 19.0.0, SVG Export Plug-In . SVG Version: 6.00 Build 0)  -->
<svg version="1.1" id="Capa_1" xmlns="http://www.w3.org/2000/svg" xmlns:xlink="http://www.w3.org/1999/xlink" x="0px" y="0px"
	 viewBox="0 0 512 512" style="enable-background:new 0 0 512 512;" xml:space="preserve">
<path style="fill:#B38A82;" d="M439.715,410.917c0,0-11.729-74.462-50.275-115.197c-28.401-30.015-52.541-78.34-63.28-101.698
	c-3.782-8.225-11.994-13.5-21.047-13.5h-98.229c-9.053,0-17.265,5.275-21.047,13.5c-10.739,23.357-34.879,71.683-63.28,101.698
	c-38.545,40.735-50.275,115.197-50.275,115.197H439.715z"/>
<path style="opacity:0.1;enable-background:new    ;" d="M221.975,180.522h-15.09c-9.053,0-17.265,5.274-21.047,13.499
	c-10.739,23.357-34.879,71.683-63.28,101.698c-38.545,40.735-50.275,115.197-50.275,115.197h160.284
	C164.786,361.67,194.56,260.728,221.975,180.522z"/>
<g style="opacity:0.1;">
	<path d="M173.347,374.065c-0.799,0-1.612-0.129-2.411-0.399c-3.922-1.332-6.023-5.591-4.691-9.513
		c2.421-7.135,6.158-12.288,10.115-17.743c4.84-6.675,9.845-13.577,13.559-25.801c1.204-3.963,5.396-6.197,9.356-4.995
		c3.963,1.204,6.2,5.393,4.996,9.356c-4.446,14.631-10.724,23.288-15.768,30.245c-3.554,4.901-6.361,8.772-8.054,13.758
		C179.389,372.097,176.472,374.065,173.347,374.065z"/>
	<path d="M346.46,374.423c-3.183,0-6.137-2.042-7.148-5.238c-2.516-7.948-7.318-12.212-13.964-18.112
		c-5.693-5.056-12.779-11.346-19.516-21.377c-2.309-3.439-1.393-8.099,2.045-10.408c3.439-2.309,8.098-1.393,10.408,2.045
		c5.671,8.445,11.441,13.568,17.021,18.523c7.478,6.64,14.542,12.911,18.306,24.803c1.25,3.949-0.938,8.164-4.887,9.414
		C347.973,374.31,347.21,374.423,346.46,374.423z"/>
</g>
<path style="fill:#67C787;" d="M419.909,362.284c-21.984,26.2-27.989,59.97-29.6,78.358c-0.605,6.909,5.826,12.305,12.525,10.509
	c17.829-4.78,50.043-16.557,72.027-42.757s27.989-59.97,29.6-78.358c0.605-6.909-5.826-12.305-12.525-10.509
	C474.107,324.307,441.893,336.084,419.909,362.284z"/>
<path style="opacity:0.1;enable-background:new    ;" d="M418.876,426.809c-1.701,0-3.412-0.575-4.817-1.755
	c-3.173-2.662-3.587-7.392-0.924-10.566l57.009-67.94c2.662-3.173,7.392-3.589,10.566-0.924c3.173,2.662,3.587,7.393,0.924,10.566
	l-57.009,67.94C423.142,425.898,421.016,426.809,418.876,426.809z"/>
<path style="fill:#8ADBA1;" d="M376.53,357.53c-11.697,32.139-5.79,65.926-1.015,83.756c1.794,6.699,9.683,9.57,15.364,5.592
	c15.119-10.589,41.362-32.674,53.06-64.813s5.79-65.926,1.015-83.756c-1.794-6.699-9.683-9.57-15.364-5.592
	C414.471,303.306,388.228,325.391,376.53,357.53z"/>
<path style="opacity:0.1;enable-background:new    ;" d="M395.067,418.97c-0.852,0-1.718-0.146-2.564-0.454
	c-3.893-1.417-5.899-5.721-4.483-9.613l30.334-83.342c1.417-3.893,5.724-5.896,9.613-4.482c3.893,1.417,5.899,5.721,4.483,9.613
	l-30.334,83.342C401.007,417.078,398.13,418.97,395.067,418.97z"/>
<path style="fill:#67C787;" d="M92.091,362.284c21.984,26.2,27.989,59.97,29.6,78.358c0.605,6.909-5.826,12.305-12.525,10.509
	c-17.829-4.78-50.043-16.557-72.027-42.757s-27.989-59.97-29.6-78.358c-0.605-6.909,5.826-12.305,12.525-10.509
	C37.893,324.307,70.107,336.084,92.091,362.284z"/>
<path style="opacity:0.1;enable-background:new    ;" d="M93.124,426.809c-2.141,0-4.266-0.911-5.749-2.679l-57.009-67.94
	c-2.663-3.174-2.249-7.904,0.924-10.566c3.172-2.664,7.904-2.249,10.566,0.924l57.009,67.94c2.663,3.174,2.249,7.904-0.924,10.566
	C96.536,426.234,94.825,426.809,93.124,426.809z"/>
<path style="fill:#8ADBA1;" d="M135.47,357.53c11.698,32.139,5.79,65.926,1.015,83.756c-1.794,6.699-9.683,9.57-15.364,5.592
	c-15.119-10.589-41.362-32.674-53.06-64.813s-5.79-65.926-1.015-83.756c1.794-6.699,9.683-9.57,15.364-5.592
	C97.529,303.306,123.772,325.391,135.47,357.53z"/>
<path style="opacity:0.1;enable-background:new    ;" d="M116.933,418.97c-3.063,0-5.939-1.892-7.048-4.936l-30.334-83.342
	c-1.416-3.893,0.59-8.196,4.483-9.613c3.892-1.415,8.196,0.591,9.613,4.482l30.334,83.342c1.417,3.893-0.59,8.196-4.483,9.613
	C118.651,418.824,117.785,418.97,116.933,418.97z"/>
<path style="fill:#F5D7B7;" d="M470.23,479.458H41.77c-18.927,0-34.27-15.343-34.27-34.27l0,0c0-18.927,15.343-34.27,34.27-34.27
	h428.46c18.927,0,34.27,15.343,34.27,34.27l0,0C504.5,464.114,489.157,479.458,470.23,479.458z"/>
<path style="fill:#F2CAA7;" d="M174.665,410.917H41.77c-18.927,0-34.27,15.343-34.27,34.27l0,0c0,18.927,15.343,34.27,34.27,34.27
	h139.345C155.722,471.516,157.199,422.435,174.665,410.917z"/>
<g>
	<circle style="fill:#DBB695;" cx="441.12" cy="453.559" r="7.283"/>
	<circle style="fill:#DBB695;" cx="205.51" cy="446.279" r="7.283"/>
	<circle style="fill:#DBB695;" cx="349.76" cy="438.999" r="7.283"/>
	<circle style="fill:#DBB695;" cx="134.45" cy="438.999" r="7.283"/>
	<circle style="fill:#DBB695;" cx="80.58" cy="451.499" r="7.283"/>
</g>
<path style="fill:#F27281;" d="M347.232,211.179c7.125,22.718,17.487,41.96,25.299,54.588c5.652,9.135,2.911,21.111-6.135,26.905
	l0,0c-8.584,5.497-19.921,3.516-26.174-4.533c-11.762-15.141-26.477-29.386-38.091-39.724c-8.209-7.308-21.24-2.454-22.654,8.445
	c-1.428,11.008-3.081,23.623-4.383,33.535c-1.302,9.912-9.75,17.319-19.747,17.319l0,0c-9.179,0-17.115-6.287-19.347-15.191
	c-4.118-16.43-9.658-30.819-14.359-41.428c-3.753-8.471-15.257-9.699-20.689-2.194c-7.329,10.125-16.712,22.026-24.817,30.277
	c-5.882,5.988-14.891,7.625-22.502,4.087l0,0c-10.639-4.945-14.689-17.997-8.696-28.083c6.976-11.74,15.255-27.751,19.831-44.002
	l0,0c6.902-25.645,30.156-43.467,56.713-43.467h69.037C317.076,167.712,340.329,185.533,347.232,211.179L347.232,211.179z"/>
<g style="opacity:0.1;">
	<path d="M194.031,229.372c-1.128,0-2.272-0.256-3.349-0.794c-3.704-1.854-5.205-6.358-3.353-10.063
		c0.829-1.656,2.311-3.934,4.188-6.818c2.446-3.759,5.491-8.436,7.054-11.774c1.757-3.751,6.222-5.366,9.973-3.611
		c3.751,1.756,5.368,6.222,3.611,9.973c-2.005,4.282-5.365,9.446-8.065,13.595c-1.357,2.086-2.895,4.45-3.344,5.346
		C199.43,227.853,196.781,229.372,194.031,229.372z"/>
	<path d="M258.807,268.221c-3.997,0-7.319-3.154-7.488-7.185c-0.274-6.531,0.628-19.654,1.221-24.277
		c0.527-4.107,4.281-7.007,8.393-6.485c4.108,0.527,7.012,4.285,6.485,8.394c-0.516,4.02-1.339,16.354-1.113,21.74
		c0.174,4.138-3.04,7.634-7.178,7.808C259.02,268.219,258.913,268.221,258.807,268.221z"/>
	<path d="M335.061,245.212c-1.999,0-3.994-0.795-5.47-2.367c-6.023-6.418-12.532-21.314-13.365-24.372
		c-1.09-3.996,1.267-8.119,5.263-9.209c3.983-1.085,8.09,1.251,9.197,5.222c0.749,2.405,6.196,14.209,9.842,18.094
		c2.835,3.02,2.685,7.767-0.335,10.602C338.745,244.539,336.901,245.212,335.061,245.212z"/>
</g>
<g>
	<path style="fill:#EA6376;" d="M431.859,100.046c6.205,16.307-2.256,35.219-24.127,39.139c-18.77,3.364-40.887,7.341-58.855,10.574
		c-11.156,2.008-18.412-11.371-10.648-19.631c18.741-19.939,43.323-44.741,52.87-48.373
		C407.405,75.55,425.655,83.739,431.859,100.046z"/>
	<path style="fill:#EA6376;" d="M301.796,35.401c15.878,7.231,23.161,26.628,10.367,44.794
		c-10.98,15.591-23.909,33.97-34.411,48.904c-6.521,9.273-21.087,4.862-21.375-6.47c-0.696-27.355-0.658-62.275,3.576-71.571
		C267.183,35.18,285.917,28.17,301.796,35.401z"/>
	<path style="fill:#EA6376;" d="M111.06,106.454c-3.737,17.042,7.415,34.503,29.625,35.162c19.061,0.565,41.522,1.243,59.77,1.797
		c11.33,0.344,16.538-13.957,7.643-20.984c-21.471-16.964-49.436-37.877-59.413-40.065
		C131.642,78.625,114.797,89.411,111.06,106.454z"/>
</g>
<path d="M346.647,157.461c1.172,0,2.362-0.105,3.559-0.32c12.939-2.328,28.031-5.043,42.474-7.636
	c4.077-0.731,6.789-4.63,6.057-8.707s-4.633-6.798-8.707-6.057c-14.445,2.593-29.539,5.308-42.48,7.636
	c-2.728,0.498-4.056-1.345-4.497-2.158c-0.442-0.814-1.264-2.927,0.642-4.954c37.263-39.646,47.747-45.615,50.072-46.5
	c6.014-2.288,12.56-2.098,18.431,0.536c5.871,2.635,10.364,7.398,12.653,13.412c3.802,9.993,0.263,20.3-8.808,25.647
	c-3.568,2.104-4.755,6.702-2.651,10.27c2.104,3.568,6.703,4.755,10.27,2.651c15.348-9.05,21.602-27.104,15.209-43.903
	c-3.713-9.759-11.005-17.488-20.531-21.763c-9.528-4.276-20.148-4.585-29.907-0.871c-3.251,1.237-13.142,5.001-55.667,50.246
	c-5.793,6.164-6.93,14.949-2.896,22.382C333.32,153.736,339.668,157.461,346.647,157.461z M262.558,140.77
	c1.912,0.579,3.838,0.859,5.732,0.859c6.12-0.001,11.882-2.934,15.597-8.216c10.5-14.932,23.429-33.31,34.408-48.899
	c7.248-10.291,9.627-21.901,6.699-32.691c-2.774-10.223-10.096-18.695-20.09-23.246c-9.502-4.327-20.122-4.694-29.901-1.037
	c-9.779,3.659-17.548,10.908-21.876,20.411c-1.441,3.165-5.827,12.796-4.248,74.87C249.094,131.276,254.463,138.322,262.558,140.77z
	 M266.778,54.167c2.667-5.856,7.455-10.324,13.482-12.579c2.749-1.028,5.604-1.541,8.454-1.541c3.398,0,6.788,0.729,9.974,2.18l0,0
	c5.917,2.695,10.229,7.624,11.83,13.523c1.763,6.497,0.211,13.456-4.486,20.127c-10.982,15.592-23.912,33.974-34.414,48.907
	c-1.598,2.274-3.83,1.896-4.716,1.628s-2.956-1.192-3.027-3.974C262.49,68.046,265.747,56.431,266.778,54.167z M140.462,149.113
	c19.059,0.566,41.519,1.243,59.765,1.796c0.209,0.007,0.416,0.01,0.624,0.01c8.187,0,15.232-4.916,18.055-12.663
	c2.896-7.945,0.479-16.468-6.159-21.712c-48.722-38.494-59.059-40.762-62.457-41.507c-21.055-4.617-41.94,8.756-46.557,29.811
	c0,0,0,0-0.001,0c-2.352,10.727,0.036,21.668,6.553,30.019C117.164,143.68,127.881,148.74,140.462,149.113z M118.385,108.06
	c2.846-12.976,15.722-21.219,28.692-18.371c2.431,0.533,13.678,4.893,56.371,38.624c2.184,1.726,1.682,3.936,1.365,4.806
	c-0.317,0.869-1.358,2.84-4.131,2.798c-18.249-0.555-40.713-1.232-59.776-1.798c-8.155-0.241-14.654-3.174-18.795-8.48
	C118.351,120.819,116.993,114.412,118.385,108.06z M485.835,406.453c19.131-26.696,24.576-58.408,26.097-75.762
	c0.498-5.68-1.81-11.258-6.173-14.919c-4.364-3.661-10.257-4.967-15.765-3.489c-8.394,2.251-20.138,6.086-32.619,12.248
	c-1.151-11.286-3.271-21.051-5.176-28.162c-1.475-5.508-5.551-9.959-10.904-11.907c-5.354-1.948-11.336-1.159-16.007,2.112
	c-5.542,3.882-12.668,9.367-20.103,16.367c-3.314-4.49-6.758-8.637-10.295-12.375c-3.887-4.108-7.906-8.821-11.97-14.035
	c0.097-5.038-1.188-10.148-4.01-14.71c-7.326-11.843-17.512-30.598-24.477-52.746c-7.82-28.779-34.08-48.863-63.914-48.863h-69.037
	c-29.888,0-56.187,20.156-63.933,48.934c-4.481,15.916-12.838,31.735-19.059,42.204c-3.132,5.269-4.367,11.423-3.597,17.427
	c-6.027,8.352-12,15.679-17.782,21.789c-3.538,3.739-6.981,7.886-10.296,12.376c-7.435-7-14.56-12.485-20.102-16.366
	c-4.67-3.272-10.654-4.063-16.007-2.114c-5.353,1.948-9.43,6.4-10.905,11.908c-1.904,7.111-4.024,16.876-5.176,28.162
	c-12.482-6.162-24.226-9.997-32.62-12.248c-5.505-1.476-11.4-0.173-15.765,3.489c-4.363,3.661-6.671,9.239-6.173,14.919
	c1.521,17.355,6.966,49.067,26.097,75.762C10.843,412.649,0,427.671,0,445.188c0,23.032,18.738,41.77,41.771,41.77h59.994
	c4.142,0,7.5-3.357,7.5-7.5c0-4.142-3.358-7.5-7.5-7.5H41.771C27.009,471.957,15,459.949,15,445.187
	c0-14.178,11.081-25.81,25.036-26.707c0.024-0.002,0.049-0.003,0.073-0.006c0.55-0.034,1.103-0.057,1.661-0.057h428.459
	c0.558,0,1.111,0.023,1.661,0.057c0.024,0.002,0.048,0.004,0.073,0.006C485.919,419.377,497,431.009,497,445.188
	c0,14.761-12.009,26.77-26.771,26.77H136.201c-4.142,0-7.5,3.358-7.5,7.5c0,4.143,3.358,7.5,7.5,7.5h334.028
	c23.032,0,41.771-18.738,41.771-41.77C512,427.671,501.157,412.648,485.835,406.453z M151.384,259.012
	c6.681-11.243,15.679-28.315,20.626-45.885c6.009-22.324,26.352-37.916,49.471-37.916h69.037c23.119,0,43.462,15.592,49.471,37.916
	c0.026,0.099,0.055,0.197,0.086,0.295c7.432,23.697,18.283,43.69,26.077,56.289c3.472,5.612,1.766,13.078-3.802,16.645
	c-5.335,3.417-12.303,2.206-16.206-2.819c-12.457-16.034-28.099-30.996-39.027-40.725c-5.883-5.236-14.118-6.78-21.491-4.027
	c-7.369,2.75-12.576,9.306-13.588,17.109c-1.427,11.005-3.08,23.614-4.381,33.523c-0.809,6.154-6.101,10.795-12.311,10.795
	c-5.704,0-10.668-3.912-12.072-9.514c-3.558-14.197-8.53-28.545-14.776-42.644c-2.866-6.468-8.772-10.771-15.801-11.511
	c-0.707-0.074-1.41-0.11-2.108-0.11c-6.226,0-11.989,2.924-15.712,8.067c-8.555,11.818-17.337,22.542-24.093,29.42
	c-3.648,3.713-9.269,4.733-13.99,2.542c-3.204-1.489-5.542-4.168-6.585-7.542C149.169,265.557,149.586,262.037,151.384,259.012z
	 M42.759,403.417c-20.658-24.725-26.253-56.985-27.748-74.035c-0.098-1.124,0.505-1.811,0.873-2.119
	c0.368-0.309,1.15-0.784,2.238-0.492c8.991,2.41,22.162,6.794,35.649,14.227c-0.001,13.813,1.868,28.865,7.243,43.632
	c2.315,6.359,5.288,12.64,8.862,18.787L42.759,403.417L42.759,403.417z M134.698,403.417H87.622
	c-5.349-7.758-9.554-15.788-12.513-23.918c-11.049-30.355-5.255-62.683-0.818-79.25c0.292-1.09,1.093-1.528,1.545-1.693
	c0.452-0.164,1.348-0.344,2.271,0.305c14.049,9.839,39.266,30.878,50.315,61.234C133.144,373.067,135.247,387.612,134.698,403.417z
	 M362.298,403.417H149.702c0.552-17.539-1.853-33.806-7.184-48.453c-5.896-16.201-15.245-29.953-25.098-41.1
	c3.4-4.789,6.948-9.143,10.587-12.99c4.655-4.919,9.402-10.546,14.179-16.774c2.343,2.466,5.143,4.504,8.287,5.965
	c10.465,4.863,22.928,2.599,31.013-5.634c10.307-10.493,21.295-25.27,25.542-31.136c1.375-1.899,3.325-1.916,4.101-1.834
	c0.78,0.082,2.698,0.507,3.656,2.669c5.9,13.316,10.59,26.847,13.941,40.214c3.079,12.286,14.026,20.867,26.622,20.867
	c13.711,0,25.398-10.25,27.183-23.842c1.303-9.915,2.956-22.534,4.384-33.547c0.432-3.328,2.912-4.596,3.957-4.986
	c1.049-0.392,3.759-1.06,6.272,1.178c10.46,9.311,25.397,23.588,37.155,38.724c8.693,11.192,24.231,13.879,36.141,6.249
	c2.569-1.645,4.762-3.667,6.568-5.943c2.354,2.782,4.688,5.401,6.986,7.83c3.64,3.846,7.187,8.201,10.587,12.989
	c-9.853,11.147-19.202,24.899-25.098,41.1C364.151,369.611,361.746,385.878,362.298,403.417z M424.378,403.417h-47.075
	c-0.55-15.806,1.554-30.351,6.276-43.322c11.048-30.356,36.266-51.395,50.315-61.235c0.923-0.646,1.82-0.469,2.271-0.303
	c0.452,0.164,1.253,0.603,1.545,1.692c4.437,16.567,10.23,48.895-0.818,79.25C433.932,387.629,429.726,395.659,424.378,403.417z
	 M469.242,403.417h-27.117c3.575-6.147,6.548-12.428,8.862-18.787c5.375-14.768,7.243-29.82,7.243-43.632
	c13.486-7.433,26.658-11.817,35.649-14.227c1.089-0.292,1.871,0.184,2.238,0.492c0.368,0.309,0.971,0.995,0.873,2.119
	C495.495,346.432,489.9,378.691,469.242,403.417z"/>
<g>
</g>
<g>
</g>
<g>
</g>
<g>
</g>
<g>
</g>
<g>
</g>
<g>
</g>
<g>
</g>
<g>
</g>
<g>
</g>
<g>
</g>
<g>
</g>
<g>
</g>
<g>
</g>
<g>
</g>
</svg>
