<?xml version="1.0" encoding="iso-8859-1"?>
<!-- Generator: Adobe Illustrator 19.0.0, SVG Export Plug-In . SVG Version: 6.00 Build 0)  -->
<svg version="1.1" id="Capa_1" xmlns="http://www.w3.org/2000/svg" xmlns:xlink="http://www.w3.org/1999/xlink" x="0px" y="0px"
	 viewBox="0 0 512.001 512.001" style="enable-background:new 0 0 512.001 512.001;" xml:space="preserve">
<path style="fill:#67C787;" d="M419.911,184.761c-21.984,26.2-27.989,59.97-29.6,78.358c-0.605,6.909,5.826,12.305,12.525,10.509
	c17.829-4.78,50.043-16.557,72.028-42.757c21.984-26.2,27.989-59.97,29.6-78.358c0.605-6.909-5.826-12.305-12.525-10.509
	C474.109,146.784,441.895,158.561,419.911,184.761z"/>
<path style="opacity:0.1;enable-background:new    ;" d="M418.878,249.287c-1.701,0-3.412-0.575-4.817-1.755
	c-3.173-2.662-3.587-7.392-0.924-10.566l57.009-67.941c2.662-3.172,7.393-3.588,10.566-0.924c3.173,2.662,3.587,7.393,0.924,10.566
	l-57.009,67.941C423.144,248.376,421.019,249.287,418.878,249.287z"/>
<path style="fill:#8ADBA1;" d="M380.891,125.643c-11.698,32.139-5.79,65.927-1.015,83.757c1.794,6.699,9.683,9.571,15.364,5.592
	c15.119-10.589,41.362-32.674,53.06-64.814s5.79-65.927,1.015-83.757c-1.794-6.699-9.683-9.57-15.364-5.592
	C418.832,71.419,392.588,93.504,380.891,125.643z"/>
<path style="opacity:0.1;enable-background:new    ;" d="M399.427,187.083c-0.852,0-1.717-0.146-2.564-0.454
	c-3.892-1.417-5.9-5.721-4.483-9.613l30.334-83.343c1.416-3.892,5.715-5.896,9.613-4.482c3.892,1.417,5.899,5.721,4.482,9.613
	l-30.334,83.343C405.367,185.192,402.491,187.083,399.427,187.083z"/>
<path style="fill:#67C787;" d="M92.091,184.761c21.984,26.2,27.989,59.97,29.6,78.358c0.605,6.909-5.826,12.305-12.525,10.509
	c-17.829-4.78-50.043-16.557-72.028-42.757S9.15,170.9,7.539,152.513c-0.605-6.909,5.826-12.305,12.525-10.509
	C37.892,146.784,70.107,158.561,92.091,184.761z"/>
<path style="opacity:0.1;enable-background:new    ;" d="M93.123,249.287c-2.141,0-4.266-0.911-5.749-2.679l-57.009-67.941
	c-2.663-3.174-2.249-7.904,0.924-10.566c3.173-2.664,7.904-2.248,10.566,0.924l57.009,67.941c2.663,3.174,2.249,7.904-0.924,10.566
	C96.535,248.712,94.824,249.287,93.123,249.287z"/>
<path style="fill:#8ADBA1;" d="M131.112,125.643c11.697,32.139,5.79,65.927,1.015,83.757c-1.794,6.699-9.683,9.571-15.364,5.592
	c-15.119-10.589-41.362-32.674-53.06-64.814c-11.697-32.139-5.79-65.927-1.015-83.757c1.794-6.699,9.683-9.57,15.364-5.592
	C93.17,71.419,119.414,93.504,131.112,125.643z"/>
<path style="opacity:0.1;enable-background:new    ;" d="M112.574,187.083c-3.064,0-5.94-1.892-7.049-4.936L75.192,98.805
	c-1.417-3.893,0.591-8.196,4.482-9.613c3.894-1.415,8.197,0.592,9.613,4.482l30.334,83.343c1.417,3.893-0.591,8.196-4.482,9.613
	C114.292,186.937,113.426,187.083,112.574,187.083z"/>
<path style="fill:#B38A82;" d="M40.877,332.662h137.857V137.125c0-14.569-16.741-22.778-28.259-13.858l0,0
	c-46.494,36.007-79.438,86.686-93.474,143.792L40.877,332.662z"/>
<path style="opacity:0.1;enable-background:new    ;" d="M113.911,157.721c-27.282,31.189-46.904,68.628-56.91,109.337
	l-16.124,65.605h111.994C107.738,295.919,106.007,206.829,113.911,157.721z"/>
<g style="opacity:0.1;">
	<path d="M99.307,301.193c-1.102,0-2.221-0.244-3.278-0.76c-3.724-1.814-5.272-6.303-3.458-10.026
		c1.228-2.521,1.385-3.772,1.646-5.844c0.421-3.349,0.945-7.517,5.046-15.344c1.924-3.67,6.457-5.083,10.125-3.162
		c3.669,1.923,5.084,6.456,3.162,10.125c-2.844,5.425-3.124,7.662-3.45,10.252c-0.324,2.578-0.728,5.786-3.044,10.541
		C104.756,299.642,102.086,301.193,99.307,301.193z"/>
	<path d="M124.958,229.069c-0.666,0-1.342-0.09-2.015-0.276c-3.991-1.111-6.325-5.246-5.215-9.236
		c1.295-4.651,4.073-8.32,6.76-11.868c4.08-5.387,7.933-10.475,7.882-19.825c-0.022-4.143,3.317-7.519,7.459-7.541
		c0.014,0,0.028,0,0.042,0c4.123,0,7.477,3.331,7.499,7.459c0.078,14.436-6.28,22.832-10.924,28.963
		c-2.006,2.649-3.739,4.938-4.267,6.834C131.256,226.896,128.241,229.069,124.958,229.069z"/>
</g>
<path style="fill:#B38A82;" d="M471.125,332.662H333.267V137.125c0-14.569,16.741-22.778,28.259-13.858l0,0
	c46.493,36.007,79.438,86.685,93.473,143.791L471.125,332.662z"/>
<g style="opacity:0.1;">
	<path d="M412.695,301.193c-2.779,0-5.449-1.551-6.748-4.218c-2.316-4.755-2.72-7.963-3.044-10.541
		c-0.326-2.59-0.607-4.827-3.45-10.252c-1.922-3.669-0.507-8.202,3.162-10.125c3.668-1.921,8.201-0.507,10.125,3.162
		c4.101,7.827,4.625,11.995,5.046,15.344c0.261,2.071,0.418,3.322,1.646,5.844c1.815,3.724,0.266,8.213-3.458,10.026
		C414.916,300.948,413.796,301.193,412.695,301.193z"/>
	<path d="M387.044,229.069c-3.284,0-6.298-2.173-7.222-5.491c-0.527-1.896-2.261-4.185-4.267-6.834
		c-4.643-6.131-11.002-14.527-10.924-28.963c0.022-4.128,3.376-7.459,7.499-7.459c0.014,0,0.027,0,0.042,0
		c4.142,0.022,7.481,3.398,7.459,7.541c-0.051,9.351,3.802,14.438,7.882,19.825c2.686,3.548,5.465,7.217,6.76,11.868
		c1.11,3.99-1.224,8.125-5.215,9.236C388.387,228.979,387.709,229.069,387.044,229.069z"/>
</g>
<rect x="178.732" y="143.741" style="fill:#ABDFEB;" width="154.531" height="188.921"/>
<g>
	<path style="fill:#8BCDD8;" d="M320.969,143.74c0,19.656,0,44.397,0,72.504c0,71.172-39.829,103.942-64.969,103.942
		s-64.969-32.77-64.969-103.942c0-28.106,0-52.847,0-72.504h-12.298v188.922h154.533V143.74H320.969z"/>
	<path style="fill:#8BCDD8;" d="M219.539,245.701c-4.143,0-7.5-3.357-7.5-7.5v-36.934c0-4.143,3.357-7.5,7.5-7.5s7.5,3.357,7.5,7.5
		v36.934C227.039,242.344,223.682,245.701,219.539,245.701z"/>
	<path style="fill:#8BCDD8;" d="M289.44,314.699c-4.143,0-7.5-3.357-7.5-7.5v-60.466c0-4.143,3.357-7.5,7.5-7.5
		c4.143,0,7.5,3.357,7.5,7.5v60.466C296.94,311.342,293.582,314.699,289.44,314.699z"/>
</g>
<path style="fill:#ABDFEB;" d="M438.772,452.978H73.23c-36.056,0-65.287-29.229-65.287-65.287v-33.044
	c0-12.142,9.843-21.984,21.984-21.984h452.146c12.142,0,21.984,9.843,21.984,21.984v33.044
	C504.058,423.748,474.828,452.978,438.772,452.978z"/>
<g>
	<path style="fill:#8BCDD8;" d="M29.928,332.662c-12.141,0-21.984,9.843-21.984,21.984v33.044c0,36.056,29.229,65.287,65.287,65.287
		h209.989c-131.734-14.474-212.434-56.796-173.259-120.315H29.928z"/>
	<path style="fill:#8BCDD8;" d="M109.805,386.376H77.726c-4.143,0-7.5-3.357-7.5-7.5s3.357-7.5,7.5-7.5h32.079
		c4.143,0,7.5,3.357,7.5,7.5S113.947,386.376,109.805,386.376z"/>
	<path style="fill:#8BCDD8;" d="M289.44,426.781h-94.77c-4.143,0-7.5-3.357-7.5-7.5s3.357-7.5,7.5-7.5h94.77
		c4.143,0,7.5,3.357,7.5,7.5C296.94,423.423,293.582,426.781,289.44,426.781z"/>
	<path style="fill:#8BCDD8;" d="M431.537,400.321h-52.14c-4.143,0-7.5-3.357-7.5-7.5c0-4.142,3.357-7.5,7.5-7.5h52.14
		c4.142,0,7.5,3.358,7.5,7.5C439.037,396.963,435.68,400.321,431.537,400.321z"/>
</g>
<path style="fill:#FFFFFF;" d="M332.528,296.047c-6.871-0.48-13.373,0.934-19.039,3.771c-9.37,4.693-20.536,3.204-28.733-3.326
	c-7.89-6.285-17.882-10.042-28.755-10.042s-20.865,3.757-28.755,10.042c-8.197,6.53-19.362,8.018-28.733,3.326
	c-5.665-2.837-12.167-4.251-19.039-3.771c-18.143,1.267-32.826,16.036-33.995,34.185c-1.376,21.374,15.552,39.139,36.63,39.139
	c5.835,0,11.352-1.362,16.249-3.786c9.449-4.676,20.643-3.319,28.889,3.25c7.89,6.285,17.882,10.041,28.754,10.041
	c10.872,0,20.864-3.757,28.754-10.041c8.246-6.569,19.44-7.926,28.889-3.25c4.897,2.424,10.414,3.786,16.249,3.786
	c21.078,0,38.006-17.765,36.63-39.139C365.353,312.082,350.671,297.313,332.528,296.047z"/>
<path style="opacity:0.05;enable-background:new    ;" d="M227.246,368.835c7.89,6.285,17.882,10.041,28.754,10.041
	c5.896,0,11.53-1.113,16.713-3.126c-32.399-3.333-22.709-31.042-62.421-28.492c-37.632,2.417-40.02-34.583-24.259-51.075
	c-2.139-0.228-4.327-0.292-6.56-0.136c-18.143,1.267-32.826,16.036-33.995,34.186c-1.376,21.374,15.552,39.139,36.63,39.139
	c5.835,0,11.352-1.362,16.249-3.786C207.806,360.909,219,362.266,227.246,368.835z"/>
<path d="M480.608,235.694c23.409-27.898,29.675-63.68,31.326-82.525c0.497-5.68-1.81-11.258-6.174-14.919
	c-4.363-3.662-10.257-4.966-15.765-3.489c-8.866,2.377-20.516,6.248-32.768,12.318c9.871-32.445,3.955-65.33-0.669-82.597
	c-1.475-5.508-5.552-9.959-10.903-11.907c-5.353-1.948-11.337-1.158-16.008,2.112c-15.494,10.852-43.349,34.168-55.804,68.392
	c-0.046,0.126-0.087,0.256-0.133,0.382c-2.493-2.082-5.018-4.129-7.591-6.121c-7.609-5.894-17.703-6.922-26.343-2.685
	c-8.374,4.106-13.659,12.323-13.978,21.586H186.203c-0.319-9.263-5.604-17.479-13.978-21.586
	c-8.639-4.236-18.734-3.208-26.342,2.685c-2.573,1.992-5.098,4.039-7.591,6.122c-0.045-0.126-0.087-0.256-0.132-0.38
	c-4.407-12.111-11.126-23.895-19.969-35.021c-2.576-3.243-7.296-3.783-10.537-1.205c-3.243,2.577-3.782,7.295-1.205,10.537
	c7.835,9.859,13.762,20.228,17.616,30.819c0.717,1.97,1.377,4.026,1.986,6.133c-14.112,13.344-26.725,28.171-37.606,44.172
	c-7.877-9.891-13.817-20.252-17.694-30.902c-11.049-30.357-5.255-62.683-0.817-79.251c0.291-1.09,1.093-1.528,1.544-1.692
	c0.454-0.166,1.35-0.342,2.272,0.304c3.155,2.21,6.304,4.585,9.357,7.061c3.221,2.607,7.942,2.111,10.55-1.104
	c2.607-3.219,2.113-7.941-1.104-10.55c-3.326-2.694-6.757-5.283-10.198-7.693c-4.671-3.271-10.654-4.062-16.008-2.112
	c-5.352,1.948-9.428,6.399-10.903,11.907c-4.624,17.267-10.54,50.152-0.669,82.597c-12.252-6.07-23.901-9.941-32.768-12.318
	c-5.508-1.476-11.4-0.173-15.765,3.489c-4.363,3.661-6.671,9.239-6.174,14.919c1.651,18.846,7.917,54.627,31.326,82.525
	c5.954,7.094,13.015,13.638,21.015,19.52c-0.959,3.331-1.861,6.682-2.69,10.055l-14.721,59.89h-5.069
	c-16.257,0-29.483,13.227-29.483,29.484v33.044c0,40.135,32.651,72.787,72.786,72.787h316.082c4.143,0,7.5-3.358,7.5-7.5
	c0-4.143-3.357-7.5-7.5-7.5H73.23c-31.863,0-57.785-25.923-57.785-57.786v-33.044c0-7.986,6.497-14.484,14.483-14.484h10.923
	c0.011,0,0.021,0.002,0.032,0.002c0.008,0,0.015-0.002,0.023-0.002h97.63c1.432,8.46,5.29,16.303,11.32,22.733
	c8.327,8.881,20.083,13.975,32.253,13.975c6.87,0,13.456-1.535,19.575-4.564c6.805-3.367,14.809-2.45,20.89,2.395
	c9.45,7.528,21.321,11.675,33.427,11.675c12.105,0,23.977-4.147,33.427-11.675c6.082-4.844,14.086-5.761,20.889-2.395
	c6.12,3.029,12.706,4.564,19.576,4.564c12.17,0,23.926-5.094,32.253-13.975c6.03-6.43,9.888-14.273,11.32-22.733h97.63
	c0.008,0,0.015,0.002,0.023,0.002c0.011,0,0.022-0.002,0.032-0.002h10.923c7.986,0,14.484,6.498,14.484,14.484v33.044
	c0,31.863-25.923,57.786-57.786,57.786h-8.579c-4.142,0-7.5,3.357-7.5,7.5c0,4.142,3.358,7.5,7.5,7.5h8.579
	c40.135,0,72.787-32.651,72.787-72.787v-33.044c0-16.258-13.227-29.484-29.484-29.484h-5.071l-14.721-59.893
	c-0.829-3.373-1.731-6.724-2.691-10.055C467.593,249.332,474.654,242.788,480.608,235.694z M387.939,128.209
	c11.049-30.358,36.266-51.397,50.314-61.235c0.926-0.647,1.82-0.469,2.272-0.304c0.451,0.164,1.253,0.602,1.544,1.692
	c4.438,16.567,10.232,48.893-0.817,79.251c-3.876,10.65-9.816,21.011-17.694,30.902c-10.882-16.001-23.495-30.828-37.606-44.172
	C386.561,132.236,387.221,130.18,387.939,128.209z M186.234,151.239h139.534v137.432c-5.443,0.509-10.752,1.994-15.638,4.441
	c-6.557,3.284-14.683,2.31-20.701-2.486c-9.451-7.529-21.322-11.676-33.428-11.676c-12.105,0-23.977,4.146-33.428,11.676
	c-6.019,4.794-14.145,5.77-20.702,2.486c-4.884-2.446-10.195-3.931-15.637-4.44L186.234,151.239L186.234,151.239z M42.884,226.051
	c-20.764-24.745-26.376-57.104-27.873-74.191c-0.099-1.125,0.504-1.811,0.872-2.12c0.368-0.309,1.151-0.784,2.238-0.491
	c12.142,3.255,29.953,9.539,46.657,21.015c4.188,7.4,9.263,14.599,15.192,21.545c-9.121,15.255-16.736,31.416-22.689,48.23
	C51.889,235.703,47.059,231.026,42.884,226.051z M138.542,325.162H50.444l13.841-56.313c13.575-55.23,45.815-104.827,90.783-139.651
	c3.095-2.396,7.041-2.798,10.554-1.076c3.515,1.724,5.612,5.09,5.612,9.004v152.682C154.476,294.059,141.49,307.946,138.542,325.162
	z M359.094,332.694c-0.005,7.455-2.762,14.474-7.889,19.942c-5.584,5.955-13.152,9.234-21.312,9.234
	c-4.542,0-8.89-1.012-12.923-3.008c-11.894-5.887-26.371-4.272-36.888,4.105c-6.904,5.5-15.232,8.407-24.081,8.407
	c-8.85,0-17.177-2.907-24.081-8.407c-6.307-5.024-14.039-7.615-21.783-7.615c-5.17,0-10.345,1.154-15.105,3.51
	c-4.032,1.996-8.38,3.008-12.922,3.008c-8.159,0-15.728-3.279-21.312-9.234c-5.127-5.468-7.884-12.487-7.889-19.942
	c0-0.011,0.002-0.021,0.002-0.032c0-0.017-0.003-0.033-0.003-0.049c0.001-0.63,0.015-1.263,0.056-1.899
	c0.921-14.298,12.255-25.861,26.469-27.134c0.039-0.004,0.079-0.007,0.118-0.011c0.149-0.013,0.297-0.031,0.446-0.042
	c5.264-0.367,10.51,0.669,15.158,2.996c11.766,5.891,26.193,4.256,36.764-4.166c6.905-5.501,15.232-8.408,24.082-8.408
	c8.85,0,17.177,2.907,24.082,8.408c10.569,8.421,25.002,10.058,36.763,4.166c4.649-2.327,9.895-3.357,15.159-2.996
	c0.15,0.01,0.297,0.029,0.446,0.042c0.039,0.004,0.079,0.007,0.118,0.011c14.214,1.273,25.548,12.836,26.469,27.133
	c0.041,0.636,0.055,1.269,0.056,1.9c0,0.017-0.003,0.033-0.003,0.049C359.092,332.673,359.094,332.683,359.094,332.694z
	 M461.558,325.162H373.46c-2.948-17.216-15.934-31.104-32.692-35.355V137.125c0-3.914,2.098-7.28,5.612-9.004
	c3.515-1.721,7.46-1.321,10.555,1.076c44.966,34.824,77.207,84.421,90.782,139.651L461.558,325.162z M454.721,240.04
	c-5.953-16.814-13.569-32.976-22.689-48.23c5.928-6.946,11.004-14.145,15.192-21.545c16.704-11.476,34.514-17.76,46.657-21.015
	c1.086-0.293,1.869,0.183,2.238,0.491c0.368,0.31,0.971,0.995,0.872,2.12c-1.497,17.086-7.109,49.445-27.873,74.191
	C464.942,231.026,460.112,235.703,454.721,240.04z"/>
<g>
</g>
<g>
</g>
<g>
</g>
<g>
</g>
<g>
</g>
<g>
</g>
<g>
</g>
<g>
</g>
<g>
</g>
<g>
</g>
<g>
</g>
<g>
</g>
<g>
</g>
<g>
</g>
<g>
</g>
</svg>
