<?xml version="1.0" encoding="iso-8859-1"?>
<!-- Generator: Adobe Illustrator 19.0.0, SVG Export Plug-In . SVG Version: 6.00 Build 0)  -->
<svg version="1.1" id="Capa_1" xmlns="http://www.w3.org/2000/svg" xmlns:xlink="http://www.w3.org/1999/xlink" x="0px" y="0px"
	 viewBox="0 0 512 512" style="enable-background:new 0 0 512 512;" xml:space="preserve">
<path style="fill:#67C787;" d="M461.219,222.327L461.219,222.327c-0.955,0-1.755-0.737-1.815-1.69
	c-0.872-13.853-12.383-24.819-26.455-24.819c-14.073,0-25.584,10.966-26.456,24.819c-0.06,0.953-0.86,1.69-1.815,1.69h-23.295
	c-0.955,0-1.755-0.737-1.815-1.69c-0.871-13.853-12.383-24.819-26.456-24.819s-25.584,10.966-26.456,24.819
	c-0.06,0.953-0.86,1.69-1.815,1.69h-35.089c-4.648,0-8.415-3.768-8.415-8.415l0,0c0-26.543-15.702-49.407-38.319-59.842
	c-2.328-1.074-3.788-3.437-3.786-6v-0.044c0-17.781-14.415-32.196-32.196-32.196c-15.806,0-28.951,11.389-31.677,26.409
	c-0.603,3.32-3.402,5.787-6.777,5.787h-48.325c-3.375,0-6.174-2.467-6.777-5.787c-2.726-15.019-15.872-26.409-31.677-26.409
	c-17.781,0-32.196,14.415-32.196,32.196v0.044c0.002,2.564-1.459,4.926-3.787,6C23.202,164.505,7.5,187.369,7.5,213.911v59.878
	c0,67.591,54.793,122.384,122.384,122.384h266.093c59.936,0,108.524-48.588,108.524-108.524v-22.042
	C504.5,241.704,485.122,222.327,461.219,222.327z"/>
<g style="opacity:0.1;">
	<circle cx="353.11" cy="222.331" r="7.275"/>
	<circle cx="432.95" cy="222.331" r="7.275"/>
</g>
<path style="fill:#A8EFBB;" d="M502.194,309.986H105.279c-14.448,0-28.431-4.544-40.502-12.482
	c-14.201-9.34-34.464-15.198-56.98-15.249c4.349,63.641,57.343,113.918,122.087,113.918h266.093
	C448.255,396.173,491.895,359.206,502.194,309.986z"/>
<g>
	<path style="fill:#FFFFFF;" d="M295.629,346.753L295.629,346.753c-10.153,0-18.383-8.23-18.383-18.383v-18.383h36.766v18.383
		C314.012,338.522,305.782,346.753,295.629,346.753z"/>
	<path style="fill:#FFFFFF;" d="M360.456,346.753L360.456,346.753c-10.153,0-18.383-8.23-18.383-18.383v-18.383h36.766v18.383
		C378.839,338.522,370.608,346.753,360.456,346.753z"/>
	<path style="fill:#FFFFFF;" d="M230.803,346.753L230.803,346.753c-10.153,0-18.383-8.23-18.383-18.383v-18.383h36.766v18.383
		C249.186,338.522,240.955,346.753,230.803,346.753z"/>
	<path style="fill:#FFFFFF;" d="M425.283,346.753L425.283,346.753c-10.153,0-18.383-8.23-18.383-18.383v-18.383h36.766v18.383
		C443.666,338.522,435.435,346.753,425.283,346.753z"/>
</g>
<g>
	<ellipse style="fill:#F27281;" cx="64.11" cy="193.901" rx="29.863" ry="23.782"/>
	<ellipse style="fill:#F27281;" cx="224.73" cy="193.901" rx="29.863" ry="23.782"/>
</g>
<g>
	<path style="fill:#464D59;" d="M81.512,177.68c-4.142,0-7.5-3.357-7.5-7.5v-10.546c0-4.143,3.358-7.5,7.5-7.5s7.5,3.357,7.5,7.5
		v10.546C89.012,174.322,85.654,177.68,81.512,177.68z"/>
	<path style="fill:#464D59;" d="M207.324,177.68c-4.142,0-7.5-3.357-7.5-7.5v-10.546c0-4.143,3.358-7.5,7.5-7.5s7.5,3.357,7.5,7.5
		v10.546C214.824,174.322,211.466,177.68,207.324,177.68z"/>
</g>
<path style="opacity:0.1;enable-background:new    ;" d="M68.687,157.44c-5.905-16.962-1.378-30.347,4.925-40.556
	c-13.815,3.623-24.007,16.191-24.007,31.142v0.044c0.003,2.563-1.456,4.925-3.783,5.999C23.204,164.503,7.5,187.367,7.5,213.911
	v59.878c0,67.591,54.793,122.384,122.384,122.384h71.367C67.82,350.141,63.482,190.079,69.006,161.738
	C69.285,160.304,69.167,158.819,68.687,157.44z"/>
<path d="M89.012,170.18v-10.546c0-4.143-3.358-7.5-7.5-7.5s-7.5,3.357-7.5,7.5v10.546c0,4.143,3.358,7.5,7.5,7.5
	S89.012,174.322,89.012,170.18z M466.179,215.066c-3.347-15.352-17.066-26.748-33.23-26.748c-16.081,0-29.743,11.279-33.177,26.508
	h-13.483c-3.436-15.23-17.098-26.508-33.177-26.508c-16.081,0-29.743,11.279-33.177,26.508h-30.183c-0.505,0-0.916-0.41-0.916-0.915
	c0-28.32-16.505-54.307-42.107-66.387c-0.269-21.659-17.972-39.195-39.693-39.195c-19.079,0-35.415,13.518-38.987,32.196H120.79
	c-3.573-18.68-19.908-32.196-38.987-32.196c-21.706,0-39.398,17.51-39.692,39.195c-24.671,11.633-40.754,35.68-42.027,62.908
	c-0.193,4.138,3.004,7.648,7.142,7.843c4.13,0.172,7.648-3.005,7.842-7.142c1.021-21.822,14.008-41.079,33.895-50.254
	c4.952-2.283,8.15-7.314,8.146-12.855c0-13.617,11.079-24.696,24.696-24.696c11.95,0,22.168,8.516,24.298,20.249
	c1.257,6.923,7.211,11.947,14.156,11.947h48.326c6.945,0,12.899-5.024,14.156-11.948c2.129-11.732,12.348-20.248,24.298-20.248
	c13.618,0,24.696,11.079,24.697,24.613c-0.001,0.026-0.001,0.097-0.001,0.123c-0.003,5.501,3.194,10.531,8.144,12.814
	c20.63,9.518,33.96,30.334,33.96,53.031c0,8.775,7.14,15.915,15.916,15.915h35.089c4.904,0,8.99-3.827,9.301-8.719
	c0.627-9.975,8.96-17.789,18.97-17.789s18.343,7.814,18.971,17.786c0.306,4.891,4.391,8.722,9.3,8.722h23.296
	c4.904,0,8.99-3.827,9.301-8.719c0.627-9.975,8.96-17.789,18.97-17.789s18.343,7.814,18.971,17.786
	c0.306,4.891,4.391,8.722,9.3,8.722c19.729,0,35.781,16.052,35.781,35.781v22.042c0,5.015-0.365,9.969-1.075,14.836H105.279
	c-12.612,0-25.192-3.89-36.381-11.249c-14.411-9.477-33.335-15.147-53.883-16.264c-0.004-0.395-0.015-0.788-0.015-1.184v-28.366
	c0-4.143-3.358-7.5-7.5-7.5s-7.5,3.357-7.5,7.5v28.366c0,71.618,58.266,129.884,129.884,129.884h266.093
	c17.809,0,34.897-3.931,50.792-11.682c3.724-1.815,5.27-6.306,3.454-10.028c-1.815-3.723-6.305-5.268-10.028-3.454
	c-13.83,6.744-28.707,10.164-44.218,10.164H129.884c-57.818,0-105.788-42.935-113.724-98.595
	c17.024,1.235,32.907,6.07,44.496,13.692c13.643,8.973,29.074,13.716,44.624,13.716h387.276
	c-4.925,16.036-13.846,30.663-26.27,42.707c-2.975,2.883-3.049,7.631-0.165,10.605c1.471,1.517,3.427,2.279,5.386,2.279
	c1.88,0,3.763-0.703,5.22-2.115C499.473,348.911,512,319.323,512,287.65v-22.042C512,239.279,491.86,217.567,466.179,215.066z
	 M214.824,170.18v-10.546c0-4.143-3.358-7.5-7.5-7.5s-7.5,3.357-7.5,7.5v10.546c0,4.143,3.358,7.5,7.5,7.5
	S214.824,174.322,214.824,170.18z"/>
<g>
</g>
<g>
</g>
<g>
</g>
<g>
</g>
<g>
</g>
<g>
</g>
<g>
</g>
<g>
</g>
<g>
</g>
<g>
</g>
<g>
</g>
<g>
</g>
<g>
</g>
<g>
</g>
<g>
</g>
</svg>
