<?xml version="1.0" encoding="iso-8859-1"?>
<!-- Generator: Adobe Illustrator 19.0.0, SVG Export Plug-In . SVG Version: 6.00 Build 0)  -->
<svg version="1.1" id="Capa_1" xmlns="http://www.w3.org/2000/svg" xmlns:xlink="http://www.w3.org/1999/xlink" x="0px" y="0px"
	 viewBox="0 0 511.998 511.998" style="enable-background:new 0 0 511.998 511.998;" xml:space="preserve">
<path style="fill:#67C787;" d="M294.449,442.434h-76.9l6.406,52.009c0.707,5.743,5.585,10.057,11.372,10.057h41.344
	c5.786,0,10.664-4.314,11.372-10.057L294.449,442.434z"/>
<path style="fill:#F7D88B;" d="M255.999,456.626c62.618,0,113.381-54.096,113.381-120.828c0-203.558-73.884-291.813-113.381-291.813
	S142.618,132.24,142.618,335.798C142.618,402.53,193.381,456.626,255.999,456.626z"/>
<path style="fill:#F4CF7A;" d="M255.999,456.626c62.618,0,113.381-54.096,113.381-120.828c0-0.282-0.004-0.556-0.005-0.838
	C231.947,260.87,214.304,109.953,232.27,52.527c-39.713,26.511-89.652,115.914-89.652,283.271
	C142.618,402.53,193.381,456.626,255.999,456.626z"/>
<g>
	<path style="fill:#EAC268;" d="M262.804,175.034h-7.934V167.1c0-4.143-3.358-7.5-7.5-7.5s-7.5,3.357-7.5,7.5v7.934h-7.933
		c-4.142,0-7.5,3.357-7.5,7.5s3.358,7.5,7.5,7.5h7.933v7.934c0,4.143,3.358,7.5,7.5,7.5s7.5-3.357,7.5-7.5v-7.934h7.934
		c4.142,0,7.5-3.357,7.5-7.5S266.946,175.034,262.804,175.034z"/>
	<path style="fill:#EAC268;" d="M307.897,127.31h-7.933v-7.934c0-4.143-3.358-7.5-7.5-7.5s-7.5,3.357-7.5,7.5v7.934h-7.934
		c-4.142,0-7.5,3.357-7.5,7.5s3.358,7.5,7.5,7.5h7.934v7.934c0,4.143,3.358,7.5,7.5,7.5s7.5-3.357,7.5-7.5v-7.934h7.933
		c4.142,0,7.5-3.357,7.5-7.5C315.397,130.667,312.039,127.31,307.897,127.31z"/>
	<path style="fill:#EAC268;" d="M239.894,110.173h-7.934v-7.934c0-4.143-3.358-7.5-7.5-7.5s-7.5,3.357-7.5,7.5v7.934h-7.934
		c-4.142,0-7.5,3.357-7.5,7.5c0,4.142,3.358,7.5,7.5,7.5h7.934v7.933c0,4.143,3.358,7.5,7.5,7.5s7.5-3.357,7.5-7.5v-7.933h7.934
		c4.142,0,7.5-3.358,7.5-7.5C247.394,113.53,244.036,110.173,239.894,110.173z"/>
</g>
<path style="fill:#67C787;" d="M123.643,284.012c0,154.614,76.749,181.338,125.294,184.152c8.122,0.471,15.528-4.709,17.876-12.499
	c31.281-103.767-29.064-273.976-136.455-323.817c-8.037-3.73-16.662,3.807-14.273,12.34
	C125.997,179.598,123.643,232.747,123.643,284.012z"/>
<path style="opacity:0.1;enable-background:new    ;" d="M123.643,284.012c0,154.614,76.749,181.338,125.294,184.152
	c8.122,0.471,15.528-4.709,17.876-12.499c4.053-13.445,6.555-28.011,7.628-43.28c-91.294-32.17-118.571-199.377-119.67-266.652
	c-7.834-5.31-15.978-9.97-24.414-13.885c-8.037-3.73-16.662,3.807-14.273,12.34C125.997,179.598,123.643,232.747,123.643,284.012z"
	/>
<path style="fill:#8ADBA1;" d="M388.355,284.012c0,154.614-76.749,181.338-125.294,184.152c-8.122,0.471-15.527-4.709-17.876-12.499
	c-31.281-103.767,29.064-273.976,136.455-323.817c8.037-3.73,16.662,3.807,14.273,12.34
	C386.001,179.598,388.355,232.747,388.355,284.012z"/>
<path d="M197.093,389.818c4.142,0,7.5-3.357,7.5-7.5c0-19.366-11.215-54.575-16.147-64.889c-1.787-3.735-6.264-5.318-10.002-3.529
	c-3.737,1.787-5.317,6.265-3.53,10.002c4.896,10.236,14.679,42.678,14.679,58.416C189.593,386.461,192.951,389.818,197.093,389.818z
	 M328.135,233.7c-2.929-2.928-7.678-2.928-10.606,0c-12.889,12.889-51.228,90.631-50.233,161.332
	c0.058,4.105,3.404,7.395,7.497,7.395c0.036,0,0.072,0,0.108-0.001c4.142-0.058,7.452-3.463,7.393-7.605
	c-0.969-68.816,36.811-141.483,45.841-150.514C331.064,241.378,331.064,236.63,328.135,233.7z M333.554,313.9
	c-3.737-1.789-8.214-0.207-10.002,3.529c-4.932,10.314-16.147,45.522-16.147,64.889c0,4.143,3.358,7.5,7.5,7.5s7.5-3.357,7.5-7.5
	c0-15.738,9.783-48.18,14.679-58.416C338.871,320.165,337.291,315.688,333.554,313.9z M397.461,127.634
	c-5.349-4.548-12.621-5.54-18.978-2.589c-10.434,4.843-20.605,10.907-30.429,18.04c-4.241-11.784-8.922-22.899-13.978-33.13
	c-1.835-3.713-6.333-5.237-10.046-3.4c-3.713,1.835-5.236,6.333-3.401,10.047c5.47,11.07,10.495,23.252,14.97,36.263
	c-32.409,27.445-60.218,66.98-79.606,114.107c-11.666-28.325-26.693-54.616-44.034-76.879
	c-11.129-14.287-23.004-26.738-35.529-37.326c25.504-74.188,61.337-101.282,79.569-101.282c16.778,0,36.322,19.748,49.019,38.228
	c2.345,3.413,7.013,4.28,10.429,1.935c3.414-2.346,4.28-7.015,1.934-10.429c-16.822-24.487-35.751-39.967-53.125-43.793
	C267.238,24.594,278.758,15,292.484,15c15.982,0,28.985,13.003,28.985,28.985c0,4.142,3.358,7.5,7.5,7.5s7.5-3.358,7.5-7.5
	C336.469,19.731,316.737,0,292.484,0c-15.173,0-28.576,7.722-36.485,19.442C248.09,7.722,234.688,0,219.514,0
	c-24.253,0-43.985,19.731-43.985,43.985c0,4.142,3.358,7.5,7.5,7.5s7.5-3.358,7.5-7.5c0-15.982,13.003-28.985,28.985-28.985
	c13.728,0,25.249,9.597,28.229,22.432c-26.365,5.868-59.936,39.245-83.778,105.567c-9.801-7.081-19.96-13.086-30.45-17.955
	c-6.359-2.949-13.631-1.959-18.979,2.591c-5.418,4.606-7.592,11.724-5.674,18.574c8.025,28.667,7.723,69.544,7.404,112.82
	c-0.061,8.194-0.123,16.667-0.123,24.982c0,67.969,14.736,118.855,43.798,151.246c1.481,1.65,3.529,2.491,5.585,2.491
	c1.784,0,3.574-0.633,5.006-1.918c3.083-2.766,3.34-7.508,0.574-10.591c-26.518-29.554-39.963-77.07-39.963-141.229
	c0-8.26,0.063-16.705,0.123-24.872c0.328-44.364,0.637-86.269-7.959-116.974c-0.469-1.677,0.505-2.73,0.946-3.105
	c0.618-0.524,1.631-1.019,2.948-0.411c12.282,5.7,24.102,13.122,35.408,22.169c0.239,0.219,0.491,0.426,0.761,0.614
	c12.974,10.488,25.265,23.127,36.755,37.879c19.614,25.18,36.143,55.838,47.919,88.794c-4.781,14.02-8.649,28.163-11.597,42.214
	c-11.801-47.432-33.025-87.668-41.977-96.62c-2.929-2.928-7.678-2.928-10.606,0c-2.929,2.93-2.929,7.678,0,10.607
	c8.646,8.646,43.641,75.627,45.754,141.712c-0.812,25.925,1.931,50.395,8.387,71.81c0.187,0.62,0.4,1.225,0.63,1.82
	c-16.204-2.166-30.807-7.06-43.52-14.613c-3.561-2.112-8.162-0.942-10.278,2.617c-2.116,3.562-0.944,8.163,2.617,10.279
	c8.012,4.76,16.655,8.578,25.86,11.462l3.198,25.966c1.168,9.486,9.257,16.64,18.815,16.64h41.344
	c9.558,0,17.646-7.153,18.815-16.64l3.193-25.924c19.639-6.131,36.596-16.569,50.648-31.235
	c30.873-32.223,46.527-84.1,46.527-154.19c0-8.314-0.063-16.786-0.123-24.979c-0.319-43.277-0.621-84.155,7.404-112.822
	C405.054,139.358,402.879,132.24,397.461,127.634z M280.599,493.526c-0.244,1.98-1.933,3.474-3.928,3.474h-41.344
	c-1.996,0-3.684-1.493-3.928-3.474l-2.495-20.256c6.316,1.187,12.85,1.99,19.6,2.381c0.488,0.028,0.974,0.043,1.46,0.043
	c2.016,0,4.009-0.262,5.965-0.745c1.958,0.487,3.998,0.745,6.084,0.745c0.491,0,0.986-0.014,1.482-0.043
	c6.766-0.392,13.298-1.181,19.596-2.357L280.599,493.526z M388.691,142.167c-8.595,30.704-8.286,72.609-7.959,116.976
	c0.06,8.166,0.123,16.61,0.123,24.869c0,66.091-14.252,114.477-42.358,143.813c-13.155,13.73-29.317,23.243-48.254,28.441
	c-0.196,0.043-0.389,0.09-0.58,0.148c-8.469,2.279-17.484,3.71-27.036,4.264c-1.394,0.078-2.745-0.133-3.993-0.579
	c-0.088-0.033-0.176-0.066-0.265-0.095c-2.824-1.099-5.079-3.439-6.003-6.503c-5.144-17.062-7.75-36.255-7.921-56.65
	c0.154-0.582,0.249-1.189,0.258-1.818c0.045-3.179,0.007-6.372-0.101-9.572c1.061-30.333,7.288-62.866,18.419-94.765
	c0.014-0.039,0.027-0.078,0.041-0.117c1.667-4.773,3.431-9.533,5.317-14.267c25.974-65.201,68.407-115.377,116.419-137.659
	c0.433-0.201,0.833-0.282,1.196-0.282c0.744,0,1.337,0.34,1.752,0.692C388.186,139.436,389.161,140.489,388.691,142.167z"/>
<g>
</g>
<g>
</g>
<g>
</g>
<g>
</g>
<g>
</g>
<g>
</g>
<g>
</g>
<g>
</g>
<g>
</g>
<g>
</g>
<g>
</g>
<g>
</g>
<g>
</g>
<g>
</g>
<g>
</g>
</svg>
