<?xml version="1.0" encoding="iso-8859-1"?>
<!-- Generator: Adobe Illustrator 19.0.0, SVG Export Plug-In . SVG Version: 6.00 Build 0)  -->
<svg version="1.1" id="Capa_1" xmlns="http://www.w3.org/2000/svg" xmlns:xlink="http://www.w3.org/1999/xlink" x="0px" y="0px"
	 viewBox="0 0 512.001 512.001" style="enable-background:new 0 0 512.001 512.001;" xml:space="preserve">
<path style="fill:#67C787;" d="M65.724,54.792c-12.353,3.867-18.209,18.003-12.208,29.471
	c13.531,25.859,42.478,68.701,93.276,89.743c38.76,16.055,87.739,5.732,101.089-26.498s-13.984-74.163-52.744-90.218
	C144.339,36.249,93.576,46.074,65.724,54.792z"/>
<path style="opacity:0.1;enable-background:new    ;" d="M198.08,134.383c-0.957,0-1.929-0.184-2.867-0.573l-75.715-31.361
	c-3.827-1.585-5.645-5.973-4.059-9.799c1.585-3.827,5.974-5.642,9.799-4.059l75.715,31.361c3.827,1.585,5.645,5.973,4.059,9.799
	C203.815,132.639,201.023,134.383,198.08,134.383z"/>
<path style="fill:#B38A82;" d="M255.999,191.391c-11.975,0-21.681-9.707-21.681-21.681c0-48.655-12.043-98.093-31.427-129.02
	c-6.36-10.146-3.29-23.526,6.856-29.886c10.149-6.359,23.526-3.289,29.886,6.856c23.824,38.01,38.048,94.852,38.048,152.05
	C277.68,181.685,267.974,191.391,255.999,191.391z"/>
<path style="opacity:0.1;enable-background:new    ;" d="M241.772,124.099c-3.894-2.706-7.945-5.202-12.124-7.49
	c3.031,17.165,4.669,35.184,4.669,53.1c0,11.975,9.707,21.681,21.681,21.681c11.975,0,21.681-9.707,21.681-21.681
	c0-16.288-1.157-32.544-3.357-48.347c-1.383,0.888-2.75,1.8-4.098,2.737C261.702,130.021,250.296,130.021,241.772,124.099z"/>
<path style="fill:#F49E73;" d="M31.369,255.255c0,94.184,67.767,196.624,182.13,241.229c27.329,10.66,57.672,10.66,85.001,0
	c114.362-44.605,182.13-147.044,182.13-241.229l0,0c0-74.023-60.007-134.032-134.032-134.032c-28.384,0-54.705,8.826-76.373,23.88
	c-8.523,5.922-19.929,5.922-28.452,0c-21.668-15.054-47.989-23.88-76.373-23.88C91.376,121.223,31.369,181.232,31.369,255.255
	L31.369,255.255z"/>
<path style="fill:#EF9067;" d="M246.508,147.667c-12.608,17.337-19.459,37.603-19.789,53.378c-0.084,4.02,3.105,7.347,7.126,7.431
	c0.052,0.001,0.103,0.001,0.156,0.001c3.949,0,7.192-3.16,7.275-7.128c0.339-16.107,9.103-37.637,24.013-53.595
	C259.271,150.162,252.507,150.128,246.508,147.667z"/>
<path style="fill:#A8EFBB;" d="M442.668,28.682c12.353,3.866,18.209,18.003,12.208,29.472
	c-13.531,25.859-42.478,68.701-93.276,89.743c-38.76,16.055-87.739,5.732-101.089-26.498c-13.351-32.23,13.984-74.163,52.744-90.218
	C364.052,10.14,414.815,19.965,442.668,28.682z"/>
<path style="opacity:0.1;enable-background:new    ;" d="M310.312,108.273c-2.943,0-5.735-1.744-6.932-4.632
	c-1.586-3.827,0.232-8.214,4.059-9.799l75.714-31.362c3.826-1.586,8.214,0.232,9.799,4.059c1.586,3.827-0.232,8.214-4.059,9.799
	L313.179,107.7C312.241,108.089,311.268,108.273,310.312,108.273z"/>
<path style="fill:#464D59;" d="M255.999,308.306L255.999,308.306c-10.836,0-19.62-8.785-19.62-19.621v-14.265
	c0-2.958,2.398-5.356,5.356-5.356h28.528c2.958,0,5.356,2.398,5.356,5.356v14.265C275.62,299.522,266.835,308.306,255.999,308.306z"
	/>
<path style="fill:#EF9067;" d="M298.499,496.484c14.876-5.802,28.955-12.591,42.208-20.204
	c-180.651-36.436-225.406-286.805-154.544-353.455c-6.767-1.053-13.701-1.601-20.762-1.601
	c-74.023,0-134.032,60.008-134.032,134.032l0,0c0,94.185,67.768,196.624,182.13,241.229
	C240.828,507.143,271.17,507.143,298.499,496.484z"/>
<path d="M194.633,279.791v-11.624c0-4.142-3.357-7.5-7.5-7.5c-4.142,0-7.5,3.358-7.5,7.5v11.624c0,4.142,3.358,7.5,7.5,7.5
	S194.633,283.933,194.633,279.791z M462.43,173.917c-13.9-19.757-32.332-35.418-53.786-45.872
	c9.819-8.13,19.035-17.445,27.581-27.94c2.616-3.212,2.132-7.936-1.08-10.552c-3.211-2.615-7.936-2.13-10.551,1.08
	c-10.514,12.912-22.082,23.896-34.594,32.878c-0.231,0.145-0.453,0.302-0.668,0.472c-9.66,6.862-19.874,12.541-30.603,16.985
	c-17.439,7.224-37.638,8.866-55.416,4.503c-8.666-2.126-16.129-5.505-22.134-9.915c-0.266-0.233-0.549-0.44-0.84-0.631
	c-5.867-4.507-10.266-10.036-12.901-16.397c-11.148-26.916,12.057-65.246,48.686-80.419c49.266-20.406,99.026-10.182,124.304-2.27
	c3.761,1.177,6.785,3.946,8.298,7.598c1.513,3.651,1.332,7.748-0.495,11.24c-1.763,3.369-3.652,6.758-5.616,10.07
	c-2.111,3.564-0.936,8.164,2.628,10.276c3.564,2.111,8.164,0.936,10.276-2.628c2.098-3.54,4.117-7.161,6.003-10.764
	c3.894-7.441,4.28-16.165,1.063-23.934c-3.218-7.769-9.661-13.664-17.676-16.173c-27.217-8.519-80.884-19.492-134.524,2.726
	c-17.067,7.07-32.495,19.029-43.583,33.528c-5.814-16.504-12.786-31.294-20.814-44.104c-8.544-13.632-26.587-17.771-40.224-9.227
	c-13.634,8.545-17.773,26.589-9.227,40.224c1.352,2.156,2.668,4.413,3.947,6.762c-0.822-0.366-1.645-0.73-2.475-1.074
	C144.368,28.143,90.701,39.117,63.484,47.634c-8.015,2.509-14.458,8.404-17.676,16.173c-3.218,7.77-2.831,16.493,1.063,23.934
	c7.209,13.778,19.282,33.312,37.138,51.793c-36.35,25.642-60.14,67.953-60.14,115.721c0,39.782,11.611,80.917,33.577,118.957
	c22.504,38.971,55.113,73.16,94.3,98.87c1.269,0.832,2.695,1.23,4.107,1.23c2.442,0,4.838-1.192,6.277-3.387
	c2.273-3.463,1.307-8.113-2.156-10.385c-37.238-24.43-68.199-56.877-89.538-93.829c-20.651-35.762-31.567-74.303-31.567-111.456
	c0-69.77,56.762-126.532,126.531-126.532c22.49,0,44.217,5.868,63.431,17.037c0.136,0.085,0.277,0.16,0.419,0.236
	c2.803,1.644,5.554,3.399,8.244,5.268c11.068,7.689,25.942,7.69,37.011-0.001c0.5-0.347,1.02-0.699,1.552-1.054
	c6.814,4.304,14.759,7.641,23.682,9.831c7.685,1.885,15.744,2.815,23.881,2.815c13.903,0,28.028-2.717,40.85-8.028
	c10.657-4.414,20.833-9.937,30.504-16.505c22.222,9.192,41.248,24.411,55.19,44.227c15.025,21.355,22.966,46.497,22.966,72.707
	c0,45.47-16.602,93.341-46.745,134.796c-32.207,44.293-77.371,78.681-130.61,99.445c-25.649,10.004-53.902,10.004-79.55,0
	c-7.716-3.009-15.374-6.356-22.764-9.95c-3.727-1.812-8.213-0.259-10.024,3.466c-1.812,3.725-0.26,8.213,3.466,10.024
	c7.751,3.768,15.783,7.279,23.871,10.434c14.582,5.688,29.903,8.531,45.226,8.531c15.322,0,30.644-2.844,45.227-8.531
	c55.918-21.81,103.392-57.979,137.291-104.599c31.993-43.999,49.613-95.003,49.614-143.617
	C488.13,225.938,479.243,197.812,462.43,173.917z M165.399,113.723c-24.788,0-48.104,6.414-68.387,17.657
	c-17.854-17.853-29.816-37.15-36.85-50.593c-1.827-3.492-2.008-7.589-0.495-11.24s4.537-6.42,8.298-7.598
	c25.276-7.913,75.038-18.138,124.303,2.27c6.505,2.694,12.749,6.221,18.597,10.479c5.654,15.444,10.02,33,12.744,51.525
	C205.442,118.007,185.7,113.723,165.399,113.723z M246.052,138.945c-2.033-1.413-4.108-2.747-6.2-4.045
	c-2.707-24.164-8.128-47.268-15.592-67.142c-0.092-0.297-0.198-0.59-0.327-0.875c-4.279-11.248-9.215-21.441-14.689-30.175
	c-4.152-6.627-2.141-15.396,4.484-19.548c6.628-4.154,15.396-2.141,19.55,4.484c9.29,14.82,17.095,32.615,23.23,52.919
	c-8.111,17.201-9.193,34.579-2.926,49.708c2.435,5.879,5.917,11.2,10.287,15.903C258.224,143.019,251.333,142.614,246.052,138.945z
	 M332.365,279.791v-11.624c0-4.142-3.358-7.5-7.5-7.5c-4.143,0-7.5,3.358-7.5,7.5v11.624c0,4.142,3.357,7.5,7.5,7.5
	C329.008,287.291,332.365,283.933,332.365,279.791z M283.119,288.686v-14.265c0-7.089-5.768-12.856-12.857-12.856h-28.528
	c-7.089,0-12.857,5.767-12.857,12.856v14.265c0,14.955,12.166,27.12,27.12,27.12C270.954,315.806,283.119,303.639,283.119,288.686z
	 M243.878,288.686v-12.121h24.241v12.121c0,6.683-5.438,12.121-12.121,12.121C249.315,300.807,243.878,295.369,243.878,288.686z"/>
<g>
</g>
<g>
</g>
<g>
</g>
<g>
</g>
<g>
</g>
<g>
</g>
<g>
</g>
<g>
</g>
<g>
</g>
<g>
</g>
<g>
</g>
<g>
</g>
<g>
</g>
<g>
</g>
<g>
</g>
</svg>
