<?xml version="1.0" encoding="iso-8859-1"?>
<!-- Generator: Adobe Illustrator 19.0.0, SVG Export Plug-In . SVG Version: 6.00 Build 0)  -->
<svg version="1.1" id="Capa_1" xmlns="http://www.w3.org/2000/svg" xmlns:xlink="http://www.w3.org/1999/xlink" x="0px" y="0px"
	 viewBox="0 0 512 512" style="enable-background:new 0 0 512 512;" xml:space="preserve">
<path style="fill:#C1C4C7;" d="M64.736,323.576L50.473,262.33c-5.73-24.606,7.263-49.729,30.656-59.273l58.427-23.838
	c4.823-1.968,9.271-4.752,13.149-8.23l64.896-58.208c13.715-12.302,32.963-16.325,50.458-10.548l141.668,46.782
	c17.987,5.94,33.035,18.51,42.082,35.154l35.044,64.474c8.585,15.795,8.369,34.912-0.57,50.509l-18.055,31.5
	c-4.661,8.133-13.318,13.149-22.692,13.149H90.209C78.05,343.799,67.494,335.419,64.736,323.576z"/>
<path style="opacity:0.1;enable-background:new    ;" d="M194.064,133.891l-41.361,37.098c-3.878,3.478-8.326,6.262-13.149,8.23
	l-58.427,23.838c-23.392,9.544-36.386,34.667-30.656,59.273l14.263,61.247C67.492,335.42,78.048,343.8,90.207,343.8h177.18
	C198.712,295.566,182.327,184.884,194.064,133.891z"/>
<path style="opacity:0.1;enable-background:new    ;" d="M328.982,209.45l49.498-6.075c7.171-0.88,13.833-4.161,18.903-9.308
	l33.509-34.021c-6.365-4.748-13.495-8.497-21.167-11.03l-141.668-46.782c-7.292-2.408-14.886-3.089-22.26-2.202l43.79,88.207
	C296.891,202.948,312.681,211.45,328.982,209.45z"/>
<path style="opacity:0.1;enable-background:new    ;" d="M145.118,238.416L58.75,220.738c-8.362,11.691-11.738,26.733-8.278,41.591
	l14.263,61.247c2.758,11.843,13.314,20.223,25.473,20.223h51.83l21.691-74.532C167.731,255.521,159.144,241.287,145.118,238.416z"/>
<path style="opacity:0.1;enable-background:new    ;" d="M246.189,343.799h199.345c4.263,0,8.372-1.047,12.03-2.943l-22.555-45.529
	c-9.772-19.726-33.663-27.827-53.418-18.112L246.189,343.799z"/>
<g style="opacity:0.1;">
	<path d="M210.755,242.289c-3.512,0-6.648-2.479-7.351-6.055c-0.799-4.064,1.848-8.007,5.913-8.806l29.01-5.703
		c4.057-0.799,8.006,1.848,8.806,5.912c0.799,4.064-1.848,8.007-5.913,8.806l-29.01,5.703
		C211.722,242.242,211.235,242.289,210.755,242.289z"/>
	<path d="M406.572,263.201c-1.358,0-2.732-0.368-3.968-1.141l-30.418-19.011c-3.513-2.195-4.581-6.822-2.386-10.335
		c2.196-3.513,6.826-4.581,10.335-2.385l30.418,19.011c3.513,2.195,4.581,6.822,2.386,10.335
		C411.517,261.951,409.072,263.201,406.572,263.201z"/>
	<path d="M218.523,207.312c-0.752,0-1.516-0.114-2.271-0.354l-33.104-10.509c-3.948-1.253-6.132-5.47-4.879-9.418
		c1.254-3.948,5.469-6.132,9.418-4.879l33.104,10.509c3.948,1.253,6.132,5.47,4.879,9.418
		C224.656,205.273,221.704,207.312,218.523,207.312z"/>
</g>
<path style="fill:#F5D7B7;" d="M470.23,412.34H41.77c-18.927,0-34.27-15.343-34.27-34.27l0,0c0-18.927,15.343-34.27,34.27-34.27
	h428.46c18.927,0,34.27,15.343,34.27,34.27l0,0C504.5,396.997,489.157,412.34,470.23,412.34z"/>
<path style="fill:#F2CAA7;" d="M174.665,343.799H41.77c-18.927,0-34.27,15.343-34.27,34.27l0,0c0,18.927,15.343,34.27,34.27,34.27
	h139.345C155.722,404.398,157.199,355.317,174.665,343.799z"/>
<g>
	<circle style="fill:#DBB695;" cx="441.12" cy="386.44" r="7.283"/>
	<circle style="fill:#DBB695;" cx="205.51" cy="379.16" r="7.283"/>
	<circle style="fill:#DBB695;" cx="349.76" cy="371.88" r="7.283"/>
	<circle style="fill:#DBB695;" cx="134.45" cy="371.88" r="7.283"/>
	<circle style="fill:#DBB695;" cx="80.58" cy="384.38" r="7.283"/>
</g>
<path d="M473.447,336.436c0.45-0.668,0.882-1.351,1.286-2.056l18.055-31.5c10.311-17.989,10.555-39.604,0.653-57.82l-35.044-64.474
	c-9.995-18.389-26.445-32.131-46.32-38.694c-3.932-1.299-8.175,0.837-9.474,4.77s0.837,8.174,4.77,9.473
	c4.11,1.357,8.039,3.093,11.751,5.169l-27.083,27.498c-3.867,3.925-9.007,6.456-14.475,7.127l-49.499,6.075
	c-13.109,1.611-25.884-5.261-31.762-17.103l-38.391-77.331c2.623,0.358,5.232,0.938,7.792,1.783l108.033,35.675
	c3.934,1.299,8.175-0.836,9.474-4.77c1.299-3.933-0.837-8.174-4.77-9.473L270.409,95.112c-8.395-2.773-17.171-3.557-25.689-2.501
	c-0.043,0.006-0.087,0.009-0.13,0.017c-11.718,1.479-22.941,6.447-31.998,14.571l-64.896,58.207
	c-3.245,2.911-6.938,5.222-10.974,6.869l-58.427,23.838c-26.957,10.999-41.73,39.562-35.127,67.919l14.263,61.247
	c0.939,4.033,2.571,7.741,4.743,11.022H41.77C18.738,336.3,0,355.038,0,378.07s18.738,41.77,41.77,41.77h428.459
	c23.032,0,41.771-18.738,41.771-41.771C512,356.121,494.98,338.085,473.447,336.436z M57.778,260.629
	c-2.587-11.107-0.768-22.253,4.45-31.523l81.386,16.658c4.707,0.963,8.667,3.76,11.148,7.874c2.482,4.114,3.109,8.921,1.767,13.533
	l-0.654,2.246c-1.158,3.977,1.128,8.14,5.105,9.297c0.7,0.204,1.405,0.301,2.1,0.301c3.249,0,6.244-2.129,7.198-5.406l0.654-2.247
	c2.491-8.558,1.278-17.842-3.326-25.474c-4.604-7.631-12.253-13.033-20.984-14.82l-73.187-14.98
	c3.142-2.449,6.665-4.512,10.526-6.087l58.427-23.838c5.636-2.3,10.792-5.527,15.323-9.591l64.896-58.207
	c5.482-4.917,12.034-8.265,18.979-9.948l41.283,83.156c7.859,15.832,24.034,25.665,41.403,25.665c1.863,0,3.74-0.113,5.622-0.344
	l49.498-6.075c8.814-1.081,17.101-5.162,23.334-11.49l28.713-29.153c5.485,4.991,10.152,10.906,13.776,17.574l35.044,64.474
	c7.398,13.609,7.216,29.757-0.487,43.197l-18.055,31.499c-0.463,0.808-0.988,1.568-1.556,2.286l-18.433-37.209
	c-11.578-23.374-40.043-33.023-63.448-21.514l-87.857,43.203c-3.717,1.828-5.249,6.323-3.421,10.04s6.322,5.249,10.04,3.421
	l87.856-43.203c16.009-7.874,35.471-1.271,43.388,14.711l18.621,37.588c-0.456,0.034-0.914,0.055-1.374,0.055h-293.5l9.629-33.087
	c1.158-3.977-1.128-8.14-5.105-9.297c-3.977-1.156-8.14,1.128-9.297,5.105L136.411,336.3H90.209c-8.72,0-16.191-5.932-18.169-14.424
	L57.778,260.629z M470.229,404.84H41.77c-14.761,0-26.77-12.009-26.77-26.77s12.009-26.77,26.77-26.77h100.245
	c0.009,0,0.019,0.002,0.028,0.002c0.008,0,0.016-0.002,0.024-0.002h328.162c14.762,0,26.771,12.009,26.771,26.771
	C497,392.831,484.991,404.84,470.229,404.84z"/>
<g>
</g>
<g>
</g>
<g>
</g>
<g>
</g>
<g>
</g>
<g>
</g>
<g>
</g>
<g>
</g>
<g>
</g>
<g>
</g>
<g>
</g>
<g>
</g>
<g>
</g>
<g>
</g>
<g>
</g>
</svg>
