<?xml version="1.0" encoding="iso-8859-1"?>
<!-- Generator: Adobe Illustrator 19.0.0, SVG Export Plug-In . SVG Version: 6.00 Build 0)  -->
<svg version="1.1" id="Capa_1" xmlns="http://www.w3.org/2000/svg" xmlns:xlink="http://www.w3.org/1999/xlink" x="0px" y="0px"
	 viewBox="0 0 512 512" style="enable-background:new 0 0 512 512;" xml:space="preserve">
<path style="fill:#B9E8EF;" d="M110.073,61.87c23.88,23.88,40.035,78.753,16.155,102.634s-78.753,7.725-102.634-16.155
	S3.575,89.612,27.455,65.731S86.193,37.99,110.073,61.87z"/>
<path style="fill:#8BCDD8;" d="M115.342,171.913c-9.468-52.353-59.732-90.371-99.139-91.763
	c-13.099,22.125-12.018,48.787,7.392,68.198C44.337,169.09,88.454,183.997,115.342,171.913z"/>
<path style="fill:#B9E8EF;" d="M401.928,61.87c-23.88,23.88-40.035,78.753-16.155,102.634c23.88,23.88,78.753,7.725,102.634-16.155
	c23.88-23.88,20.019-58.736-3.861-82.617C460.664,41.851,425.808,37.99,401.928,61.87z"/>
<path style="fill:#8BCDD8;" d="M396.659,171.913c9.468-52.353,59.732-90.371,99.139-91.763
	c13.099,22.125,12.018,48.787-7.392,68.198C467.664,169.09,423.547,183.997,396.659,171.913z"/>
<ellipse style="fill:#ABDFEB;" cx="256.002" cy="244.392" rx="190.591" ry="180.961"/>
<path style="opacity:0.05;enable-background:new    ;" d="M213.318,67.995c-84.71,18.402-147.908,90.393-147.908,176.4
	c0,99.942,85.331,180.959,190.591,180.959c19.367,0,38.056-2.752,55.666-7.85C90.081,327.81,123.177,122.315,213.318,67.995z"/>
<path style="fill:#B9E8EF;" d="M404.714,247.328c-3.876-1.48-6.994-4.389-9.014-8.014c-7.079-12.699-20.639-21.289-36.21-21.289
	c-9.463,0-18.179,3.177-25.153,8.518c-2.626,2.011-5.958,2.877-9.243,2.487c-21.79-2.584-45.001-3.825-69.092-3.825
	c-24.091,0-47.302,1.241-69.093,3.825c-3.285,0.39-6.617-0.476-9.243-2.487c-6.974-5.34-15.691-8.518-25.153-8.518
	c-15.57,0-29.131,8.59-36.21,21.289c-2.02,3.624-5.138,6.534-9.015,8.014c-48.235,18.42-78.764,49.04-78.764,94.452
	c0,82.955,101.846,124.447,227.478,124.447s227.477-41.491,227.477-124.447C483.478,296.368,452.949,265.748,404.714,247.328z"/>
<g>
	<circle style="fill:#8BCDD8;" cx="152.511" cy="259.462" r="15.06"/>
	<circle style="fill:#8BCDD8;" cx="359.492" cy="259.462" r="15.06"/>
</g>
<path style="fill:#ABDFEB;" d="M411.489,437.702c-239.62,42.002-302.002-109.984-291.377-153.563
	c0.597-2.448,0.674-4.991,0.368-7.493c-2.383-19.444,4.905-43.948,17.731-56.072c-9.432,3.471-17.258,10.265-22.04,18.975
	c-1.943,3.54-5.02,6.305-8.793,7.744c-48.288,18.416-78.855,49.046-78.855,94.486c0,82.955,101.846,124.447,227.478,124.447
	C316.137,466.226,370.813,456.712,411.489,437.702z"/>
<path d="M160.737,176.574v14.568c0,4.142,3.358,7.5,7.5,7.5c4.142,0,7.5-3.358,7.5-7.5v-14.568c0-4.142-3.358-7.5-7.5-7.5
	C164.095,169.074,160.737,172.432,160.737,176.574z M511.869,106.548c-0.681-10.369-3.979-20.638-9.54-30.078
	c-0.064-0.114-0.134-0.225-0.204-0.336c-3.326-5.579-7.438-10.866-12.277-15.706c-13.107-13.107-29.486-20.928-46.119-22.021
	c-17.515-1.153-34.241,5.297-47.104,18.16c-9.144,9.143-17.103,22.084-22.578,36.483c-33.962-23.977-75.585-37.114-118.046-37.114
	c-44.184,0-85.033,13.838-118.018,37.192c-5.475-14.43-13.446-27.401-22.606-36.561c-12.861-12.862-29.589-19.313-47.104-18.16
	C51.64,39.5,35.26,47.321,22.153,60.428c-4.855,4.855-8.98,10.16-12.311,15.759c-0.049,0.078-0.099,0.156-0.145,0.236
	c-5.577,9.453-8.884,19.739-9.566,30.125c-1.151,17.513,5.298,34.242,18.16,47.103c12.233,12.233,31.626,22.383,51.237,27.145
	c-7.513,19.878-11.619,41.29-11.619,63.599c0,6.975,0.437,14.019,1.253,21.005c-25.099,20.009-38.14,45.845-38.14,76.378
	c0,43.62,26.107,79.01,75.497,102.345c3.743,1.77,8.215,0.168,9.985-3.578c1.77-3.745,0.168-8.215-3.578-9.985
	c-55.297-26.125-66.904-62.7-66.904-88.783c0-26.967,11.723-49.284,34.94-66.689c0.369-0.221,0.713-0.476,1.036-0.753
	c10.417-7.635,23.068-14.314,37.963-20.002c5.368-2.05,9.946-6.087,12.89-11.369c5.997-10.758,17.361-17.44,29.659-17.44
	c7.516,0,14.637,2.411,20.594,6.972c4.172,3.195,9.39,4.609,14.686,3.981c21.112-2.503,44.062-3.773,68.21-3.773
	c24.148,0,47.097,1.27,68.21,3.773c5.293,0.628,10.513-0.786,14.685-3.981c5.956-4.561,13.077-6.972,20.593-6.972
	c12.297,0,23.662,6.683,29.659,17.44c2.944,5.281,7.521,9.318,12.89,11.369c14.893,5.687,27.544,12.366,37.96,19.999
	c0.324,0.279,0.669,0.535,1.04,0.757c23.217,17.405,34.939,39.721,34.939,66.688c0,18.454-5.52,35.27-16.405,49.98
	c-10.513,14.207-26.022,26.539-46.096,36.653c-39.357,19.831-93.812,30.313-157.477,30.313c-44.563,0-86.057-5.401-119.995-15.62
	c-3.967-1.193-8.15,1.052-9.344,5.019c-1.194,3.966,1.053,8.15,5.019,9.344c35.321,10.635,78.31,16.257,124.32,16.257
	c65.998,0,122.787-11.037,164.226-31.917c46.286-23.323,70.751-57.912,70.751-100.03c0-30.534-13.042-56.37-38.14-76.379
	c0.816-6.986,1.253-14.03,1.253-21.005c0-2.23-0.042-4.488-0.123-6.709c-0.152-4.139-3.633-7.371-7.771-7.219
	c-4.139,0.152-7.372,3.632-7.219,7.771c0.075,2.038,0.113,4.11,0.113,6.157c0,3.694-0.134,7.411-0.385,11.126
	c-9.259-5.681-19.7-10.764-31.315-15.2c-2.082-0.795-3.908-2.45-5.14-4.66c-8.643-15.505-25.028-25.137-42.761-25.137
	c-10.841,0-21.116,3.48-29.713,10.063c-1.039,0.795-2.425,1.155-3.799,0.995c-21.697-2.573-45.24-3.877-69.976-3.877
	s-48.279,1.305-69.975,3.877c-1.378,0.163-2.763-0.2-3.8-0.995c-8.597-6.583-18.872-10.063-29.713-10.063
	c-17.732,0-34.117,9.632-42.76,25.137c-1.232,2.21-3.057,3.864-5.14,4.66c-11.616,4.436-22.056,9.519-31.315,15.2
	c-0.251-3.716-0.385-7.433-0.385-11.126c0-95.647,82.133-173.459,183.09-173.459c41.678,0,82.462,13.622,114.839,38.357
	c0.777,0.594,1.545,1.199,2.311,1.804c0.03,0.024,0.061,0.048,0.092,0.072c30.553,24.171,52.219,57.427,61.142,93.973
	c0.983,4.024,5.044,6.488,9.065,5.507c4.024-0.983,6.49-5.041,5.507-9.065c-1.723-7.058-3.892-13.999-6.461-20.794
	c19.603-4.764,38.985-14.911,51.213-27.139C506.571,140.789,513.02,124.061,511.869,106.548z M75.501,166.777
	c-17.853-3.826-35.687-12.818-46.602-23.732c-9.904-9.904-14.675-22.184-13.799-35.513c0.436-6.63,2.288-13.248,5.388-19.54
	c26.34,2.903,55.718,22.641,72.844,48.988C86.487,146.334,80.499,156.298,75.501,166.777z M103.122,124.68
	c-18.21-25.762-46.136-44.851-73.38-50.408c0.967-1.1,1.966-2.184,3.019-3.237c10.533-10.534,23.494-16.806,36.496-17.661
	c13.324-0.876,25.609,3.895,35.513,13.799c8.454,8.453,16.009,21.513,20.708,35.583C117.425,109.482,109.942,116.811,103.122,124.68
	z M386.555,102.658c4.702-14.033,12.242-27.051,20.676-35.485c9.903-9.903,22.182-14.679,35.513-13.799
	c13.002,0.854,25.963,7.126,36.497,17.66c1.053,1.053,2.052,2.137,3.019,3.237c-27.228,5.554-55.137,24.623-73.347,50.361
	C402.115,116.77,394.642,109.412,386.555,102.658z M436.513,166.775c-4.975-10.43-10.942-20.424-17.816-29.837
	c17.13-26.325,46.491-46.043,72.817-48.945c3.1,6.293,4.952,12.91,5.388,19.54c0.877,13.329-3.895,25.609-13.799,35.513
	C472.19,153.956,454.361,162.947,436.513,166.775z M256.001,379.793c12.458,0,24.307-5.397,32.507-14.806
	c2.721-3.123,2.396-7.86-0.727-10.582c-3.124-2.721-7.861-2.397-10.582,0.727c-5.351,6.14-13.077,9.661-21.198,9.661
	c-8.121,0-15.848-3.522-21.198-9.661c-2.721-3.122-7.458-3.448-10.582-0.727c-3.122,2.722-3.448,7.459-0.727,10.582
	C231.694,374.396,243.542,379.793,256.001,379.793z M336.263,176.574v14.568c0,4.142,3.358,7.5,7.5,7.5s7.5-3.358,7.5-7.5v-14.568
	c0-4.142-3.358-7.5-7.5-7.5S336.263,172.432,336.263,176.574z"/>
<g>
</g>
<g>
</g>
<g>
</g>
<g>
</g>
<g>
</g>
<g>
</g>
<g>
</g>
<g>
</g>
<g>
</g>
<g>
</g>
<g>
</g>
<g>
</g>
<g>
</g>
<g>
</g>
<g>
</g>
</svg>
