<?xml version="1.0" encoding="iso-8859-1"?>
<!-- Generator: Adobe Illustrator 19.0.0, SVG Export Plug-In . SVG Version: 6.00 Build 0)  -->
<svg version="1.1" id="Capa_1" xmlns="http://www.w3.org/2000/svg" xmlns:xlink="http://www.w3.org/1999/xlink" x="0px" y="0px"
	 viewBox="0 0 512.002 512.002" style="enable-background:new 0 0 512.002 512.002;" xml:space="preserve">
<g>
	<path style="fill:#ABDFEB;" d="M222.996,193.126l-83.401-83.416V82.643c0-11.709-9.492-21.201-21.201-21.201
		s-21.201,9.492-21.201,21.201v14.646H82.547c-11.709,0-21.201,9.492-21.201,21.201s9.492,21.201,21.201,21.201h27.064
		l83.399,83.415L222.996,193.126z"/>
	<path style="fill:#ABDFEB;" d="M318.779,223.091l83.416-83.401h27.066c11.709,0,21.201-9.492,21.201-21.201
		s-9.492-21.201-21.201-21.201h-14.646V82.642c0-11.709-9.492-21.201-21.201-21.201c-11.709,0-21.201,9.492-21.201,21.201v27.064
		l-83.414,83.399L318.779,223.091z"/>
	<path style="fill:#ABDFEB;" d="M288.814,318.875l83.401,83.416v27.066c0,11.709,9.492,21.201,21.201,21.201
		s21.201-9.492,21.201-21.201v-14.646h14.646c11.709,0,21.201-9.492,21.201-21.201c0-11.709-9.492-21.201-21.201-21.201h-27.064
		L318.8,288.895L288.814,318.875z"/>
	<path style="fill:#ABDFEB;" d="M193.03,288.909l-83.416,83.401H82.548c-11.709,0-21.201,9.492-21.201,21.201
		s9.492,21.201,21.201,21.201h14.646v14.646c0,11.709,9.492,21.201,21.201,21.201s21.201-9.492,21.201-21.201v-27.064l83.414-83.399
		L193.03,288.909z"/>
</g>
<g>
	<path style="fill:#8BCDD8;" d="M255.955,113.252c-5.623,0-11.016-2.234-14.991-6.21l-48.369-48.368
		c-8.279-8.279-8.281-21.703-0.001-29.982c8.279-8.28,21.703-8.28,29.982,0l33.378,33.377l33.376-33.377
		c8.279-8.28,21.703-8.28,29.982,0c8.28,8.279,8.28,21.703,0.001,29.982l-48.368,48.368
		C266.97,111.018,261.578,113.252,255.955,113.252z"/>
	<path style="fill:#8BCDD8;" d="M43.683,325.616c-5.426,0-10.851-2.069-14.992-6.21c-8.279-8.28-8.278-21.704,0.001-29.983
		l33.377-33.377L28.693,222.67c-8.28-8.279-8.281-21.703-0.001-29.983c8.28-8.279,21.703-8.279,29.983,0l48.369,48.368
		c3.976,3.976,6.21,9.369,6.21,14.991c0,5.623-2.234,11.016-6.21,14.991l-48.369,48.368
		C54.535,323.546,49.109,325.616,43.683,325.616z"/>
	<path style="fill:#8BCDD8;" d="M304.416,489.519c-5.427,0.001-10.851-2.069-14.992-6.21l-33.376-33.377l-33.378,33.377
		c-8.277,8.28-21.701,8.281-29.982,0c-8.278-8.28-8.278-21.703,0.001-29.983l48.369-48.368c3.975-3.976,9.369-6.21,14.991-6.21l0,0
		c5.623,0,11.016,2.234,14.992,6.21l48.368,48.368c8.28,8.28,8.279,21.704-0.001,29.983
		C315.268,487.448,309.842,489.518,304.416,489.519z"/>
	<path style="fill:#8BCDD8;" d="M468.319,325.522c-5.426,0-10.851-2.069-14.992-6.21l-48.368-48.368
		c-8.279-8.28-8.279-21.703,0-29.983l48.368-48.368c8.28-8.28,21.703-8.28,29.983,0s8.28,21.703,0.001,29.982l-33.377,33.377
		l33.377,33.377c8.279,8.28,8.279,21.703-0.001,29.983C479.171,323.452,473.744,325.522,468.319,325.522z"/>
</g>
<g>
	<path style="fill:#B9E8EF;" d="M234.72,188.2V28.701c0-11.709,9.492-21.201,21.201-21.201s21.201,9.492,21.201,21.201V188.2H234.72
		z"/>
	<path style="fill:#B9E8EF;" d="M188.202,277.281h-159.5c-11.709,0-21.201-9.492-21.201-21.201c0-11.709,9.492-21.201,21.201-21.201
		h159.5V277.281z"/>
	<path style="fill:#B9E8EF;" d="M277.283,323.8v159.499c0,11.709-9.492,21.201-21.201,21.201c-11.709,0-21.201-9.492-21.201-21.201
		V323.8H277.283z"/>
	<path style="fill:#B9E8EF;" d="M323.802,234.719h159.499c11.709,0,21.201,9.492,21.201,21.201s-9.492,21.201-21.201,21.201H323.802
		V234.719z"/>
	<path style="fill:#B9E8EF;" d="M256.001,345.002C206.925,345.002,167,305.076,167,256s39.926-89.002,89.001-89.002
		c49.076,0,89.002,39.926,89.002,89.002S305.077,345.002,256.001,345.002z M256.001,209.4c-25.695,0-46.6,20.905-46.6,46.6
		s20.905,46.6,46.6,46.6c25.696,0,46.601-20.905,46.601-46.6S281.697,209.4,256.001,209.4z"/>
</g>
<path d="M256.001,201.9c-29.831,0-54.1,24.269-54.1,54.1s24.268,54.1,54.1,54.1s54.101-24.269,54.101-54.1
	S285.832,201.9,256.001,201.9z M256.001,295.1c-21.56,0-39.1-17.54-39.1-39.1s17.54-39.1,39.1-39.1s39.101,17.54,39.101,39.1
	S277.561,295.1,256.001,295.1z M512.001,255.92c0-13.936-9.986-25.579-23.177-28.162c5.368-5.411,8.324-12.581,8.324-20.207
	c0-7.666-2.985-14.874-8.406-20.294c-4.997-4.997-11.632-7.967-18.684-8.361c-4.107-0.226-7.675,2.934-7.907,7.07
	c-0.231,4.135,2.934,7.676,7.069,7.907c3.363,0.188,6.529,1.605,8.915,3.991c2.588,2.588,4.013,6.029,4.013,9.688
	c0,3.66-1.425,7.1-4.014,9.688l-9.98,9.98h-38.75l16.76-16.76c2.929-2.929,2.929-7.678,0-10.606c-2.93-2.929-7.678-2.929-10.607,0
	l-27.367,27.367h-60.077c-1.74-5.557-3.981-10.935-6.687-16.071l64.1-64.088h23.959c15.826,0,28.701-12.875,28.701-28.701
	S445.311,89.66,429.485,89.66h-7.146v-7.146c0-15.826-12.875-28.701-28.701-28.701s-28.701,12.876-28.701,28.701v23.957
	l-64.107,64.096c-5.179-2.727-10.602-4.982-16.208-6.727v-59.866l39.995-39.996c5.421-5.421,8.406-12.629,8.405-20.295
	c0-7.667-2.985-14.874-8.406-20.294c-5.421-5.421-12.629-8.406-20.295-8.406c-7.629,0-14.802,2.958-20.214,8.329
	C281.577,10.054,269.904,0,255.921,0c-13.964,0-25.626,10.028-28.176,23.259c-11.202-11.058-29.308-11.018-40.455,0.128
	c-11.189,11.19-11.188,29.398,0.001,40.589l39.93,39.929v59.982c-5.58,1.747-10.978,4-16.133,6.72l-63.993-64.006v-23.96
	c0-15.826-12.875-28.701-28.701-28.701S89.692,66.817,89.692,82.643v7.146h-7.146c-15.826,0-28.701,12.876-28.701,28.701
	c0,15.826,12.875,28.701,28.701,28.701h23.956l64.03,64.041c-2.712,5.16-4.956,10.563-6.693,16.147h-59.96l-39.868-39.868
	c-11.19-11.189-29.398-11.189-40.589,0.001c-11.126,11.127-11.184,29.189-0.184,40.395c-13.221,2.56-23.237,14.216-23.237,28.173
	c0,14.011,10.094,25.702,23.391,28.201c-11.158,11.193-11.149,29.378,0.03,40.558c5.421,5.421,12.629,8.406,20.295,8.406
	s14.874-2.986,20.295-8.407l40.056-40.056h59.822c1.759,5.617,4.031,11.05,6.777,16.236l-64.029,64.017h-23.96
	c-15.826,0-28.701,12.875-28.701,28.701s12.875,28.701,28.701,28.701h7.146v7.146c0,15.826,12.875,28.701,28.7,28.701
	c3.592,0,7.099-0.657,10.424-1.954c3.859-1.505,5.768-5.853,4.263-9.712c-1.504-3.86-5.855-5.766-9.712-4.263
	c-1.581,0.617-3.255,0.929-4.975,0.929c-7.555,0-13.7-6.147-13.7-13.701v-14.646c0-4.142-3.357-7.5-7.5-7.5H82.678
	c-7.555,0-13.701-6.146-13.701-13.701s6.146-13.701,13.701-13.701h27.066c1.989,0,3.896-0.79,5.303-2.196l63.872-63.861
	c2.726,3.617,5.707,7.059,8.941,10.287c3.285,3.279,6.79,6.297,10.474,9.052l-63.91,63.898c-1.407,1.406-2.197,3.314-2.197,5.304
	v18.669c0,4.142,3.357,7.5,7.5,7.5s7.5-3.358,7.5-7.5v-15.562l64.113-64.101c5.128,2.688,10.496,4.913,16.042,6.639v60.12
	l-39.835,39.836c-11.189,11.191-11.189,29.399,0.001,40.589c5.421,5.421,12.629,8.406,20.295,8.406
	c7.572,0,14.694-2.917,20.092-8.213c2.613,13.153,14.239,23.1,28.148,23.1c13.982,0,25.654-10.053,28.185-23.31l0.017,0.017
	c5.595,5.595,12.944,8.392,20.294,8.392s14.699-2.797,20.294-8.393c5.422-5.421,8.407-12.628,8.407-20.295
	c-0.001-7.666-2.986-14.874-8.407-20.294l-40.09-40.09v-59.915c5.595-1.752,11.007-4.013,16.175-6.744l64.112,64.124v23.96
	c0,15.826,12.875,28.701,28.7,28.701c15.826,0,28.701-12.875,28.701-28.701v-7.146h7.147c15.825,0,28.7-12.876,28.7-28.701
	c0-15.826-12.875-28.701-28.7-28.701h-23.957l-64.167-64.179c2.702-5.147,4.937-10.535,6.67-16.104h60.026l39.963,39.962
	c5.596,5.595,12.944,8.392,20.294,8.392s14.7-2.798,20.294-8.394c5.422-5.421,8.407-12.628,8.407-20.294
	c0-7.625-2.956-14.795-8.321-20.206C502.016,281.498,512.001,269.855,512.001,255.92z M284.622,44.006l10.012-10.012
	c5.342-5.342,14.034-5.342,19.376,0c2.588,2.587,4.013,6.028,4.013,9.688s-1.425,7.101-4.013,9.688l-29.388,29.388V44.006z
	 M227.381,468.248l-9.852,9.852c-5.342,5.342-14.033,5.342-19.375,0s-5.343-14.034-0.001-19.376l29.228-29.228L227.381,468.248
	L227.381,468.248z M377.74,114.88c1.407-1.407,2.197-3.315,2.197-5.304V82.512c0-7.555,6.147-13.701,13.701-13.701
	c7.555,0,13.701,6.147,13.701,13.701v14.646c0,4.142,3.357,7.5,7.5,7.5h14.646c7.555,0,13.701,6.146,13.701,13.701
	s-6.146,13.701-13.701,13.701H402.42c-1.989,0-3.896,0.79-5.303,2.196l-63.923,63.911c-2.756-3.67-5.774-7.16-9.051-10.432
	c-3.242-3.236-6.698-6.217-10.329-8.942L377.74,114.88z M197.899,53.371c-5.343-5.342-5.343-14.035-0.001-19.376
	c2.587-2.587,6.027-4.013,9.688-4.013c3.66,0,7.101,1.425,9.689,4.013l9.947,9.946v38.751L197.899,53.371z M114.914,134.388
	c-1.406-1.407-3.314-2.197-5.304-2.197H82.547c-7.555,0-13.701-6.146-13.701-13.701c0-7.555,6.146-13.701,13.701-13.701h14.646
	c4.143,0,7.5-3.358,7.5-7.5V82.643c0-7.555,6.146-13.701,13.701-13.701s13.701,6.146,13.701,13.701v27.066
	c0,1.989,0.79,3.897,2.196,5.303l63.824,63.837c-3.65,2.745-7.123,5.749-10.378,9.01c-3.252,3.258-6.247,6.732-8.983,10.382
	L114.914,134.388z M34.029,198.119c5.341-5.341,14.034-5.342,19.375-0.001l29.262,29.261H43.913l-9.884-9.884
	C28.688,212.153,28.688,203.461,34.029,198.119z M53.404,314.231c-2.588,2.588-6.028,4.013-9.688,4.013s-7.101-1.425-9.688-4.012
	c-5.342-5.342-5.342-14.034,0-19.376l10.074-10.074h38.75L53.404,314.231z M314.266,458.724c2.588,2.588,4.014,6.029,4.014,9.689
	s-1.425,7.1-4.014,9.688c-5.339,5.342-14.032,5.343-19.375,0l-10.108-10.108v-38.751L314.266,458.724z M397.249,377.706
	c1.406,1.407,3.315,2.197,5.304,2.197h27.064c7.555,0,13.7,6.146,13.7,13.701s-6.146,13.701-13.7,13.701h-14.646
	c-4.143,0-7.5,3.358-7.5,7.5v14.646c0,7.555-6.146,13.701-13.701,13.701s-13.7-6.146-13.7-13.701v-27.066
	c0-1.989-0.79-3.897-2.196-5.303l-63.948-63.96c3.636-2.737,7.097-5.731,10.341-8.981c3.263-3.269,6.268-6.756,9.011-10.42
	L397.249,377.706z M478.134,313.976c-2.587,2.587-6.027,4.012-9.688,4.012c-3.66,0-7.101-1.425-9.688-4.012l-29.356-29.355h38.753
	l9.979,9.978c2.588,2.588,4.013,6.028,4.013,9.688C482.148,307.946,480.723,311.387,478.134,313.976z M483.3,269.621h-11.38
	c-0.46-0.042-0.922-0.042-1.381,0h-58.585c-0.46-0.042-0.922-0.042-1.381,0h-68.107c-3.456,0-6.465,2.362-7.286,5.72
	c-7.122,29.151-30.552,52.625-59.69,59.801c-3.351,0.825-5.706,3.831-5.706,7.282v140.875c0,7.555-6.146,13.701-13.7,13.701
	c-7.555,0-13.701-6.147-13.701-13.701v-10.577c0.208-1.007,0.208-2.046,0-3.053v-56.913c0.208-1.007,0.208-2.047,0-3.054v-67.238
	c0-3.457-2.362-6.465-5.72-7.286c-29.151-7.122-52.625-30.552-59.802-59.69c-0.825-3.351-3.831-5.707-7.282-5.707H28.702
	c-7.555,0-13.701-6.146-13.701-13.701s6.146-13.701,13.701-13.701h10.867c0.901,0.166,1.827,0.166,2.728,0h57.239
	c0.451,0.083,0.907,0.127,1.364,0.127s0.913-0.044,1.364-0.127h67.274c3.456,0,6.465-2.362,7.286-5.72
	c7.122-29.151,30.552-52.625,59.691-59.801c3.351-0.825,5.706-3.831,5.706-7.282V28.701c0-7.555,6.146-13.701,13.7-13.701
	s13.701,6.147,13.701,13.701v140.836c0,3.457,2.362,6.465,5.72,7.286c29.151,7.122,52.625,30.552,59.802,59.689
	c0.825,3.351,3.831,5.706,7.282,5.706H483.3c7.555,0,13.701,6.146,13.701,13.701S490.854,269.621,483.3,269.621z"/>
<g>
</g>
<g>
</g>
<g>
</g>
<g>
</g>
<g>
</g>
<g>
</g>
<g>
</g>
<g>
</g>
<g>
</g>
<g>
</g>
<g>
</g>
<g>
</g>
<g>
</g>
<g>
</g>
<g>
</g>
</svg>
