<?xml version="1.0" encoding="iso-8859-1"?>
<!-- Generator: Adobe Illustrator 19.0.0, SVG Export Plug-In . SVG Version: 6.00 Build 0)  -->
<svg version="1.1" id="Capa_1" xmlns="http://www.w3.org/2000/svg" xmlns:xlink="http://www.w3.org/1999/xlink" x="0px" y="0px"
	 viewBox="0 0 511.998 511.998" style="enable-background:new 0 0 511.998 511.998;" xml:space="preserve">
<path style="fill:#B38A82;" d="M318.393,371.244H193.597l-6.12,112.783c-0.604,11.123,8.253,20.474,19.393,20.474h98.25
	c11.14,0,19.996-9.35,19.393-20.474L318.393,371.244z"/>
<path style="opacity:0.1;enable-background:new    ;" d="M318.393,371.244H193.597l-3.157,58.169
	c4.78-2.248,10.666-1.13,14.286,3.025c13.524,15.52,31.517,24.986,51.269,24.986s37.745-9.466,51.269-24.986
	c3.62-4.155,9.507-5.273,14.286-3.025L318.393,371.244z"/>
<g style="opacity:0.1;">
	<path d="M224.055,461.909c-0.196,0-0.394-0.008-0.592-0.023c-4.13-0.323-7.216-3.932-6.894-8.062l3.132-40.074
		c0.323-4.129,3.956-7.212,8.062-6.893c4.13,0.323,7.216,3.932,6.893,8.062l-3.132,40.074
		C231.217,458.923,227.932,461.909,224.055,461.909z"/>
	<path d="M291.474,482.095c-3.915,0-7.212-3.038-7.476-7.002l-1.694-25.438c-0.275-4.133,2.852-7.707,6.985-7.982
		c4.107-0.279,7.707,2.851,7.982,6.985l1.694,25.438c0.275,4.133-2.852,7.706-6.985,7.982
		C291.811,482.089,291.642,482.095,291.474,482.095z"/>
</g>
<path style="fill:#A8EFBB;" d="M428.583,298.399c-7.762-12.845-17.458-23.578-28.189-31.865l-0.001,0.002
	c-41.817-32.848-93.151-50.589-144.399-50.589s-102.581,17.741-144.398,50.589l-0.001-0.002
	c-10.73,8.286-20.427,19.019-28.189,31.865c-27.324,45.221-20.322,99.495,15.64,121.225c26.546,16.04,61.451,9.861,88.9-12.663
	c5.039-4.135,12.498-3.45,16.78,1.464c13.524,15.52,31.517,24.986,51.269,24.986s37.745-9.466,51.269-24.986
	c4.282-4.914,11.741-5.599,16.78-1.464c27.449,22.524,62.353,28.704,88.9,12.663C448.905,397.893,455.908,343.619,428.583,298.399z"
	/>
<path style="fill:#8ADBA1;" d="M428.583,298.399c-7.762-12.845-17.458-23.578-28.189-31.865l-0.001,0.002
	c-41.817-32.848-93.151-50.589-144.399-50.589s-102.581,17.741-144.398,50.589l-0.001-0.002
	c-10.73,8.286-20.427,19.019-28.189,31.865c-27.324,45.221-20.322,99.495,15.64,121.225c26.546,16.04,61.451,9.861,88.9-12.663
	c5.039-4.135,12.498-3.45,16.78,1.464c13.524,15.52,31.517,24.986,51.269,24.986s37.745-9.466,51.269-24.986
	c4.282-4.914,11.741-5.599,16.78-1.464c27.449,22.524,62.353,28.704,88.9,12.663C448.905,397.893,455.908,343.619,428.583,298.399z"
	/>
<path style="fill:#7ACF90;" d="M400.394,266.534l-0.001,0.002c-41.817-32.848-93.151-50.589-144.399-50.589
	s-102.581,17.741-144.398,50.589l-0.001-0.002c-10.73,8.286-20.427,19.019-28.189,31.865
	c-27.324,45.221-20.322,99.495,15.64,121.225c26.546,16.04,61.451,9.861,88.899-12.663c5.039-4.135,12.498-3.45,16.781,1.464
	c13.524,15.52,31.517,24.986,51.269,24.986c7.756,0,15.234-1.479,22.283-4.191c-33.808-9.41-54.58-55.475-61.555-103.407
	c-0.553-3.803,3.677-6.437,6.875-4.307c9.668,6.442,20.693,10.093,32.397,10.093c18.59,0,35.47-9.204,47.917-24.184
	c3.174-3.82,8.817-4.379,12.595-1.155c25.223,21.53,57.809,27.683,82.475,12.779c11.135-6.728,19.213-16.887,24.061-28.977
	C416.389,280.859,408.708,272.954,400.394,266.534z"/>
<path style="fill:#67C787;" d="M413.229,187.102c-7.071-11.703-15.905-21.481-25.681-29.03l-0.001,0.002
	c-38.097-29.926-84.864-46.089-131.553-46.089s-93.456,16.163-131.552,46.089l-0.001-0.002c-9.776,7.549-18.61,17.327-25.681,29.03
	c-24.894,41.198-18.514,90.643,14.249,110.44c24.666,14.904,57.252,8.751,82.476-12.779c3.777-3.224,9.42-2.664,12.593,1.155
	c12.447,14.981,29.327,24.185,47.917,24.185s35.47-9.204,47.917-24.185c3.173-3.819,8.816-4.379,12.593-1.155
	c25.223,21.531,57.809,27.684,82.475,12.779C431.743,277.746,438.123,228.3,413.229,187.102z"/>
<path style="fill:#5FB87D;" d="M387.548,158.072l-0.001,0.001c-38.097-29.926-84.864-46.089-131.552-46.089
	c-46.689,0-93.455,16.163-131.552,46.089l-0.001-0.001c-9.776,7.549-18.61,17.327-25.681,29.03
	c-24.893,41.198-18.514,90.643,14.249,110.44c24.185,14.613,55.984,8.983,80.991-11.537c4.591-3.767,11.386-3.143,15.288,1.334
	c12.32,14.139,28.713,22.763,46.707,22.763c7.066,0,13.878-1.347,20.301-3.818c-30.8-8.573-49.725-50.54-56.079-94.207
	c-0.504-3.464,3.35-5.865,6.263-3.924c8.808,5.869,18.852,9.195,29.515,9.195c16.936,0,32.314-8.385,43.654-22.033
	c2.891-3.48,8.033-3.99,11.474-1.052c22.979,19.615,52.666,25.22,75.138,11.642c10.144-6.13,17.504-15.384,21.921-26.399
	C402.119,171.123,395.122,163.921,387.548,158.072z"/>
<path style="fill:#8ADBA1;" d="M255.995,178.34c14.128,0,26.975-6.89,36.535-18.143c2.714-3.194,7.479-3.639,10.692-0.947
	c19.382,16.238,44.233,20.791,63.086,9.4c25.276-15.273,32.032-54.603,10.993-85.204C339.903,29.054,292.014,7.5,255.995,7.5
	S172.087,29.054,134.69,83.446c-21.039,30.6-14.284,69.931,10.993,85.204c18.853,11.392,43.703,6.838,63.086-9.4
	c3.213-2.692,7.979-2.247,10.692,0.947C229.019,171.45,241.867,178.34,255.995,178.34z"/>
<path style="fill:#7ACF90;" d="M219.46,160.197c9.56,11.253,22.407,18.143,36.535,18.143c5.041,0,9.914-0.892,14.538-2.531
	c-59.999-7.9-56.347-129.547-31.719-166.766c-33.165,5.78-72.415,28.283-104.125,74.403c-21.039,30.601-14.284,69.931,10.993,85.204
	c18.853,11.392,43.703,6.838,63.086-9.4C211.981,156.559,216.746,157.003,219.46,160.197z"/>
<path d="M435.002,294.52c-2.888-4.78-6.093-9.372-9.56-13.71c10.189-17.502,13.304-40.272,7.852-64.102
	c-0.925-4.037-4.94-6.562-8.984-5.638c-4.038,0.924-6.563,4.946-5.639,8.984c4.956,21.659,1.649,42.073-8.385,56.655
	c-0.202,0.253-0.39,0.513-0.555,0.785c-3.928,5.491-8.827,10.125-14.629,13.63c-21.197,12.81-50.137,8.072-73.728-12.065
	c-3.34-2.851-7.598-4.214-11.959-3.838c-4.42,0.378-8.423,2.475-11.273,5.905c-11.507,13.851-26.475,21.478-42.148,21.478
	c-15.672,0-30.641-7.628-42.148-21.478c-2.85-3.429-6.853-5.526-11.272-5.904c-4.365-0.375-8.619,0.988-11.959,3.839
	c-23.589,20.137-52.529,24.872-73.728,12.064c-6.048-3.655-11.052-8.497-15.007-14.19c-0.023-0.031-0.044-0.064-0.067-0.095
	c-15.055-21.77-14.612-56.103,3.367-85.857c6.405-10.599,14.385-19.635,23.766-26.904c3.681,4.347,7.996,8.054,12.858,10.992
	c21.092,12.745,49.269,8.792,71.797-10.081c0.003,0.001,0.07-0.02,0.145,0.065c11.387,13.405,26.392,20.788,42.25,20.788
	s30.863-7.382,42.252-20.788c0.071-0.084,0.139-0.066,0.158-0.053c22.515,18.861,50.69,22.813,71.781,10.069
	c4.863-2.938,9.179-6.646,12.86-10.994c9.354,7.24,17.349,16.291,23.764,26.906c1.409,2.332,3.887,3.622,6.426,3.622
	c1.321,0,2.659-0.349,3.872-1.082c3.545-2.142,4.683-6.752,2.54-10.298c-7.397-12.241-16.655-22.7-27.469-31.048
	c-0.342-0.268-0.693-0.539-1.042-0.81c1.998-4.27,3.556-8.866,4.607-13.739c4.236-19.635-0.234-40.931-12.264-58.428
	c-18.108-26.338-39.509-46.734-63.604-60.62C298.785,6.424,276.696,0,255.995,0s-42.79,6.424-63.881,18.578
	c-24.096,13.886-45.496,34.281-63.604,60.62c-12.029,17.497-16.5,38.793-12.264,58.428c1.051,4.873,2.608,9.469,4.606,13.738
	c-0.334,0.258-0.67,0.518-0.995,0.773c-10.862,8.388-20.12,18.847-27.516,31.087c-19.893,32.921-21.014,70.982-5.729,97.502
	c-3.493,4.362-6.719,8.984-9.625,13.794c-11.56,19.132-17.697,40.263-17.749,61.109c-0.05,20.534,6.08,39.668,17.262,53.877
	c1.479,1.88,3.678,2.862,5.898,2.862c1.623,0,3.259-0.525,4.633-1.607c3.256-2.561,3.817-7.277,1.256-10.532
	c-19.199-24.398-18.567-64.678,1.538-97.952c1.879-3.109,3.921-6.117,6.081-9.021c3.868,4.094,8.267,7.71,13.223,10.705
	c26.824,16.209,62.632,10.912,91.224-13.494c0.271-0.23,0.588-0.338,0.94-0.302c0.227,0.019,0.658,0.116,1.016,0.545
	c14.408,17.342,33.475,26.892,53.686,26.892c20.212,0,39.278-9.55,53.686-26.892c0.357-0.43,0.789-0.527,1.016-0.546
	c0.351-0.037,0.671,0.072,0.94,0.302c28.591,24.407,64.398,29.704,91.224,13.494c4.933-2.981,9.358-6.572,13.251-10.668
	c2.15,2.893,4.182,5.888,6.053,8.984c12.342,20.425,17.631,43.361,14.893,64.583c-2.655,20.582-12.597,37.041-27.993,46.344
	c-22.946,13.865-54.452,9.137-80.263-12.042c-1.705-1.399-3.599-2.436-5.581-3.16c-0.426-0.188-0.871-0.339-1.332-0.445
	c-7.113-2.027-15.154,0.055-20.28,5.939c-12.594,14.453-28.794,22.413-45.614,22.413s-33.021-7.96-45.614-22.413
	c-5.105-5.859-13.099-7.946-20.19-5.961c-0.562,0.119-1.103,0.295-1.611,0.533c-1.913,0.721-3.74,1.739-5.391,3.093
	c-22.516,18.476-50.094,24.656-71.968,16.128c-3.861-1.506-8.208,0.404-9.712,4.264c-1.505,3.859,0.404,8.207,4.263,9.712
	c23.895,9.316,52.819,4.764,77.692-11.695l-3.475,64.049c-0.404,7.457,2.201,14.55,7.337,19.972s12.077,8.408,19.545,8.408h98.25
	c7.469,0,14.41-2.986,19.546-8.408s7.741-12.515,7.337-19.972l-3.475-64.029c28.952,19.232,62.619,21.965,88.294,6.451
	c19.39-11.716,31.859-32.052,35.112-57.263C455.104,344.208,449.091,317.836,435.002,294.52z M140.871,87.695
	c16.83-24.479,36.591-43.361,58.732-56.121C218.419,20.731,237.919,15,255.995,15s37.575,5.731,56.392,16.574
	c22.142,12.76,41.902,31.642,58.732,56.121c9.7,14.107,13.331,31.153,9.963,46.767c-1.195,5.539-3.214,10.585-5.93,14.982
	c-0.063,0.099-0.13,0.195-0.188,0.296c-3.259,5.18-7.493,9.444-12.535,12.49c-15.518,9.375-36.868,5.951-54.391-8.729
	c-6.334-5.307-15.855-4.482-21.224,1.84c-8.49,9.995-19.435,15.499-30.819,15.499s-22.328-5.504-30.818-15.499
	c-2.992-3.522-7.271-5.337-11.572-5.337c-3.417,0-6.848,1.148-9.652,3.498c-17.523,14.68-38.874,18.105-54.391,8.729
	c-5.039-3.045-9.273-7.305-12.53-12.482c-0.067-0.117-0.145-0.231-0.219-0.345c-2.702-4.388-4.712-9.42-5.904-14.941
	C127.539,118.849,131.17,101.803,140.871,87.695z M313.775,493.276c-2.274,2.401-5.348,3.724-8.655,3.724h-98.25
	c-3.307,0-6.381-1.322-8.654-3.723c-2.274-2.401-3.429-5.542-3.249-8.844l3.869-71.304c0.077,0.077,0.164,0.139,0.237,0.223
	c15.485,17.771,35.701,27.559,56.923,27.559s41.437-9.787,56.923-27.559c0.073-0.083,0.16-0.146,0.237-0.223l3.87,71.304
	C317.204,487.735,316.049,490.875,313.775,493.276z"/>
<g>
</g>
<g>
</g>
<g>
</g>
<g>
</g>
<g>
</g>
<g>
</g>
<g>
</g>
<g>
</g>
<g>
</g>
<g>
</g>
<g>
</g>
<g>
</g>
<g>
</g>
<g>
</g>
<g>
</g>
</svg>
