<?xml version="1.0" encoding="iso-8859-1"?>
<!-- Generator: Adobe Illustrator 19.0.0, SVG Export Plug-In . SVG Version: 6.00 Build 0)  -->
<svg version="1.1" id="Capa_1" xmlns="http://www.w3.org/2000/svg" xmlns:xlink="http://www.w3.org/1999/xlink" x="0px" y="0px"
	 viewBox="0 0 511.999 511.999" style="enable-background:new 0 0 511.999 511.999;" xml:space="preserve">
<ellipse transform="matrix(0.2298 -0.9732 0.9732 0.2298 -86.6295 198.9603)" style="fill:#B38A82;" cx="82.391" cy="154.214" rx="70.078" ry="75.128"/>
<path style="fill:#F5D7B7;" d="M17.993,116.461c-3.965,6.162-6.964,13.031-8.727,20.497c-8.894,37.666,16.633,75.932,57.018,85.468
	c18.991,4.485,37.884,1.814,53.498-6.187C107.601,131.508,52.468,115.788,17.993,116.461z"/>
<ellipse transform="matrix(0.2298 0.9732 -0.9732 0.2298 480.9944 -299.3417)" style="fill:#B38A82;" cx="429.626" cy="154.228" rx="70.078" ry="75.128"/>
<path style="fill:#F5D7B7;" d="M494.005,116.461c3.965,6.162,6.964,13.031,8.727,20.497c8.895,37.666-16.633,75.932-57.018,85.468
	c-18.991,4.485-37.884,1.814-53.498-6.187C404.397,131.508,459.53,115.788,494.005,116.461z"/>
<path style="fill:#B38A82;" d="M55.779,261.35c0,98.647,89.642,168.762,200.22,168.762s200.22-70.117,200.22-168.762
	s-75.004-155.036-200.22-155.036S55.779,162.704,55.779,261.35z"/>
<path style="fill:#F5D7B7;" d="M326.775,295.043c0-39.089-31.688-94.281-70.777-94.281s-70.777,55.191-70.777,94.281
	s31.688,56.319,70.777,56.319S326.775,334.132,326.775,295.043z"/>
<g>
	<ellipse style="fill:#F27281;" cx="138.559" cy="264.272" rx="41.853" ry="33.33"/>
	<ellipse style="fill:#F27281;" cx="373.441" cy="264.272" rx="41.853" ry="33.33"/>
</g>
<path style="fill:#464D59;" d="M255.998,276.059c13.313,0,28.483-8.464,30.202-22.362c1.67-13.499-13.522-20.768-30.202-20.768
	s-31.872,7.269-30.202,20.768C227.516,267.596,242.685,276.059,255.998,276.059z"/>
<path style="opacity:0.1;enable-background:new    ;" d="M255.998,430.112c37.757,0,73.07-8.18,103.21-22.874
	C68.409,380.529,131.434,165.086,197.019,111.07c-89.41,15.486-141.24,68.281-141.24,150.279
	C55.779,359.996,145.421,430.112,255.998,430.112z"/>
<path d="M170.454,231.02v-14.78c0-4.142-3.358-7.5-7.5-7.5s-7.5,3.358-7.5,7.5v14.78c0,4.142,3.358,7.5,7.5,7.5
	S170.454,235.162,170.454,231.02z M334.275,295.043c0-20.899-8.447-46.204-22.044-66.04c-15.799-23.048-35.769-35.741-56.232-35.741
	s-40.433,12.693-56.232,35.741c-13.597,19.835-22.044,45.14-22.044,66.04c0,39.365,29.994,63.819,78.277,63.819
	S334.275,334.409,334.275,295.043z M192.722,295.043c0-34.269,28.348-86.781,63.276-86.781s63.276,52.511,63.276,86.781
	c0,14.679-6.165,48.819-63.277,48.819S192.722,309.722,192.722,295.043z M356.544,231.02v-14.78c0-4.142-3.358-7.5-7.5-7.5
	s-7.5,3.358-7.5,7.5v14.78c0,4.142,3.358,7.5,7.5,7.5S356.544,235.162,356.544,231.02z M283.25,303.966
	c2.721-3.123,2.396-7.86-0.727-10.581c-3.123-2.721-7.86-2.397-10.582,0.727c-2.316,2.658-5.226,4.659-8.442,5.882v-17.14
	c14.407-2.664,28.235-12.801,30.145-28.235c0.808-6.535-1.061-12.588-5.407-17.504c-6.564-7.425-18.314-11.684-32.238-11.684
	c-13.924,0-25.674,4.259-32.238,11.684c-4.345,4.916-6.215,10.969-5.407,17.504c1.91,15.435,15.738,25.571,30.145,28.235v17.14
	c-3.216-1.223-6.126-3.224-8.442-5.882c-2.721-3.123-7.46-3.448-10.581-0.727c-3.123,2.721-3.448,7.458-0.727,10.581
	c6.874,7.888,16.806,12.412,27.251,12.412C266.443,316.377,276.377,311.853,283.25,303.966z M233.24,252.776
	c-0.277-2.237,0.282-4.057,1.759-5.728c3.554-4.021,11.796-6.619,20.999-6.619c9.203,0,17.445,2.598,20.999,6.619
	c1.477,1.671,2.036,3.491,1.759,5.728c-1.168,9.441-12.71,15.783-22.758,15.783C245.95,268.559,234.407,262.217,233.24,252.776z
	 M510.031,135.235c-3.86-16.348-13.007-30.612-26.451-41.252c-3.249-2.569-7.964-2.021-10.536,1.227
	c-2.57,3.248-2.021,7.965,1.227,10.536c1.582,1.252,3.079,2.572,4.51,3.944c-19.809,2.257-45.769,10.475-66.031,35.334
	c-1.67-1.404-3.367-2.788-5.116-4.132c-10.02-7.697-21.34-14.378-33.832-20.011c9.642-13.646,24.346-23.521,41.425-27.554
	c10.349-2.444,20.759-2.625,30.944-0.537c4.058,0.834,8.021-1.784,8.853-5.841c0.832-4.058-1.784-8.021-5.841-8.853
	c-12.335-2.529-24.92-2.316-37.403,0.633c-21.838,5.157-40.505,18.28-52.169,36.394c-29.472-10.743-64.451-16.307-103.612-16.307
	c-0.026,0-0.051,0-0.077,0c-4.391-11.19-12.997-19.416-25.202-23.956c-3.882-1.441-8.2,0.533-9.644,4.416
	c-1.444,3.882,0.533,8.2,4.415,9.644c6.128,2.279,10.696,5.668,13.802,10.248c-32.446,1.367-61.691,6.764-86.906,15.955
	c-11.664-18.114-30.331-31.237-52.169-36.394c-35.326-8.34-70.461,6.063-88.269,33.306c-0.16,0.218-0.307,0.444-0.443,0.679
	c-4.327,6.782-7.605,14.331-9.539,22.523c-4.537,19.214-1.167,39.333,9.49,56.653c9.327,15.157,23.489,26.948,40.331,33.744
	c-2.324,11.317-3.507,23.244-3.507,35.717c0,58.989,31.055,111.458,85.203,143.953c3.553,2.132,8.159,0.979,10.29-2.571
	c2.131-3.552,0.981-8.159-2.571-10.29c-49.523-29.72-77.925-77.502-77.925-131.094c0-13.524,1.444-26.201,4.299-38.019
	c0.031-0.088,0.076-0.167,0.104-0.257c0.136-0.431,0.224-0.866,0.28-1.299c5.98-23.562,17.685-43.631,35.016-60.009
	c0.216-0.181,0.419-0.373,0.609-0.573c3.128-2.918,6.425-5.725,9.914-8.405c32.162-24.707,79.429-38.127,136.951-38.934
	c0.004,0,0.008,0.001,0.012,0.001c0.007,0,0.013-0.001,0.02-0.001c1.828-0.026,3.665-0.039,5.514-0.039
	c60.032,0,109.307,13.476,142.497,38.973c3.488,2.68,6.786,5.487,9.914,8.405c0.19,0.201,0.393,0.392,0.609,0.573
	c17.332,16.378,29.036,36.447,35.016,60.009c0.056,0.433,0.144,0.868,0.28,1.299c0.028,0.09,0.073,0.169,0.104,0.257
	c2.855,11.818,4.299,24.495,4.299,38.019c0,44.822-19.857,85.872-55.912,115.586c-35.741,29.455-84.328,45.676-136.807,45.676
	c-28.799,0-56.288-4.81-81.702-14.298c-3.879-1.45-8.201,0.522-9.649,4.403c-1.449,3.88,0.523,8.201,4.403,9.649
	c27.097,10.116,56.351,15.245,86.948,15.245c55.951,0,107.925-17.438,146.346-49.1c39.577-32.616,61.373-77.777,61.373-127.162
	c0-12.474-1.183-24.4-3.507-35.717c16.841-6.796,31.004-18.587,40.331-33.744C511.198,174.569,514.568,154.449,510.031,135.235z
	 M55.56,210.946c-13.066-5.697-24.027-15.054-31.328-26.919c-8.563-13.916-11.286-30.019-7.667-45.345
	c1.239-5.248,3.163-10.173,5.667-14.715c17.518,0.371,45.429,5.575,66.003,31.325C73.099,171.004,62.133,189.731,55.56,210.946z
	 M104.363,140.892c-1.749,1.344-3.446,2.728-5.117,4.132c-20.253-24.849-46.2-33.063-66.008-35.327
	c15.705-15.065,39.544-22.035,63.53-16.371c17.079,4.033,31.783,13.908,41.425,27.554
	C125.703,126.514,114.383,133.195,104.363,140.892z M487.766,184.027c-7.301,11.865-18.262,21.223-31.328,26.919
	c-6.574-21.216-17.539-39.943-32.675-55.655c20.575-25.752,48.485-30.954,66.009-31.324c2.524,4.595,4.436,9.522,5.662,14.715
	C499.051,154.008,496.329,170.111,487.766,184.027z"/>
<g>
</g>
<g>
</g>
<g>
</g>
<g>
</g>
<g>
</g>
<g>
</g>
<g>
</g>
<g>
</g>
<g>
</g>
<g>
</g>
<g>
</g>
<g>
</g>
<g>
</g>
<g>
</g>
<g>
</g>
</svg>
