<?xml version="1.0" encoding="iso-8859-1"?>
<!-- Generator: Adobe Illustrator 19.0.0, SVG Export Plug-In . SVG Version: 6.00 Build 0)  -->
<svg version="1.1" id="Capa_1" xmlns="http://www.w3.org/2000/svg" xmlns:xlink="http://www.w3.org/1999/xlink" x="0px" y="0px"
	 viewBox="0 0 512 512" style="enable-background:new 0 0 512 512;" xml:space="preserve">
<path style="fill:#B38A82;" d="M175.053,275.675c-3.475,0.001-6.975-1.117-9.925-3.422c-78.793-61.56-78.598-116.99-71.47-144.553
	c9.416-36.408,41.552-64.956,79.967-71.039c36.479-5.778,70.345,9.746,90.59,41.525c4.788,7.518,2.576,17.494-4.941,22.283
	c-7.517,4.788-17.493,2.576-22.282-4.941c-13.32-20.911-34.583-30.747-58.318-26.987c-25.912,4.104-47.519,23.088-53.765,47.241
	c-5.15,19.911-4.19,60.812,60.094,111.036c7.023,5.488,8.269,15.63,2.781,22.654C184.6,273.546,179.851,275.675,175.053,275.675z"/>
<path style="opacity:0.1;enable-background:new    ;" d="M175.053,275.675c-3.475,0.001-6.975-1.117-9.925-3.422
	c-78.793-61.56-78.598-116.99-71.47-144.553c9.416-36.408,41.552-64.956,79.967-71.039c36.479-5.778,70.345,9.746,90.59,41.525
	c4.788,7.518,2.576,17.494-4.941,22.283c-7.517,4.788-17.493,2.576-22.282-4.941c-13.32-20.911-34.583-30.747-58.318-26.987
	c-25.912,4.104-47.519,23.088-53.765,47.241c-5.15,19.911-4.19,60.812,60.094,111.036c7.023,5.488,8.269,15.63,2.781,22.654
	C184.6,273.546,179.851,275.675,175.053,275.675z"/>
<ellipse style="fill:#F5D7B7;" cx="71.12" cy="286.32" rx="63.62" ry="60.61"/>
<path style="opacity:0.1;enable-background:new    ;" d="M85.062,227.187c-17.8,29.316-27.304,63.237-27.304,98.992
	c0,6.746,0.346,13.275,1.01,19.6c3.998,0.75,8.127,1.152,12.356,1.152c35.138,0,63.623-27.136,63.623-60.61
	C134.747,257.41,113.493,233.244,85.062,227.187z"/>
<ellipse style="fill:#F5D7B7;" cx="440.88" cy="286.32" rx="63.62" ry="60.61"/>
<path style="opacity:0.1;enable-background:new    ;" d="M402.122,296.011c-1.038,0-2.092-0.217-3.099-0.674
	c-3.771-1.714-5.438-6.161-3.725-9.931c6.934-15.252,20.124-25.102,36.19-27.025c15.079-1.807,29.882,4.018,38.644,15.195
	c2.556,3.26,1.984,7.974-1.275,10.53c-3.258,2.555-7.974,1.985-10.529-1.275c-5.551-7.08-15.151-10.746-25.056-9.557
	c-10.741,1.286-19.604,7.97-24.317,18.338C407.698,294.378,404.973,296.011,402.122,296.011z"/>
<path style="opacity:0.1;enable-background:new    ;" d="M426.938,227.187c17.801,29.316,27.305,63.237,27.305,98.992
	c0,6.746-0.346,13.275-1.01,19.6c-3.998,0.75-8.127,1.152-12.356,1.152c-35.138,0-63.623-27.136-63.623-60.61
	C377.253,257.41,398.507,233.244,426.938,227.187z"/>
<path style="opacity:0.1;enable-background:new    ;" d="M103.473,201.909c10.785,21.48,29.739,45.409,61.655,70.345
	c2.95,2.305,6.45,3.422,9.925,3.422c4.798,0,9.547-2.13,12.729-6.203c5.488-7.023,4.242-17.166-2.781-22.654
	c-33.205-25.943-49.514-49.398-56.813-68.758c-4.125,3.325-8.13,6.817-11.989,10.491
	C111.713,192.823,107.474,197.284,103.473,201.909z"/>
<path style="fill:#B38A82;" d="M432.724,326.179c0-97.842-79.122-170.704-176.724-170.704S79.276,228.336,79.276,326.179
	S158.398,456.536,256,456.536S432.724,424.022,432.724,326.179z"/>
<path style="fill:#F5D7B7;" d="M298.831,225.013c-15.456,0-30.017,3.742-42.831,10.322c-12.815-6.581-27.375-10.322-42.831-10.322
	c-51.207,0-92.718,40.84-92.718,91.218c0,63.676,53.695,99.39,135.549,99.39s135.549-35.714,135.549-99.39
	C391.549,265.853,350.038,225.013,298.831,225.013z"/>
<g>
	<ellipse style="fill:#F27281;" cx="179.37" cy="340.891" rx="28.27" ry="22.516"/>
	<ellipse style="fill:#F27281;" cx="332.63" cy="340.891" rx="28.27" ry="22.516"/>
</g>
<path style="fill:#464D59;" d="M256,344.072L256,344.072c-11.313,0-20.485-9.171-20.485-20.485v-14.893
	c0-3.088,2.504-5.592,5.592-5.592h29.785c3.088,0,5.592,2.504,5.592,5.592v14.893C276.484,334.9,267.313,344.072,256,344.072z"/>
<path style="opacity:0.1;enable-background:new    ;" d="M242.175,155.97c-91.14,6.512-162.899,77.032-162.899,170.21
	c0,97.842,79.122,130.357,176.724,130.357c1.697,0,3.387-0.012,5.072-0.032C100.93,364.421,172.463,203.442,242.175,155.97z"/>
<path d="M358.828,395.909c26.314-18.786,40.222-46.337,40.222-79.677c0-54.434-44.958-98.718-100.219-98.718
	c-14.778,0-29.504,3.266-42.831,9.474c-13.327-6.208-28.053-9.474-42.831-9.474c-55.261,0-100.218,44.285-100.218,98.718
	c0,33.34,13.908,60.892,40.222,79.677c24.937,17.802,60.493,27.212,102.827,27.212S333.892,413.711,358.828,395.909z
	 M127.951,316.231c0-46.163,38.229-83.718,85.218-83.718c13.88,0,27.138,3.194,39.405,9.494c2.15,1.105,4.701,1.105,6.852,0
	c12.268-6.3,25.525-9.494,39.405-9.494c46.99,0,85.219,37.556,85.219,83.718c0,57.539-47.869,91.89-128.05,91.89
	C175.82,408.121,127.951,373.77,127.951,316.231z M440.877,218.21c-11.098,0-21.956,2.472-31.795,7.191
	c-4.045-5.784-8.464-11.368-13.265-16.722c-2.765-3.084-7.507-3.343-10.591-0.577c-3.084,2.765-3.343,7.507-0.577,10.591
	c5.685,6.34,10.79,13.029,15.313,20.024c0.079,0.152,0.155,0.305,0.246,0.453c0.153,0.25,0.321,0.485,0.497,0.711
	c6.03,9.51,10.978,19.579,14.812,30.109c0.086,0.364,0.19,0.728,0.334,1.086c0.087,0.217,0.186,0.427,0.291,0.631
	c6.002,17.104,9.082,35.399,9.082,54.473c0,42.999-16.247,75.145-48.289,95.542c-28.471,18.124-69.159,27.314-120.935,27.314
	c-35.996,0-66.925-4.507-91.926-13.396c-3.905-1.386-8.192,0.651-9.579,4.555c-1.388,3.903,0.651,8.191,4.554,9.579
	c26.619,9.463,59.238,14.262,96.951,14.262c54.675,0,98.073-9.979,128.99-29.661c29.16-18.563,46.869-45.409,52.896-80.011
	c1,0.041,1.998,0.067,2.991,0.067c39.218,0,71.123-30.554,71.123-68.11S480.095,218.21,440.877,218.21z M440.877,339.431
	c-0.378,0-0.758-0.013-1.138-0.02c0.322-4.305,0.485-8.716,0.485-13.231c0-18.353-2.622-36.049-7.737-52.785
	c9.914-1.453,20.044,2.043,25.841,9.437c1.479,1.887,3.682,2.873,5.907,2.873c1.619,0,3.25-0.522,4.622-1.598
	c3.26-2.556,3.831-7.27,1.275-10.53c-9.84-12.551-26.62-18.004-42.725-14.512c-2.915-7.181-6.318-14.154-10.197-20.892
	c7.38-3.258,15.436-4.962,23.666-4.962c30.946,0,56.123,23.825,56.123,53.11C497,315.606,471.823,339.431,440.877,339.431z
	 M283.984,323.587v-14.893c0-7.219-5.873-13.092-13.092-13.092h-29.785c-7.219,0-13.092,5.873-13.092,13.092v14.893
	c0,15.431,12.554,27.984,27.984,27.984S283.984,339.018,283.984,323.587z M243.016,323.587v-12.984h25.969v12.984
	c0,7.16-5.825,12.984-12.984,12.984C248.841,336.572,243.016,330.747,243.016,323.587z M135.064,421.722
	c-32.042-20.398-48.288-52.543-48.288-95.542c0-44.851,17.556-86.264,49.433-116.611c2.141-2.038,4.337-4.009,6.577-5.922
	c0.034-0.026,0.064-0.055,0.097-0.082c30.762-26.235,70.574-40.59,113.117-40.59c10.505,0,20.831,0.869,30.899,2.574
	c0.319,0.074,0.642,0.135,0.973,0.168c2.605,0.456,5.19,0.972,7.758,1.54c0.345,0.105,0.693,0.178,1.041,0.232
	c22.613,5.145,43.734,14.629,62.382,28.154c3.351,2.431,8.042,1.686,10.475-1.668c2.432-3.353,1.686-8.042-1.668-10.475
	c-17.29-12.54-36.515-21.884-57.014-27.836c3.627-2.416,7.879-3.306,10.911-2.241c3.913,1.373,8.188-0.683,9.561-4.593
	c1.371-3.908-0.685-8.188-4.593-9.561c-10.09-3.542-22.211,0.494-30.003,8.902c2.054-9.367,8.489-15.828,18.771-18.549
	c4.005-1.06,6.392-5.166,5.331-9.17c-1.06-4.004-5.162-6.388-9.169-5.331c-17.583,4.654-28.467,17.24-30.358,34.443
	c-8.302-1.05-16.746-1.589-25.298-1.589c-42.948,0-83.382,13.541-115.771,38.444c-11.382-21.328-10.824-38.077-8.061-48.76
	c5.511-21.306,24.671-38.068,47.679-41.712c20.653-3.273,39.178,5.333,50.819,23.609c7.004,10.993,21.645,14.238,32.636,7.237
	c10.992-7.002,14.24-21.642,7.238-32.638C248.64,59.779,211.97,42.993,172.45,49.252c-41.318,6.543-75.901,37.314-86.055,76.57
	c-5.614,21.71-6.544,55.571,19.591,95.353c-1.038,1.399-2.06,2.808-3.053,4.235c-9.844-4.724-20.708-7.2-31.812-7.2
	C31.905,218.21,0,248.765,0,286.322s31.905,68.11,71.123,68.11c0.993,0,1.992-0.026,2.991-0.067
	c6.026,34.602,23.736,61.448,52.896,80.011c1.248,0.795,2.642,1.174,4.021,1.174c2.479,0,4.904-1.228,6.334-3.473
	C139.588,428.582,138.559,423.947,135.064,421.722z M100.918,129.578c8.681-33.56,38.37-59.886,73.879-65.51
	c33.436-5.297,64.5,8.964,83.092,38.146c2.559,4.019,1.372,9.37-2.646,11.929c-4.015,2.558-9.366,1.374-11.927-2.645
	c-14.998-23.547-38.981-34.614-65.816-30.365c-28.817,4.563-52.87,25.771-59.854,52.771c-3.574,13.814-4.357,35.519,10.866,62.343
	c-0.888,0.812-1.774,1.627-2.646,2.458c-3.454,3.288-6.747,6.698-9.89,10.215C95.464,175.489,96.258,147.6,100.918,129.578z
	 M43.142,284.105c1.373,1.076,3.004,1.598,4.623,1.598c2.225,0,4.428-0.986,5.907-2.873c5.813-7.415,15.983-10.911,25.923-9.427
	c-5.149,16.788-7.819,34.523-7.819,52.776c0,4.516,0.162,8.926,0.485,13.231c-0.38,0.007-0.76,0.02-1.138,0.02
	C40.177,339.43,15,315.605,15,286.32c0-29.285,25.177-53.11,56.123-53.11c8.253,0,16.329,1.714,23.726,4.989
	c-3.854,6.726-7.244,13.7-10.158,20.885c-16.136-3.536-32.964,1.914-42.824,14.491C39.312,276.835,39.883,281.55,43.142,284.105z
	 M184.1,294.665c-4.143,0-7.5,3.358-7.5,7.5v12.136c0,4.142,3.357,7.5,7.5,7.5s7.5-3.358,7.5-7.5v-12.136
	C191.6,298.023,188.242,294.665,184.1,294.665z M327.9,321.801c4.143,0,7.5-3.358,7.5-7.5v-12.136c0-4.142-3.357-7.5-7.5-7.5
	s-7.5,3.358-7.5,7.5v12.136C320.4,318.443,323.758,321.801,327.9,321.801z"/>
<g>
</g>
<g>
</g>
<g>
</g>
<g>
</g>
<g>
</g>
<g>
</g>
<g>
</g>
<g>
</g>
<g>
</g>
<g>
</g>
<g>
</g>
<g>
</g>
<g>
</g>
<g>
</g>
<g>
</g>
</svg>
