<?xml version="1.0" encoding="iso-8859-1"?>
<!-- Generator: Adobe Illustrator 19.0.0, SVG Export Plug-In . SVG Version: 6.00 Build 0)  -->
<svg version="1.1" id="Capa_1" xmlns="http://www.w3.org/2000/svg" xmlns:xlink="http://www.w3.org/1999/xlink" x="0px" y="0px"
	 viewBox="0 0 512 512" style="enable-background:new 0 0 512 512;" xml:space="preserve">
<g>
	<path style="fill:#E4A2B7;" d="M91.178,436.816c-46.14,0-83.678-37.538-83.678-83.678c0-10.522,8.529-19.051,19.051-19.051
		s19.051,8.529,19.051,19.051c0,25.131,20.445,45.576,45.576,45.576c25.13,0,45.575-20.445,45.575-45.576V179.901
		c0-10.522,8.529-19.051,19.051-19.051c10.522,0,19.051,8.529,19.051,19.051v173.237
		C174.855,399.279,137.318,436.816,91.178,436.816z"/>
	<path style="fill:#E4A2B7;" d="M420.822,436.816c-46.14,0-83.677-37.538-83.677-83.678V179.901
		c0-10.522,8.529-19.051,19.051-19.051s19.051,8.529,19.051,19.051v173.237c0,25.131,20.445,45.576,45.576,45.576
		c25.131,0,45.576-20.445,45.576-45.576c0-10.522,8.529-19.051,19.051-19.051s19.051,8.529,19.051,19.051
		C504.5,399.279,466.962,436.816,420.822,436.816z"/>
	<path style="fill:#E4A2B7;" d="M222.601,483.623c-10.522,0-19.051-8.529-19.051-19.051v-284.67
		c0-10.522,8.529-19.051,19.051-19.051c10.522,0,19.051,8.529,19.051,19.051v284.67
		C241.652,475.093,233.123,483.623,222.601,483.623z"/>
	<path style="fill:#E4A2B7;" d="M289.399,483.623c-10.522,0-19.051-8.529-19.051-19.051v-284.67
		c0-10.522,8.529-19.051,19.051-19.051s19.051,8.529,19.051,19.051v284.67C308.45,475.093,299.92,483.623,289.399,483.623z"/>
	<path style="fill:#E4A2B7;" d="M401.378,240.538c6.767-17.463,10.486-36.444,10.486-56.297
		c0-86.081-69.783-155.864-155.864-155.864S100.136,98.16,100.136,184.241c0,19.852,3.719,38.834,10.486,56.297H401.378z"/>
</g>
<path style="fill:#D9809C;" d="M404.463,286.359H107.537c-12.653,0-22.91-10.257-22.91-22.91l0,0c0-12.653,10.257-22.91,22.91-22.91
	h296.927c12.653,0,22.91,10.257,22.91,22.91l0,0C427.374,276.101,417.116,286.359,404.463,286.359z"/>
<g>
	<rect x="136.75" y="286.36" style="fill:#DD8EAB;" width="38.1" height="26.897"/>
	<rect x="203.55" y="286.36" style="fill:#DD8EAB;" width="38.1" height="26.897"/>
	<rect x="270.35" y="286.36" style="fill:#DD8EAB;" width="38.1" height="26.897"/>
	<rect x="337.14" y="286.36" style="fill:#DD8EAB;" width="38.1" height="26.897"/>
</g>
<path style="fill:#464D59;" d="M256,169.881L256,169.881c-10.75,0-19.464-8.714-19.464-19.464v-14.151
	c0-2.935,2.379-5.313,5.313-5.313h28.302c2.935,0,5.313,2.379,5.313,5.313v14.151C275.464,161.167,266.75,169.881,256,169.881z"/>
<path style="fill:#DD8EAB;" d="M224.166,31.636c-70.813,14.696-124.03,77.434-124.03,152.606c0,19.852,3.719,38.834,10.486,56.297
	h90.189C131.956,155.161,185.557,61.322,224.166,31.636z"/>
<path style="fill:#D17597;" d="M200.811,240.538h-93.275c-12.653,0-22.91,10.257-22.91,22.91l0,0c0,12.653,10.257,22.91,22.91,22.91
	h96.014C182.996,277.302,190.484,242.648,200.811,240.538z"/>
<path style="opacity:0.1;enable-background:new    ;" d="M118.878,196.168c-6.426,0-12.519,1.186-18.002,3.298
	c1.393,14.349,4.73,28.129,9.746,41.072h50.466c0.688-2.575,1.063-5.25,1.063-8C162.151,212.452,142.777,196.168,118.878,196.168z
	 M171.347,53.356c-8.003,5.187-15.5,11.086-22.402,17.611c-0.102,0.787-0.169,1.583-0.169,2.396
	c0,11.072,9.705,20.049,21.676,20.049s21.676-8.976,21.676-20.049C192.127,62.57,182.899,53.794,171.347,53.356z M311.958,211.667
	c-17.738,0-32.249,12.744-33.439,28.872h66.878C344.207,224.41,329.696,211.667,311.958,211.667z M285.213,31.123
	c-2.669,4.723-4.166,10.004-4.166,15.581c0,20.087,19.374,36.371,43.273,36.371c14.548,0,27.409-6.04,35.255-15.293
	C338.954,49.429,313.431,36.474,285.213,31.123z"/>
<path d="M241.849,123.452c-7.065,0-12.814,5.748-12.814,12.813v14.151c0,14.868,12.096,26.964,26.964,26.964
	c14.868,0,26.964-12.096,26.964-26.964v-14.151c0-7.065-5.748-12.813-12.813-12.813C270.15,123.452,241.849,123.452,241.849,123.452
	z M267.964,150.417c0,6.597-5.367,11.964-11.964,11.964s-11.964-5.367-11.964-11.964v-11.965h23.929L267.964,150.417
	L267.964,150.417z M180.18,130.062v11.531c0,4.142,3.358,7.5,7.5,7.5s7.5-3.358,7.5-7.5v-11.531c0-4.142-3.358-7.5-7.5-7.5
	S180.18,125.92,180.18,130.062z M485.449,326.587c-14.641,0-26.551,11.911-26.551,26.551c0,20.995-17.08,38.076-38.076,38.076
	c-20.995,0-38.076-17.081-38.076-38.076v-59.28h21.717c16.768,0,30.41-13.642,30.41-30.41c0-14.289-9.909-26.301-23.215-29.543
	c5.11-16.007,7.705-32.667,7.705-49.664c0-25.987-5.924-50.833-17.607-73.848c-1.875-3.693-6.388-5.168-10.083-3.293
	c-3.693,1.875-5.167,6.389-3.292,10.082c10.605,20.891,15.982,43.453,15.982,67.058c0,16.754-2.772,33.142-8.228,48.797H115.864
	c-5.456-15.655-8.228-32.043-8.228-48.797c0-81.808,66.556-148.364,148.364-148.364c41.638,0,81.615,17.66,109.681,48.453
	c2.791,3.062,7.534,3.281,10.595,0.491s3.281-7.534,0.491-10.595C345.865,40.322,301.847,20.877,256,20.877
	c-90.08,0-163.364,73.285-163.364,163.364c0,16.997,2.595,33.658,7.706,49.664c-13.306,3.242-23.215,15.254-23.215,29.543
	c0,16.768,13.642,30.41,30.41,30.41h21.717v59.28c0,20.995-17.081,38.076-38.076,38.076c-11.738,0-22.652-5.317-29.944-14.587
	c-2.561-3.256-7.276-3.82-10.532-1.258c-3.256,2.561-3.819,7.276-1.258,10.532c10.154,12.91,25.365,20.313,41.734,20.313
	c29.266,0,53.076-23.81,53.076-53.076v-59.28h23.102v59.28c0,42.004-34.173,76.178-76.178,76.178S15,395.143,15,353.139
	c0-6.37,5.182-11.551,11.551-11.551c5.402,0,10.029,3.665,11.25,8.915c0.939,4.034,4.97,6.546,9.005,5.604
	c4.034-0.939,6.543-4.971,5.604-9.005c-2.812-12.078-13.446-20.513-25.86-20.513C11.911,326.587,0,338.498,0,353.139
	c0,50.275,40.902,91.178,91.178,91.178s91.178-40.902,91.178-91.178v-59.28h13.695v170.713c0,14.64,11.911,26.551,26.551,26.551
	c14.641,0,26.551-11.911,26.551-26.551V293.858h13.695v170.713c0,14.64,11.911,26.551,26.551,26.551
	c14.64,0,26.551-11.911,26.551-26.551V293.858h13.695v59.28c0,50.275,40.902,91.178,91.178,91.178S512,403.414,512,353.139
	C512,338.498,500.089,326.587,485.449,326.587z M234.152,464.572c0,6.369-5.182,11.551-11.551,11.551
	c-6.369,0-11.551-5.182-11.551-11.551V293.858h23.102L234.152,464.572L234.152,464.572z M300.95,464.572
	c0,6.369-5.182,11.551-11.551,11.551c-6.37,0-11.551-5.182-11.551-11.551V293.858h23.102V464.572z M107.537,278.858
	c-8.497,0-15.41-6.913-15.41-15.41s6.913-15.41,15.41-15.41h3.061c0.009,0,0.017,0.002,0.026,0.002c0.014,0,0.029-0.002,0.043-0.002
	h290.667c0.014,0,0.029,0.002,0.043,0.002c0.009,0,0.017-0.002,0.026-0.002h3.062c8.497,0,15.41,6.913,15.41,15.41
	c0,8.497-6.913,15.41-15.41,15.41H107.537z M420.822,429.316c-42.004,0-76.178-34.173-76.178-76.178v-59.28h23.102v59.28
	c0,29.266,23.81,53.076,53.076,53.076s53.076-23.81,53.076-53.076c0-6.37,5.182-11.551,11.551-11.551S497,346.769,497,353.138
	C497,395.143,462.827,429.316,420.822,429.316z M316.82,130.062v11.531c0,4.142,3.358,7.5,7.5,7.5s7.5-3.358,7.5-7.5v-11.531
	c0-4.142-3.358-7.5-7.5-7.5S316.82,125.92,316.82,130.062z"/>
<g>
</g>
<g>
</g>
<g>
</g>
<g>
</g>
<g>
</g>
<g>
</g>
<g>
</g>
<g>
</g>
<g>
</g>
<g>
</g>
<g>
</g>
<g>
</g>
<g>
</g>
<g>
</g>
<g>
</g>
</svg>
