<?xml version="1.0" encoding="iso-8859-1"?>
<!-- Generator: Adobe Illustrator 19.0.0, SVG Export Plug-In . SVG Version: 6.00 Build 0)  -->
<svg version="1.1" id="Capa_1" xmlns="http://www.w3.org/2000/svg" xmlns:xlink="http://www.w3.org/1999/xlink" x="0px" y="0px"
	 viewBox="0 0 511.999 511.999" style="enable-background:new 0 0 511.999 511.999;" xml:space="preserve">
<path style="fill:#C1C4C7;" d="M190.652,206.66c-15.113-63.149-97.156-92.503-140.811-92.503l-0.004-0.003
	c-21.476-0.049-39.589,12.571-42.059,30.445c-1.293,9.364,1.938,18.503,8.28,25.914c-5.633,6.991-8.456,15.458-7.242,24.122
	c1.3,9.284,6.99,17.078,15.196,22.281c-3.737,6.95-5.031,14.706-3.122,22.27c4.037,15.996,21.074,25.966,40.376,24.946
	c6.208-0.328,12.324,2.022,16.569,6.563C119.04,314.773,204.978,266.522,190.652,206.66z"/>
<path style="opacity:0.1;enable-background:new    ;" d="M190.652,206.66c-15.113-63.149-97.156-92.503-140.811-92.503l-0.004-0.003
	c-21.476-0.049-39.589,12.571-42.059,30.445c-1.293,9.364,1.938,18.503,8.28,25.914c-5.633,6.991-8.456,15.458-7.242,24.122
	c1.3,9.284,6.99,17.078,15.196,22.281c-3.737,6.95-5.031,14.706-3.122,22.27c4.037,15.996,21.074,25.966,40.376,24.946
	c6.208-0.328,12.324,2.022,16.569,6.563C119.04,314.773,204.978,266.522,190.652,206.66z"/>
<ellipse transform="matrix(0.3079 -0.9514 0.9514 0.3079 -123.9472 254.979)" style="fill:#F5D7B7;" cx="113.285" cy="212.684" rx="40.079" ry="56.559"/>
<path style="fill:#C1C4C7;" d="M321.343,206.66c15.113-63.149,97.156-92.503,140.811-92.503l0.004-0.003
	c21.476-0.049,39.589,12.571,42.059,30.445c1.293,9.364-1.938,18.503-8.28,25.914c5.633,6.991,8.456,15.458,7.243,24.122
	c-1.3,9.284-6.99,17.078-15.196,22.281c3.737,6.95,5.031,14.706,3.122,22.27c-4.037,15.996-21.074,25.966-40.376,24.946
	c-6.208-0.328-12.324,2.022-16.569,6.563C392.956,314.773,307.017,266.522,321.343,206.66z"/>
<path style="opacity:0.1;enable-background:new    ;" d="M321.343,206.66c15.113-63.149,97.156-92.503,140.811-92.503l0.004-0.003
	c21.476-0.049,39.589,12.571,42.059,30.445c1.293,9.364-1.938,18.503-8.28,25.914c5.633,6.991,8.456,15.458,7.243,24.122
	c-1.3,9.284-6.99,17.078-15.196,22.281c3.737,6.95,5.031,14.706,3.122,22.27c-4.037,15.996-21.074,25.966-40.376,24.946
	c-6.208-0.328-12.324,2.022-16.569,6.563C392.956,314.773,307.017,266.522,321.343,206.66z"/>
<ellipse transform="matrix(0.3079 0.9514 -0.9514 0.3079 478.3055 -232.1461)" style="fill:#F5D7B7;" cx="398.717" cy="212.688" rx="40.079" ry="56.559"/>
<path style="fill:#C1C4C7;" d="M420.615,262.159c0-81.741-73.702-148.006-164.618-148.006S91.38,180.417,91.38,262.159
	s73.702,135.688,164.618,135.688S420.615,343.9,420.615,262.159z"/>
<g>
	<ellipse style="fill:#E4A2B7;" cx="158.417" cy="253.639" rx="34.778" ry="27.695"/>
	<ellipse style="fill:#E4A2B7;" cx="353.577" cy="253.639" rx="34.778" ry="27.695"/>
</g>
<path style="fill:#464D59;" d="M255.998,274.912c11.728,0,25.092-13.145,26.606-34.731c1.471-20.965-11.912-28.441-26.606-28.441
	c-14.694,0-28.077,7.476-26.606,28.441C230.906,261.767,244.27,274.912,255.998,274.912z"/>
<path style="opacity:0.05;enable-background:new    ;" d="M196.33,124.182C134.912,145.668,91.38,199.34,91.38,262.159
	c0,81.741,73.702,135.688,164.618,135.688c7.485,0,14.85-0.373,22.07-1.09C92.866,339.078,142.387,177.646,196.33,124.182z"/>
<path d="M282.133,214.245c-6.103-6.545-15.14-10.005-26.136-10.005c-10.996,0-20.033,3.46-26.136,10.005
	c-6.053,6.493-8.729,15.396-7.952,26.462c1.832,26.105,18.771,41.706,34.088,41.706c8.199,0,16.543-4.361,22.891-11.964
	c6.507-7.794,10.379-18.079,11.197-29.742C290.862,229.64,288.186,220.737,282.133,214.245z M275.123,239.656
	c-1.27,18.11-11.924,27.755-19.125,27.755c-7.201,0-17.854-9.646-19.125-27.755c-0.474-6.748,0.859-11.856,3.961-15.183
	c4.033-4.325,10.473-5.233,15.164-5.233c4.691,0,11.131,0.908,15.164,5.233C274.263,227.8,275.596,232.908,275.123,239.656z
	 M323.708,228.69c0-5.297,4.309-9.606,9.606-9.606s9.605,4.309,9.605,9.606c0,4.142,3.357,7.5,7.5,7.5s7.5-3.358,7.5-7.5
	c0-13.568-11.038-24.606-24.605-24.606c-13.568,0-24.606,11.038-24.606,24.606c0,4.142,3.357,7.5,7.5,7.5
	C320.35,236.19,323.708,232.833,323.708,228.69z M203.288,228.69c0-13.568-11.038-24.606-24.606-24.606
	c-13.567,0-24.605,11.038-24.605,24.606c0,4.142,3.357,7.5,7.5,7.5s7.5-3.358,7.5-7.5c0-5.297,4.309-9.606,9.605-9.606
	s9.606,4.309,9.606,9.606c0,4.142,3.357,7.5,7.5,7.5C199.93,236.19,203.288,232.833,203.288,228.69z M268.29,290.463
	c-3.104,3.561-7.584,5.603-12.292,5.603c-4.708,0-9.188-2.042-12.292-5.603c-2.723-3.123-7.461-3.448-10.582-0.726
	c-3.123,2.722-3.447,7.459-0.727,10.582c5.954,6.831,14.556,10.748,23.601,10.748s17.647-3.917,23.601-10.748
	c2.721-3.123,2.396-7.86-0.727-10.582C275.75,287.015,271.011,287.34,268.29,290.463z M511.646,143.572
	c-2.959-21.412-23.705-36.919-49.361-36.919c-0.12,0-0.245,0-0.363,0.004c-4.067,0.009-8.419,0.254-12.938,0.73
	c-4.119,0.434-7.108,4.125-6.674,8.244c0.433,4.119,4.117,7.103,8.244,6.674c4.086-0.43,7.989-0.648,11.601-0.648
	c0.076,0,0.152-0.001,0.228-0.003c17.745,0.041,32.52,10.319,34.405,23.971c0.948,6.863-1.378,13.97-6.549,20.012
	c-2.348,2.743-2.407,6.771-0.142,9.582c3.197,3.969,6.774,10.378,5.654,18.376c-0.942,6.733-5.128,12.766-11.784,16.987
	c-3.321,2.107-4.452,6.421-2.589,9.886c2.99,5.561,3.839,11.399,2.455,16.883c-3.082,12.214-16.548,20.157-32.709,19.292
	c-8.529-0.45-16.715,2.804-22.443,8.931c-0.205,0.22-0.419,0.428-0.627,0.643c0.039-1.348,0.062-2.7,0.062-4.058
	c0-3.475-0.14-6.921-0.39-10.34c25.429-13.676,38.758-37.763,31.932-58.856c-7.577-23.413-37.274-34.936-68.876-27.401
	c-5.035-5.723-10.503-11.121-16.364-16.149c12.847-8.329,27.77-15.25,43.7-20.217c3.954-1.233,6.16-5.438,4.928-9.393
	c-1.234-3.955-5.439-6.159-9.393-4.928c-19.005,5.926-36.748,14.469-51.679,24.832c-29.236-20.699-66.038-33.055-105.975-33.055
	s-76.738,12.355-105.973,33.053c-32.697-22.726-73.215-32.991-99.95-33.049c-0.12-0.004-0.24-0.004-0.363-0.004
	c-25.654,0-46.403,15.509-49.361,36.92c-1.291,9.349,0.989,18.788,6.455,27.096c-4.7,7.757-6.612,16.455-5.415,25.006
	c1.281,9.153,5.953,17.384,13.346,23.699c-2.524,7.124-2.919,14.503-1.117,21.648c4.859,19.255,24.63,31.832,48.045,30.601
	c4.098-0.217,7.999,1.312,10.694,4.194c4.085,4.371,8.695,8.052,13.727,11.006c7.823,42.831,36.209,78.265,80.531,99.357
	c3.735,1.78,8.214,0.191,9.995-3.549c1.779-3.74,0.19-8.215-3.55-9.995c-47.143-22.435-74.18-62.702-74.18-110.476
	c0-77.475,70.482-140.506,157.117-140.506s157.117,63.031,157.117,140.506c0,6.23-0.456,12.316-1.34,18.249
	c-0.064,0.292-0.106,0.589-0.135,0.888c-4.527,28.902-19.473,54.045-43.91,73.491c-28.818,22.931-68.499,35.56-111.732,35.56
	c-16.808,0-33.195-1.907-48.708-5.668c-4.029-0.978-8.08,1.496-9.057,5.521c-0.976,4.026,1.496,8.08,5.521,9.056
	c16.669,4.042,34.246,6.091,52.243,6.091c46.612,0,89.61-13.787,121.072-38.822c26.171-20.825,42.981-48.526,48.777-79.664
	c5.057-2.96,9.689-6.654,13.791-11.044c2.694-2.882,6.578-4.414,10.694-4.194c23.435,1.241,43.185-11.346,48.045-30.602
	c1.802-7.145,1.407-14.523-1.117-21.647c7.393-6.315,12.064-14.546,13.346-23.699c1.197-8.55-0.715-17.249-5.415-25.005
	C510.657,162.361,512.937,152.921,511.646,143.572z M86.397,235.63c-15.554-10.261-23.852-25.486-19.786-38.049
	c4.551-14.063,23.2-21.473,44.11-18.724C98.75,195.838,90.329,215.048,86.397,235.63z M121.214,165.563
	c-31.6-7.535-61.299,3.987-68.876,27.401c-6.826,21.092,6.503,45.179,31.932,58.856c-0.25,3.419-0.39,6.865-0.39,10.34
	c0,1.363,0.033,2.716,0.071,4.068c-0.212-0.219-0.429-0.43-0.638-0.654c-5.727-6.126-13.911-9.381-22.442-8.931
	c-16.163,0.858-29.627-7.078-32.709-19.291c-1.384-5.485-0.535-11.324,2.455-16.884c1.863-3.464,0.732-7.779-2.589-9.886
	c-6.656-4.221-10.842-10.254-11.784-16.986c-1.12-7.999,2.457-14.408,5.654-18.377c2.266-2.812,2.206-6.839-0.142-9.582
	c-5.171-6.042-7.497-13.149-6.549-20.011c1.886-13.653,16.659-23.932,34.404-23.972c0.076,0.003,0.152,0.003,0.229,0.003
	c22.572,0,58.387,8.737,87.735,27.759C131.715,154.443,126.249,159.841,121.214,165.563z M425.599,235.63
	c-3.932-20.582-12.353-39.792-24.323-56.773c20.912-2.749,39.558,4.661,44.11,18.724C449.451,210.144,441.153,225.37,425.599,235.63
	z"/>
<g>
</g>
<g>
</g>
<g>
</g>
<g>
</g>
<g>
</g>
<g>
</g>
<g>
</g>
<g>
</g>
<g>
</g>
<g>
</g>
<g>
</g>
<g>
</g>
<g>
</g>
<g>
</g>
<g>
</g>
</svg>
