<?xml version="1.0" encoding="iso-8859-1"?>
<!-- Generator: Adobe Illustrator 19.0.0, SVG Export Plug-In . SVG Version: 6.00 Build 0)  -->
<svg version="1.1" id="Capa_1" xmlns="http://www.w3.org/2000/svg" xmlns:xlink="http://www.w3.org/1999/xlink" x="0px" y="0px"
	 viewBox="0 0 511.999 511.999" style="enable-background:new 0 0 511.999 511.999;" xml:space="preserve">
<path style="fill:#F27281;" d="M300.884,13.027c-1.629-2.755-5.317-3.405-7.79-1.373c-4.33,3.559-11.182,9.603-18.391,17.585
	c-5.597-8.802-11.116-15.717-14.691-19.889c-2.113-2.466-5.913-2.466-8.026,0c-3.575,4.173-9.094,11.087-14.691,19.889
	c-7.209-7.982-14.061-14.027-18.391-17.585c-2.473-2.032-6.161-1.382-7.79,1.373c-7.65,12.941-26.231,48.875-20.097,83.668
	c5.683,32.23,25.979,48.652,46.797,44.981c1.959-0.345,13.805,0.929,18.184,0.929s16.225-1.274,18.184-0.929
	c20.817,3.671,41.114-12.751,46.797-44.981C327.115,61.902,308.534,25.968,300.884,13.027z"/>
<path style="opacity:0.1;enable-background:new    ;" d="M255.999,69.333c-15.884,0-31.033,4.539-44.869,12.758
	c-3.317,1.97-7.286,2.502-11.032,1.577c-3.382-0.835-6.813-1.478-10.285-1.929c-0.031,4.962,0.326,9.97,1.206,14.956
	c5.683,32.23,25.979,48.652,46.797,44.981c1.959-0.345,13.805,0.929,18.184,0.929s16.225-1.274,18.184-0.929
	c20.817,3.671,41.114-12.751,46.797-44.981c0.879-4.986,1.237-9.994,1.206-14.956c-3.472,0.451-6.903,1.095-10.285,1.929
	c-3.746,0.924-7.715,0.393-11.032-1.577C287.033,73.872,271.883,69.333,255.999,69.333z"/>
<ellipse style="fill:#67C787;" cx="178.119" cy="268.41" rx="121.66" ry="165.16"/>
<ellipse style="opacity:0.15;enable-background:new    ;" cx="178.119" cy="268.41" rx="121.66" ry="165.16"/>
<path style="opacity:0.05;enable-background:new    ;" d="M161.212,349.751C72.173,309.457,91.39,187.533,118.963,124.06
	C81.681,152.281,56.46,206.341,56.46,268.406c0,91.218,54.467,165.165,121.656,165.165c27.083,0,52.096-12.021,72.311-32.339
	C238.574,389.927,213.338,373.34,161.212,349.751z"/>
<ellipse style="fill:#67C787;" cx="333.879" cy="268.41" rx="121.66" ry="165.16"/>
<ellipse style="opacity:0.15;enable-background:new    ;" cx="333.879" cy="268.41" rx="121.66" ry="165.16"/>
<ellipse style="fill:#67C787;" cx="255.999" cy="262.59" rx="118.22" ry="170.98"/>
<g>
	<ellipse style="fill:#F27281;" cx="186.759" cy="248.91" rx="25.548" ry="20.345"/>
	<ellipse style="fill:#F27281;" cx="325.239" cy="248.91" rx="25.548" ry="20.345"/>
</g>
<path style="fill:#F5D7B7;" d="M438.662,504.5H73.336c-23.876,0-43.232-19.356-43.232-43.232l0,0
	c0-23.876,19.356-43.232,43.232-43.232h365.326c23.876,0,43.232,19.356,43.232,43.232l0,0
	C481.894,485.144,462.538,504.5,438.662,504.5z"/>
<path style="fill:#F2CAA7;" d="M73.336,418.036c-23.876,0-43.232,19.356-43.232,43.232l0,0c0,23.876,19.356,43.232,43.232,43.232
	h95.014c-29.716-21.643-25.72-67.902-16.442-86.464H73.336z"/>
<g>
	<circle style="fill:#DBB695;" cx="425.049" cy="463.27" r="7.283"/>
	<circle style="fill:#DBB695;" cx="356.499" cy="468.49" r="7.283"/>
	<circle style="fill:#DBB695;" cx="216.119" cy="475.77" r="7.283"/>
	<circle style="fill:#DBB695;" cx="293.609" cy="453.99" r="7.283"/>
	<circle style="fill:#DBB695;" cx="145.059" cy="445" r="7.283"/>
	<circle style="fill:#DBB695;" cx="84.629" cy="468.49" r="7.283"/>
</g>
<path d="M201.649,236.112c4.142,0,7.5-3.358,7.5-7.5v-9.021c0-4.142-3.358-7.5-7.5-7.5s-7.5,3.358-7.5,7.5v9.021
	C194.149,232.754,197.507,236.112,201.649,236.112z M275.256,223.357c-3.123-2.721-7.86-2.396-10.582,0.727
	c-2.19,2.514-5.352,3.956-8.675,3.956c-3.322,0-6.484-1.442-8.675-3.956c-2.722-3.123-7.458-3.448-10.582-0.727
	c-3.123,2.722-3.448,7.459-0.727,10.582c5.04,5.784,12.324,9.1,19.983,9.1c7.659,0,14.942-3.317,19.983-9.1
	C278.704,230.817,278.378,226.079,275.256,223.357z M438.662,410.536h-31.343c9.742-8.992,18.513-19.739,26.079-31.963l5.486,2.826
	c1.099,0.566,2.272,0.834,3.429,0.834c2.719,0,5.343-1.483,6.673-4.067c1.898-3.683,0.449-8.205-3.232-10.102l-4.999-2.575
	c0.687-1.353,1.371-2.71,2.031-4.091c11.534-24.135,18.329-51.628,19.897-80.184l5.849-2.818c3.732-1.798,5.3-6.28,3.502-10.012
	c-1.644-3.413-5.535-5.006-9.04-3.88c-0.647-38.888-10.921-75.613-28.739-104.961l12.527-11.388
	c3.065-2.786,3.291-7.529,0.505-10.594c-2.787-3.066-7.53-3.29-10.595-0.504l-10.89,9.9c-6.339-8.563-13.393-16.319-21.114-23.081
	c-3.115-2.728-7.854-2.415-10.583,0.701s-2.416,7.854,0.7,10.583c7.283,6.379,13.925,13.743,19.859,21.922l-3.6,3.273
	c-3.065,2.786-3.291,7.529-0.505,10.594c1.48,1.629,3.513,2.455,5.552,2.455c1.801,0,3.606-0.644,5.043-1.951l1.787-1.625
	c16.067,27.563,25.098,62.062,25.098,98.579c0,1.081-0.027,2.155-0.043,3.232l-17.243,8.307c-3.732,1.798-5.3,6.28-3.502,10.012
	c1.292,2.682,3.972,4.247,6.762,4.247c1.092,0,2.201-0.24,3.25-0.745l9.794-4.719c-2.414,25.345-9.268,49.272-19.687,69.852
	l-8.409-4.331c-3.683-1.897-8.206-0.449-10.102,3.233c-1.897,3.683-0.449,8.205,3.232,10.102l7.899,4.069
	c-10.065,16.029-22.52,29.361-36.817,38.87h-56.694c14.055-13.48,26.098-30.905,35.366-51.398
	c13.004-28.752,19.877-62.138,19.877-96.548c0-47.18-12.77-91.633-35.957-125.169c-1.721-2.489-3.489-4.887-5.293-7.212
	c1.693-3.116,0.983-7.091-1.872-9.401c-2.093-1.694-4.819-2.068-7.187-1.244c-2.692-2.871-5.459-5.569-8.288-8.107
	c3.572-0.465,7.163-0.713,10.758-0.713c10.699,0,21.291,2.055,31.481,6.106c0.909,0.361,1.847,0.533,2.77,0.533
	c2.981,0,5.803-1.791,6.972-4.731c1.53-3.849-0.35-8.21-4.198-9.74c-11.962-4.756-24.419-7.168-37.024-7.168
	c-1.732,0-3.462,0.063-5.191,0.155c5.464-36.306-13.017-72.589-21.352-86.687c-1.893-3.201-5.075-5.407-8.733-6.051
	c-3.657-0.645-7.402,0.34-10.274,2.7c-3.243,2.665-7.688,6.537-12.62,11.451c-3.86-5.432-7.398-9.797-10.004-12.839
	C263.275,1.63,259.737,0,256,0c-0.001,0-0.001,0-0.001,0c-3.736,0-7.275,1.629-9.708,4.47c-2.607,3.043-6.144,7.407-10.005,12.839
	c-4.932-4.913-9.376-8.785-12.62-11.45c-2.873-2.361-6.618-3.346-10.276-2.7c-3.657,0.645-6.84,2.851-8.731,6.051
	c-8.335,14.098-26.816,50.381-21.352,86.687c-1.729-0.092-3.459-0.155-5.191-0.155c-24.002,0-46.944,8.619-66.874,24.766
	l-12.478-11.344c-3.064-2.787-7.809-2.56-10.594,0.504c-2.787,3.065-2.561,7.808,0.504,10.594l11.427,10.388
	c-4.928,5.007-9.625,10.515-14.047,16.519c-12.944,17.574-22.734,38.25-28.999,60.765l-0.837-0.505
	c-3.547-2.143-8.157-1.001-10.296,2.545c-2.141,3.546-1.001,8.156,2.545,10.296l4.928,2.974c-2.92,14.547-4.433,29.702-4.433,45.162
	c0,24.414,3.82,48.302,11.132,70.285l-4.87,1.088c-4.042,0.903-6.587,4.912-5.684,8.955c0.78,3.492,3.877,5.866,7.313,5.866
	c0.542,0,1.092-0.059,1.642-0.182l6.923-1.547c1.208,2.881,2.462,5.732,3.798,8.526c9.313,19.488,21.384,36.139,35.467,49.138
	H73.337c-27.974,0-50.732,22.758-50.732,50.732s22.758,50.732,50.732,50.732h25.891c4.142,0,7.5-3.358,7.5-7.5s-3.358-7.5-7.5-7.5
	H73.337c-19.703,0-35.732-16.029-35.732-35.732s16.029-35.732,35.732-35.732h53.201c0.005,0,0.009,0.001,0.014,0.001
	s0.01-0.001,0.016-0.001h178.714c0.005,0,0.011,0.001,0.016,0.001s0.009-0.001,0.014-0.001h80.111c0.008,0,0.016,0.001,0.024,0.001
	c0.007,0,0.014-0.001,0.021-0.001h53.195c19.702,0,35.731,16.029,35.731,35.732s-16.029,35.732-35.731,35.732H138.777
	c-4.142,0-7.5,3.358-7.5,7.5s3.358,7.5,7.5,7.5h299.886c27.974,0,50.731-22.758,50.731-50.732
	C489.394,433.294,466.636,410.536,438.662,410.536z M216.213,19.181c4.145,3.534,9.706,8.65,15.517,15.084
	c1.569,1.739,3.855,2.639,6.196,2.447c2.335-0.197,4.442-1.473,5.699-3.449c4.548-7.151,9.015-12.971,12.375-17.035
	c3.36,4.063,7.827,9.883,12.376,17.035c1.257,1.976,3.364,3.252,5.698,3.449c2.335,0.196,4.626-0.707,6.196-2.447
	c5.813-6.437,11.373-11.553,15.517-15.085c21.52,37.655,19.654,65.744,17.809,76.21c-0.152,0.863-0.337,1.73-0.52,2.596
	c-1.947,0.42-3.887,0.883-5.815,1.421c-15.891-10.026-33.265-15.301-51.262-15.301s-35.37,5.275-51.261,15.302
	c-1.928-0.538-3.868-1.001-5.815-1.421c-0.183-0.866-0.367-1.733-0.519-2.595C196.559,84.925,194.697,56.833,216.213,19.181z
	 M128.828,410.536c-20.461-13.607-37.141-35.064-48.459-61.005l11.926-2.664c4.043-0.903,6.587-4.912,5.684-8.955
	s-4.914-6.588-8.955-5.684l-14.137,3.159c-7.052-20.621-10.927-43.423-10.927-66.98c0-12.695,1.1-25.041,3.161-36.876l2.762,1.667
	c1.212,0.732,2.549,1.08,3.868,1.08c2.541,0,5.019-1.292,6.428-3.626c2.141-3.546,1.001-8.156-2.545-10.296l-7.187-4.338
	c7.79-30.448,22.167-56.632,40.759-75.271l3.096,2.814c1.437,1.307,3.242,1.951,5.043,1.951c2.04,0,4.072-0.827,5.552-2.455
	c2.787-3.065,2.561-7.808-0.504-10.594l-1.879-1.709c16.464-12.737,35.429-20.012,55.604-20.012c3.595,0,7.186,0.248,10.758,0.713
	c-8.134,7.297-15.731,15.973-22.639,25.965c-0.457,0.661-0.903,1.334-1.353,2.004c-3.411-0.982-7.141,0.569-8.78,3.859
	c-1.436,2.881-0.838,6.237,1.236,8.46c-17.531,31.401-27.061,70.103-27.061,110.846c0,34.41,6.874,67.796,19.877,96.549
	c9.268,20.493,21.311,37.918,35.367,51.398L128.828,410.536L128.828,410.536z M302.938,410.536h-93.877
	c-38.809-27.021-63.784-84.755-63.784-147.947c0-39.357,9.469-75.508,25.219-103.753l19.577,9.756
	c1.075,0.535,2.215,0.789,3.339,0.789c2.755,0,5.407-1.523,6.719-4.156c1.847-3.708,0.339-8.21-3.368-10.058l-18.321-9.13
	c8.984-13.036,19.463-23.829,31.018-31.765c0.507-0.262,0.978-0.588,1.415-0.96c13.789-9.123,29.062-14.205,45.124-14.205
	s31.334,5.082,45.123,14.204c0.439,0.374,0.913,0.701,1.422,0.964c6.57,4.513,12.791,9.949,18.588,16.196l-11.015,13.613
	c-2.605,3.22-2.107,7.943,1.112,10.548c1.389,1.124,3.056,1.67,4.713,1.67c2.186,0,4.353-0.951,5.835-2.783l9.1-11.247
	c22.02,29.9,35.844,72.767,35.844,120.316c0,37.407-8.761,72.896-23.95,101.246c0.647-3.115-0.749-6.421-3.671-8.062l-22.113-12.418
	c-3.614-2.028-8.184-0.745-10.212,2.867c-2.028,3.611-0.745,8.184,2.866,10.212l22.113,12.419c1.162,0.652,2.423,0.962,3.666,0.962
	c1.922,0,3.799-0.747,5.208-2.107C330.481,385.511,317.714,400.248,302.938,410.536z M218,333l-23.495,8.621
	c-3.889,1.427-5.884,5.736-4.458,9.625c1.114,3.037,3.985,4.918,7.042,4.918c0.858,0,1.73-0.148,2.583-0.461l23.495-8.621
	c3.889-1.427,5.884-5.736,4.457-9.625C226.198,333.569,221.889,331.575,218,333z M317.849,228.612v-9.021c0-4.142-3.357-7.5-7.5-7.5
	s-7.5,3.358-7.5,7.5v9.021c0,4.142,3.357,7.5,7.5,7.5S317.849,232.754,317.849,228.612z"/>
<g>
</g>
<g>
</g>
<g>
</g>
<g>
</g>
<g>
</g>
<g>
</g>
<g>
</g>
<g>
</g>
<g>
</g>
<g>
</g>
<g>
</g>
<g>
</g>
<g>
</g>
<g>
</g>
<g>
</g>
</svg>
