<?xml version="1.0" encoding="iso-8859-1"?>
<!-- Generator: Adobe Illustrator 19.0.0, SVG Export Plug-In . SVG Version: 6.00 Build 0)  -->
<svg version="1.1" id="Capa_1" xmlns="http://www.w3.org/2000/svg" xmlns:xlink="http://www.w3.org/1999/xlink" x="0px" y="0px"
	 viewBox="0 0 511.999 511.999" style="enable-background:new 0 0 511.999 511.999;" xml:space="preserve">
<path style="fill:#67C787;" d="M256,204.238c-137.243,0-248.5,54.795-248.5,122.388S118.757,449.012,256,449.012
	c33.224,0,64.92-3.217,93.887-9.045c5.229-1.052,8.129-6.679,5.912-11.53l-16.105-35.247c-1.391-3.045,1.379-6.339,4.617-5.491
	l80.221,21.018c7.044,1.845,14.528,0.804,20.83-2.845c36.879-21.353,59.138-49.019,59.138-79.248
	C504.5,259.031,393.243,204.238,256,204.238z"/>
<path style="opacity:0.1;enable-background:new    ;" d="M450.871,250.68C405.354,222.389,334.984,204.238,256,204.238
	c-90.156,0-169.095,23.646-212.652,59.032c15.288,72.388,94.29,118.945,202.763,118.945c108.909,0,208.978-55.589,204.309-127.756
	C450.337,253.186,450.733,251.938,450.871,250.68z"/>
<path style="opacity:0.1;enable-background:new    ;" d="M216.233,409.25c-0.955,0-1.925-0.184-2.862-0.571
	c-3.828-1.583-5.648-5.969-4.066-9.796l36.559-88.433c1.583-3.828,5.971-5.647,9.796-4.066c3.828,1.583,5.648,5.969,4.066,9.796
	l-36.559,88.433C221.973,407.504,219.178,409.25,216.233,409.25z"/>
<g>
	<path style="fill:#EAC268;" d="M82.692,355.943c-7.404,0-14.55-4.028-18.193-11.054c-5.206-10.039-1.287-22.396,8.751-27.602
		l55.282-28.665c10.04-5.206,22.397-1.287,27.602,8.751c5.206,10.039,1.287,22.396-8.751,27.601L92.1,353.64
		C89.088,355.202,85.866,355.943,82.692,355.943z"/>
	<path style="fill:#EAC268;" d="M429.308,355.943c-3.174,0-6.395-0.74-9.408-2.303l-55.282-28.665
		c-10.038-5.205-13.957-17.563-8.751-27.601c5.206-10.038,17.563-13.958,27.602-8.751l55.282,28.665
		c10.038,5.205,13.957,17.563,8.751,27.602C443.858,351.914,436.711,355.943,429.308,355.943z"/>
</g>
<path style="opacity:0.05;enable-background:new    ;" d="M156.133,297.374c-5.204-10.038-17.561-13.957-27.602-8.751
	l-47.908,24.841c7.806,7.816,16.528,15.095,26.114,21.726c3.027,2.094,6.126,4.104,9.281,6.048l31.363-16.263
	C157.421,319.77,161.339,307.413,156.133,297.374z"/>
<path style="opacity:0.05;enable-background:new    ;" d="M383.468,288.623c-10.038-5.206-22.396-1.286-27.602,8.751
	c-5.206,10.039-1.287,22.396,8.751,27.601l31.363,16.263c3.154-1.944,6.254-3.954,9.281-6.048
	c9.587-6.631,18.308-13.91,26.114-21.726L383.468,288.623z"/>
<path style="fill:#F7D88B;" d="M385.551,99.208c-2.909-1.323-5.119-3.879-5.819-6.997c-3.75-16.726-18.683-29.225-36.541-29.225
	c-11.298,0-21.428,5.003-28.295,12.914c-1.86,2.143-4.607,3.311-7.425,2.978c-15.835-1.871-32.971-2.864-51.472-2.864
	s-35.637,0.993-51.472,2.864c-2.818,0.333-5.565-0.835-7.425-2.978c-6.867-7.911-16.997-12.914-28.295-12.914
	c-17.858,0-32.79,12.499-36.54,29.225c-0.699,3.118-2.91,5.673-5.819,6.997c-59.141,26.906-81.874,74.26-74.758,126.134
	C62.203,301.967,143.163,362.311,256,362.311s193.797-60.345,204.309-136.969C467.425,173.468,444.692,126.114,385.551,99.208z"/>
<g>
	<path style="fill:#F4CF7A;" d="M256,264.32c-46.456,0-84.948,35.951-91.828,82.909c27.055,9.656,58.007,15.083,91.828,15.083
		s64.773-5.426,91.828-15.083C340.948,300.271,302.456,264.32,256,264.32z"/>
	<path style="fill:#F4CF7A;" d="M145.386,99.01c0.368-10.254,4.262-27.259,17.107-35.49c-14.979,2.545-26.927,13.981-30.226,28.69
		c-0.699,3.119-2.911,5.674-5.82,6.998c-59.139,26.906-81.872,74.26-74.756,126.133c10.433,76.05,90.268,136.053,201.782,136.948
		c-175.91-52.651-170.44-216.776-112.201-255.925C143.742,104.705,145.279,101.984,145.386,99.01z"/>
</g>
<g>
	<ellipse style="fill:#F27281;" cx="163.08" cy="158.88" rx="34.29" ry="27.304"/>
	<ellipse style="fill:#F27281;" cx="348.92" cy="158.88" rx="34.29" ry="27.304"/>
</g>
<path style="fill:#464D59;" d="M256,162.738L256,162.738c-13.719,0-24.841-11.122-24.841-24.841v-18.06
	c0-3.745,3.036-6.781,6.781-6.781h36.12c3.745,0,6.781,3.036,6.781,6.781v18.06C280.841,151.617,269.719,162.738,256,162.738z"/>
<g>
	<path style="fill:#EAC268;" d="M176.135,382.786c-11.308,0-20.475-9.167-20.475-20.475v-79.042
		c0-11.308,9.167-20.475,20.475-20.475s20.475,9.167,20.475,20.475v79.043C196.61,373.619,187.443,382.786,176.135,382.786z"/>
	<path style="fill:#EAC268;" d="M335.865,382.786c-11.308,0-20.475-9.167-20.475-20.475v-79.042
		c0-11.308,9.167-20.475,20.475-20.475s20.475,9.167,20.475,20.475v79.043C356.34,373.619,347.173,382.786,335.865,382.786z"/>
</g>
<path d="M237.94,105.556c-7.875,0-14.281,6.407-14.281,14.281v18.06c0,17.833,14.508,32.341,32.341,32.341
	s32.341-14.508,32.341-32.341v-18.06c0-7.875-6.407-14.281-14.281-14.281H237.94z M273.341,137.897
	c0,9.562-7.779,17.341-17.341,17.341c-9.562,0-17.341-7.779-17.341-17.341v-17.341h34.683L273.341,137.897L273.341,137.897z
	 M161.308,111.919v14.717c0,4.142,3.358,7.5,7.5,7.5s7.5-3.358,7.5-7.5v-14.717c0-4.142-3.358-7.5-7.5-7.5
	S161.308,107.777,161.308,111.919z M335.692,111.919v14.717c0,4.142,3.358,7.5,7.5,7.5s7.5-3.358,7.5-7.5v-14.717
	c0-4.142-3.358-7.5-7.5-7.5S335.692,107.777,335.692,111.919z M462.435,249.298c2.446-7.506,4.238-15.171,5.304-22.936
	c3.755-27.367-0.323-52.512-12.121-74.737c-1.942-3.659-6.482-5.049-10.141-3.108c-3.659,1.942-5.05,6.482-3.108,10.141
	c10.291,19.388,13.827,41.48,10.509,65.664c-3.247,23.668-13.936,46.418-30.913,65.792c-14.996,17.115-34.94,31.656-58.126,42.459
	v-49.304c0-4.142-3.358-7.5-7.5-7.5s-7.5,3.358-7.5,7.5v60.59c0,0.012,0,0.025,0,0.037v18.417c0,7.154-5.82,12.975-12.975,12.975
	c-7.154,0-12.975-5.82-12.975-12.975v-5.982c0-0.017,0-0.034,0-0.052v-73.01c0-4.142-3.358-7.5-7.5-7.5s-7.5,3.358-7.5,7.5v66.888
	c-16.623,3.083-34.044,4.655-51.89,4.655s-35.267-1.572-51.89-4.655v-66.888c0-4.142-3.358-7.5-7.5-7.5s-7.5,3.358-7.5,7.5v73.009
	c0,0.017,0,0.034,0,0.052v5.982c0,7.154-5.821,12.975-12.975,12.975s-12.975-5.82-12.975-12.975v-18.417c0-0.012,0-0.025,0-0.037
	v-60.59c0-4.142-3.358-7.5-7.5-7.5s-7.5,3.358-7.5,7.5v49.305c-23.186-10.803-43.13-25.344-58.126-42.459
	C73.057,270.74,62.367,247.99,59.12,224.322c-7.181-52.348,17.833-94.357,70.434-118.288c5.09-2.316,8.839-6.87,10.031-12.182
	c3.036-13.539,15.326-23.366,29.222-23.366c8.683,0,16.932,3.766,22.631,10.331c3.53,4.066,8.748,6.122,13.969,5.51
	c15.793-1.866,32.814-2.812,50.592-2.812s34.799,0.946,50.592,2.812c5.22,0.62,10.439-1.443,13.969-5.51
	c5.699-6.565,13.948-10.331,22.631-10.331c13.897,0,26.186,9.827,29.222,23.366c1.191,5.313,4.941,9.867,10.031,12.182
	c15.575,7.086,28.891,15.844,39.577,26.03c2.998,2.858,7.745,2.745,10.603-0.254c2.858-2.998,2.744-7.746-0.254-10.603
	c-11.902-11.345-26.609-21.044-43.715-28.826c-0.836-0.381-1.437-1.058-1.606-1.811c-4.558-20.33-23.003-35.084-43.859-35.084
	c-13.031,0-25.409,5.648-33.958,15.498c-0.267,0.308-0.601,0.484-0.881,0.446c-16.375-1.934-33.988-2.915-52.352-2.915
	s-35.978,0.981-52.353,2.915c-0.276,0.034-0.613-0.138-0.881-0.447c-8.55-9.849-20.928-15.497-33.958-15.497
	c-20.855,0-39.3,14.755-43.859,35.084c-0.169,0.753-0.769,1.43-1.606,1.811c-30.049,13.671-52.139,32.8-65.658,56.857
	c-12.622,22.462-17.265,49.131-13.424,77.124c1.065,7.766,2.857,15.431,5.304,22.936C17.117,271.594,0,298.236,0,326.624
	c0,26.073,14.734,51.081,42.61,72.319c1.358,1.035,2.955,1.535,4.54,1.535c2.26,0,4.496-1.018,5.971-2.955
	c2.51-3.295,1.874-8.001-1.42-10.511C27.691,368.719,15,347.838,15,326.624c0-15.908,7.206-39.302,40.168-62.943
	c5.87,12.889,13.779,25.127,23.584,36.318c1.203,1.372,2.436,2.728,3.695,4.07l-12.65,6.559c-6.633,3.44-11.53,9.257-13.789,16.38
	c-2.258,7.123-1.608,14.699,1.832,21.332c4.83,9.315,14.353,15.102,24.852,15.102c4.446,0,8.893-1.087,12.86-3.145l36.564-18.959
	c5.185,2.739,10.538,5.294,16.043,7.654v13.318c0,15.425,12.549,27.975,27.975,27.975c14.394,0,26.279-10.928,27.805-24.923
	c16.747,2.943,34.211,4.448,52.06,4.448s35.313-1.505,52.06-4.448c1.384,12.693,11.291,22.857,23.861,24.639
	c-0.283,2.097,0.023,4.274,0.951,6.305l16.105,35.246c0.041,0.089,0.15,0.327-0.013,0.645c-0.173,0.339-0.461,0.397-0.557,0.416
	c-29.345,5.904-60.435,8.898-92.408,8.898c-66.08,0-127.853-12.728-173.941-35.839c-3.702-1.858-8.21-0.36-10.066,3.342
	c-1.857,3.703-0.36,8.209,3.342,10.066C123.47,443.219,187.631,456.512,256,456.512c32.964,0,65.05-3.093,95.366-9.192
	c4.76-0.957,8.755-3.984,10.959-8.303c2.197-4.306,2.305-9.298,0.296-13.697l-13.014-28.479l73.024,19.132
	c8.993,2.357,18.4,1.074,26.488-3.609c40.549-23.478,62.88-53.927,62.88-85.738C512,298.236,494.883,271.594,462.435,249.298z
	 M88.648,346.982c-1.87,0.969-3.873,1.461-5.956,1.461c-4.874,0-9.294-2.684-11.535-7.007c-1.596-3.077-1.897-6.59-0.85-9.894
	c1.047-3.304,3.318-6.001,6.395-7.597l17.105-8.869c7.047,6.228,14.736,12.021,22.974,17.318L88.648,346.982z M418.192,315.076
	l17.105,8.869c3.077,1.595,5.348,4.293,6.395,7.597c1.048,3.304,0.746,6.817-0.85,9.894c-2.241,4.322-6.662,7.007-11.536,7.007
	c-2.082,0-4.086-0.491-5.956-1.461l-28.133-14.587C403.457,327.097,411.146,321.304,418.192,315.076z M441.604,399.382
	c-4.643,2.688-10.029,3.427-15.17,2.081l-71.48-18.727c5.462-5.109,8.886-12.372,8.886-20.423v-13.318
	c5.505-2.36,10.859-4.915,16.044-7.654l36.563,18.959c3.967,2.058,8.414,3.145,12.861,3.145c10.499,0,20.021-5.787,24.852-15.102
	c3.44-6.634,4.09-14.21,1.832-21.333c-2.259-7.123-7.156-12.94-13.79-16.379l-12.65-6.559c1.259-1.341,2.492-2.697,3.695-4.07
	c9.806-11.191,17.715-23.429,23.584-36.318C489.794,287.322,497,310.716,497,326.624C497,352.859,477.327,378.698,441.604,399.382z"
	/>
<g>
</g>
<g>
</g>
<g>
</g>
<g>
</g>
<g>
</g>
<g>
</g>
<g>
</g>
<g>
</g>
<g>
</g>
<g>
</g>
<g>
</g>
<g>
</g>
<g>
</g>
<g>
</g>
<g>
</g>
</svg>
