<?xml version="1.0" encoding="iso-8859-1"?>
<!-- Generator: Adobe Illustrator 19.0.0, SVG Export Plug-In . SVG Version: 6.00 Build 0)  -->
<svg version="1.1" id="Capa_1" xmlns="http://www.w3.org/2000/svg" xmlns:xlink="http://www.w3.org/1999/xlink" x="0px" y="0px"
	 viewBox="0 0 512 512" style="enable-background:new 0 0 512 512;" xml:space="preserve">
<path style="fill:#67C787;" d="M134.438,37.396c-10.148-0.909-18.664,7.607-17.755,17.755c2.05,22.881,10.196,62.757,40.799,93.359
	c23.351,23.351,62.079,30.598,81.496,11.18s12.17-58.145-11.18-81.496C197.194,47.591,157.319,39.446,134.438,37.396z"/>
<path style="opacity:0.1;enable-background:new    ;" d="M208.977,137.191c-1.919,0-3.839-0.733-5.303-2.197L158.06,89.379
	c-2.929-2.929-2.929-7.678,0-10.606c2.929-2.929,7.678-2.929,10.606,0l45.614,45.614c2.929,2.929,2.929,7.678,0,10.606
	C212.816,136.458,210.896,137.191,208.977,137.191z"/>
<path style="fill:#B38A82;" d="M255.999,188.553c-12.362,0-22.383-10.021-22.383-22.383c0-0.906-0.009-1.959-0.019-3.149
	c-0.191-22.783-0.772-92.114,42.662-147.036c7.668-9.695,21.746-11.339,31.441-3.672c9.695,7.668,11.34,21.745,3.672,31.441
	c-33.651,42.549-33.169,100.01-33.011,118.891c0.012,1.332,0.021,2.511,0.021,3.525
	C278.383,178.532,268.361,188.553,255.999,188.553z"/>
<path style="opacity:0.1;enable-background:new    ;" d="M279.414,132.441c-14.596,4.729-30.314,4.92-45.001,0.569
	c-0.956,12.916-0.871,23.417-0.815,30.012c0.01,1.19,0.019,2.244,0.019,3.149c0,12.362,10.021,22.383,22.383,22.383
	c12.361,0,22.383-10.021,22.383-22.383c0-1.014-0.009-2.192-0.021-3.525C278.309,156.279,278.221,145.526,279.414,132.441z"/>
<path style="fill:#F27281;" d="M356.651,133.388c-22.676,0-43.909,6.163-62.122,16.905c-23.738,14-53.323,14-77.06,0
	c-18.212-10.742-39.446-16.905-62.122-16.905c-67.646,0-122.483,54.837-122.483,122.482c0,72.595,66.779,248.629,173.308,248.629
	c15.894,0,31.502-6.224,42.23-11.75c4.759-2.452,10.432-2.452,15.191,0c10.728,5.527,26.336,11.75,42.23,11.75
	c106.53,0,173.308-176.033,173.308-248.629C479.134,188.224,424.296,133.388,356.651,133.388z"/>
<path style="fill:#EA6376;" d="M174.396,134.877c-6.209-0.97-12.566-1.49-19.047-1.49c-67.646,0-122.483,54.837-122.483,122.483
	c0,72.595,66.779,248.629,173.308,248.629c14.515,0,28.78-5.191,39.319-10.301C139.179,409.3,115.255,219.415,174.396,134.877z"/>
<path style="fill:#67C787;" d="M377.561,37.396c10.148-0.909,18.664,7.607,17.755,17.755c-2.05,22.881-10.196,62.757-40.799,93.359
	c-23.351,23.351-62.079,30.598-81.496,11.18s-12.17-58.145,11.18-81.496C314.805,47.591,354.681,39.446,377.561,37.396z"/>
<path style="opacity:0.1;enable-background:new    ;" d="M303.022,137.191c-1.919,0-3.839-0.733-5.303-2.197
	c-2.929-2.929-2.929-7.678,0-10.606l45.614-45.614c2.929-2.929,7.678-2.929,10.606,0c2.929,2.929,2.929,7.678,0,10.606
	l-45.614,45.614C306.861,136.458,304.941,137.191,303.022,137.191z"/>
<g>
	<ellipse style="fill:#E4A2B7;" cx="167.764" cy="294.297" rx="32.556" ry="25.927"/>
	<ellipse style="fill:#E4A2B7;" cx="344.228" cy="294.297" rx="32.556" ry="25.927"/>
</g>
<path d="M302.262,266.083c0,4.142,3.358,7.5,7.5,7.5c4.142,0,7.5-3.358,7.5-7.5c0-4.409,3.587-7.996,7.996-7.996
	c4.409,0,7.996,3.587,7.996,7.996c0,4.142,3.358,7.5,7.5,7.5c4.142,0,7.5-3.358,7.5-7.5c0-12.68-10.316-22.997-22.997-22.997
	C312.579,243.086,302.262,253.403,302.262,266.083z M474.145,200.209c-1.777-3.741-6.25-5.337-9.992-3.56
	c-3.742,1.776-5.336,6.249-3.56,9.992c7.326,15.437,11.041,32,11.041,49.229c0,43.954-23.008,107.648-45.734,147.847
	C406.204,438.555,364.414,497,305.825,497c-14.548,0-29.127-5.937-38.794-10.918c-6.907-3.558-15.153-3.558-22.063,0.001
	c-9.667,4.98-24.246,10.917-38.794,10.917c-18.073,0-35.948-5.572-53.129-16.56c-3.491-2.233-8.128-1.212-10.359,2.277
	c-2.232,3.489-1.213,8.127,2.277,10.359C164.596,505.633,185.19,512,206.175,512c17.555,0,34.522-6.843,45.664-12.583
	c2.606-1.343,5.717-1.342,8.322-0.001c11.143,5.741,28.111,12.583,45.665,12.583c26.7,0,52.543-10.217,76.813-30.37
	c20.566-17.076,39.514-40.806,56.318-70.531c32.757-57.94,47.677-121.082,47.677-155.229
	C486.634,236.399,482.432,217.672,474.145,200.209z M266.782,279.266c-2.723,3.125-6.653,4.916-10.783,4.916
	s-8.06-1.792-10.783-4.916c-2.722-3.122-7.459-3.447-10.582-0.727c-3.123,2.722-3.448,7.459-0.727,10.582
	c5.572,6.394,13.624,10.061,22.092,10.061c8.467,0,16.519-3.667,22.092-10.061c2.721-3.123,2.396-7.86-0.727-10.582
	C274.242,275.818,269.503,276.143,266.782,279.266z M163.744,266.083c0,4.142,3.358,7.5,7.5,7.5s7.5-3.358,7.5-7.5
	c0-4.409,3.587-7.996,7.996-7.996s7.996,3.587,7.996,7.996c0,4.142,3.358,7.5,7.5,7.5s7.5-3.358,7.5-7.5
	c0-12.68-10.316-22.997-22.997-22.997S163.744,253.403,163.744,266.083z M61.832,351.771c-13.441-35.265-21.467-71.116-21.467-95.9
	c0-63.402,51.581-114.982,114.982-114.982c20.551,0,40.714,5.486,58.311,15.865c17.035,10.048,36.893,13.651,56.337,10.335
	c8.799,7.561,20.558,11.227,33.213,11.227c19.258,0,40.574-8.463,56.611-24.501c3.898-3.898,7.438-7.942,10.672-12.075
	c25.431,3.064,49.264,14.626,67.486,32.855c1.465,1.465,3.385,2.198,5.305,2.198c1.919,0,3.838-0.732,5.302-2.195
	c2.93-2.929,2.931-7.677,0.003-10.607c-18.751-18.759-42.766-31.283-68.62-35.993c16.253-26.895,21.299-55.223,22.818-72.176
	c0.632-7.057-1.882-13.981-6.898-18.997s-11.94-7.526-18.996-6.898c-13.822,1.239-35.21,4.833-57.215,14.924
	c3.229-5.547,4.579-11.958,3.822-18.447c-0.926-7.928-4.884-15.021-11.145-19.973c-12.922-10.22-31.753-8.021-41.976,4.902
	c-14.918,18.863-26.098,40.794-33.499,65.605c-1.218-1.396-2.478-2.745-3.778-4.045c-32.672-32.672-75.42-40.943-97.993-42.966
	c-7.052-0.631-13.98,1.882-18.996,6.897c-5.016,5.016-7.531,11.94-6.898,18.997c1.726,19.257,7.168,46.434,22.787,72.172
	C71.43,139.024,25.365,192.166,25.365,255.87c0,48.511,29.754,147.871,85.619,208.25c1.478,1.597,3.489,2.406,5.507,2.406
	c1.822,0,3.649-0.66,5.092-1.995c3.04-2.813,3.225-7.558,0.411-10.599C98.721,428.778,77.355,392.497,61.832,351.771z
	 M378.23,44.866c2.618-0.236,5.187,0.701,7.051,2.564c1.864,1.864,2.799,4.434,2.564,7.051c-1.841,20.55-9.309,59.402-38.632,88.725
	c-21.472,21.471-55.248,26.803-70.879,11.19l-0.142-0.155c-0.122-0.134-0.244-0.268-0.369-0.4c-0.01-0.011-0.022-0.019-0.032-0.03
	c-14.949-15.86-9.509-49.093,11.712-70.315C318.829,54.176,357.682,46.707,378.23,44.866z M282.142,20.638
	c5.091-6.437,14.469-7.531,20.906-2.441c3.118,2.466,5.089,5.998,5.55,9.946s-0.643,7.84-3.109,10.958
	c-5.559,7.03-10.538,14.891-14.831,23.371c-4.023,3.167-7.961,6.622-11.759,10.42c-23.123,23.123-30.494,57.212-19.46,80.298
	c-6.176,0.318-12.332-0.199-18.322-1.533C242,98.02,255.788,53.962,282.142,20.638z M124.153,54.482
	c-0.234-2.617,0.7-5.187,2.564-7.051c1.864-1.865,4.433-2.801,7.051-2.564c20.55,1.841,59.402,9.308,88.725,38.632
	c3.6,3.6,6.83,7.679,9.635,12.144c-3.368,15.91-5.341,32.864-5.897,50.828c-1.678-0.813-3.333-1.683-4.953-2.638
	c-19.904-11.74-42.702-17.945-65.932-17.945c-2.264,0-4.514,0.059-6.75,0.174C131.534,101.129,125.864,73.573,124.153,54.482z"/>
<g>
</g>
<g>
</g>
<g>
</g>
<g>
</g>
<g>
</g>
<g>
</g>
<g>
</g>
<g>
</g>
<g>
</g>
<g>
</g>
<g>
</g>
<g>
</g>
<g>
</g>
<g>
</g>
<g>
</g>
</svg>
