<?xml version="1.0" encoding="iso-8859-1"?>
<!-- Generator: Adobe Illustrator 19.0.0, SVG Export Plug-In . SVG Version: 6.00 Build 0)  -->
<svg version="1.1" id="Capa_1" xmlns="http://www.w3.org/2000/svg" xmlns:xlink="http://www.w3.org/1999/xlink" x="0px" y="0px"
	 viewBox="0 0 512.002 512.002" style="enable-background:new 0 0 512.002 512.002;" xml:space="preserve">
<g>
	<path style="fill:#F5D7B7;" d="M226.495,219.232L212.891,63.731c-1.147-13.118-12.723-22.819-25.83-21.675
		c-13.118,1.148-22.822,12.713-21.674,25.831l4.155,47.488l-8.036-0.664c-9.699-0.801-18.765-4.531-26.22-10.786L104.72,78.278
		c-10.088-8.465-25.127-7.148-33.592,2.938c-8.464,10.088-7.148,25.127,2.939,33.591l30.566,25.648
		c15.054,12.632,33.364,20.163,52.948,21.781l16.178,1.336l5.233,59.815c1.086,12.412,11.495,21.767,23.725,21.767
		c0.695,0,1.399-0.031,2.105-0.092C217.939,243.915,227.643,232.35,226.495,219.232z"/>
	<path style="fill:#F5D7B7;" d="M440.873,81.216c-8.465-10.087-23.503-11.404-33.592-2.938l-30.566,25.647
		c-7.455,6.256-16.522,9.985-26.221,10.786l-8.035,0.664l4.155-47.488c1.148-13.118-8.556-24.683-21.674-25.831
		c-13.124-1.148-24.683,8.556-25.83,21.675l-13.604,155.501c-1.148,13.118,8.556,24.683,21.674,25.831
		c0.707,0.061,1.409,0.092,2.105,0.092c12.229,0,22.64-9.356,23.725-21.767l5.233-59.815l16.177-1.336
		c19.585-1.618,37.895-9.149,52.949-21.781l30.566-25.648C448.021,106.343,449.338,91.304,440.873,81.216z"/>
</g>
<path style="fill:#B38A82;" d="M7.5,181.474c-0.014-8.787,7.123-15.923,15.91-15.91c20.806,0.033,59.85,5.332,93.939,39.421
	c30.302,30.302,32.573,59.236,29.837,77.015c-1.846,11.992-11.258,21.404-23.25,23.25c-17.778,2.737-46.713,0.465-77.015-29.837
	C12.832,241.323,7.533,202.28,7.5,181.474z"/>
<path style="fill:#F2CAA7;" d="M10.062,206.975c4.038,20.353,13.933,45.512,36.859,68.437c25.763,25.763,50.534,31.26,68.304,30.648
	C102.807,214.497,39.686,207.036,10.062,206.975z"/>
<path style="fill:#B38A82;" d="M504.5,181.474c0.014-8.787-7.123-15.923-15.91-15.91c-20.806,0.033-59.85,5.332-93.939,39.421
	c-30.302,30.302-32.573,59.236-29.837,77.015c1.846,11.992,11.258,21.404,23.25,23.25c17.778,2.737,46.713,0.465,77.015-29.837
	C499.168,241.323,504.468,202.28,504.5,181.474z"/>
<g>
	<path style="fill:#F2CAA7;" d="M501.938,206.975c-4.038,20.353-13.933,45.512-36.859,68.437
		c-25.763,25.763-50.534,31.26-68.304,30.648C409.193,214.497,472.314,207.036,501.938,206.975z"/>
	<path style="fill:#F2CAA7;" d="M307.179,245.062c0.707,0.062,1.409,0.092,2.105,0.092c12.229,0,22.64-9.356,23.725-21.767
		l4.464-51.023c-14.575-4.81-30.298-8.218-46.978-10.176l-4.991,57.043C284.357,232.35,294.061,243.915,307.179,245.062z"/>
	<path style="fill:#F2CAA7;" d="M178.991,223.388c1.086,12.412,11.495,21.767,23.725,21.767c0.695,0,1.399-0.03,2.105-0.092
		c13.118-1.148,22.822-12.713,21.674-25.831l-4.99-57.043c-16.68,1.957-32.403,5.366-46.978,10.176L178.991,223.388z"/>
</g>
<path style="fill:#B38A82;" d="M426.791,318.849c0-94.325-76.466-139.212-170.791-139.212S85.209,224.524,85.209,318.849
	S161.675,470.036,256,470.036S426.791,413.175,426.791,318.849z"/>
<g>
	<ellipse style="fill:#F27281;" cx="159.91" cy="330.67" rx="34.24" ry="27.27"/>
	<ellipse style="fill:#F27281;" cx="352.09" cy="330.67" rx="34.24" ry="27.27"/>
</g>
<path style="fill:#464D59;" d="M256,345.158c13.883,0,29.702-8.826,31.495-23.319c1.741-14.077-14.101-21.657-31.495-21.657
	s-33.236,7.58-31.495,21.657C226.298,336.332,242.117,345.158,256,345.158z"/>
<path style="opacity:0.1;enable-background:new    ;" d="M185.547,189.275c-59.176,17.778-100.338,60.369-100.338,129.574
	c0,94.325,76.466,151.187,170.791,151.187c26.37,0,51.342-4.448,73.64-12.912C134.175,440.099,129.397,256.54,185.547,189.275z"/>
<path d="M339.632,303.463V291.37c0-4.142-3.357-7.5-7.5-7.5s-7.5,3.358-7.5,7.5v12.093c0,4.142,3.357,7.5,7.5,7.5
	C336.274,310.963,339.632,307.605,339.632,303.463z M268.017,359.859c-3.034,3.481-7.414,5.478-12.017,5.478
	s-8.982-1.997-12.017-5.478c-2.722-3.123-7.46-3.448-10.582-0.726c-3.123,2.721-3.447,7.459-0.727,10.581
	c5.884,6.751,14.386,10.623,23.325,10.623c8.94,0,17.441-3.872,23.325-10.623c2.721-3.122,2.397-7.86-0.727-10.581
	C275.476,356.411,270.739,356.737,268.017,359.859z M505.148,164.916c-4.419-4.419-10.289-6.852-16.533-6.852h-0.037
	c-21.551,0.034-63.099,5.486-99.23,41.618c-2.746,2.746-5.328,5.57-7.764,8.433c-0.114-0.085-0.223-0.174-0.338-0.259
	c-11.093-8.26-23.682-15.135-37.549-20.584l1.465-16.745l9.876-0.816c21.14-1.746,40.902-9.876,57.152-23.51l4.987-4.185
	c3.173-2.663,3.587-7.393,0.924-10.566c-2.662-3.173-7.393-3.587-10.566-0.924l-4.986,4.185
	c-13.86,11.629-30.716,18.563-48.745,20.052l-16.179,1.336c-3.642,0.301-6.536,3.182-6.854,6.821l-1.687,19.283
	c-10.173-3.085-20.921-5.478-32.184-7.153l9.682-110.665c0.784-8.976,8.728-15.645,17.705-14.856
	c4.349,0.38,8.289,2.432,11.095,5.776c2.807,3.344,4.143,7.581,3.762,11.929l-4.155,47.488c-0.192,2.202,0.596,4.377,2.155,5.944
	s3.739,2.366,5.934,2.184l8.037-0.664c11.254-0.93,21.773-5.257,30.424-12.515l30.566-25.648c6.902-5.793,17.232-4.888,23.024,2.014
	c5.792,6.903,4.889,17.232-2.015,23.025c-3.173,2.663-3.587,7.393-0.924,10.566c2.662,3.172,7.392,3.587,10.566,0.924
	c13.238-11.109,14.972-30.918,3.862-44.158c-11.11-13.239-30.92-14.97-44.157-3.863L371.895,98.18
	c-6.047,5.074-13.356,8.169-21.188,8.98l3.38-38.619c0.729-8.34-1.833-16.465-7.214-22.879c-5.382-6.414-12.939-10.347-21.28-11.077
	c-17.229-1.502-32.45,11.279-33.954,28.493l-9.642,110.209c-8.426-0.758-17.096-1.149-25.996-1.149s-17.57,0.391-25.996,1.149
	l-9.642-110.208c-1.504-17.215-16.732-30.001-33.955-28.494c-8.341,0.729-15.897,4.663-21.279,11.077
	c-5.381,6.414-7.942,14.539-7.213,22.879l3.379,38.619c-7.832-0.811-15.142-3.906-21.188-8.979L109.54,72.533
	c-13.238-11.109-33.047-9.377-44.158,3.863c-11.109,13.239-9.376,33.048,3.862,44.157l30.566,25.649
	c16.249,13.635,36.012,21.764,57.151,23.51l9.876,0.816l1.465,16.745c-13.866,5.448-26.456,12.324-37.549,20.584
	c-0.114,0.085-0.224,0.174-0.338,0.259c-2.436-2.863-5.018-5.687-7.764-8.433c-36.132-36.132-77.68-41.584-99.23-41.618h-0.037
	c-6.244,0-12.114,2.433-16.533,6.852C2.424,169.343-0.01,175.228,0,181.486c0.011,7.047,0.611,16.242,2.665,26.678
	c0.03,0.189,0.066,0.376,0.111,0.56c4.296,21.38,14.737,47.887,38.842,71.992c11.489,11.488,23.76,20.074,36.55,25.586
	c-0.302,4.112-0.458,8.294-0.458,12.547c0,41.338,14.211,77.947,41.098,105.868c2.873,2.984,7.621,3.073,10.604,0.2
	s3.073-7.621,0.2-10.604C105.47,389.242,92.71,356.231,92.71,318.85c0-5.599,0.283-11.035,0.832-16.314
	c0.026-0.165,0.041-0.33,0.055-0.495c1.67-15.531,5.72-29.661,12.129-42.332c0.42-0.585,0.751-1.222,0.986-1.894
	c6.71-12.646,15.81-23.81,27.295-33.423c0.026-0.022,0.052-0.044,0.078-0.066c1.817-1.518,3.692-2.998,5.627-4.439
	c11.167-8.315,24.064-15.101,38.423-20.302c0.468-0.12,0.916-0.282,1.342-0.484c13.506-4.768,28.289-8.14,44.14-10.063
	c0.079-0.004,0.157-0.002,0.236-0.008c0.273-0.024,0.541-0.064,0.805-0.116c10.042-1.175,20.504-1.776,31.343-1.776
	s21.301,0.602,31.343,1.776c0.263,0.052,0.531,0.092,0.805,0.116c0.087,0.007,0.173,0.007,0.259,0.011
	c15.842,1.923,30.617,5.294,44.117,10.06c0.426,0.202,0.874,0.364,1.342,0.484c14.358,5.201,27.255,11.987,38.423,20.302
	c1.935,1.441,3.81,2.921,5.627,4.439c0.026,0.022,0.052,0.044,0.078,0.066c11.485,9.614,20.585,20.778,27.295,33.423
	c0.236,0.672,0.566,1.309,0.986,1.894c6.409,12.671,10.459,26.801,12.129,42.332c0.014,0.165,0.029,0.33,0.055,0.495
	c0.549,5.279,0.832,10.714,0.832,16.314c0,42.774-16.374,79.161-47.352,105.227c-29.476,24.802-70.649,38.46-115.939,38.46
	c-37.913,0-72.689-9.4-100.567-27.185c-3.49-2.228-8.128-1.204-10.356,2.289c-2.228,3.492-1.202,8.129,2.29,10.357
	c30.292,19.325,67.857,29.539,108.634,29.539c48.816,0,93.421-14.91,125.596-41.983c34.474-29.007,52.695-69.362,52.695-116.704
	c0-4.254-0.156-8.436-0.458-12.547c12.79-5.512,25.061-14.098,36.55-25.586c24.105-24.105,34.546-50.611,38.842-71.991
	c0.044-0.185,0.081-0.372,0.111-0.562c2.053-10.436,2.653-19.63,2.664-26.677C512.01,175.228,509.576,169.343,505.148,164.916z
	 M80.106,290.666c-9.625-4.767-18.972-11.648-27.881-20.557c-18.267-18.267-27.764-38.057-32.577-55.288
	c32.529,2.269,56.54,15.966,71.509,40.813C85.996,266.465,82.303,278.179,80.106,290.666z M99.437,240.912
	c-18.459-25.948-46.317-39.808-83.039-41.291c-1.051-6.987-1.39-13.175-1.398-18.158c-0.004-2.242,0.869-4.352,2.458-5.94
	c1.586-1.585,3.69-2.458,5.927-2.458h0.014c19.235,0.03,56.33,4.906,88.646,37.224c2.436,2.436,4.723,4.933,6.877,7.46
	C111.428,224.772,104.927,232.515,99.437,240.912z M182.917,182.202l-1.687-19.283c-0.318-3.639-3.213-6.52-6.854-6.821
	l-16.179-1.336c-18.029-1.489-34.885-8.422-48.744-20.051l-30.565-25.648c-6.903-5.793-7.807-16.122-2.015-23.025
	c5.794-6.904,16.123-7.807,23.025-2.015l30.565,25.648c8.65,7.258,19.17,11.585,30.424,12.515l8.037,0.664
	c2.194,0.182,4.374-0.617,5.934-2.184c1.56-1.567,2.348-3.742,2.155-5.944l-4.154-47.489c-0.381-4.348,0.955-8.585,3.761-11.929
	s6.746-5.395,11.094-5.775c8.974-0.788,16.922,5.88,17.706,14.857l9.682,110.664C203.838,176.724,193.089,179.117,182.917,182.202z
	 M459.775,270.109c-8.909,8.909-18.256,15.789-27.881,20.557c-2.197-12.487-5.89-24.201-11.051-35.031
	c14.969-24.848,38.98-38.544,71.509-40.813C487.539,232.052,478.043,251.843,459.775,270.109z M495.602,199.621
	c-36.722,1.483-64.58,15.343-83.039,41.291c-5.49-8.396-11.991-16.139-19.484-23.163c2.154-2.527,4.441-5.024,6.877-7.46
	c32.316-32.318,69.411-37.194,88.646-37.224h0.014c2.236,0,4.341,0.872,5.927,2.458c1.589,1.589,2.462,3.698,2.458,5.94
	C496.992,186.445,496.653,192.634,495.602,199.621z M294.938,322.759c0.831-6.721-1.092-12.946-5.56-18.002
	c-6.783-7.674-18.949-12.076-33.377-12.076s-26.594,4.401-33.377,12.076c-4.469,5.056-6.392,11.281-5.561,18.001
	c2.314,18.715,21.615,29.899,38.938,29.899S292.623,341.474,294.938,322.759z M280.051,320.918c-1,8.084-10.902,16.74-24.051,16.74
	s-23.051-8.656-24.051-16.74c-0.301-2.431,0.307-4.409,1.913-6.226c3.764-4.259,12.453-7.01,22.138-7.01s18.374,2.751,22.138,7.01
	C279.744,316.508,280.352,318.487,280.051,320.918z M187.368,303.463V291.37c0-4.142-3.357-7.5-7.5-7.5s-7.5,3.358-7.5,7.5v12.093
	c0,4.142,3.357,7.5,7.5,7.5C184.011,310.963,187.368,307.605,187.368,303.463z"/>
<g>
</g>
<g>
</g>
<g>
</g>
<g>
</g>
<g>
</g>
<g>
</g>
<g>
</g>
<g>
</g>
<g>
</g>
<g>
</g>
<g>
</g>
<g>
</g>
<g>
</g>
<g>
</g>
<g>
</g>
</svg>
