<?xml version="1.0" encoding="iso-8859-1"?>
<!-- Generator: Adobe Illustrator 19.0.0, SVG Export Plug-In . SVG Version: 6.00 Build 0)  -->
<svg version="1.1" id="Capa_1" xmlns="http://www.w3.org/2000/svg" xmlns:xlink="http://www.w3.org/1999/xlink" x="0px" y="0px"
	 viewBox="0 0 512 512" style="enable-background:new 0 0 512 512;" xml:space="preserve">
<path style="fill:#F7D88B;" d="M135.271,276.784c19.847-19.848,18.671-53.202-15.479-87.352
	c-31.518-31.518-73.523-38.843-96.239-40.378c-9.088-0.614-16.628,6.924-16.014,16.011c1.534,22.715,8.858,64.722,40.378,96.242
	c6.68,6.68,13.328,12.087,19.851,16.327c3.049,1.982,3.049,6.406,0,8.388c-6.523,4.24-13.171,9.647-19.851,16.327
	C16.396,333.87,9.073,375.88,7.539,398.594c-0.614,9.086,6.925,16.622,16.011,16.008c22.715-1.534,64.722-8.858,96.242-40.378
	c34.15-34.15,35.326-67.504,15.479-87.352C132.481,284.082,132.481,279.574,135.271,276.784z"/>
<path style="fill:#EAC268;" d="M136.782,271.575l-67.553-69.958c-2.877-2.979-7.625-3.063-10.605-0.185
	c-2.98,2.877-3.063,7.625-0.185,10.605l67.391,69.79l-67.391,69.79c-2.878,2.98-2.795,7.728,0.185,10.605
	c1.456,1.406,3.333,2.105,5.209,2.105c1.963,0,3.925-0.767,5.396-2.29l67.553-69.957c2.764-2.863,2.788-7.353,0.145-10.252
	C139.57,278.928,139.546,274.438,136.782,271.575z"/>
<path style="fill:#F4CF7A;" d="M135.27,286.87c-0.665-0.665-1.089-1.897-1.281-3.289h-27.281
	c10.841,50.956-17.8,97.932-51.111,87.444c-20.69-6.514-22.573-39.188-11.026-65.183c-28.688,31.065-35.553,70.853-37.032,92.74
	c-0.616,9.107,6.911,16.634,16.018,16.018c22.716-1.535,64.718-8.861,96.234-40.377C153.942,340.073,155.117,306.718,135.27,286.87z
	"/>
<path style="fill:#F7D88B;" d="M422.156,168.052c-11.444-39.705-46.285-66.375-104.268-72.333
	c-86.126-8.85-178.463,10.938-108.062,78.882L422.156,168.052z"/>
<path style="fill:#EAC268;" d="M248.792,120.775c-3.671-1.643-7.977,0.001-9.619,3.671c-1.642,3.67,0.001,7.977,3.671,9.619
	c15.255,6.828,25.514,17.741,30.49,32.435c1.028,3.034,3.859,4.947,6.894,4.947c0.774,0,1.562-0.125,2.337-0.387
	c3.808-1.29,5.85-5.422,4.56-9.231C280.795,143.14,267.898,129.327,248.792,120.775z M359.737,165.138
	c-1.717-12.796-16.733-37.535-31.163-47.095c-3.353-2.219-7.87-1.304-10.09,2.049c-2.221,3.352-1.304,7.869,2.047,10.09
	c10.298,6.822,23.556,27.813,24.774,36.892c0.491,3.657,3.616,6.313,7.206,6.313c0.322,0,0.649-0.021,0.977-0.065
	C357.474,172.787,360.272,169.123,359.737,165.138z"/>
<path style="fill:#F4CF7A;" d="M234.048,97.479c-46.428,8.576-70.528,32.432-24.223,77.122l56.163-1.732
	C236.351,156.293,222.95,111.748,234.048,97.479z"/>
<path style="fill:#F49E73;" d="M504.503,281.828c0,87.197-77.723,136.421-168.862,136.421
	c-116.074,0-194.734-58.198-227.278-120.837c-5.066-9.75-5.066-21.417,0-31.167c32.544-62.639,111.204-120.837,227.278-120.837
	C426.781,145.407,504.503,194.631,504.503,281.828z"/>
<g>
	<path style="fill:#EA8962;" d="M290.294,232.572c4.143,0,7.5-3.358,7.5-7.5s-3.357-7.5-7.5-7.5c-5.925,0-10.744-4.82-10.744-10.744
		s4.819-10.744,10.744-10.744c4.143,0,7.5-3.358,7.5-7.5s-3.357-7.5-7.5-7.5c-14.195,0-25.744,11.549-25.744,25.744
		c0,7.123,2.909,13.579,7.6,18.244c-4.691,4.666-7.6,11.121-7.6,18.244c0,14.195,11.549,25.744,25.744,25.744
		c4.143,0,7.5-3.358,7.5-7.5s-3.357-7.5-7.5-7.5c-5.925,0-10.744-4.82-10.744-10.744S284.369,232.572,290.294,232.572z"/>
	<path style="fill:#EA8962;" d="M225.529,269.06c4.142,0,7.5-3.358,7.5-7.5s-3.358-7.5-7.5-7.5c-5.924,0-10.744-4.82-10.744-10.744
		s4.82-10.744,10.744-10.744c4.142,0,7.5-3.358,7.5-7.5s-3.358-7.5-7.5-7.5c-14.195,0-25.744,11.549-25.744,25.744
		c0,7.123,2.909,13.579,7.6,18.244c-4.691,4.666-7.6,11.121-7.6,18.244c0,14.196,11.549,25.745,25.744,25.745
		c4.142,0,7.5-3.358,7.5-7.5s-3.358-7.5-7.5-7.5c-5.924,0-10.744-4.82-10.744-10.745C214.785,273.88,219.604,269.06,225.529,269.06z
		"/>
	<path style="fill:#EA8962;" d="M344.045,378.525c-14.195,0-25.744-11.549-25.744-25.744c0-14.195,11.549-25.744,25.744-25.744
		c4.143,0,7.5,3.358,7.5,7.5s-3.357,7.5-7.5,7.5c-5.925,0-10.744,4.82-10.744,10.744c0,5.924,4.819,10.744,10.744,10.744
		c4.143,0,7.5,3.358,7.5,7.5C351.545,375.168,348.188,378.525,344.045,378.525z"/>
</g>
<path style="fill:#EF9067;" d="M215.681,169.549c-51.275,22.754-87.689,58.913-107.318,96.695c-5.066,9.75-5.066,21.417,0,31.167
	c32.543,62.639,111.204,120.837,227.278,120.837c27.712,0,54.178-4.559,77.602-13.345
	C153.724,393.246,152.138,248.675,215.681,169.549z"/>
<path style="fill:#F7D88B;" d="M215.674,355.607c17.929,17.929,41.983,23.328,60.674,4.637
	c37.01-37.009,39.511-79.103,26.652-91.962c-12.859-12.859-54.953-10.358-91.963,26.652
	C192.346,313.624,197.745,337.678,215.674,355.607z"/>
<path style="fill:#EAC268;" d="M249.158,303.113c-2.842-2.843-7.452-2.843-10.296,0l-36.358,36.357
	c1.828,4.465,4.412,8.819,7.641,12.95l39.012-39.012C252.001,310.566,252.001,305.956,249.158,303.113z M271.227,325.181
	c-2.843-2.843-7.452-2.843-10.297,0l-39.012,39.012c4.131,3.229,8.485,5.814,12.95,7.641l36.359-36.358
	C274.07,332.634,274.07,328.024,271.227,325.181z"/>
<g>
	<ellipse style="fill:#F27281;" cx="353.5" cy="278.702" rx="21.367" ry="17.02"/>
	<ellipse style="fill:#F27281;" cx="469.31" cy="278.702" rx="21.367" ry="17.02"/>
</g>
<path d="M348.275,260.188c0,4.142,3.357,7.5,7.5,7.5s7.5-3.358,7.5-7.5c0-1.472,1.198-2.67,2.671-2.67s2.67,1.198,2.67,2.67
	c0,4.142,3.357,7.5,7.5,7.5s7.5-3.358,7.5-7.5c0-9.743-7.927-17.67-17.67-17.67C356.201,242.518,348.275,250.444,348.275,260.188z
	 M439.186,260.188c0,4.142,3.357,7.5,7.5,7.5s7.5-3.358,7.5-7.5c0-1.472,1.197-2.67,2.67-2.67c1.473,0,2.67,1.198,2.67,2.67
	c0,4.142,3.357,7.5,7.5,7.5c4.142,0,7.5-3.358,7.5-7.5c0-9.743-7.927-17.67-17.67-17.67S439.186,250.444,439.186,260.188z
	 M264.477,258.635c-20.35,4.426-41.214,16.519-58.747,34.052c-10.481,10.481-15.17,23.21-13.559,36.809
	c1.431,12.079,7.723,24,18.196,34.472c10.473,10.473,22.393,16.765,34.472,18.196c1.748,0.207,3.481,0.31,5.197,0.31
	c11.636,0,22.478-4.735,31.612-13.869c17.533-17.533,29.626-38.397,34.052-58.747c4.073-18.732,1.307-35.114-7.4-43.822
	C299.59,257.328,283.207,254.563,264.477,258.635z M301.042,306.67c-3.822,17.575-14.477,35.803-30.002,51.328
	c-7.216,7.217-15.442,10.34-24.437,9.27c-8.576-1.016-17.679-5.955-25.63-13.906c-13.223-13.223-21.385-33.319-4.637-50.068
	c15.525-15.524,33.753-26.179,51.328-30.001c4.804-1.045,9.175-1.496,13.034-1.496c8.304,0,14.236,2.088,16.993,4.845
	C301.732,280.682,304.333,291.533,301.042,306.67z M416.535,267.147c-1.297,1.489-3.168,2.342-5.134,2.342s-3.837-0.853-5.134-2.342
	c-2.721-3.123-7.459-3.448-10.581-0.727c-3.123,2.721-3.449,7.458-0.728,10.582c4.147,4.759,10.14,7.488,16.442,7.488
	c6.303,0,12.296-2.729,16.442-7.488c2.722-3.123,2.396-7.86-0.728-10.582C423.993,263.698,419.255,264.023,416.535,267.147z
	 M490.467,208.185c-2.297-3.447-6.955-4.376-10.4-2.081c-3.446,2.298-4.378,6.954-2.08,10.401
	C490.603,235.43,497,257.408,497,281.827c0,38.816-16.344,71.639-47.265,94.917c-29.125,21.928-69.646,34.003-114.098,34.003
	c-117.926,0-191.288-60.333-220.623-116.795c-3.945-7.593-3.945-16.659,0-24.252c16.986-32.694,48.736-66.685,95.352-89.51
	c0.721-0.218,1.415-0.549,2.057-0.988c33.516-16.025,74.57-26.297,123.214-26.297c29.584,0,57.256,5.298,81.049,15.258
	c0.268,0.13,0.541,0.25,0.823,0.348c13.292,5.646,25.361,12.75,35.844,21.219c3.221,2.602,7.944,2.101,10.547-1.121
	s2.102-7.944-1.121-10.547c-10.915-8.817-23.351-16.283-36.974-22.299c-7.486-18.412-19.99-33.497-37.228-44.859
	c-18.44-12.155-41.967-19.775-69.927-22.649c-54.382-5.586-123.238-0.785-138.324,31.14c-6.932,14.67-1.718,31.939,15.472,51.417
	c-19.987,10.675-37.245,23.314-51.779,36.952c-4.878-8.001-11.211-15.92-18.929-23.638c-33.339-33.339-77.61-40.974-101.032-42.557
	c-6.504-0.445-12.867,1.946-17.464,6.543s-6.982,10.962-6.543,17.464c0.006,0.088,0.013,0.175,0.023,0.262
	c1.623,23.493,9.324,67.555,42.539,100.77c5.862,5.862,11.891,10.968,17.963,15.217c-6.073,4.249-12.102,9.355-17.963,15.217
	C9.4,330.258,1.698,374.312,0.075,397.807c-0.009,0.089-0.017,0.179-0.023,0.27c-0.439,6.501,1.946,12.867,6.543,17.464
	c4.237,4.237,9.975,6.595,15.938,6.595c0.507,0,1.017-0.017,1.526-0.052c11.334-0.766,22.587-2.566,33.446-5.35
	c4.012-1.029,6.431-5.115,5.402-9.128c-1.029-4.012-5.112-6.431-9.128-5.402c-9.972,2.557-20.312,4.211-30.732,4.915
	c-2.215,0.146-4.288-0.626-5.847-2.184c-1.512-1.512-2.287-3.513-2.194-5.652c0.006-0.061,0.011-0.122,0.015-0.184
	c1.439-21.326,8.316-61.564,38.199-91.447c6.121-6.122,12.39-11.283,18.634-15.341c3.569-2.319,5.7-6.238,5.7-10.482
	s-2.131-8.163-5.699-10.482c-6.244-4.058-12.514-9.22-18.635-15.341c-29.88-29.88-36.758-70.118-38.198-91.444
	c-0.004-0.061-0.009-0.121-0.014-0.181c-0.095-2.142,0.681-4.145,2.194-5.659c1.558-1.558,3.633-2.332,5.846-2.184
	c21.325,1.441,61.56,8.321,91.437,38.198c7.933,7.933,14.161,15.998,18.583,24.036c-13.236,14.251-23.695,29.256-31.363,44.015
	c-6.195,11.924-6.195,26.161,0,38.083c7.668,14.76,18.127,29.764,31.363,44.015c-4.422,8.038-10.65,16.103-18.583,24.036
	c-8.356,8.355-18.147,15.512-29.102,21.271c-3.667,1.927-5.076,6.462-3.149,10.128c1.342,2.553,3.948,4.012,6.645,4.012
	c1.176,0,2.37-0.277,3.483-0.863c12.293-6.462,23.305-14.517,32.729-23.942c7.718-7.718,14.051-15.636,18.929-23.638
	c41.564,39.002,105.415,69.859,191.618,69.859c47.685,0,91.41-13.147,123.119-37.02C493.589,362.504,512,325.538,512,281.827
	C511.999,254.395,504.755,229.618,490.467,208.185z M193.888,125.806c9.214-19.501,61.04-29.017,123.229-22.626
	c41.645,4.279,71.603,19.658,87.814,44.796c-21.278-6.603-44.703-10.068-69.293-10.068c-49.246,0-91.193,10.076-125.864,25.982
	C198.754,152.175,188.506,137.195,193.888,125.806z"/>
<g>
</g>
<g>
</g>
<g>
</g>
<g>
</g>
<g>
</g>
<g>
</g>
<g>
</g>
<g>
</g>
<g>
</g>
<g>
</g>
<g>
</g>
<g>
</g>
<g>
</g>
<g>
</g>
<g>
</g>
</svg>
